<svg width="1000" height="1000" viewBox="0 0 1000 1000" fill="none">
  <style>
  :root {
    --trdur: 777ms;
  }

  @keyframes op1 {
    to {
      opacity: 1;
    }
  }

  @keyframes blink {
    92% {
      opacity: 1;
    }
    94% {
      opacity: 0;
    }
    96% {
      opacity: 1;
    }
    98% {
      opacity: 0;
    }
    100% {
      opacity: 1;
    }
  }

  .blink {
    animation: blink calc(var(--trdur) * 22) calc(var(--trdur) * -33)  infinite forwards;
  }

  @media (prefers-reduced-motion: no-preference) {
    .active .op1 {
      opacity: 0;
      animation: op1 var(--trdur) forwards;
      animation-delay: calc(var(--trdur) * var(--trdel));
    }
  }
  </style>
  <g class="tveye">
    <g>
      <rect width="1000" height="1000" fill="#F3F5F7"/>
      <g class="op1" style="--trdel: 1">
        <path d="M220 815C220 676.929 331.929 565 470 565V565C608.071 565 720 676.929 720 815V815H220V815Z" fill="#043B71"/>
        <circle cx="469" cy="465" r="100" fill="#043B71"/>
      </g>
      <g class="op1" style="--trdel: 2">
        <path d="M780 262.895C780 290.238 759.65 309.632 745.96 354.032C705.593 354.032 720.893 354.032 706 354.032C691.107 354.032 706.407 354.032 666.04 354.032C654.94 309.632 632 290.238 632 262.895C632 219.875 665.131 185 706 185C746.869 185 780 219.875 780 262.895Z" fill="#043B71"/>
        <rect x="666.04" y="361.821" width="79.92" height="15.5789" fill="#043B71"/>
        <path d="M666.04 383.631H745.96V397C745.96 402.523 741.483 407 735.96 407H676.04C670.517 407 666.04 402.523 666.04 397V383.631Z" fill="#043B71"/>
      </g>
    </g>
    <g class="op1" style="--trdel: 4">
      <rect width="1000" height="1000" fill="#F3F5F7"/>
      <path d="M200 480C188.954 480 180 488.954 180 500C180 511.046 188.954 520 200 520V480ZM814.142 514.142C821.953 506.332 821.953 493.668 814.142 485.858L686.863 358.579C679.052 350.768 666.389 350.768 658.579 358.579C650.768 366.389 650.768 379.052 658.579 386.863L771.716 500L658.579 613.137C650.768 620.948 650.768 633.611 658.579 641.421C666.389 649.232 679.052 649.232 686.863 641.421L814.142 514.142ZM200 520L800 520V480L200 480V520Z" fill="#043B71"/>
    </g>
    <g class="op1" style="--trdel: 6">
      <rect width="1000" height="1000" rx="20" fill="#F3F5F7" />
      <g class="op1" style="--trdel: 7">
        <rect x="559.902" y="530.678" width="199.831" height="13.322" fill="#E0E6EB" />
        <rect x="606.529" y="450.746" width="106.576" height="79.9322" fill="#E0E6EB" />
        <rect x="444" y="151" width="432.966" height="299.746" rx="2" fill="white" stroke="#E0E6EB" stroke-width="15" />
        <path
          d="M566.233 284.371C566.689 284.143 567.065 284.029 567.361 284.029C567.817 284.029 568.25 284.234 568.66 284.644C569.07 285.055 569.514 285.738 569.993 286.695C570.585 287.88 570.881 288.826 570.881 289.532C570.881 290.307 570.471 290.911 569.651 291.344L549.656 301.324L569.651 311.305C570.471 311.738 570.881 312.341 570.881 313.116C570.881 313.822 570.585 314.768 569.993 315.953C569.514 316.91 569.07 317.594 568.66 318.004C568.25 318.414 567.817 318.619 567.361 318.619C567.065 318.619 566.689 318.505 566.233 318.277L539.573 304.537C539.003 304.241 538.593 303.865 538.342 303.409C538.114 302.953 538.001 302.258 538.001 301.324C538.001 300.39 538.114 299.695 538.342 299.239C538.593 298.783 539.003 298.407 539.573 298.111L566.233 284.371ZM608.513 288.917C609.926 288.917 610.894 289.076 611.419 289.395C611.943 289.714 612.205 290.273 612.205 291.07V302.042C612.205 302.817 611.851 303.375 611.145 303.717C610.461 304.036 609.311 304.195 607.693 304.195C606.622 304.195 605.79 304.127 605.198 303.99C604.628 303.831 604.229 303.603 604.002 303.307C603.774 303.01 603.66 302.589 603.66 302.042C603.66 301.085 603.42 300.196 602.942 299.376C602.486 298.556 601.791 297.906 600.857 297.428C599.946 296.926 598.84 296.676 597.542 296.676C595.901 296.676 594.465 297.04 593.235 297.769C592.004 298.476 591.047 299.501 590.364 300.846C589.703 302.167 589.373 303.705 589.373 305.46C589.373 307.214 589.703 308.764 590.364 310.108C591.047 311.43 592.004 312.455 593.235 313.184C594.465 313.891 595.901 314.244 597.542 314.244C599.296 314.244 601.085 313.959 602.908 313.39C604.753 312.82 606.542 312.034 608.274 311.031C608.684 310.803 609.06 310.689 609.402 310.689C610.427 310.689 611.327 311.589 612.102 313.39C612.512 314.369 612.717 315.201 612.717 315.885C612.717 316.91 612.227 317.696 611.248 318.243C609.128 319.428 606.895 320.351 604.548 321.012C602.224 321.672 599.889 322.003 597.542 322.003C594.078 322.003 591.036 321.296 588.416 319.884C585.795 318.471 583.767 316.511 582.332 314.005C580.919 311.498 580.212 308.65 580.212 305.46C580.212 302.27 580.93 299.421 582.366 296.915C583.801 294.386 585.75 292.426 588.21 291.036C590.694 289.623 593.463 288.917 596.516 288.917C600.208 288.917 602.817 290.25 604.343 292.916V291.07C604.343 290.295 604.674 289.749 605.335 289.43C605.995 289.088 607.055 288.917 608.513 288.917ZM638.831 288.917C642.294 288.917 645.325 289.623 647.922 291.036C650.52 292.449 652.514 294.408 653.904 296.915C655.317 299.421 656.023 302.27 656.023 305.46C656.023 308.65 655.317 311.498 653.904 314.005C652.514 316.511 650.52 318.471 647.922 319.884C645.325 321.296 642.294 322.003 638.831 322.003C635.367 322.003 632.336 321.296 629.739 319.884C627.141 318.471 625.136 316.511 623.723 314.005C622.333 311.498 621.638 308.65 621.638 305.46C621.638 302.27 622.333 299.421 623.723 296.915C625.136 294.408 627.141 292.449 629.739 291.036C632.336 289.623 635.367 288.917 638.831 288.917ZM638.831 296.676C637.19 296.676 635.766 297.04 634.558 297.769C633.35 298.476 632.416 299.49 631.755 300.811C631.117 302.133 630.798 303.682 630.798 305.46C630.798 307.237 631.117 308.787 631.755 310.108C632.416 311.43 633.35 312.455 634.558 313.184C635.766 313.891 637.19 314.244 638.831 314.244C640.471 314.244 641.895 313.891 643.103 313.184C644.311 312.455 645.234 311.43 645.872 310.108C646.532 308.787 646.863 307.237 646.863 305.46C646.863 303.682 646.532 302.133 645.872 300.811C645.234 299.49 644.311 298.476 643.103 297.769C641.895 297.04 640.471 296.676 638.831 296.676ZM693.245 276.407C694.019 276.407 694.566 276.578 694.885 276.92C695.227 277.239 695.398 277.786 695.398 278.56V314.244H698.372C698.919 314.244 699.34 314.335 699.636 314.517C699.933 314.7 700.149 315.042 700.286 315.543C700.445 316.044 700.525 316.773 700.525 317.73C700.525 318.687 700.445 319.417 700.286 319.918C700.149 320.419 699.933 320.772 699.636 320.977C699.34 321.16 698.919 321.251 698.372 321.251H690.374C689.599 321.251 689.041 321.091 688.699 320.772C688.38 320.431 688.22 319.872 688.22 319.098V316.226C687.035 318.049 685.554 319.474 683.777 320.499C682 321.502 680.029 322.003 677.864 322.003C674.879 322.003 672.27 321.274 670.037 319.815C667.804 318.357 666.095 316.375 664.91 313.868C663.725 311.362 663.132 308.559 663.132 305.46C663.132 302.361 663.725 299.558 664.91 297.052C666.095 294.545 667.804 292.563 670.037 291.104C672.27 289.646 674.879 288.917 677.864 288.917C679.641 288.917 681.293 289.27 682.82 289.976C684.347 290.66 685.691 291.651 686.853 292.95V283.414H681.829C681.282 283.414 680.86 283.323 680.564 283.141C680.268 282.958 680.04 282.616 679.88 282.115C679.744 281.614 679.675 280.885 679.675 279.928C679.675 278.971 679.744 278.241 679.88 277.74C680.04 277.239 680.268 276.897 680.564 276.715C680.86 276.51 681.282 276.407 681.829 276.407H693.245ZM679.231 296.676C677.818 296.676 676.588 297.04 675.54 297.769C674.491 298.476 673.683 299.49 673.113 300.811C672.566 302.133 672.293 303.682 672.293 305.46C672.293 307.237 672.566 308.787 673.113 310.108C673.683 311.43 674.491 312.455 675.54 313.184C676.588 313.891 677.818 314.244 679.231 314.244C680.689 314.244 682.011 313.902 683.196 313.219C684.381 312.535 685.326 311.532 686.033 310.211C686.739 308.866 687.092 307.283 687.092 305.46C687.092 303.637 686.739 302.065 686.033 300.743C685.326 299.399 684.381 298.385 683.196 297.701C682.011 297.017 680.689 296.676 679.231 296.676ZM723.254 288.917C726.718 288.917 729.669 289.669 732.107 291.173C734.545 292.654 736.379 294.727 737.61 297.393C738.863 300.037 739.49 303.067 739.49 306.485C739.49 307.26 739.319 307.807 738.977 308.126C738.658 308.445 738.111 308.604 737.336 308.604H715.393C715.826 310.427 716.749 311.829 718.162 312.808C719.597 313.766 721.409 314.244 723.596 314.244C727.128 314.244 730.956 313.617 735.081 312.364C735.354 312.273 735.627 312.227 735.901 312.227C736.402 312.227 736.835 312.455 737.2 312.911C737.564 313.367 737.895 314.141 738.191 315.235C738.419 316.078 738.533 316.796 738.533 317.389C738.533 317.981 738.396 318.448 738.123 318.79C737.872 319.109 737.45 319.371 736.858 319.576C734.579 320.328 732.255 320.92 729.885 321.353C727.516 321.786 725.191 322.003 722.913 322.003C719.449 322.003 716.464 321.296 713.958 319.884C711.451 318.471 709.537 316.523 708.215 314.039C706.917 311.532 706.267 308.673 706.267 305.46C706.267 302.27 706.951 299.421 708.318 296.915C709.685 294.408 711.656 292.449 714.231 291.036C716.806 289.623 719.814 288.917 723.254 288.917ZM723.254 296.676C719.085 296.676 716.51 298.43 715.53 301.939H730.569C730.182 300.276 729.35 298.988 728.074 298.077C726.821 297.143 725.214 296.676 723.254 296.676ZM780.061 298.111C780.631 298.407 781.03 298.783 781.257 299.239C781.508 299.695 781.633 300.39 781.633 301.324C781.633 302.258 781.508 302.953 781.257 303.409C781.03 303.865 780.631 304.241 780.061 304.537L753.401 318.277C752.945 318.505 752.569 318.619 752.273 318.619C751.817 318.619 751.384 318.414 750.974 318.004C750.564 317.594 750.12 316.91 749.641 315.953C749.049 314.768 748.752 313.822 748.752 313.116C748.752 312.341 749.163 311.738 749.983 311.305L769.978 301.324L749.983 291.344C749.163 290.911 748.752 290.307 748.752 289.532C748.752 288.826 749.049 287.88 749.641 286.695C750.12 285.738 750.564 285.055 750.974 284.644C751.384 284.234 751.817 284.029 752.273 284.029C752.569 284.029 752.945 284.143 753.401 284.371L780.061 298.111Z"
          fill="#043B71" />
      </g>
      <g class="op1" style="--trdel: 6" clip-path="url(#clip0_1191_33)">
        <mask id="mask0_1191_33" style="mask-type:luminance" maskUnits="userSpaceOnUse" x="123" y="348" width="500"
          height="500">
          <path d="M623 348H123V848H623V348Z" fill="white" />
        </mask>
        <g mask="url(#mask0_1191_33)">
          <path
            d="M168.2 836.301C171.9 812.9 179.7 783.801 184.3 776C188.4 769.1 198.2 758.199 203.8 754.199C210.9 749.301 217.8 745.801 235 738.6C242.4 735.4 250.8 731.9 253.5 730.801C256.3 729.6 261.7 727.199 265.5 725.4C269.4 723.6 276.6 720.6 281.5 718.699C293.2 714.199 292.6 714.5 299 710.9C302 709.199 305.7 707.1 307.3 706.301C310.7 704.5 310.7 703 308 677.9C305.4 654.1 305.6 655.301 300 641.5C295.4 630.4 290.2 611.1 289.6 602.801C289.3 599.199 288.4 596.1 287.1 594.301C284 590.199 278 571.4 278 566.1C278 563.5 278.7 557.699 279.5 553C280.4 548.301 281 539.3 281 533C280.9 526.7 281.4 519.9 281.9 518C283.4 513.1 283.3 506.9 281.6 502.8C280.2 499.6 279.9 493.5 279.9 471C279.8 459.1 280.8 452.4 283.1 447.6C286.1 441.4 288.5 439.7 290.6 442.4C291.7 444 292 444.1 292 442.8C292 441.9 291.4 441 290.7 440.7C289.9 440.4 290.2 439.5 291.7 437.8C293.9 435.5 293.9 435.4 292 434C290.7 433.1 290.4 432.2 291 431.5C291.6 430.8 291.8 430.1 291.5 429.8C291.2 429.6 292.5 427.9 294.4 426.1C296.8 423.8 299 422.7 302.1 422.3C305.4 421.9 307.5 420.8 310.5 418C312.7 415.9 315.6 414 316.9 413.8C320.301 413.4 322 410.3 319.801 408.6C317 406.5 318.1 402.4 321.5 402.1C323.6 401.9 326 400.8 325.801 400.2C325.6 399 327.199 395.6 329.1 393.5C330.1 392.4 330.801 391.1 330.699 390.5C330.6 390 332.4 389.4 334.801 389.2C337.9 389 339.801 389.5 342 391C346.1 393.9 348.6 393.3 348.199 389.5C348 387.9 347.301 386.2 346.699 385.8C345.9 385.3 346.301 384.8 347.801 384.4C349 384 350 383.1 350 382.4C350 380.9 351.6 380.5 352.301 381.8C352.6 382.2 357.5 382.2 363.199 381.9C372.199 381.4 373.699 381.5 374.801 383C376 384.6 376.301 384.5 379.199 381.8C381.4 379.7 383 379 384.4 379.5C385.6 379.8 392.199 380.3 399.301 380.7C406.301 381 412 381.6 412 382C412 383 409.4 384 407.1 384C406.199 384 404.301 385.5 403 387.3C401.1 389.9 401 390.2 402.699 388.7C403.801 387.8 406 387 407.699 387C409.4 387 411.5 386.2 412.5 385C413.699 383.7 415.5 383 417.9 383C421.301 383.1 431.301 386 432.699 387.4C433 387.7 434.6 388 436.199 388C437.9 388 439 388.5 439 389.4C439 390.2 439.6 390.7 440.301 390.6C440.9 390.6 444.301 391.1 447.801 391.8C452.6 392.8 454.301 393.6 454.9 395.2C455.301 396.3 457.6 398.2 460 399.4C463.4 401 465 402.7 466.9 406.4C468.699 409.8 470.801 412.1 474.199 414.2C479.4 417.4 479.4 417.4 478.1 419.8C477.699 420.7 477 422.7 476.6 424.2L476 427H482.4C489.4 427 489.5 427.1 487.5 433.8C487.1 435 487.199 436 487.699 436C488.199 436 488.4 437.5 488.199 439.4C488 441.3 488.301 443.1 489 443.5C489.801 444 489.801 444.5 488.9 445.6C487.4 447.4 489.301 452.9 492.301 455.2C494.4 456.8 494.4 456.9 492.699 458.8C490.801 460.8 491.301 464 493.5 464C494.699 464 500 470.8 500 472.3C500 472.7 499.1 472.1 498 471C495.199 468.2 492.699 468.3 493.6 471.2C493.9 472.4 494.4 477 494.5 481.4C494.801 488.2 494.5 489.8 492.9 491.6C491.1 493.5 491.1 493.9 492.4 497.1C493.801 500.4 493.699 501 491.6 505.6C490.301 508.3 488.5 512.8 487.5 515.5C486.6 518.3 485.199 522.3 484.301 524.5C482.9 528.3 483 534.2 484.6 538.3C485.1 539.6 484.699 540 483 540C481.4 540 480.9 540.5 481.1 542.3C481.199 543.5 481 546.699 480.5 549.301C480.1 551.9 479.801 557.6 480 561.801C480.1 566 480.199 571.199 480.199 573.301C480.199 575.6 478.699 580 476.199 585.301C464.4 609.699 461.9 615.4 461 620C460.5 622.699 459.199 626.9 458.1 629.199C457.1 631.6 455.9 634.6 455.5 636C454.1 640.5 443.199 662.801 442 663.5C441.199 664 441.1 664.5 441.801 664.9C442.5 665.301 442.6 666.9 442 669.5C439.199 681.5 442.301 687.5 454.5 693.301C464.9 698.301 475.301 704.5 481 708.9C483.4 710.9 491.5 715.699 499 719.6C506.4 723.5 516.6 728.9 521.5 731.5C526.5 734.199 535.199 738.9 541 742C564.699 754.699 567.9 756.5 577 762.6C587.199 769.301 588.801 770.699 604.9 786.4C613.4 794.699 615.9 797.801 618.9 804L622.5 811.5L622.801 829.801L623.1 848H394.699H166.3L168.2 836.301Z"
            fill="#043B71" />
          <path
            d="M347.6 751.801C339.4 745.6 339.301 745.801 357 744C368.199 742.9 372.4 742 366.199 742C364 742 362.699 741.301 361.9 739.9C360.801 737.801 361 737.801 364.4 738.4C367.6 739 368 738.9 368 737C368 735.4 369.5 734.199 374.4 731.9C380.699 729 380.9 728.801 379.9 726.199C379 723.801 379.199 723.199 381.699 721.199C383.199 719.9 385.5 718 386.699 717C389.6 714.5 405.4 704 411.199 700.6C414.801 698.5 418.6 694.301 428.199 681.4C434.9 672.4 441.1 665 441.801 665C442.699 665 443 665.6 442.5 666.801C442.199 667.699 441.6 671.4 441.4 675C440.699 684.6 443.301 687.9 457 694.699C466.5 699.5 467.1 699.9 463.1 699.4L458.699 698.801L459.4 706.199L460.1 713.6L453.801 719.6C450.301 722.9 444.801 727.1 441.5 729C438.199 730.9 433.9 733.5 432 734.801C430.1 736.1 427.5 737.6 426.301 738.1C424.9 738.6 424 739.801 424 741C424 742.301 423.301 743 422.1 743C421.1 743 418 744.801 415.4 747C411.4 750.301 410 750.9 407.699 750.4C406 750.1 403.5 750.5 401.4 751.5C399.1 752.6 391 753.801 377.699 755.1C366.6 756.1 356.801 757 356 757C355.199 757 351.4 754.6 347.6 751.801Z"
            fill="#DDEDFE" />
          <path
            d="M354.801 677.5C346.199 671.801 341.9 668.301 341.5 666.801C339.9 659.599 336.1 636.6 336.4 636.301C336.6 636 337.801 636.301 338.9 636.9C340.9 638 341.699 640.199 344.1 651.199C345.801 659.4 346.199 659.801 350.4 657.801L353.801 656.099L357.199 660.099C359.9 663.301 361.801 664.4 367.4 666L374.199 667.9L379.199 665.4C383.4 663.301 384.1 662.5 383.6 660.699C383.301 659.5 383 657.9 383 657.301C383 656.5 381.6 656 379.1 656C374.801 656 372.6 654.301 374 652C375.5 649.699 375.4 649.699 368.4 644.5C360.4 638.699 360.9 638.099 374.4 637.301L383.801 636.699L380.5 633.9C377.301 631.099 373 630 373 632C373 633.699 370.4 633.1 368.4 630.9C367.1 629.5 365.699 629 363.699 629.301C360.9 629.699 360.9 629.599 362.801 627.801C364.5 626.099 365.301 626 370.6 626.9C373.801 627.5 382.801 627.801 390.6 627.699L404.6 627.4L404.199 629.801C403.699 632.199 403.9 632.199 408.1 631.6C412.4 631 412.699 631.099 417.5 636C420.199 638.699 422.9 641 423.5 641C424.1 641 426.4 637.5 428.699 633.301C431.801 627.301 432.9 623.9 433.4 618.599L434.1 611.599L422.301 599.801C415.801 593.301 410.199 588 409.9 588C409.5 588 408.699 589.4 408.1 591C407.199 593.699 407.6 595.199 411.1 603.301C417.6 617.9 417.4 617.1 414.199 616.4C407.1 614.9 405.199 613.801 404.6 611.5C404.199 610.1 403.301 609 402.5 609C401.801 609 400.301 607.699 399.301 606C397.199 602.4 396.699 602.4 390.5 605.099L385.699 607.199L379.9 601.301L374 595.5L377.9 568C380.1 552.9 381.5 540.3 381 540C380.5 539.7 375.5 538 369.801 536.1C364.1 534.2 358.199 532.1 356.5 531.5C354.9 530.8 347.199 528.1 339.5 525.5C331.801 522.8 325.199 520.4 324.699 520C324.301 519.7 325.1 516.1 326.5 512.1L329 504.7L326 497.7C324.4 493.9 323.301 490.4 323.5 490C323.801 489.6 326 488.7 328.5 488.1C332.1 487.2 333 486.6 332.6 485.2C332.4 484.3 331.9 481.8 331.5 479.8C330.9 476 330.9 476 334.9 475.4C338.699 474.8 339 474.5 340.801 469.1C342.4 464 343.1 463.2 347.801 460.7L353 457.9L375.801 463C388.301 465.8 405 469.6 413 471.5C425.199 474.3 429.1 474.8 437.5 474.6C443.1 474.4 448.6 473.8 449.801 473.1C452.6 471.6 453 471.9 460.199 480.2C464.6 485.3 465.5 487 466.1 491.6C466.699 496.1 468.199 499.1 475.301 509.8C483.801 522.4 483.9 522.5 483.699 528.5C483.6 531.8 483.801 535.7 484.301 537.3C484.9 539.6 484.699 540 482.9 540C481.4 540 480.9 540.6 481.1 542.3C481.199 543.5 481 546.699 480.5 549.301C480.1 551.9 479.801 557.6 480 561.801C480.1 566 480.199 571.199 480.199 573.301C480.199 575.599 478.699 580 476.199 585.301C465.301 607.9 462.1 614.9 461.5 617.6C459.4 627.6 458.801 629 456.5 629C453.6 629 448.9 635.801 449.699 638.9C450.1 640.4 449 642.6 446 646.5C441.199 652.699 440.199 653.4 442.5 649C444.5 645.199 444.4 644.699 442 645.301C440.199 645.801 440 645.301 440 639.9C440 636.699 439.6 634 439.199 634C438.801 634 437 635.5 435.199 637.301C432.9 639.599 432 641.5 432 643.801C432 646.099 430.5 649.4 427 654.5C422.801 660.801 421.6 661.9 419.4 661.699C417 661.5 416.5 662.099 414.4 668.4C413.1 672.199 412.199 675.6 412.5 676C413.699 677.9 408 680.5 396.801 683.099C381.9 686.5 383.301 686.4 382.5 684C382 682.4 381 682 377.1 682C373.6 682 371.801 682.5 370.5 684C369.5 685.099 368.4 686 368.1 686C367.801 686 361.801 682.199 354.801 677.5ZM429.5 568.4C424.4 566.5 422.801 565 426 565H428.301L426.1 562.6L423.801 560.1L429 557.5C434.1 554.9 435.801 554.801 442.4 556.699C443.9 557.1 443.5 556.301 441 553.1C437.9 549.301 437.801 548.9 439.301 547.199C441.4 544.9 441.4 544 439.5 544C437.6 544 437.6 542.7 439.5 539C441.301 535.4 443 535.6 421.5 537C408.199 538 406.1 538.4 402.801 540.5C398.4 543.4 397.5 546.801 398.699 555.4L399.5 561.301L404.5 563.1C417.1 567.6 424.801 569.801 429 569.801L433.5 569.9L429.5 568.4ZM475 550.1C475 547 475.4 546.1 476.801 545.801C479.699 545.301 477.699 539.4 474.1 537.5L471.199 536.1L470.5 542.6C470 547.699 470.199 549.6 471.4 551.5C473.801 555.1 475 554.6 475 550.1Z"
            fill="#DDEDFE" />
          <path
            d="M323.5 591C322.9 588.4 322.199 588 317.4 587C312.5 586 312.1 585.699 313 583.9C314.3 581.5 313.3 581.4 308.3 583.5C306.4 584.301 304.6 585 304.4 585C304.2 585 303.5 583 302.9 580.5C302.3 578 301.3 576.1 300.7 576.301C300.1 576.5 298.8 579 297.7 581.801C296.6 584.699 295.6 586.9 295.5 586.801C295.3 586.6 295.8 579.801 296.6 571.5C297.8 558.301 297.8 555.699 296.5 549.699C295 543.1 295 542.8 297.7 534C299.1 529 300.7 525 301 525C301.4 525 302.6 527.4 303.8 530.3C305.1 533.8 306.3 535.5 307.4 535.4C308.5 535.3 308.9 535.8 308.6 536.9C308.3 537.8 307.6 540.5 307 543C306.4 545.5 305.7 548.199 305.4 549.1C305 550.4 306 550.9 310.1 551.4C314.8 552 315.1 552.199 313.7 553.801C312.7 554.9 312.5 556.199 313 557.6C313.7 559.4 315 559.9 321.699 560.5C326 560.801 332.699 561.801 336.5 562.5C340.4 563.301 346 564.199 349 564.6C356.4 565.5 359 566.6 362.301 570.1C363.801 571.801 365 573.301 365 573.6C365 573.801 363.699 574 362 574C359.9 574 356.9 575.801 351 580.5C344.6 585.801 341.1 587.801 333.6 590.5L324.1 593.9L323.5 591Z"
            fill="#DDEDFE" />
        </g>
      </g>
      <defs>
        <clipPath id="clip0_1191_33">
          <rect width="500" height="500" fill="white" transform="translate(123 348)" />
        </clipPath>
      </defs>
    </g>
    <g class="op1" style="--trdel: 9">
      <rect width="1000" height="1000" fill="#F3F5F7"/>
      <path d="M200 480C188.954 480 180 488.954 180 500C180 511.046 188.954 520 200 520V480ZM814.142 514.142C821.953 506.332 821.953 493.668 814.142 485.858L686.863 358.579C679.052 350.768 666.389 350.768 658.579 358.579C650.768 366.389 650.768 379.052 658.579 386.863L771.716 500L658.579 613.137C650.768 620.948 650.768 633.611 658.579 641.421C666.389 649.232 679.052 649.232 686.863 641.421L814.142 514.142ZM200 520L800 520V480L200 480V520Z" fill="#043B71"/>
    </g>
    <g class="op1" style="--trdel: 11">
      <rect width="1000" height="1000" fill="#F3F5F7" />
      <g>
        <rect class="op1" style="--trdel: 11" x="294.1" y="909.5" width="419" height="27" fill="#E0E6EB" stroke="#E0E6EB" />
        <rect class="op1" style="--trdel: 11" x="392.1" y="741.5" width="223" height="167" fill="#E0E6EB" stroke="#E0E6EB" />
        <rect class="op1" style="--trdel: 11" x="50" y="111" width="910" height="630" rx="4" fill="#F3F5F7" stroke="#E0E6EB"
          stroke-width="25" />
        <g class="op1" style="--trdel: 11">
          <g>
            <path
              d="M115 162C115 160.895 115.895 160 117 160H893C894.105 160 895 160.895 895 162V698C895 699.104 894.105 700 893 700H117C115.895 700 115 699.104 115 698V162Z"
              fill="white" />
            <path
              d="M110 151C110 147.134 113.134 144 117 144H893C896.866 144 900 147.134 900 151L890 176H120L110 151ZM900 698C900 701.866 896.866 705 893 705H117C113.134 705 110 701.866 110 698L120 695H890L900 698ZM117 705C113.134 705 110 701.866 110 698V151C110 147.134 113.134 144 117 144L120 176V695L117 705ZM893 144C896.866 144 900 147.134 900 151V698C900 701.866 896.866 705 893 705L890 695V176L893 144Z"
              fill="#043B71" />
          </g>
          <g>
            <circle cx="127" cy="160" r="8" fill="#F3F5F7" />
            <circle cx="152" cy="160" r="8" fill="#F3F5F7" />
            <circle cx="177" cy="160" r="8" fill="#F3F5F7" />
          </g>
          <rect x="231" y="152" width="540" height="17" rx="8.5" fill="white" />
          <g>
            <g class="op1" style="--trdel: 12">
              <rect x="221" y="176" width="560" height="84" fill="#DDEDFE" />
              <g>
                <rect x="249" y="210" width="32" height="32" rx="16" fill="url(#paint0_linear_1010_2)" />
                <rect x="241" y="202" width="32" height="32" rx="16" fill="url(#paint1_linear_1010_2)" />
              </g>
              <g>
                <rect x="523" y="206" width="64" height="24" rx="12" fill="url(#paint2_linear_1010_2)" />
                <rect x="597" y="206" width="48" height="24" rx="12" fill="url(#paint3_linear_1010_2)" />
                <rect x="721" y="206" width="40" height="24" rx="12" fill="url(#paint4_linear_1010_2)" />
                <rect x="655" y="206" width="56" height="24" rx="12" fill="url(#paint5_linear_1010_2)" />
              </g>
            </g>
            <g class="op1" style="--trdel: 13">
              <rect  x="221" y="260" width="560" height="260" fill="#F3F5F7" />
              <g >
                <rect  x="591" y="326" width="160" height="160" rx="80"
                  fill="url(#paint6_linear_1010_2)" />
                <rect  x="563" y="298" width="160" height="160" rx="80"
                  fill="url(#paint7_linear_1010_2)" />
              </g>
              <g >
                <rect  x="241" y="300" width="96" height="36" rx="18" fill="url(#paint8_linear_1010_2)" />
                <rect  x="357" y="300" width="144" height="36" rx="18" fill="url(#paint9_linear_1010_2)" />
                <rect  x="241" y="356" width="192" height="36" rx="18" fill="url(#paint10_linear_1010_2)" />
                <rect  x="243" y="434" width="140" height="44" rx="22" fill="#F3F5F7" stroke="#043B71"
                  stroke-width="4" />
                <rect  x="257" y="444" width="64" height="24" rx="12" fill="url(#paint11_linear_1010_2)" />
                <path
                  d="M337 454.5C336.172 454.5 335.5 455.172 335.5 456C335.5 456.828 336.172 457.5 337 457.5V454.5ZM366.061 457.061C366.646 456.475 366.646 455.525 366.061 454.939L356.515 445.393C355.929 444.808 354.979 444.808 354.393 445.393C353.808 445.979 353.808 446.929 354.393 447.515L362.879 456L354.393 464.485C353.808 465.071 353.808 466.021 354.393 466.607C354.979 467.192 355.929 467.192 356.515 466.607L366.061 457.061ZM337 457.5H365V454.5H337V457.5Z"
                  fill="#043B71" />
              </g>
            </g>
            <g class="op1" style="--trdel: 14">
              <rect x="221" y="520" width="560" height="175" fill="#DDEDFE" />
              <g>
                <rect x="346" y="560" width="128" height="24" rx="12" fill="url(#paint12_linear_1010_2)" />
                <rect x="496" y="560" width="168" height="24" rx="12" fill="url(#paint13_linear_1010_2)" />
                <rect x="405" y="596" width="192" height="24" rx="12" fill="url(#paint14_linear_1010_2)" />
              </g>
              <g>
                <rect x="301" y="655" width="400" height="40" fill="url(#paint15_linear_1010_2)" />
                <path
                  d="M346 695C346 688.373 351.373 683 358 683H434C440.627 683 446 688.373 446 695V695H346V695Z"
                  fill="#DDEDFE" />
                <path
                  d="M506 683C506 676.373 511.373 671 518 671H652C658.627 671 664 676.373 664 683V695H506V683Z"
                  fill="#F3F5F7" />
              </g>
            </g>
          </g>
        </g>
      </g>
    </g>
    <g class="op1" style="--trdel: 16">
      <rect width="1000" height="1000" fill="#F3F5F7" fill-opacity="0.501961"/>
      <path d="M673 937C673 854.157 740.157 787 823 787V787C905.843 787 973 854.157 973 937V937H673V937Z" fill="#043B71"/>
      <circle cx="822.4" cy="727" r="60" fill="#043B71"/>
      <path class="op1" style="--trdel: 18" d="M785.532 740.307L785.203 736.321L777.23 736.979L777.559 740.965L785.532 740.307ZM781.545 740.636C777.559 740.965 777.559 740.968 777.559 740.97C777.559 740.971 777.56 740.974 777.56 740.976C777.56 740.98 777.561 740.984 777.561 740.989C777.562 740.999 777.563 741.011 777.564 741.024C777.567 741.051 777.57 741.085 777.574 741.126C777.582 741.208 777.594 741.318 777.611 741.455C777.644 741.727 777.696 742.105 777.774 742.573C777.931 743.508 778.193 744.81 778.627 746.359C779.49 749.445 781.051 753.579 783.854 757.736C789.592 766.245 800.231 774.364 819.182 774.364V766.364C802.951 766.364 794.772 759.618 790.487 753.264C788.279 749.989 787.027 746.692 786.331 744.203C785.984 742.965 785.78 741.945 785.665 741.254C785.607 740.91 785.572 740.649 785.552 740.486C785.542 740.404 785.536 740.347 785.533 740.317C785.532 740.302 785.531 740.293 785.531 740.292C785.53 740.291 785.531 740.292 785.531 740.294C785.531 740.295 785.531 740.297 785.531 740.299C785.531 740.3 785.531 740.302 785.532 740.303C785.532 740.305 785.532 740.307 781.545 740.636ZM819.182 774.364C838.11 774.364 850.203 766.08 857.483 757.717C861.088 753.576 863.495 749.444 865.004 746.341C865.761 744.786 866.298 743.478 866.651 742.541C866.828 742.073 866.959 741.695 867.049 741.425C867.094 741.29 867.129 741.181 867.154 741.101C867.166 741.061 867.177 741.028 867.184 741.003C867.188 740.99 867.191 740.979 867.194 740.97C867.195 740.966 867.197 740.962 867.198 740.958C867.198 740.956 867.199 740.954 867.199 740.953C867.2 740.951 867.201 740.949 863.364 739.818C859.527 738.688 859.527 738.686 859.528 738.684C859.528 738.684 859.528 738.682 859.529 738.681C859.529 738.679 859.53 738.678 859.53 738.677C859.53 738.676 859.53 738.676 859.53 738.678C859.529 738.681 859.525 738.692 859.52 738.71C859.508 738.746 859.488 738.809 859.459 738.897C859.4 739.074 859.303 739.353 859.165 739.72C858.889 740.453 858.448 741.532 857.811 742.841C856.534 745.465 854.491 748.97 851.449 752.464C845.434 759.374 835.435 766.364 819.182 766.364V774.364Z" fill="#DDEDFE"/>
      <g class="op1" style="--trdel: 17">
        <g class="blink">
          <circle cx="832.091" cy="708.364" r="9.09091" fill="white"/>
          <circle cx="828.454" cy="706.818" r="4.54545" fill="#043B71"/>
          <circle cx="827.545" cy="705.818" r="1.81818" fill="#DDEDFE"/>
          <circle cx="804.818" cy="708.364" r="9.09091" fill="white"/>
          <circle cx="800.727" cy="706.818" r="4.54545" fill="#043B71"/>
          <circle cx="799.818" cy="705.818" r="1.81818" fill="#DDEDFE"/>
        </g>
      </g>
    </g>
  </g>
  <defs>
    <linearGradient id="paint0_linear_1010_2" x1="249" y1="226" x2="281" y2="226" gradientUnits="userSpaceOnUse">
      <stop offset="0" stop-color="#848E98" />
      <stop offset="1" stop-color="#DDEDFE" />
    </linearGradient>
    <linearGradient id="paint1_linear_1010_2" x1="241" y1="218" x2="273" y2="218" gradientUnits="userSpaceOnUse">
      <stop offset="0" stop-color="#043B71" />
      <stop offset="1" stop-color="#0870D7" />
    </linearGradient>
    <linearGradient id="paint2_linear_1010_2" x1="523" y1="218" x2="587" y2="218" gradientUnits="userSpaceOnUse">
      <stop offset="0" stop-color="#043B71" />
      <stop offset="1" stop-color="#0870D7" />
    </linearGradient>
    <linearGradient id="paint3_linear_1010_2" x1="597" y1="218" x2="645" y2="218" gradientUnits="userSpaceOnUse">
      <stop offset="0" stop-color="#043B71" />
      <stop offset="1" stop-color="#0870D7" />
    </linearGradient>
    <linearGradient id="paint4_linear_1010_2" x1="721" y1="218" x2="761" y2="218" gradientUnits="userSpaceOnUse">
      <stop offset="0" stop-color="#043B71" />
      <stop offset="1" stop-color="#0870D7" />
    </linearGradient>
    <linearGradient id="paint5_linear_1010_2" x1="655" y1="218" x2="711" y2="218" gradientUnits="userSpaceOnUse">
      <stop offset="0" stop-color="#043B71" />
      <stop offset="1" stop-color="#0870D7" />
    </linearGradient>
    <linearGradient id="paint6_linear_1010_2" x1="591" y1="406" x2="751" y2="406" gradientUnits="userSpaceOnUse">
      <stop offset="0" stop-color="#848E98" />
      <stop offset="1" stop-color="#DDEDFE" />
    </linearGradient>
    <linearGradient id="paint7_linear_1010_2" x1="563" y1="378" x2="723" y2="378" gradientUnits="userSpaceOnUse">
      <stop offset="0" stop-color="#043B71" />
      <stop offset="1" stop-color="#0870D7" />
    </linearGradient>
    <linearGradient id="paint8_linear_1010_2" x1="241" y1="318" x2="337" y2="318" gradientUnits="userSpaceOnUse">
      <stop offset="0" stop-color="#043B71" />
      <stop offset="1" stop-color="#0870D7" />
    </linearGradient>
    <linearGradient id="paint9_linear_1010_2" x1="357" y1="318" x2="501" y2="318" gradientUnits="userSpaceOnUse">
      <stop offset="0" stop-color="#043B71" />
      <stop offset="1" stop-color="#0870D7" />
    </linearGradient>
    <linearGradient id="paint10_linear_1010_2" x1="241" y1="374" x2="433" y2="374" gradientUnits="userSpaceOnUse">
      <stop offset="0" stop-color="#043B71" />
      <stop offset="1" stop-color="#0870D7" />
    </linearGradient>
    <linearGradient id="paint11_linear_1010_2" x1="257" y1="456" x2="321" y2="456" gradientUnits="userSpaceOnUse">
      <stop offset="0" stop-color="#043B71" />
      <stop offset="1" stop-color="#0870D7" />
    </linearGradient>
    <linearGradient id="paint12_linear_1010_2" x1="346" y1="572" x2="474" y2="572" gradientUnits="userSpaceOnUse">
      <stop offset="0" stop-color="#043B71" />
      <stop offset="1" stop-color="#0870D7" />
    </linearGradient>
    <linearGradient id="paint13_linear_1010_2" x1="496" y1="572" x2="664" y2="572" gradientUnits="userSpaceOnUse">
      <stop offset="0" stop-color="#043B71" />
      <stop offset="1" stop-color="#0870D7" />
    </linearGradient>
    <linearGradient id="paint14_linear_1010_2" x1="405" y1="608" x2="597" y2="608" gradientUnits="userSpaceOnUse">
      <stop offset="0" stop-color="#043B71" />
      <stop offset="1" stop-color="#0870D7" />
    </linearGradient>
    <linearGradient id="paint15_linear_1010_2" x1="301" y1="675" x2="701" y2="675" gradientUnits="userSpaceOnUse">
      <stop offset="0" stop-color="#043B71" />
      <stop offset="1" stop-color="#0870D7" />
    </linearGradient>
  </defs>
  <script>
  const $t = document.querySelector('.tveye');

  const observer = new IntersectionObserver(
    (entries) => {
      entries.forEach((entry) => {
        if (entry.isIntersecting) {
          entry.target.classList.add('active');
          observer.unobserve(entry.target);
        }
      })
    },
    {
      threshold: 0.1,
    }
  )

  observer.observe($t)
  </script>
</svg>
