<svg class="avatar" viewBox="0 0 512 512">
  <style>
    .fill {
      fill: transparent;
      opacity: 0;
      animation: hue 11111ms linear infinite, op ease-out 1616ms forwards;
    }

    .fill--10 {
      --c: hsl(352, 93%, 83%);
      animation-delay: 111ms, 1111ms;
    }

    .fill--20,
    .fill--30,
    .fill--40 {
      --c: hsl(352, 93%, 63%);
      animation-delay: 222ms, 2222ms;
    }

    .fill--50 {
      --c: hsl(352, 93%, 43%);
      animation-delay: 333ms, 3333ms;
    }

    .fill--60 {
      --c: hsl(352, 93%, 23%);
      animation-delay: 444ms, 4444ms;
    }

    @keyframes hue {
      from {
        filter: hue-rotate(0deg);
      }

      to {
        filter: hue-rotate(360deg);
      }
    }

    @keyframes op {
      to {
        opacity: 1;
        fill: var(--c);
      }
    }
  </style>
  <path class="fill fill--60" d="M46 500c4-24 12-54 17-62 4-7 14-18 20-22a1222 1222 0 0 1 80-36l17-8 9-5c3-2 3-3 0-29-2-25-2-23-8-37-4-12-10-32-10-40l-3-9c-3-4-9-23-9-29l1-13 2-21 1-15c1-5 1-11-1-15l-1-33c0-12 1-19 3-24 3-6 5-8 8-5h1l-1-2c-1 0-1-1 1-3s2-3 0-4l-1-2 1-2 3-4c2-2 4-4 7-4 4 0 6-1 9-4l7-5c3 0 5-3 3-5-3-2-2-6 1-7l5-2c-1-1 1-4 3-6l2-3c0-1 1-2 4-2s5 0 7 2c4 3 7 2 7-2l-2-3c-1-1 0-1 1-2l2-2c0-1 2-2 3 0h11c9-1 11-1 12 1 1 1 1 1 4-1 3-3 4-3 6-3l15 1 13 2-5 2-4 3-1 2 6-2 4-2 6-2 15 4 4 1 3 1 1 2 8 1c5 1 6 2 7 3l5 5c4 1 5 3 7 7 2 3 4 6 8 8 5 3 5 3 4 6l-2 4-1 3h7c7 0 7 0 5 7v2l1 4 1 4v2c-2 2 0 7 3 10 2 1 2 2 1 3-2 3-2 6 0 6s7 7 7 8l-2-1c-3-3-5-3-5 0l1 11c1 7 0 8-1 10-2 2-2 2-1 6 2 3 2 4-1 8a141 141 0 0 0-7 20v14c1 1 0 2-1 2-2 0-3 0-2 2l-1 7v25l-4 12a193 193 0 0 0-19 45l-3 7a213 213 0 0 1-14 30l1 4c-3 13 0 19 12 25 11 5 22 11 28 16l18 11 23 12 20 10c24 13 28 15 37 22 10 6 12 8 28 24 9 8 12 12 15 18l3 8 1 18v19H44l2-12Z" />
  <path class="fill fill--50" d="m211 425-11-2-9-9-9-9v-27l-4 3c-3 4-3 4-5 3-3-1-3-3 0-6l2-2c0-1 2-3 14-9 3-2 3-4 0-29l-1-19c0-1 2 0 3 2 3 2 4 6 7 13l3 13c1 4 7 17 8 16l9 6 8 6 5 1c5 1 9 0 23-2l21-2c3 0 6-2 13-6l8-6 1-10 1-10-11 7c-1 2-5 3-13 5l-7 2-13-2a1497 1497 0 0 1-20-5l-2-4-4-2-5-3c-5-3-6-4-11-14l-5-11h-14l-2-5c-2-5-6-8-8-6-2 3-11-29-12-41l-3-9c-3-4-9-23-9-29l1-13 2-21 1-15c1-5 1-11-1-15l-1-33c0-12 1-19 3-24 3-6 5-8 8-5h1l-1-2c-1 0-1-1 1-3s2-3 0-4l-1-2 1-2 3-4c2-2 4-4 7-4 4 0 6-1 9-4l7-5c3 0 5-3 3-5-3-2-3-4-1-6l2-1 5-2c-1-1 1-4 3-6l2-3c0-3 8-2 11 0 4 3 7 2 7-2l-2-3c-1-1 0-1 1-2l2-2c0-1 2-2 3 0h11c9-1 11-1 12 1 1 1 1 1 4-1 3-3 4-3 6-3l15 1 13 2-5 2-4 3-1 2 6-2 4-2 6-2 15 4 4 1 3 1 1 2 8 1c5 1 6 2 7 3l5 5c4 1 5 3 7 7 2 3 4 6 8 8 5 3 5 3 4 6l-2 4-1 3h7c7 0 7 0 5 7v2l1 4 1 4v2c-2 2 0 7 3 10 2 1 2 2 1 3-2 3-2 6 0 6s7 7 7 8l-2-1c-3-3-5-3-5 0l1 11c1 7 0 8-1 10-2 2-2 2-1 6 2 3 2 4-1 8a142 142 0 0 0-7 20v14c1 1 0 2-1 2-2 0-3 0-2 2l-1 7v25l-4 12a193 193 0 0 0-19 45l-3 7a213 213 0 0 1-14 30l1 4c-3 14 0 18 16 27 8 3 12 6 11 6l-1 6c-1 4-2 5-8 10l-10 7a401 401 0 0 0-44 27c-4-1-7 1-5 3 1 2 1 2-4 4l-22 4c-10 0-22 2-27 3-10 2-9 2-22-1Zm53-132c-4-3-8-4-8-2s-3 1-5-1c-1-2-2-2-8-2h-9c-2 0-3-1-3-4 0-4-1-5-4-5-4-1-5-2-3-6l2-4-17 5 2 4a102 102 0 0 0 25 13c6 3 13 5 24 5h7l-3-3Zm34-4c7-2 8-2 8-4s0-2-6-2c-8 1-9 2-9 3l-1 2c-1-1-2 0-2 1-1 2 1 2 10 0Zm15-12c0-3 0-5-3-6l-3-1c-1 1 5 11 6 11v-4Zm-53-4c3-2 3-2 5-1l3 1 3-5-4-1c-4-1-7-2-12-6l-8-6c-2-1-2-1-2 2s0 3-3 3c-2-1-3 0-5 2-4 6-4 6-1 8 6 4 19 5 24 3Zm53-59c6-2 7-2 14 0 2 0 2 0 1-2-3-2-15-5-21-5h-13c-7 1-8 1-8 3 0 4 3 5 10 5l12 2 5-3Zm-56-1v-6c-1-3-1-3-11-5-9-3-11-3-22-2l-15 3c-2 2-2 2 1 1 9-2 10-2 12 2 3 5 7 6 13 2 4-3 4-3 5 2 1 2 1 3 6 4 7 1 10 1 11-1Zm-23-18c0-2-5-7-7-7h-4l-1 1-1 4c-2 1-2 1 3 2h10Zm-54-42v-2l1-3c2-1 2-1 2-4-1-4 0-5 5-10l8-6 11-15c4-6 4-7 14-10 8-2 9-2 18 0 9 1 11 2 22 8 10 5 13 7 19 7h8c2-1 2-3 1-5-3-3 2-1 6 1 3 2 5 3 10 3h6l1 5c1 5 1 5 3 5 4 0 4 0 1-5l-2-4 7 1 7 1v3c-1 3-1 3 2 2l8-8 6-5 1 6v6h5l6-2c2-4 2-5-1-8l-2-6 3-7 2-6-4-10c-8-17-8-17-12-13-2 2-2 2 0 4l2 8 2 7c0 2 0 2-2 2h-4c-2 1-2 1-3-3l-3-13c1-2-3-2-4-1-1 2-1 2-3-2-6-11-9-13-10-7s-2 6-5 1l-4-6c-1-1-12 1-15 3s-5 2-8 0l-1-6v-6c-1-1-7 2-10 5-1 1-1 2 1 2s3 1 3 3-1 2-4 0l-2 2c-1 3-1 3-2 1-2-5-9-7-11-4-2 2-2 1-4-2-2-5-4-6-5-4-2 1-5 2-6 0l-17 1 2 2c2 1 3 8 1 8-1 0-2 1-2 3-2 6-2 7-8 5h-6c-2 3-5 4-11 2l-7-1c-2 0 0 2 4 5l5 3-5 1-12 2h-7l1 4 1 5c0 2-1 3-6 6l-8 5a549 549 0 0 0-2 43l2-4 1 5c1 4 1 4 5 3l5-1Zm173-14c2-2 2-2 0-3h-5v3c2 2 2 2 5 0Zm8-14c-1-2-2-3-5-1-2 2-2 2 1 3 5 1 5 1 4-2Zm0-52c0-2-2-4-3-3v4c1 3 2 4 3 3v-4Zm-18-11c4-5 1-8-3-5l-2 2h-2c-2 2-2 3 1 4 4 2 5 2 6-1Zm-10-5c3-3 3-4 2-5-3-2-4-2-8 5l-1 3h2c2 0 4-1 5-3ZM219 46l-1-2-2 2c0 3 2 2 3 0Z" />
  <path class="fill fill--60" d="M62 439c5-8 15-19 21-23 7-5 14-9 32-16l19-8 8-3c5 0-6 6-31 18l-29 13-7 9c-8 11-9 12-12 13l-3 1 2-4ZM211 425l-11-2-9-9-9-9v-27l-4 3c-3 4-3 4-5 3-3-1-3-3 0-6l2-2 1-2a239 239 0 0 0 13-7l2 3v6l-3 5c-2 3-2 4 0 13l2 10 6 6c7 8 7 8 28 11l15 3-16 4-12-3Z" />
  <path class="fill fill--60" d="m257 422 4-2c7-1 14-3 13-4l-18 1-18 2-8-5c-8-7-9-7 10-8 11-2 15-3 9-3-2 0-4 0-4-2-1-2-1-2 2-1 3 0 4 0 4-2 0-1 1-3 6-5 7-3 7-3 6-6l-1-2 5-5c4-2 4-3 2-3l-6 1-18 3c-15 1-16 1-22-1l-7-3-7-14 8 6 9 6 5 1c5 1 9 0 23-2l21-2c3 0 6-2 13-6l8-6 1-10v-10l-2 2h-2c1-2 0-2-1-2l-13 4c-12 2-14 2-14-1l-5-1-7 2-2 2-13-8c-9-6-14-10-14-12-2-7-6-30-5-31l2 1c2 1 3 3 5 14 2 9 3 9 7 7l3-2 4 5c3 3 5 4 10 6l7 2 5-3c5-2 5-3 5-5l-1-3c0-1-1-2-4-2-4 0-6-1-5-4 2-2 1-2-6-7-8-6-7-7 6-8h10l-3-3c-4-3-8-4-8-2s-3 1-5-1c-1-2-2-2-4-2-3 0-3 0-2-1 2-3 2-3-2-4-3-2-4-1-5 0-2 1-2 3-2 4 0 2-1 2-3 1l-2-4c0-4-1-5-4-5-4-1-5-2-3-6l2-4-17 5 2 4c3 2 3 2 1 4-1 3-1 3-3 1l-2-1c0 4-2 1-3-4l-2-6c0-2 22-21 25-21 2 0 2 0-2 8l-3 7 5-3c3-3 5-4 7-3 1 0 2 0 1-2-1-1-1-2 1-5l2-4-3-1-3-2 7-5c1 0 6 11 6 16 0 3 0 3-3 3-2-1-5 1-8 7-1 2 5 5 14 7 6 1 8 1 7 2s0 2 5 4c7 3 7 3 5 5-1 2 0 2 11 1h12v3c-1 2 0 2 4 1 4 0 5 0 10 5 2 3 5 5 6 5l5-8 5-15 1-7-13-12-12-12-2 3c-1 3-1 4 3 12 7 15 6 15 3 14-7-2-9-3-10-5 0-2-1-3-2-3l-3-3c-2-3-3-3-9-1l-5 2-6-6-6-6 4-25 4-28v-3l-10-4-11-3c-1 1-1 0 8 7l7 5v8c0 8 0 8-3 10l-3 2-5-2c-6-2-12-2-15 1-2 1-2 1 1 1 4 0 8 2 11 5l3 4h-3c-2 0-5 2-12 7-6 6-10 8-17 10l-10 4-1-3c0-3-1-3-6-4s-5-2-4-3c1-3 0-3-5-1l-4 2-2-5-2-4-3 5-2 6c-1-1 0-8 1-16v-22c-2-7-2-8 1-17l3-9 3 6c1 3 3 5 4 5l1 1a113 113 0 0 0-3 13c-1 1 0 2 5 2 4 1 5 1 3 3v4c0 1 2 2 11 3h13l8-1 11-2h4l-5-2-4-3c0-1 5-5 6-4l1 4c1 3 1 3 7 4 8 2 10 1 10-3 0-6 0-7-11-9-9-3-11-3-22-2l-15 3c-2 2-2 2 1 1 8-2 10-2 11 2 3 4 3 4-1 3-3 0-5 1-3 3v3l-8-4c-4-3-7-4-9-4-6 0-5-2 3-4l6-3c0-1-2-2-5-2l-4-1 2-5 5-7 1-3 15 3 15 3-14-6-18-6 2-8 3-8-3-7-3-8 5-2c4 0 5-1 5-3l-1-5c-1-4-1-4 3-5 4 0 4 0 6-6 2-5 2-6 7-9l6-3 34 8 38 9 3 1-1-3c-4-6-4-6-9-5-4 2-5 2-17 0-11-2-16-4-30-9l-16-7-13 3c-10 2-14 3-17 5l-4 3 3-4c3-6 5-7 14-10 8-2 9-2 18 0 9 1 11 2 22 8 10 5 13 7 19 7h8c2-1 2-3 1-5-3-3 2-1 6 1 3 2 5 3 10 3h6l1 5c1 5 1 5 3 5 4 0 4 0 1-5l-2-3h4c6 0 11 1 11 2l-3 5-2 3h10c3-2 3-2 5 0l-1-3-4-4 5-5 5-5 1 6v6h5l6-2c2-4 2-5-1-8l-3-4 2-5 3-7c1-2 0-5-2-11l-11-21c-2-2-2-2 0-4l1-4 1-3 1 2 3 3c2 1 2 2 2 6v5l1-3c0-3 0-3 2-1l4 2v1c-2 0-2 1-1 4l1 5v1l2 1 2 2c2 0 2 0 1 4l-5 11-3 8 2 5c2 6 2 6 4 6s3 0 2 2l-1 4 6 7c7 5 9 9 7 12s-3 2-8-5l-6-7-2 1c-2 0 0 3 5 7 4 4 6 7 4 6-2 0-2 1 0 3l3 2-2 1c-3 1-3 1 1 3 5 3 4 4 0 3-3-1-4-3-8-10-4-9-7-12-7-7 0 3 0 3-2 4-3 1-3 1-2 5 0 3 2 8 9 18 8 13 9 13 8 19l1 9c1 2 0 3-1 3-2 0-3 0-2 2l-1 7v25l-4 12a295 295 0 0 0-20 45c-3 0-8 7-7 10l-4 8c-5 6-6 7-4 2 2-4 2-4 0-4-2 1-2 0-2-5l-1-6-4 3c-3 3-4 5-4 7s-1 6-5 11c-4 6-5 7-7 7-3 0-3 1-6 7l-2 8 6-4c5-5 7-5 10-2 1 2 1 2 2-2s2-4 3-3c2 2 3 1 7-6 4-6 6-8 6-5l-2 8-1 3v4c-3 13 0 18 15 26 10 5 10 5 6 5l-4-1v8l1 7-6 7-13 9a193 193 0 0 0-18 12c0 2 0 2-2 2l-7 5c-4 3-5 4-8 3-4-1-7 1-5 3l1 2c-2 2-11 4-18 5h-12Zm57-196c-5-2-7-4-4-4h3l-3-2-2-3 5-2c6-3 7-3 14-1 2 0 1-1-1-4-4-4-4-4-2-6s2-3 0-3-2-2 0-5c2-4 4-4-18-2-17 1-22 2-23 7-2 5-2 7 2 6l7-2 4-1c2 0 3-2 1-3-1 0-1-1 1-3l1-4 9 1c8 1 9 1 10 4 1 2 0 3-5 3-4 1-5 1-4 2 2 2 1 3-12 3l-11 1c-1 1 1 6 3 7s2 1-2 1l-4 1c0 2 23 10 30 10h5l-4-1Zm46-19c0-3 1-4 2-4 3-1 1-7-2-9l-3-1-1 6c-1 5 0 7 1 9 2 4 3 4 3-1Zm-126-12c0-2-5-7-7-7h-4l-1 1-1 4c-2 1-2 1 3 2h10Zm119-56c2-2 2-2 0-3h-5v3c2 2 2 2 5 0Zm8-14c-1-2-2-3-5-1-2 2-2 2 1 3 5 1 5 1 4-2Z" />
  <path class="fill fill--60" d="M250 352a612 612 0 0 0-16-5c0-2 0-3-2-4l-4-2-5-3c-5-3-6-4-11-14l-5-11h-14l-2-5c-2-5-6-8-8-6-1 2-5-9-9-25-3-8-3-13-4-26 0-17 1-17 3 0 1 7 2 9 3 8v5l-2 4 6 5c5 4 6 5 5 8-1 7-1 7 2 8h2l2-1c1 0 2 0 1 3l-1 2 3-2 2-3v4c0 4 0 4 3 3l3-1 1 3c0 4 0 4 3 3 4 0 4-2 8 17 2 8 3 10 7 15 8 8 13 12 18 11 3 0 4 0 8 4l3 3 13-1c16-2 16-2 16 0s-1 2-4 3c-8 2-10 2-25 0ZM195 337l-6-10c-1 0-2-7-1-8 0-1 2 0 3 2 3 2 4 6 7 13l3 12v1l-6-10ZM229 292c-5-4-2-5 6-1l6 3h-5l-7-2ZM302 290c-3-1-3-1 3-3l1-3c0-2 0-3 2-3l2-1h2c1 1 1 0 1-3l1-3 1 4 2 5-5 4c-6 5-6 5-10 3ZM267 275c-9 0-10-1-6-3h4c3 2 4 2 5-2 2-3 6-4 5-1 0 3 0 3 2 1 1-1 2 0 3 4 1 3 1 3-13 1ZM309 270c-2 0-4-2-5-4-1-3-1-3 1-3l8 8c0 2 0 2-4-1ZM256 261c-6-4-7-6-3-6 0 0 2 1 2 3 1 3 3 4 6 5 3 0 3 1 2 2s-3 0-7-4ZM165 218l2-7 1 1c2 1 2 2 0 6-3 8-3 8-3 0ZM167 194l-2-7-2-3c-2-2-2-4 0-9 1-6 1-12-1-16l-1-33c0-12 1-19 3-24 3-6 5-8 8-5h1l-1-2c-1 0-1-1 1-3s2-3 0-4l-1-2 1-2 3-4c2-2 4-4 7-4 4 0 6-1 9-4l7-5c3 0 5-3 3-5-3-2-2-6 1-6 2 0 5-2 5-3-1-1 1-4 3-6l2-3c0-3 8-2 11 0 4 3 7 2 7-2l-2-3c-1-1 0-1 1-2l2-2c0-1 2-2 3 0h11c9-1 11-1 12 1 1 1 1 1 4-1 3-3 4-3 6-3l15 1 13 2-5 2-4 3v1l4-1 5-2c3-3 8-3 15 0 7 2 8 3 7 5l1 2c1 1 0 2-1 4l-2 4 3 2c3 3 3 4-1 4-3 0-3 2 0 3l1 1-2 5c-1 5-2 5-5 0l-4-6c-1-1-12 1-15 3s-5 2-8 0l-1-6v-6c-1-1-7 2-10 5-1 1-1 2 1 2s3 1 3 3-1 2-4 0c-2-1-2-1-1-7 1-5 0-6-1-6l-1 4-3 4c-4 1-3 2 1 4l3 4c-1 2-3 1-3-1s-4-5-7-5l-3 2c-2 2-2 1-4-2-2-5-4-6-5-4-2 1-5 2-6 0l-17 1 2 2c2 1 3 8 1 8-1 0-2 1-2 3-2 6-2 7-8 5-4 0-5-1-7-4-4-5-7-6-7-1-1 2 0 3 1 3l4-2v1l1 2c3 1 2 2-1 4-2 1-4 1-8-1l-7-1c-2 0 0 2 4 5l5 3-5 1-12 2h-7l1 4 1 5c0 2-1 3-6 6l-8 5a549 549 0 0 0-2 43l2-4 1 5c1 4 1 4 5 3 5-1 6-1 5-3l1-3c2-1 2-1 2-4-1-4 0-5 5-10s9-7 9-5l-8 13c-7 12-8 14-7 17 1 2 1 3-1 4-2 2-2 2 0 4s1 4-4 13l-3 5 2-1 3-1-1 5-2 5-4 3-4 2-1-4Zm61-142c0-3-1-4-4-1v3c2 2 3 2 4-2Zm44-4c1-3 2-3 3-2 2 1 2 2 2 3-1 2-1 2 1 0 3-2 6-3 5 0-1 2 1 1 4-2s3-3 1-3h-2v-2l-1-2c1-2-8-1-10 1 0 1-2 2-4 1-4 0-4 0-5 2-2 3-1 3 1 5l3 2 2-3Zm-53-2-1-2-2 2c0 3 2 2 3 0ZM337 90l-3-13c1-2-3-2-4-1-1 2-2 1-5-5l-3-7 1-1c3-1 6 1 10 8 3 7 4 7 7 6s4-1 5 7l1 7c0 2 0 2-2 2h-4c-2 1-2 1-3-3Z" />
  <path class="fill fill--10" d="M230 413c-8-6-9-6 10-7 11-2 15-3 9-3-2 0-4 0-4-2-1-2-1-2 2-1 3 0 4 0 4-2 0-1 1-3 6-5 7-3 7-3 6-6-1-2-1-3 2-5l5-4 25-17c4-2 8-6 18-20 6-9 13-16 13-16 1 0 2 0 1 1l-1 9c-1 10 2 13 16 20 10 5 10 5 6 5l-4-1v8l1 7-6 7-13 9a193 193 0 0 0-18 12c0 2 0 2-2 2l-7 5c-4 3-5 4-7 3l-7 1c-2 1-11 3-24 4l-22 2-9-6ZM237 337c-8-5-13-9-13-11-2-7-6-30-5-31l2 1c2 1 3 3 5 14 2 9 3 9 7 7l3-2 4 5c3 3 5 4 10 6l7 2 5-3c5-2 5-3 5-5l-1-3c0-1-1-2-4-2-4 0-6-1-5-4 2-2 1-2-6-7-8-6-7-7 6-8h10l-3-3c-4-3-8-4-8-2s-3 1-5-1c-1-2-2-2-5-2-2 0-2 0 0-1 1-2 2-2 8-1h34v3c-1 2 0 2 4 1 4 0 5 0 10 5 2 3 5 5 6 5l5-8 5-15 1-7-13-12-12-12-2 3c-1 3-1 4 3 12 7 15 6 15 3 14-7-2-9-3-10-5 0-2-1-3-2-3l-3-3c-2-3-3-3-9-1l-5 2-6-6-6-6 4-28 3-28-11-4-14-5a431 431 0 0 0-32-12l1-8 3-8-3-7-3-8 5-2c4 0 5-1 5-3l-1-5c-1-4-1-4 3-5 4 0 4 0 6-6 2-5 2-6 7-9l6-2 23 5 38 8a82 82 0 0 0 38 2c3-1 3-1 10 7 5 6 6 7 6 12 1 5 2 8 10 19 8 13 9 13 8 19l1 9c1 2 0 3-1 3-2 0-3 0-2 2l-1 7v25l-4 12a295 295 0 0 0-20 45c-3 0-8 7-7 10l-4 8c-5 6-6 7-4 2 2-4 2-4 0-4-2 1-2 0-2-5l-1-6-4 3c-3 3-4 5-4 7s-1 6-5 11c-4 6-5 7-7 7-3 0-3 1-6 7l-2 8c2 2-4 4-16 7-15 4-13 4-14 1-1-2-2-2-6-2l-7 2-2 2-14-9Zm77-111c-5-2-7-4-4-4h3l-3-2-2-3 5-2c6-3 7-3 14-1 2 0 1-1-1-4-4-4-4-4-2-6s2-3 0-3-2-2 0-5c2-4 4-4-18-2-14 1-16 1-19 3-5 3-6 7-5 15l1 6 5 2c13 5 21 7 25 7h5l-4-1Zm46-19c0-3 1-4 2-4 3-1 1-7-2-9l-3-1-1 6c-1 5 0 7 1 9 2 4 3 4 3-1Z" />
  <path class="fill fill--10" d="M205 249c0-3-1-3-6-4s-5-2-4-3c1-3 0-3-5-1l-4 2-2-5-2-4-3 5-2 6c-1-1 0-8 1-16v-22c-2-7-2-8 1-17l3-9 3 6c1 3 3 5 4 5l1 1a113 113 0 0 0-3 13c-1 1 0 2 5 2 4 1 5 1 3 3v4c0 1 2 2 8 3a164 164 0 0 1 28 4c8 1 11 2 14 5l3 4h-3c-2 0-5 2-12 7-6 6-10 8-17 10l-10 4-1-3Z" />
  <path class="fill fill--40" d="M230 413c-8-6-9-6 10-7 11-2 15-3 9-3-2 0-4 0-4-2-1-2-1-2 2-1 3 0 4 0 4-2 0-1 1-3 6-5 7-3 7-3 6-6-1-2-1-3 2-5l5-4 25-17c4-2 7-6 13-14 8-10 12-14 10-9l-5 12c-3 10-5 12-11 19-4 4-7 7-9 7-3 0-2 0-1 4 1 2 1 4-3 11-3 8-3 8-1 9l1 1c-1 1-2 4-1 5l6-1c15-5 14-5 14-2l-2 1-7 5c-4 3-5 4-7 3l-7 1c-2 1-11 3-24 4l-22 2-9-6ZM237 337c-8-5-13-9-13-11-2-7-6-30-5-31l2 1c2 1 3 3 5 14 2 9 3 9 7 7l3-2 4 5c3 3 5 4 10 6l7 2 5-3c5-2 5-3 5-5l-1-3c0-1-1-2-4-2-4 0-6-1-5-4 2-2 1-2-6-7-8-6-7-7 6-8h10l-3-3c-4-3-8-4-8-2s-3 1-5-1c-1-2-2-2-5-2-2 0-2 0 0-1 1-2 2-2 8-1h9c4 0 7 1 4 2l-2 2c0 2 4 3 9 2 3-1 4-1 4-3l4-3c6-1 7-1 6 2s0 3 4 2c4 0 5 0 10 5 2 3 5 5 6 5l5-8 5-15 1-7-13-12c-10-10-12-12-13-11l-1 3-1 1 2-9 17 10c17 12 17 12 17 22 0 4 2 5 2 1v-2l1 2c1 3 2 3 4 0 1-3 3-3 3 0l1 4 1 3 3-6c2-5 3-7 5-7s2 1 1 5l-3 9c-1 4-2 5-3 5-3 0-8 7-7 10l-4 8c-5 6-6 7-4 2 2-4 2-4 0-4-2 1-2 0-2-5l-1-6-4 3c-3 3-4 5-4 7s-1 6-5 11c-4 6-5 7-7 7-3 0-3 1-6 7l-2 8c2 2-4 4-16 7-15 4-13 4-14 1-1-2-2-2-6-2l-7 2-2 2-14-9Zm35 1c0-2 1-3 7-1h10c4-2 4-2 5-7l3-4c1 0 1-2-1-5-1-3-1-4 1-13l2-9-2-3c-3-2-3-2-14-1s-17 3-17 5l5 2 3 1c2 1 2 2 0 5l-3 4 4 1c5 1 5 1 4 4 0 4 0 4-6 6s-7 3-9 8l-3 5 5 1 6 1Z" />
  <path class="fill fill--30" d="M297 275c-6-2-8-3-9-5 0-2-1-3-2-3l-3-3c-2-3-3-3-9-1l-5 2-6-6-6-6 4-28 3-28-11-4-14-5a433 433 0 0 0-32-12l1-8 3-8-3-7-3-8 5-2c4 0 5-1 5-3l-1-5c-1-4-1-4 3-5 4 0 4 0 6-6 2-5 2-6 7-9l6-3 34 8a4180 4180 0 0 0 41 10l-25-1h-32c1 1 0 2-1 3-2 1-3 3-4 6-1 4-1 5 1 8 3 5 2 8-1 8l-3 1-4 3c-4 2-4 3-5 10l-1 4 8 6c5 4 9 6 17 9l11 4 28-1 29-1 2 4c2 3 3 4 2 7-1 4-2 4 0 4s2 1 0 6c-1 3-1 4 1 5l2 2-5 3c-8 3-9 4-6 6 2 1 2 1-3 1l-10-2c-4-2-4-2-2-3h3l-3-2-2-3 5-2c6-3 7-3 14-1 2 0 1-1-1-4-4-4-4-4-2-6s2-3 0-3-2-2 0-5c2-4 4-4-18-2-22 1-25 3-24 17 1 8 0 7 15 12 7 2 9 3 6 3l-19-2-3-10c-2-10-3-11-9-12-4 0-4-3-7 24l-3 19 3 6 3 6h10c7-1 9-1 9 1s2 1 2-2l2-3a98 98 0 0 1 9 22h-3Z" />
  <path class="fill fill--20" d="M205 249c0-3-1-3-6-4s-5-2-4-3c1-3 0-3-5-1l-4 2-2-5-2-4-3 5-2 6c-1-1 0-8 1-16v-22c-2-7-2-8 1-17l3-9 3 6c1 3 3 5 4 5l1 1a113 113 0 0 0-3 13c-1 1 0 2 5 2 4 1 5 1 3 3v4c0 1 2 2 8 3a164 164 0 0 1 28 4c8 1 11 2 14 5l3 4h-3c-2 0-5 2-12 7-6 6-10 8-17 10l-10 4-1-3ZM355 237l1-10 1-5 2 4c3 5 3 6-1 11l-4 4 1-4ZM356 217l-3-4v-22c0-21 0-23 2-24 2-2 2-3 1-5-2-5 1-2 7 7s6 10 6 16l1 9c1 2 0 3-1 3-2 0-2 0-2 2l-2 13-3 4-3 4-3-3Zm4-10c0-3 1-4 2-4 3-1 1-7-2-9l-3-1-1 6c-1 5 0 7 1 9 2 4 3 4 3-1ZM348 143c-3-6-4-7-10-9l-6-4 3-2c2-1 3-1 9 6s8 10 7 13l-3-4Z" />
</svg>
