<svg width="256" height="256" viewBox="0 0 256 256" fill="none">
<g clip-path="url(#clip0_8_584)">
<path d="M23.1425 250.01C25.0369 238.029 29.0305 223.13 31.3857 219.136C33.4849 215.603 38.5025 210.022 41.3697 207.974C45.0049 205.466 48.5377 203.674 57.3441 199.987C61.1329 198.349 65.4337 196.557 66.8161 195.994C68.2497 195.379 71.0145 194.15 72.9601 193.229C74.9569 192.307 78.6433 190.771 81.1521 189.798C87.1425 187.494 86.8353 187.648 90.1121 185.805C91.6481 184.934 93.5425 183.859 94.3617 183.45C96.1025 182.528 96.1025 181.76 94.7201 168.909C93.3889 156.723 93.4913 157.338 90.6241 150.272C88.2689 144.589 85.6065 134.707 85.2993 130.458C85.1457 128.614 84.6849 127.027 84.0193 126.106C82.4321 124.006 79.3601 114.381 79.3601 111.667C79.3601 110.336 79.7185 107.366 80.1281 104.96C80.5889 102.554 80.8961 97.9457 80.8961 94.7201C80.8449 91.4945 81.1009 88.0129 81.3569 87.0401C82.1249 84.5313 82.0737 81.3569 81.2033 79.2577C80.4865 77.6193 80.3329 74.4961 80.3329 62.9761C80.2817 56.8832 80.7937 53.4528 81.9713 50.9952C83.5073 47.8208 84.7361 46.9504 85.8113 48.3328C86.3745 49.152 86.5281 49.2032 86.5281 48.5376C86.5281 48.0768 86.2209 47.616 85.8625 47.4624C85.4529 47.3088 85.6065 46.848 86.3745 45.9776C87.5009 44.8 87.5009 44.7488 86.5281 44.032C85.8625 43.5712 85.7089 43.1104 86.0161 42.752C86.3233 42.3936 86.4257 42.0352 86.2721 41.8816C86.1185 41.7792 86.7841 40.9088 87.7569 39.9872C88.9857 38.8096 90.1121 38.2464 91.6993 38.0416C93.3889 37.8368 94.4641 37.2736 96.0001 35.84C97.1265 34.7648 98.6113 33.792 99.2769 33.6896C101.018 33.4848 101.888 31.8976 100.762 31.0272C99.3281 29.952 99.8913 27.8528 101.632 27.6992C102.707 27.5968 103.936 27.0336 103.834 26.7264C103.731 26.112 104.55 24.3712 105.523 23.296C106.035 22.7328 106.394 22.0672 106.342 21.76C106.291 21.504 107.213 21.1968 108.442 21.0944C110.029 20.992 111.002 21.248 112.128 22.016C114.227 23.5008 115.507 23.1936 115.302 21.248C115.2 20.4288 114.842 19.5584 114.534 19.3536C114.125 19.0976 114.33 18.8416 115.098 18.6368C115.712 18.432 116.224 17.9712 116.224 17.6128C116.224 16.8448 117.043 16.64 117.402 17.3056C117.555 17.5104 120.064 17.5104 122.982 17.3568C127.59 17.1008 128.358 17.152 128.922 17.92C129.536 18.7392 129.69 18.688 131.174 17.3056C132.301 16.2304 133.12 15.872 133.837 16.128C134.451 16.2816 137.83 16.5376 141.466 16.7424C145.05 16.896 147.968 17.2032 147.968 17.408C147.968 17.92 146.637 18.432 145.459 18.432C144.998 18.432 144.026 19.2 143.36 20.1216C142.387 21.4528 142.336 21.6064 143.206 20.8384C143.77 20.3776 144.896 19.968 145.766 19.968C146.637 19.968 147.712 19.5584 148.224 18.944C148.838 18.2784 149.76 17.92 150.989 17.92C152.73 17.9712 157.85 19.456 158.566 20.1728C158.72 20.3264 159.539 20.48 160.358 20.48C161.229 20.48 161.792 20.736 161.792 21.1968C161.792 21.6064 162.099 21.8624 162.458 21.8112C162.765 21.8112 164.506 22.0672 166.298 22.4256C168.755 22.9376 169.626 23.3472 169.933 24.1664C170.138 24.7296 171.315 25.7024 172.544 26.3168C174.285 27.136 175.104 28.0064 176.077 29.9008C176.998 31.6416 178.074 32.8192 179.814 33.8944C182.477 35.5328 182.477 35.5328 181.811 36.7616C181.606 37.2224 181.248 38.2464 181.043 39.0144L180.736 40.448H184.013C187.597 40.448 187.648 40.4992 186.624 43.9296C186.419 44.544 186.47 45.056 186.726 45.056C186.982 45.056 187.085 45.824 186.982 46.7968C186.88 47.7696 187.034 48.6912 187.392 48.896C187.802 49.152 187.802 49.408 187.341 49.9712C186.573 50.8928 187.546 53.7088 189.082 54.8864C190.157 55.7056 190.157 55.7569 189.286 56.7297C188.314 57.7537 188.57 59.392 189.696 59.392C190.31 59.392 193.024 62.8737 193.024 63.6417C193.024 63.8465 192.563 63.5393 192 62.9761C190.566 61.5425 189.286 61.5936 189.747 63.0784C189.901 63.6928 190.157 66.0481 190.208 68.3009C190.362 71.7825 190.208 72.6017 189.389 73.5233C188.467 74.4961 188.467 74.7009 189.133 76.3393C189.85 78.0289 189.798 78.3361 188.723 80.6913C188.058 82.0737 187.136 84.3777 186.624 85.7601C186.163 87.1937 185.446 89.2417 184.986 90.3681C184.269 92.3137 184.32 95.3345 185.139 97.4337C185.395 98.0993 185.19 98.3041 184.32 98.3041C183.501 98.3041 183.245 98.5601 183.347 99.4817C183.398 100.096 183.296 101.734 183.04 103.066C182.835 104.397 182.682 107.315 182.784 109.466C182.835 111.616 182.886 114.278 182.886 115.354C182.886 116.531 182.118 118.784 180.838 121.498C174.797 133.99 173.517 136.909 173.056 139.264C172.8 140.646 172.134 142.797 171.571 143.974C171.059 145.203 170.445 146.739 170.24 147.456C169.523 149.76 163.942 161.178 163.328 161.536C162.918 161.792 162.867 162.048 163.226 162.253C163.584 162.458 163.635 163.277 163.328 164.608C161.894 170.752 163.482 173.824 169.728 176.794C175.053 179.354 180.378 182.528 183.296 184.781C184.525 185.805 188.672 188.262 192.512 190.259C196.301 192.256 201.523 195.021 204.032 196.352C206.592 197.734 211.046 200.141 214.016 201.728C226.15 208.23 227.789 209.152 232.448 212.275C237.67 215.706 238.49 216.422 246.733 224.461C251.085 228.71 252.365 230.298 253.901 233.472L255.744 237.312L255.898 246.682L256.051 256H139.11H22.1697L23.1425 250.01Z" fill="#043B71"/>
<path d="M105.472 212.582L100.096 211.251L95.6416 206.848L91.136 202.445V195.686C91.136 192 90.9824 188.928 90.7776 188.928C90.5216 188.928 89.7024 189.747 88.9344 190.72C87.7056 192.256 87.3472 192.461 86.528 192C85.248 191.283 85.248 190.362 86.528 189.184C87.04 188.723 87.4496 188.058 87.3984 187.802C87.296 187.341 88.6784 186.47 94.3616 183.45C96.1024 182.528 96.1024 181.709 94.72 168.96C94.1568 163.84 93.7984 159.488 93.952 159.334C94.1056 159.181 94.9248 159.693 95.744 160.512C96.8704 161.587 97.7408 163.379 98.9184 167.168C99.7888 169.984 100.557 172.851 100.608 173.568C100.762 175.258 103.885 181.862 104.448 181.504C104.653 181.35 106.65 182.63 108.8 184.32C111.002 186.01 112.845 187.392 112.896 187.392C112.947 187.392 114.227 187.597 115.661 187.904C117.76 188.314 120.064 188.16 127.027 187.136C131.84 186.419 136.602 185.856 137.626 185.805C139.059 185.805 140.646 185.037 143.872 182.886L148.224 179.917L148.634 175.155C148.838 172.493 148.941 170.24 148.787 170.138C148.582 169.933 143.872 172.954 143.36 173.568C142.848 174.285 140.851 175.104 137.216 176.077L133.478 177.101L127.027 176.128C123.494 175.565 119.808 174.95 118.938 174.797C117.606 174.592 117.248 174.285 117.248 173.363C117.248 172.595 116.736 171.93 115.866 171.469C115.046 171.059 114.33 170.65 114.176 170.496C114.022 170.342 112.794 169.626 111.36 168.858C108.954 167.578 108.595 167.117 106.138 162.099L103.424 156.672H99.8912H96.4096L95.3344 154.112C94.3104 151.654 92.3136 150.016 91.5968 151.091C90.6752 152.576 85.76 136.499 85.2992 130.458C85.1456 128.614 84.6848 127.027 84.0192 126.106C82.432 124.006 79.36 114.381 79.36 111.667C79.36 110.336 79.7184 107.366 80.128 104.96C80.5888 102.554 80.896 97.9456 80.896 94.72C80.8448 91.4944 81.1008 88.0128 81.3568 87.04C82.1248 84.5312 82.0736 81.3568 81.2032 79.2576C80.4864 77.6192 80.3328 74.496 80.3328 62.976C80.2816 56.8832 80.7936 53.4528 81.9712 50.9952C83.5072 47.8208 84.736 46.9504 85.8112 48.3328C86.3744 49.152 86.528 49.2032 86.528 48.5376C86.528 48.0768 86.2208 47.616 85.9136 47.4624C85.4528 47.3088 85.6064 46.848 86.3744 45.9776C87.5008 44.8 87.5008 44.7488 86.528 44.032C85.8624 43.5712 85.7088 43.1104 86.016 42.752C86.3232 42.3936 86.4256 42.0352 86.272 41.8816C86.1184 41.7792 86.784 40.9088 87.7568 39.9872C88.9856 38.8096 90.112 38.2464 91.6992 38.0416C93.3888 37.8368 94.464 37.2736 96 35.84C97.1264 34.7648 98.6112 33.792 99.2768 33.6896C101.018 33.4848 101.888 31.8976 100.762 31.0272C99.584 30.1568 99.584 29.0304 100.71 28.1088C101.171 27.6992 101.581 27.4944 101.581 27.5968C101.683 27.9552 103.936 27.0848 103.834 26.7264C103.731 26.112 104.55 24.3712 105.523 23.296C106.035 22.7328 106.445 22.0672 106.445 21.76C106.496 20.6848 110.541 20.8896 112.128 22.016C114.227 23.5008 115.507 23.1936 115.302 21.248C115.2 20.4288 114.842 19.5584 114.534 19.3536C114.125 19.0976 114.33 18.8416 115.098 18.6368C115.712 18.432 116.224 17.9712 116.224 17.6128C116.224 16.8448 117.043 16.64 117.402 17.3056C117.555 17.5104 120.064 17.5104 122.982 17.3568C127.59 17.1008 128.358 17.152 128.922 17.92C129.536 18.7392 129.69 18.688 131.174 17.3056C132.301 16.2304 133.12 15.872 133.837 16.128C134.451 16.2816 137.83 16.5376 141.466 16.7424C145.05 16.896 147.968 17.2032 147.968 17.408C147.968 17.92 146.637 18.432 145.459 18.432C144.998 18.432 144.026 19.2 143.36 20.1216C142.387 21.4528 142.336 21.6064 143.206 20.8896C143.77 20.3776 144.896 19.968 145.766 19.968C146.637 19.968 147.712 19.5584 148.224 18.944C148.838 18.2784 149.76 17.92 150.989 17.92C152.73 17.9712 157.85 19.456 158.566 20.1728C158.72 20.3264 159.539 20.48 160.358 20.48C161.229 20.48 161.792 20.736 161.792 21.1968C161.792 21.6064 162.099 21.8624 162.458 21.8112C162.765 21.8112 164.506 22.0672 166.298 22.4256C168.755 22.9376 169.626 23.3472 169.933 24.1664C170.138 24.7296 171.315 25.7024 172.544 26.3168C174.285 27.136 175.104 28.0064 176.077 29.9008C176.998 31.6416 178.074 32.8192 179.814 33.8944C182.477 35.5328 182.477 35.5328 181.811 36.7616C181.606 37.2224 181.248 38.2464 181.043 39.0656L180.736 40.448H184.013C187.597 40.448 187.648 40.4992 186.624 43.9296C186.419 44.544 186.47 45.056 186.726 45.056C186.982 45.056 187.085 45.824 186.982 46.7968C186.88 47.7696 187.034 48.6912 187.392 48.896C187.802 49.152 187.802 49.408 187.341 49.9712C186.573 50.8928 187.546 53.7088 189.082 54.8864C190.157 55.7056 190.157 55.7568 189.286 56.7296C188.314 57.7536 188.57 59.392 189.696 59.392C190.31 59.392 193.024 62.8736 193.024 63.6416C193.024 63.8464 192.563 63.5392 192 62.976C190.566 61.5424 189.286 61.5936 189.747 63.0784C189.901 63.6928 190.157 66.048 190.208 68.3008C190.362 71.7824 190.208 72.6016 189.389 73.5232C188.467 74.496 188.467 74.7008 189.133 76.3392C189.85 78.0288 189.798 78.336 188.723 80.6912C188.058 82.0736 187.136 84.3776 186.624 85.76C186.163 87.1936 185.446 89.2416 184.986 90.368C184.269 92.3136 184.32 95.3344 185.139 97.4336C185.395 98.0992 185.19 98.304 184.32 98.304C183.501 98.304 183.245 98.56 183.347 99.4816C183.398 100.096 183.296 101.734 183.04 103.066C182.835 104.397 182.682 107.315 182.784 109.466C182.835 111.616 182.886 114.278 182.886 115.354C182.886 116.531 182.118 118.784 180.838 121.498C174.797 133.99 173.517 136.909 173.056 139.264C172.8 140.646 172.134 142.797 171.571 143.974C171.059 145.203 170.445 146.739 170.24 147.456C169.523 149.76 163.942 161.178 163.328 161.536C162.918 161.792 162.867 162.048 163.226 162.253C163.584 162.458 163.635 163.277 163.328 164.608C161.792 171.264 163.328 173.67 171.725 177.818C175.514 179.712 177.562 180.992 177.203 181.248C176.845 181.453 176.435 182.579 176.282 183.808C176.026 185.754 175.565 186.317 172.442 188.877C170.547 190.464 168.294 192.102 167.526 192.512C163.789 194.611 159.846 196.966 158.208 198.042C157.235 198.707 155.904 199.475 155.29 199.731C154.573 199.987 154.112 200.602 154.112 201.216C154.112 201.882 153.754 202.24 153.139 202.24C152.627 202.24 151.04 203.162 149.709 204.288C147.558 206.029 146.995 206.285 145.562 206.029C143.514 205.619 141.978 206.592 142.899 207.718C143.616 208.538 143.667 208.486 140.8 209.613C139.366 210.176 135.27 210.79 129.792 211.251C125.03 211.661 119.142 212.48 116.736 212.992C111.514 214.221 112.179 214.221 105.472 212.582ZM131.942 146.432C130.202 144.947 128 144.384 128 145.408C128 146.278 126.669 145.971 125.696 144.896C124.877 143.974 124.365 143.923 121.549 144.179C119.808 144.384 117.76 144.384 117.043 144.179C115.917 143.923 115.712 143.565 115.712 141.875C115.712 139.878 115.149 139.264 113.254 139.264C111.258 139.213 110.899 138.445 112.077 136.55C112.64 135.578 113.152 134.656 113.152 134.502C113.152 133.939 104.755 136.55 104.55 137.216C104.397 137.574 104.858 138.291 105.523 138.854C107.827 140.646 113.306 144.077 114.125 144.179C114.586 144.23 116.224 144.845 117.76 145.613C121.088 147.149 124.672 147.814 129.946 147.917L133.683 147.968L131.942 146.432ZM149.248 144.486C152.32 143.667 152.832 143.36 152.883 142.387C152.934 141.312 152.832 141.261 150.067 141.568C146.176 142.029 145.408 142.285 145.408 143.155C145.408 143.565 145.152 143.821 144.794 143.77C144.486 143.667 144.077 144.026 143.974 144.538C143.718 145.664 144.64 145.664 149.248 144.486ZM156.672 138.342C156.672 136.755 156.416 136.243 155.085 135.475C154.214 134.963 153.395 134.656 153.293 134.81C152.781 135.27 155.75 140.288 156.518 140.288C156.57 140.288 156.672 139.418 156.672 138.342ZM129.997 136.346C131.277 135.578 131.738 135.526 132.608 136.09C133.171 136.397 133.837 136.704 134.042 136.704C134.4 136.704 135.68 134.554 135.68 133.888C135.68 133.786 134.605 133.53 133.274 133.325C131.43 133.069 130.048 132.352 127.744 130.56C126.054 129.229 124.16 127.898 123.546 127.539C122.419 126.976 122.368 127.027 122.368 128.563C122.368 129.997 122.266 130.15 121.139 129.843C120.166 129.587 119.654 129.894 118.682 131.226C116.634 133.888 116.634 133.99 118.221 135.117C120.883 137.011 127.59 137.728 129.997 136.346ZM156.723 107.213C159.283 105.933 160.051 105.882 163.584 106.854C164.557 107.11 164.557 107.059 163.789 106.24C162.56 105.011 156.365 103.27 153.344 103.373C151.962 103.373 148.992 103.578 146.842 103.731C143.411 103.987 142.848 104.192 142.848 104.96C142.848 106.803 144.282 107.52 147.866 107.571C150.682 107.622 152.115 107.827 154.01 108.493C154.061 108.544 155.29 107.93 156.723 107.213ZM128.41 106.342C128.512 105.779 128.461 104.602 128.307 103.68C128 102.042 127.898 101.99 122.982 100.762C118.272 99.584 117.658 99.5328 111.77 100.045C106.803 100.506 105.318 100.813 104.602 101.581C103.731 102.502 103.731 102.502 104.96 102.195C109.312 101.12 109.824 101.171 110.848 103.066C112.282 105.728 114.637 106.086 117.299 103.987C119.398 102.298 119.501 102.298 120.013 104.806C120.32 106.189 120.678 106.445 122.778 106.906C126.259 107.674 128.205 107.469 128.41 106.342ZM117.248 97.28C117.248 96.256 114.739 94.208 113.408 94.1568C112.691 94.1056 111.821 94.0544 111.514 94.0032C111.155 93.952 110.899 94.2592 111.002 94.6688C111.104 95.0272 110.746 95.7952 110.285 96.3072C109.517 97.1776 109.568 97.2288 112.179 97.4336C113.715 97.536 115.456 97.6384 116.122 97.6896C116.736 97.7408 117.248 97.536 117.248 97.28ZM89.7536 76.4416C90.0096 76.288 90.0608 75.8784 89.9072 75.4688C89.7536 75.0592 90.112 74.496 90.7264 74.1888C91.5968 73.728 91.6992 73.3184 91.4432 71.7824C91.1872 70.0416 91.3408 69.6832 94.0544 66.9696C95.6928 65.3312 97.3312 64 97.792 64C98.5088 63.9488 99.5328 62.6176 103.322 56.4736C105.267 53.3504 105.472 53.1968 110.746 51.712C114.586 50.6368 114.893 50.6368 119.603 51.4048C123.904 52.0704 125.133 52.5824 130.458 55.4496C135.526 58.2144 136.96 58.7776 139.827 59.0848C141.722 59.2384 143.616 59.2896 144.077 59.0848C145.05 58.7264 145.152 57.2928 144.282 56.4224C143.104 55.2448 145.357 55.7568 147.354 57.088C148.838 58.112 149.862 58.368 152.422 58.368H155.597L155.955 60.928C156.262 63.3344 156.365 63.488 157.747 63.488C159.539 63.488 159.539 63.3344 158.106 61.0304L156.979 59.2384L160.512 59.5456C162.406 59.7504 164.096 60.0064 164.25 60.16C164.403 60.3136 164.25 60.9792 163.942 61.696C163.328 62.976 163.328 62.976 164.762 62.2592C165.53 61.8496 167.424 60.2112 168.96 58.6752C170.496 57.088 171.93 55.808 172.134 55.808C172.339 55.808 172.544 57.1904 172.544 58.88V61.952H174.797C176.589 61.952 177.254 61.696 177.869 60.8256C178.995 59.2384 178.893 58.5216 177.408 56.7808C176.435 55.6032 176.282 54.9888 176.589 54.1184C176.845 53.504 177.51 51.7632 178.125 50.2784L179.2 47.616L176.947 42.5984C173.005 33.8432 173.005 33.8432 171.059 35.8912C170.138 36.9152 170.138 37.0176 171.008 37.888C171.52 38.4 172.032 39.9872 172.237 41.7792C172.442 43.4688 172.749 45.2096 172.902 45.7216C173.107 46.4896 172.954 46.6432 172.083 46.336C171.52 46.1824 170.598 46.2848 170.035 46.592C169.114 47.0528 168.96 46.8992 168.499 45.2096C167.27 40.1408 166.963 38.7072 167.219 38.3488C167.731 37.5296 165.734 37.4272 165.12 38.2464C164.557 39.0144 164.352 38.8608 163.328 36.8128C160.563 31.3856 159.078 30.4128 158.515 33.7408C158.054 36.7104 157.389 36.7104 155.955 33.8432C155.238 32.4608 154.419 31.1808 154.163 30.976C153.293 30.464 148.122 31.5392 146.586 32.5632C144.998 33.6384 144.026 33.5872 142.694 32.3584C141.978 31.744 141.875 31.0784 142.131 29.3888C142.285 28.2112 142.285 26.9824 142.08 26.6752C141.722 26.0096 138.342 27.5968 137.216 28.928C136.653 29.6448 136.704 29.7984 137.626 30.0544C138.291 30.208 138.752 30.72 138.752 31.2832C138.752 32.3584 138.342 32.4608 137.216 31.744C136.653 31.3856 136.346 31.6416 135.885 32.6656C135.322 33.9456 135.27 33.9968 134.912 33.024C133.939 30.5152 130.509 29.3376 129.28 31.0784C128.717 31.8464 128.512 31.6928 127.539 29.8496C126.259 27.2896 125.747 26.9312 124.928 27.904C124.211 28.7232 122.573 28.928 122.163 28.2112C121.907 27.8528 114.176 28.0576 113.715 28.4672C113.562 28.5696 113.818 28.9792 114.278 29.3376C115.405 30.208 115.917 33.28 114.995 33.28C114.586 33.28 114.074 34.048 113.92 34.9184C113.203 38.144 112.947 38.2976 110.029 37.7344C108.288 37.376 107.315 37.376 107.11 37.7344C106.138 39.168 104.448 39.4752 101.427 38.656C99.7888 38.2464 98.2528 37.888 98.0992 37.888C97.2288 37.888 98.048 38.912 100.198 40.4992L102.656 42.24L100.096 42.5472C98.6624 42.752 95.9488 43.0592 94.0544 43.264L90.5216 43.6224L90.88 45.4656C91.0336 46.5408 91.2896 47.7696 91.4432 48.2304C91.648 48.8448 90.8288 49.5616 88.3712 50.944C86.528 51.968 84.8384 53.0432 84.6848 53.3504C84.2752 54.016 81.8688 76.4416 82.176 76.6976C82.2784 76.8512 82.7904 76.0832 83.2512 75.0592C83.7632 74.0352 84.3264 73.216 84.5312 73.216C84.736 73.216 85.0432 74.1376 85.248 75.264C85.6064 77.312 85.6064 77.3632 87.4496 77.0048C88.5248 76.8 89.5488 76.544 89.7536 76.4416ZM176.384 69.3248C177.254 68.6592 177.306 68.5056 176.64 68.096C175.667 67.4816 175.053 67.4816 174.131 68.0448C173.517 68.4544 173.517 68.6592 174.029 69.3248C174.848 70.2976 175.104 70.2976 176.384 69.3248ZM180.48 62.5152C180.122 61.2864 179.251 61.1328 177.92 62.1568C176.947 62.8224 176.998 62.9248 178.688 63.3856C180.838 63.9488 180.941 63.8976 180.48 62.5152ZM180.736 36.4544C180.736 35.3792 179.507 34.3552 178.893 34.9696C178.739 35.1232 178.842 36.096 179.2 37.1712C179.661 38.5024 179.968 38.8608 180.275 38.3488C180.531 37.9392 180.736 37.12 180.736 36.4544ZM171.725 31.1296C173.466 28.672 172.237 26.7776 170.189 28.7232C169.523 29.3376 168.96 29.696 168.96 29.4912C168.96 29.2352 168.602 29.3376 168.192 29.696C167.117 30.5664 167.219 31.1808 168.602 31.744C170.342 32.4608 170.906 32.3584 171.725 31.1296ZM166.605 28.6208C168.09 26.88 168.243 26.368 167.322 25.7536C165.888 24.8832 165.734 25.0368 163.686 28.6208L162.765 30.208H164.045C164.813 30.208 165.786 29.5936 166.605 28.6208ZM109.466 22.8864C109.568 22.4256 109.312 22.016 108.954 22.016C108.544 22.016 108.237 22.4768 108.186 23.0912C108.083 24.32 109.21 24.1152 109.466 22.8864Z" fill="#0654A2"/>
<path d="M31.2319 219.341C33.5871 215.501 38.4511 210.022 41.3695 207.974C45.0047 205.466 48.5375 203.674 57.3439 199.936C61.1327 198.349 65.5359 196.506 67.1231 195.789C68.7103 195.123 70.4511 194.56 70.9631 194.56C73.5743 194.56 68.2495 197.53 55.2959 203.418L41.2159 209.818L37.6319 214.477C33.3823 219.955 32.9215 220.467 31.2831 220.928L30.0543 221.286L31.2319 219.341Z" fill="#043B71"/>
<path d="M105.472 212.582L100.096 211.251L95.6415 206.848L91.1359 202.445V195.686C91.1359 192 90.9823 188.928 90.7775 188.928C90.5215 188.928 89.7023 189.747 88.9343 190.72C87.7055 192.256 87.3471 192.461 86.5279 192C85.2479 191.283 85.2479 190.362 86.5279 189.184C87.0399 188.723 87.4495 188.058 87.3983 187.802C87.3471 187.546 87.6543 187.136 88.0639 186.88C88.4735 186.675 90.0607 185.754 91.5455 184.883C93.0303 184.013 94.4127 183.296 94.5151 183.296C94.6687 183.296 95.1295 184.115 95.5391 185.139C96.2047 186.726 96.2047 187.085 95.5903 187.853C95.1807 188.314 94.4639 189.389 94.0031 190.31C93.2351 191.846 93.2351 192.358 93.9519 196.966L94.7711 201.984L97.9455 205.21C101.581 208.845 101.581 208.896 112.23 210.483C116.377 211.098 119.654 211.814 119.501 212.019C119.245 212.429 112.589 214.067 111.513 213.965C111.155 213.914 108.441 213.299 105.472 212.582Z" fill="#043B71"/>
<path d="M128.717 210.995C128.87 210.739 129.638 210.381 130.406 210.176C134.093 209.306 137.267 208.282 137.011 208.026C136.909 207.872 132.71 208.179 127.795 208.64L118.784 209.51L115.149 206.797C110.797 203.571 110.694 203.674 119.808 202.752C125.542 202.189 127.693 201.728 124.518 201.728C123.392 201.728 122.726 201.37 122.317 200.653C121.754 199.578 121.856 199.578 123.597 199.885C125.235 200.192 125.44 200.141 125.44 199.168C125.44 198.349 126.208 197.734 128.717 196.557C131.84 195.072 131.994 194.918 131.533 193.741C131.277 193.024 131.072 192.358 131.072 192.256C131.072 192.154 132.147 191.232 133.427 190.208C135.373 188.774 135.629 188.416 134.707 188.416C134.093 188.416 132.762 188.774 131.738 189.184C130.662 189.645 126.669 190.208 122.266 190.515C114.893 191.078 114.534 191.027 111.718 189.901C110.131 189.286 108.493 188.518 108.186 188.262C107.213 187.546 104.346 182.323 104.55 181.709C104.653 181.402 106.547 182.579 108.749 184.269C110.95 186.01 112.845 187.392 112.896 187.392C112.947 187.392 114.227 187.597 115.661 187.904C117.76 188.314 120.064 188.16 127.027 187.136C131.84 186.419 136.602 185.856 137.626 185.805C139.059 185.805 140.646 185.037 143.872 182.886L148.224 179.917L148.634 175.155C148.838 172.493 148.89 170.24 148.736 170.086C148.582 169.933 147.968 170.24 147.354 170.803C146.33 171.725 146.278 171.725 146.586 170.854C146.842 170.138 146.739 169.984 146.022 170.189C145.562 170.342 142.541 171.059 139.315 171.776C133.53 173.056 132.659 173.005 132.608 171.418C132.608 171.162 131.533 171.008 130.202 171.008C128.461 171.008 127.488 171.315 126.618 172.134L125.44 173.21L118.784 168.806C114.278 165.786 112.077 163.994 111.872 163.226C111.053 159.539 109.107 147.763 109.261 147.61C109.363 147.456 109.978 147.61 110.541 147.917C111.565 148.48 111.974 149.606 113.203 155.238C114.074 159.437 114.278 159.642 116.429 158.618L118.17 157.747L119.91 159.795C121.293 161.434 122.266 161.997 125.133 162.816L128.614 163.789L131.174 162.509C133.325 161.434 133.683 161.024 133.427 160.102C133.274 159.488 133.12 158.669 133.12 158.362C133.12 157.952 132.403 157.696 131.123 157.696C128.922 157.696 127.795 156.826 128.512 155.648C129.28 154.47 129.229 154.47 125.645 151.808C121.549 148.838 121.805 148.531 128.717 148.122L133.53 147.814L131.84 146.381C130.202 144.947 128 144.384 128 145.408C128 146.278 126.669 145.971 125.645 144.845C124.979 144.128 124.262 143.872 123.29 143.974C121.907 144.179 121.907 144.179 122.726 143.258C123.699 142.182 123.699 142.234 121.446 141.312C119.962 140.749 119.654 140.8 118.784 141.568C118.221 142.08 117.76 142.899 117.76 143.462C117.76 144.486 117.709 144.538 116.531 144.077C115.968 143.872 115.712 143.104 115.712 141.824C115.712 139.878 115.149 139.264 113.254 139.264C111.258 139.213 110.899 138.445 112.077 136.55C112.64 135.578 113.152 134.656 113.152 134.502C113.152 133.939 104.755 136.55 104.55 137.216C104.397 137.574 104.96 138.342 105.677 138.957C106.957 139.981 107.008 140.083 106.189 141.21C105.421 142.336 105.318 142.336 104.397 141.517C103.834 141.005 103.424 140.902 103.424 141.21C103.424 142.797 102.502 141.517 101.888 139.162C101.53 137.677 101.12 136.192 101.018 135.834C100.762 135.117 112.23 125.44 113.357 125.44C114.432 125.44 114.432 125.389 112.64 129.382C111.821 131.226 111.104 132.864 111.104 133.018C111.104 133.12 112.128 132.403 113.408 131.379C115.098 129.946 116.019 129.536 116.787 129.792C117.709 130.099 117.811 129.997 117.35 129.229C116.941 128.512 117.094 127.795 117.811 126.362L118.835 124.416L117.504 123.802C116.787 123.494 116.224 123.085 116.224 122.88C116.224 122.47 118.374 120.934 119.296 120.73C120.064 120.525 122.368 126.208 122.368 128.41C122.368 129.997 122.266 130.15 121.139 129.843C119.962 129.536 118.733 130.714 117.094 133.478C116.378 134.605 119.603 136.192 123.853 136.806C127.181 137.267 127.898 137.523 127.437 138.035C126.976 138.598 127.539 139.008 129.843 140.032C133.427 141.619 133.427 141.619 132.608 142.592C132.045 143.309 132.608 143.36 138.086 143.206L144.23 143.002L143.974 144.282C143.718 145.51 143.77 145.562 145.971 145.203C148.173 144.896 148.326 144.947 150.784 147.456C152.166 148.838 153.549 150.016 153.856 150.016C154.163 150.016 155.341 148.224 156.518 146.074C158.106 143.002 158.669 141.261 158.925 138.547L159.283 134.963L153.242 128.922C149.914 125.594 147.046 122.88 146.893 122.88C146.688 122.88 146.278 123.597 145.971 124.416C145.51 125.798 145.715 126.566 147.507 130.714C150.835 138.189 150.733 137.779 149.094 137.421C145.459 136.653 144.486 136.09 144.179 134.912C143.974 134.195 143.514 133.632 143.104 133.632C142.746 133.632 141.978 132.966 141.466 132.096C140.39 130.253 140.134 130.253 136.96 131.635L134.502 132.71L131.533 129.69L128.512 126.72L130.304 114.176C131.277 107.264 132.198 100.915 132.352 100.045L132.608 98.4577L127.437 96.5633C124.57 95.5393 122.061 94.8225 121.958 94.9761C121.651 95.2833 121.344 95.0273 125.85 98.2529L129.536 100.966V104.96C129.536 108.851 129.485 109.005 128.051 110.029L126.515 111.104L123.904 110.08C121.088 108.954 118.067 109.107 116.378 110.387C115.507 111.002 115.558 111.053 116.838 111.104C118.938 111.104 120.934 112.026 122.522 113.715C123.29 114.586 123.904 115.354 123.904 115.507C123.904 115.61 123.238 115.712 122.368 115.712C121.293 115.712 119.757 116.634 116.736 119.04C113.459 121.754 111.667 122.778 107.827 124.16L102.963 125.901L102.656 124.416C102.349 123.085 101.99 122.88 99.5327 122.368C97.0239 121.856 96.8191 121.702 97.2799 120.781C97.9455 119.552 97.4335 119.501 94.8735 120.576C93.9007 120.986 92.9791 121.344 92.8767 121.344C92.7743 121.344 92.4159 120.32 92.1087 119.04C91.8015 117.76 91.2895 116.787 90.9823 116.89C90.6751 116.992 90.0095 118.272 89.4463 119.706C88.8831 121.19 88.3711 122.317 88.3199 122.266C88.2175 122.163 88.4735 118.682 88.8831 114.432C89.4975 107.674 89.4975 106.342 88.8319 103.27C88.0639 99.8913 88.0639 99.7377 89.4463 95.2321C90.1631 92.6721 90.9823 90.6241 91.1359 90.6241C91.3407 90.6241 91.9551 91.8529 92.5695 93.3377C93.2351 95.1297 93.8495 96.0001 94.4127 95.9489C94.9759 95.8977 95.1807 96.1537 95.0271 96.7169C94.8735 97.1777 94.5151 98.5601 94.2079 99.8401C93.9007 101.12 93.5423 102.502 93.3887 102.963C93.1839 103.629 93.6959 103.885 95.7951 104.141C98.2015 104.448 98.3551 104.55 97.6383 105.37C97.1263 105.933 97.0239 106.598 97.2799 107.315C97.6383 108.237 98.4063 108.442 103.219 108.954C106.394 109.312 108.954 109.363 109.261 109.107C109.568 108.851 111.462 108.493 113.408 108.339C115.405 108.134 117.914 107.878 119.04 107.674L121.088 107.366L118.682 106.547C117.299 106.086 116.275 105.523 116.326 105.216C116.531 104.448 119.194 102.298 119.45 102.758C119.603 103.014 119.859 103.885 120.013 104.755C120.371 106.291 120.576 106.445 123.648 107.008C127.642 107.776 128.512 107.52 128.512 105.626C128.512 102.298 128.256 102.093 122.982 100.762C118.272 99.5841 117.658 99.5329 111.77 100.045C106.803 100.506 105.318 100.813 104.602 101.581C103.731 102.502 103.731 102.502 104.96 102.195C109.158 101.171 109.773 101.222 110.746 102.81C111.923 104.858 111.872 104.96 110.131 104.653C108.442 104.294 107.622 105.165 108.544 106.24C109.056 106.854 109.005 107.059 108.39 107.315C107.93 107.469 106.342 106.752 104.499 105.523C102.605 104.243 100.864 103.424 99.8911 103.424C97.0751 103.424 97.7407 102.502 101.325 101.325C103.322 100.659 104.806 99.9937 104.704 99.7889C104.55 99.6353 103.424 99.1745 102.144 98.8673L99.8399 98.3041L101.222 95.8465C102.042 94.4641 103.014 92.8769 103.424 92.2625L104.192 91.1361L111.309 92.6721C115.251 93.5425 118.784 94.2081 119.245 94.1569C119.706 94.1569 116.326 92.8257 111.77 91.2385C107.213 89.6001 103.373 88.1665 103.219 88.0129C103.066 87.8593 103.475 86.0673 104.192 83.9681L105.472 80.2305L103.936 76.6465C103.117 74.7009 102.554 72.9089 102.656 72.7041C102.81 72.4993 103.936 72.0385 105.216 71.7313C107.059 71.2705 107.52 70.9633 107.315 70.2465C107.213 69.7857 106.957 68.5057 106.752 67.4817C106.445 65.5361 106.445 65.5361 108.493 65.2289C110.438 64.9217 110.592 64.7681 111.514 62.0033C112.384 59.3921 112.691 58.9825 115.098 57.7025L117.76 56.2177L135.066 60.2113C144.538 62.3617 153.037 64.3073 153.958 64.5121L155.597 64.9217L154.88 63.5393C153.242 60.4161 153.037 60.3137 150.63 61.1329C148.582 61.8497 147.866 61.8497 141.978 60.8769C136.704 60.0065 134.042 59.2385 127.181 56.5249L118.835 53.1457L112.384 54.4769C107.418 55.5009 105.523 56.1153 104.09 57.1905L102.195 58.6241L103.475 56.3713C105.011 53.6065 105.779 53.0945 110.746 51.7121C114.586 50.6881 114.893 50.6369 119.603 51.4049C123.904 52.0705 125.133 52.5825 130.458 55.4497C135.526 58.2145 136.96 58.7777 139.827 59.0849C141.722 59.2385 143.616 59.2897 144.077 59.0849C145.05 58.7265 145.152 57.2929 144.282 56.4225C143.104 55.2449 145.357 55.7569 147.354 57.0881C148.838 58.1121 149.862 58.3681 152.422 58.3681H155.597L155.955 60.9281C156.262 63.3345 156.365 63.4881 157.747 63.4881C159.539 63.4881 159.539 63.3345 158.157 61.1329L157.082 59.3921H158.822C161.792 59.3921 164.352 60.0065 164.352 60.7233C164.352 61.0817 163.789 62.0545 163.072 62.8737L161.792 64.4097L163.584 64.7169C164.762 64.9729 165.888 64.8193 166.963 64.2561C168.448 63.4881 168.602 63.4881 169.626 64.3585C170.24 64.8705 169.83 64.2561 168.755 63.0273L166.81 60.8257L169.267 58.3169C170.65 56.9345 171.93 55.8081 172.134 55.8081C172.339 55.8081 172.544 57.1905 172.544 58.8801V61.9521H174.797C176.589 61.9521 177.254 61.6961 177.869 60.8257C178.995 59.2385 178.893 58.5217 177.408 56.7809L176.179 55.2449L177.203 52.5825C177.818 51.0977 178.483 49.4081 178.739 48.7937C179.046 47.9233 178.739 46.6433 177.459 43.6737C175.053 38.0929 172.698 33.5361 171.776 32.7681C171.11 32.2049 171.11 32.0001 171.776 31.0785C172.186 30.4641 172.544 29.4401 172.544 28.8257C172.544 28.1601 172.8 27.6481 173.056 27.6481C173.363 27.6481 173.568 27.9553 173.568 28.3649C173.568 28.7233 174.131 29.4401 174.848 29.9009C175.923 30.6177 176.077 31.0273 175.923 33.0241C175.821 34.3041 175.974 35.3281 176.23 35.3281C176.435 35.3281 176.64 34.6625 176.64 33.7921C176.64 32.2561 176.64 32.2561 177.664 33.2801C178.227 33.8433 178.995 34.3041 179.354 34.3041C179.814 34.3041 179.763 34.4577 179.251 34.7649C178.688 35.1233 178.688 35.5329 179.2 37.0689C179.507 38.0929 179.661 39.3217 179.507 39.7313C179.354 40.1409 179.405 40.3969 179.661 40.2433C179.917 40.0897 180.224 40.2945 180.429 40.7041C180.582 41.1137 181.146 41.4721 181.709 41.4721C182.682 41.4721 182.682 41.5745 182.016 43.4689C181.658 44.5953 180.582 47.1041 179.712 49.1521L178.125 52.7873L179.098 55.7057C179.917 58.2657 180.224 58.6241 181.248 58.4705C182.221 58.3169 182.374 58.4705 182.067 59.3409C181.914 59.9553 181.658 60.8257 181.504 61.3377C181.35 61.9521 182.272 63.0273 184.576 64.9217C187.955 67.6865 189.03 69.5809 188.058 71.0657C187.136 72.6017 186.522 72.1921 184.115 68.5569C182.426 65.9969 181.453 65.0241 180.941 65.2289C180.48 65.3825 180.019 65.5361 179.917 65.5361C179.098 65.5361 180.07 66.9697 182.272 68.9665C184.627 71.0657 185.446 72.2945 184.474 72.1409C183.296 71.9361 183.398 72.2945 184.678 73.4209L186.112 74.7009L184.883 75.1617C183.654 75.5713 183.654 75.6225 185.549 76.7489C187.802 78.1313 187.699 78.5921 185.395 77.7729C183.962 77.2609 183.398 76.4929 181.606 72.7553C179.405 68.3009 177.818 66.9185 178.022 69.7345C178.074 70.8609 177.869 71.2193 176.794 71.4753C175.616 71.7825 175.514 71.9873 175.77 74.0353C175.923 75.7249 177.05 77.7729 180.378 82.7905C184.73 89.2929 184.781 89.3441 184.678 92.4161C184.627 94.1057 184.73 96.1025 184.986 96.9217C185.293 98.0993 185.19 98.3041 184.269 98.3041C183.501 98.3041 183.245 98.6113 183.347 99.4817C183.398 100.096 183.296 101.734 183.04 103.066C182.835 104.397 182.682 107.315 182.784 109.466C182.835 111.616 182.886 114.278 182.886 115.354C182.886 116.531 182.118 118.784 180.838 121.498C175.258 133.069 173.619 136.653 173.312 138.035C172.237 143.155 171.93 143.872 170.752 143.872C169.267 143.872 166.861 147.354 167.27 148.941C167.475 149.709 166.912 150.835 165.376 152.832C162.918 156.006 162.406 156.365 163.584 154.112C164.608 152.166 164.557 151.91 163.328 152.218C162.406 152.474 162.304 152.218 162.304 149.453C162.304 147.814 162.099 146.432 161.894 146.432C161.69 146.432 160.768 147.2 159.846 148.122C158.669 149.299 158.208 150.272 158.208 151.45C158.208 152.627 157.44 154.317 155.648 156.928C153.498 160.154 152.883 160.717 151.757 160.614C150.528 160.512 150.272 160.819 149.197 164.045C148.531 165.99 148.07 167.731 148.224 167.834C148.326 167.987 149.504 167.117 150.784 165.939C153.344 163.584 154.726 163.328 155.853 164.915C156.57 165.99 156.621 165.939 157.184 163.84C157.645 162.202 157.901 161.792 158.362 162.253C159.437 163.328 160.051 162.816 161.997 159.488C163.84 156.314 164.813 155.443 164.915 156.826C165.069 158.362 164.71 159.59 163.84 160.87C163.277 161.587 163.072 162.304 163.328 162.406C163.635 162.509 163.635 163.328 163.328 164.608C161.792 171.11 163.379 173.722 171.008 177.51C175.872 179.968 176.179 180.173 174.131 179.917L171.878 179.61L172.237 183.398L172.595 187.187L169.37 190.259C167.578 191.949 164.762 194.099 163.072 195.072C161.382 196.045 159.181 197.376 158.208 198.042C157.235 198.707 155.904 199.475 155.29 199.731C154.573 199.987 154.112 200.602 154.112 201.216C154.112 201.882 153.754 202.24 153.139 202.24C152.627 202.24 151.04 203.162 149.709 204.288C147.558 206.029 146.995 206.285 145.562 206.029C143.514 205.619 141.978 206.592 142.899 207.718C143.258 208.077 143.411 208.486 143.309 208.589C142.285 209.357 137.933 210.534 134.298 210.944C128.768 211.558 128.358 211.558 128.717 210.995ZM156.928 112.845C154.317 111.872 153.498 111.104 155.136 111.104H156.314L155.187 109.875L154.01 108.595L156.672 107.264C159.283 105.933 160.154 105.882 163.533 106.854C164.301 107.059 164.096 106.65 162.816 105.011C161.229 103.066 161.178 102.861 161.946 101.99C163.021 100.813 163.021 100.352 162.048 100.352C161.075 100.352 161.075 99.6865 162.048 97.7921C162.97 95.9489 163.789 96.0513 152.883 96.7681C144.589 97.3313 142.234 98.1505 141.261 100.71C140.339 103.117 140.646 103.782 142.49 103.526C143.36 103.424 144.845 103.014 145.766 102.605C146.637 102.195 147.712 101.888 148.122 101.888C149.248 101.888 149.658 101.018 148.736 100.659C148.019 100.403 148.019 100.198 148.787 98.7649L149.606 97.1265L153.754 97.4337C158.106 97.7921 158.413 97.8945 158.925 99.6865C159.283 100.71 159.078 100.864 156.672 101.171C154.573 101.427 154.214 101.632 154.675 102.195C155.443 103.168 154.931 103.27 148.531 103.629C145.562 103.834 143.053 104.038 142.95 104.192C142.387 104.704 143.462 106.906 144.486 107.418C145.51 107.981 145.408 108.032 143.462 107.878C141.824 107.776 141.312 107.93 141.414 108.493C141.67 109.67 153.19 113.51 156.672 113.562L158.976 113.613L156.928 112.845ZM180.224 103.475C180.224 101.888 180.429 101.427 181.146 101.274C182.63 101.018 181.606 97.9969 179.763 97.0241L178.278 96.3073L177.92 99.6353C177.664 102.246 177.766 103.219 178.381 104.192C179.61 106.035 180.224 105.779 180.224 103.475ZM117.248 97.2801C117.248 96.2561 114.739 94.2081 113.408 94.1569C112.691 94.1057 111.821 94.0545 111.514 94.0033C111.155 93.9521 110.899 94.2593 111.002 94.6689C111.104 95.0273 110.746 95.7953 110.285 96.3073C109.517 97.1777 109.568 97.2289 112.179 97.4337C113.715 97.5361 115.456 97.6385 116.122 97.6897C116.736 97.7409 117.248 97.5361 117.248 97.2801ZM176.384 69.3249C177.254 68.6593 177.306 68.5057 176.64 68.0961C175.667 67.4817 175.053 67.4817 174.131 68.0449C173.517 68.4545 173.517 68.6593 174.029 69.3249C174.848 70.2977 175.104 70.2977 176.384 69.3249ZM180.48 62.5153C180.122 61.2865 179.251 61.1329 177.92 62.1569C176.947 62.8225 176.998 62.9249 178.688 63.3857C180.838 63.9489 180.941 63.8977 180.48 62.5153Z" fill="#043B71"/>
<path d="M125.184 175.872C121.241 175.206 117.862 174.643 117.657 174.643C117.401 174.592 117.248 174.08 117.248 173.414C117.248 172.595 116.787 171.981 115.865 171.469C115.046 171.059 114.329 170.65 114.176 170.496C114.022 170.342 112.793 169.626 111.36 168.858C108.953 167.578 108.595 167.117 106.137 162.099L103.424 156.672H99.8911H96.4095L95.3343 154.112C94.3103 151.654 92.3135 150.016 91.5967 151.091C91.0335 152.013 88.8831 146.33 86.7839 138.394C85.6575 134.298 85.4015 131.942 85.2479 125.44C84.9919 117.043 85.4527 117.094 86.5279 125.542C86.9887 128.973 87.2959 129.894 87.8591 129.69C88.7295 129.382 88.7295 129.434 87.8591 131.994L87.0911 134.093L89.9583 136.499C92.5183 138.701 92.7743 139.059 92.4671 140.493C91.8527 143.923 91.8527 144.026 93.3375 144.435C94.1055 144.64 94.7199 144.589 94.7199 144.333C94.7199 144.077 95.0783 143.872 95.5391 143.872C96.2047 143.872 96.3071 144.179 96.0511 145.306L95.6927 146.688L96.7679 145.408L97.7919 144.128V146.022C97.7919 147.917 97.7919 147.917 99.4303 147.405C100.352 147.149 101.171 146.944 101.222 146.944C101.325 146.944 101.376 147.763 101.376 148.736C101.376 150.528 101.376 150.579 103.117 150.221C105.113 149.862 104.755 149.094 107.059 158.362C108.032 162.253 108.544 163.328 110.745 165.939C114.278 170.189 116.941 171.93 119.449 171.622C121.19 171.418 121.651 171.622 123.341 173.261L125.184 175.104L131.584 174.336C139.622 173.363 139.264 173.363 139.264 174.592C139.264 175.309 138.752 175.718 137.318 176.077C133.683 177.101 132.352 177.05 125.184 175.872Z" fill="#043B71"/>
<path d="M97.5359 168.448C96.1535 165.632 94.8223 163.328 94.6175 163.328C94.1567 163.328 93.4911 159.795 93.9007 159.386C94.0543 159.181 94.9247 159.693 95.7439 160.512C96.8703 161.638 97.7407 163.328 98.8671 167.117C99.7375 169.882 100.557 172.493 100.71 172.902C100.864 173.261 100.761 173.568 100.505 173.568C100.249 173.568 98.9183 171.264 97.5359 168.448Z" fill="#043B71"/>
<path d="M114.483 145.869C112.077 143.974 113.715 143.718 117.299 145.408L120.576 146.944H118.221C116.582 146.944 115.405 146.586 114.483 145.869Z" fill="#043B71"/>
<path d="M151.04 145.152C149.709 144.435 149.658 144.435 152.32 143.616C152.781 143.514 152.986 142.848 152.934 141.978C152.832 140.8 153.037 140.544 154.01 140.595C154.675 140.595 155.136 140.339 155.136 139.878C155.136 139.264 155.29 139.264 155.904 139.776C156.57 140.339 156.672 140.186 156.723 138.701L156.774 136.96L157.542 139.213L158.362 141.466L155.853 143.667C153.088 146.125 152.883 146.176 151.04 145.152Z" fill="#043B71"/>
<path d="M133.274 137.728C128.973 137.37 128.358 137.011 130.253 136.09C131.328 135.629 131.891 135.629 132.659 136.09C134.093 137.011 134.451 136.858 135.168 135.168C135.936 133.376 138.035 132.915 137.574 134.656C137.267 135.782 137.728 135.987 138.598 135.117C139.213 134.502 139.469 134.81 139.981 136.858C140.339 138.445 140.442 138.394 133.274 137.728Z" fill="#043B71"/>
<path d="M154.265 135.219C153.395 134.759 152.371 133.888 152.115 133.223C151.398 131.687 151.398 131.584 152.269 131.584C153.19 131.584 156.672 134.81 156.672 135.629C156.672 136.346 156.365 136.295 154.265 135.219Z" fill="#043B71"/>
<path d="M127.897 130.714C125.081 128.461 124.569 127.488 126.259 127.488C126.669 127.488 127.334 128.205 127.693 129.126C128.205 130.355 128.87 130.918 130.304 131.328C131.891 131.738 132.096 131.942 131.533 132.454C130.969 132.915 130.201 132.506 127.897 130.714Z" fill="#043B71"/>
<path d="M82.6879 109.056C82.8927 107.213 83.1487 105.626 83.2511 105.523C83.3535 105.421 83.7631 105.626 84.1727 105.933C84.8383 106.496 84.8383 106.906 83.9167 109.21C82.4319 112.896 82.2783 112.896 82.6879 109.056Z" fill="#043B71"/>
<path d="M83.5071 96.9217C83.2511 95.8465 82.8415 94.3617 82.6367 93.5425C82.4831 92.7745 82.0223 91.9553 81.6639 91.7505C80.6399 91.1361 80.5375 90.0097 81.2543 87.6033C82.1247 84.6337 82.1247 81.4593 81.2031 79.2577C80.4863 77.6193 80.3327 74.496 80.3327 62.976C80.2815 56.8832 80.7935 53.4528 81.9711 50.9952C83.5071 47.8208 84.7359 46.9504 85.8111 48.3328C86.3743 49.152 86.5279 49.2032 86.5279 48.5376C86.5279 48.0768 86.2207 47.616 85.9135 47.4624C85.4527 47.3088 85.6063 46.848 86.3743 45.9776C87.5007 44.8 87.5007 44.7488 86.5279 44.032C85.8623 43.5712 85.7087 43.1104 86.0159 42.752C86.3231 42.3936 86.4255 42.0352 86.2719 41.8816C86.1183 41.7792 86.7839 40.9088 87.7567 39.9872C88.9855 38.8096 90.1119 38.2464 91.6991 38.0416C93.3887 37.8368 94.4639 37.2736 95.9999 35.84C97.1263 34.7648 98.6111 33.792 99.2767 33.6896C101.018 33.4848 101.888 31.8976 100.762 31.0272C99.3791 30.0032 99.7887 28.1088 101.376 27.904C102.298 27.7504 103.885 27.0336 103.834 26.7264C103.731 26.112 104.55 24.3712 105.523 23.296C106.035 22.7328 106.445 22.0672 106.445 21.76C106.496 20.6848 110.541 20.8896 112.128 22.016C114.227 23.5008 115.507 23.1936 115.302 21.248C115.2 20.4288 114.842 19.5584 114.534 19.3536C114.125 19.0976 114.33 18.8416 115.098 18.6368C115.712 18.432 116.224 17.9712 116.224 17.6128C116.224 16.8448 117.043 16.64 117.402 17.3056C117.555 17.5104 120.064 17.5104 122.982 17.3568C127.59 17.1008 128.358 17.152 128.922 17.92C129.536 18.7392 129.69 18.688 131.174 17.3056C132.301 16.2304 133.12 15.872 133.837 16.128C134.451 16.2816 137.83 16.5376 141.466 16.7424C145.05 16.896 147.968 17.2032 147.968 17.408C147.968 17.92 146.637 18.432 145.408 18.432C144.896 18.432 144.077 19.0464 143.616 19.8144C143.104 20.6336 143.002 20.9408 143.411 20.6336C143.77 20.2752 144.794 19.968 145.664 19.968C146.637 19.968 147.661 19.5584 148.224 18.944C149.402 17.664 151.91 17.6128 155.392 18.8416C158.822 20.0192 159.386 20.4288 159.078 21.5552C158.925 22.0672 159.078 22.5792 159.437 22.6816C159.795 22.784 159.693 23.4496 158.976 24.7296L158.003 26.5728L159.386 27.648C160.973 28.8768 160.768 29.696 158.925 29.696C157.389 29.696 157.286 30.5152 158.771 30.976C159.386 31.1808 159.642 31.488 159.386 31.6928C159.078 31.8464 158.72 32.8704 158.515 33.8944C158.003 36.7104 157.389 36.7104 155.955 33.8432C155.238 32.4608 154.419 31.1808 154.163 30.976C153.293 30.464 148.122 31.5392 146.586 32.5632C144.998 33.6384 144.026 33.5872 142.694 32.3584C141.978 31.744 141.875 31.0784 142.131 29.3888C142.285 28.2112 142.285 26.9824 142.08 26.6752C141.722 26.0096 138.342 27.5968 137.216 28.928C136.653 29.6448 136.704 29.7984 137.626 30.0544C138.291 30.208 138.752 30.72 138.752 31.2832C138.752 32.4096 138.547 32.4608 137.165 31.6928C136.243 31.232 136.192 30.8224 136.499 28.0576C136.806 25.5488 136.704 24.9856 136.141 25.1904C135.731 25.2928 135.373 26.1632 135.27 27.0336C135.168 28.2624 134.81 28.7232 133.837 28.9792C132.147 29.3888 132.301 29.9008 134.349 31.232C135.475 31.8976 136.038 32.5632 135.834 33.024C135.526 33.8944 134.656 33.536 134.656 32.5632C134.656 31.6416 132.403 30.208 131.021 30.208C130.406 30.208 129.638 30.6176 129.28 31.0784C128.717 31.8464 128.512 31.6928 127.539 29.8496C126.259 27.2896 125.747 26.9312 124.928 27.904C124.211 28.7232 122.573 28.928 122.163 28.2112C121.907 27.8528 114.176 28.0576 113.715 28.4672C113.562 28.5696 113.818 28.9792 114.278 29.3376C115.405 30.208 115.917 33.28 114.995 33.28C114.586 33.28 114.074 34.048 113.92 34.9696C113.203 38.144 112.947 38.2976 110.08 37.7344C108.083 37.3248 107.264 36.864 106.394 35.6352C104.397 32.8192 103.117 32.512 102.81 34.816C102.605 36.096 102.758 36.352 103.68 36.352C104.243 36.352 105.062 36.0448 105.421 35.6864C105.933 35.1744 105.984 35.2256 105.728 35.9424C105.472 36.5568 105.677 36.9664 106.189 37.1712C107.366 37.632 107.213 38.1952 105.626 38.8608C104.499 39.2704 103.526 39.2704 101.376 38.656C99.8399 38.2464 98.4063 37.888 98.2015 37.888C97.1775 37.888 97.9967 38.8608 100.198 40.4992L102.656 42.24L100.096 42.5472C98.6623 42.752 95.9487 43.0592 94.0543 43.264L90.5215 43.6224L90.8799 45.4656C91.0335 46.5408 91.2895 47.7696 91.4431 48.2304C91.6479 48.8448 90.8287 49.5616 88.3711 50.944C86.5279 51.968 84.8383 53.0432 84.6847 53.3504C84.2751 54.016 81.8687 76.4417 82.1759 76.6977C82.2783 76.8513 82.7903 76.0833 83.2511 75.0593C83.7631 74.0353 84.3263 73.2161 84.5311 73.2161C84.7359 73.2161 85.0431 74.1377 85.2479 75.2641C85.6063 77.3121 85.6063 77.3633 87.4495 77.0049C89.8559 76.5441 90.2655 76.3393 89.9071 75.4689C89.7535 75.0593 90.1119 74.4961 90.7263 74.1889C91.5967 73.7281 91.6991 73.3185 91.4431 71.7825C91.1871 70.0417 91.3407 69.6832 94.0543 66.9696C96.6143 64.3584 98.3039 63.3344 98.3039 64.3072C98.3039 64.4608 96.5631 67.5841 94.4127 71.2193C90.8799 77.2097 90.5727 77.9777 91.0335 79.3089C91.4943 80.5377 91.3919 80.9473 90.5727 81.7153C89.6511 82.5345 89.6511 82.6369 90.4703 83.5585C91.3919 84.6337 91.1871 85.3505 88.2687 90.0609L86.8863 92.3137L88.2175 91.9553L89.5487 91.6481L88.8319 94.0545C88.4223 95.4369 88.0639 96.5633 88.0639 96.6145C88.0639 96.7169 87.1423 97.2289 86.0159 97.7921L84.0191 98.8161L83.5071 96.9217ZM113.766 26.112C114.022 24.4224 113.459 24.1664 112.077 25.3952C111.36 26.0608 111.309 26.368 111.77 26.9312C112.794 28.0576 113.51 27.7504 113.766 26.112ZM135.936 24.064C136.602 22.7328 136.909 22.5792 137.728 23.04C138.394 23.3984 138.598 23.8592 138.394 24.4736C138.086 25.2928 138.138 25.2928 139.11 24.4736C140.39 23.3472 142.029 23.2448 141.619 24.32C141.158 25.5488 142.029 25.1904 143.667 23.5008C145.05 21.9648 145.05 21.9136 143.974 22.1696C143.36 22.3232 142.95 22.2208 143.104 22.016C143.258 21.76 143.155 21.4528 142.899 21.248C142.592 21.0944 142.49 20.6336 142.694 20.1728C143.104 19.0976 138.291 19.5072 137.677 20.6336C137.318 21.1968 136.704 21.3504 135.27 21.1456C133.581 20.9408 133.274 21.0432 132.762 22.1696C132.198 23.3472 132.301 23.6032 133.53 24.5248C134.298 25.088 134.963 25.6 135.014 25.6C135.066 25.6 135.526 24.8832 135.936 24.064ZM109.466 22.8864C109.568 22.4256 109.312 22.016 108.954 22.016C108.544 22.016 108.237 22.4768 108.186 23.0912C108.083 24.32 109.21 24.1152 109.466 22.8864Z" fill="#043B71"/>
<path d="M168.499 45.2097C167.27 40.1409 166.963 38.7073 167.219 38.3489C167.68 37.5297 165.734 37.4273 165.12 38.1953C164.608 38.9121 164.249 38.6049 162.662 35.6353C161.587 33.7409 160.768 32.1537 160.768 32.0513C160.768 31.9489 161.126 31.7441 161.536 31.5393C163.123 30.9761 164.659 32.2049 166.297 35.2769C168.243 38.9121 168.448 39.0657 170.189 38.4513C171.673 37.8881 171.776 38.0929 172.288 42.2401C172.493 43.6737 172.749 45.2097 172.902 45.7217C173.107 46.4897 172.953 46.6433 172.083 46.3361C171.52 46.1825 170.598 46.2849 170.035 46.5921C169.113 47.0529 168.96 46.8993 168.499 45.2097Z" fill="#043B71"/>
<path d="M114.995 206.746C110.797 203.571 110.746 203.674 119.808 202.752C125.542 202.189 127.693 201.728 124.518 201.728C123.392 201.728 122.726 201.37 122.317 200.653C121.754 199.578 121.856 199.578 123.597 199.885C125.235 200.192 125.44 200.141 125.44 199.168C125.44 198.349 126.208 197.734 128.717 196.557C131.942 195.072 132.045 194.97 131.533 193.638C131.072 192.41 131.174 192.102 132.454 191.078C133.222 190.413 134.4 189.44 135.014 188.928C136.499 187.648 144.589 182.272 147.558 180.531C149.402 179.456 151.347 177.306 156.262 170.701C159.693 166.093 162.867 162.304 163.226 162.304C163.686 162.304 163.84 162.611 163.584 163.226C163.43 163.686 163.123 165.581 163.021 167.424C162.662 172.339 163.994 174.029 171.008 177.51C175.872 179.968 176.179 180.173 174.131 179.917L171.878 179.61L172.237 183.398L172.595 187.187L169.37 190.259C167.578 191.949 164.762 194.099 163.072 195.072C161.382 196.045 159.181 197.376 158.208 198.042C157.235 198.707 155.904 199.475 155.29 199.731C154.573 199.987 154.112 200.602 154.112 201.216C154.112 201.882 153.754 202.24 153.139 202.24C152.627 202.24 151.04 203.162 149.709 204.288C147.661 205.978 146.944 206.285 145.766 206.029C144.896 205.875 143.616 206.08 142.541 206.592C141.363 207.155 137.216 207.77 130.406 208.435C124.723 208.947 119.706 209.408 119.296 209.408C118.886 209.408 116.941 208.179 114.995 206.746Z" fill="#DDEDFE"/>
<path d="M118.682 168.704C114.278 165.786 112.077 163.994 111.872 163.226C111.053 159.539 109.107 147.763 109.261 147.61C109.363 147.456 109.978 147.61 110.541 147.917C111.565 148.48 111.974 149.606 113.203 155.238C114.074 159.437 114.278 159.642 116.429 158.618L118.17 157.747L119.91 159.795C121.293 161.434 122.266 161.997 125.133 162.816L128.614 163.789L131.174 162.509C133.325 161.434 133.683 161.024 133.427 160.102C133.274 159.488 133.12 158.669 133.12 158.362C133.12 157.952 132.403 157.696 131.123 157.696C128.922 157.696 127.795 156.826 128.512 155.648C129.28 154.47 129.229 154.47 125.645 151.808C121.549 148.838 121.805 148.531 128.717 148.122L133.53 147.814L131.84 146.381C130.202 144.947 128 144.384 128 145.408C128 146.278 126.669 145.971 125.645 144.845C124.979 144.128 124.262 143.872 123.238 144.026C121.805 144.23 121.805 144.179 122.778 143.258C123.648 142.387 124.058 142.336 126.771 142.797C128.41 143.104 133.018 143.258 137.011 143.206L144.179 143.053L143.974 144.282C143.718 145.51 143.821 145.51 145.971 145.203C148.173 144.896 148.326 144.947 150.784 147.456C152.166 148.838 153.549 150.016 153.856 150.016C154.163 150.016 155.341 148.224 156.518 146.074C158.106 143.002 158.669 141.261 158.925 138.547L159.283 134.963L153.242 128.922C149.914 125.594 147.046 122.88 146.893 122.88C146.688 122.88 146.278 123.597 145.971 124.416C145.51 125.798 145.715 126.566 147.507 130.714C150.835 138.189 150.733 137.779 149.094 137.421C145.459 136.653 144.486 136.09 144.179 134.912C143.974 134.195 143.514 133.632 143.104 133.632C142.746 133.632 141.978 132.966 141.466 132.096C140.39 130.253 140.134 130.253 136.96 131.635L134.502 132.71L131.533 129.69L128.512 126.72L130.509 112.64C131.635 104.909 132.352 98.4576 132.096 98.304C131.84 98.1504 129.28 97.28 126.362 96.3072C123.443 95.3344 120.422 94.2592 119.552 93.952C118.733 93.5936 114.79 92.2112 110.848 90.88C106.906 89.4976 103.526 88.2688 103.27 88.064C103.066 87.9104 103.475 86.0672 104.192 84.0192L105.472 80.2304L103.936 76.6464C103.117 74.7008 102.554 72.9088 102.656 72.704C102.81 72.4992 103.936 72.0384 105.216 71.7312C107.059 71.2704 107.52 70.9632 107.315 70.2464C107.213 69.7856 106.957 68.5056 106.752 67.4816C106.445 65.536 106.445 65.536 108.493 65.2288C110.438 64.9216 110.592 64.768 111.514 62.0032C112.333 59.392 112.691 58.9824 115.098 57.7024L117.76 56.2688L129.434 58.88C135.834 60.3136 144.384 62.2592 148.48 63.232C154.726 64.6656 156.723 64.9216 161.024 64.8192C163.891 64.7168 166.707 64.4096 167.322 64.0512C168.755 63.2832 168.96 63.4368 172.646 67.6864C174.899 70.2976 175.36 71.168 175.667 73.5232C175.974 75.8272 176.742 77.3632 180.378 82.8416C184.73 89.2928 184.781 89.344 184.678 92.416C184.627 94.1056 184.73 96.1024 184.986 96.9216C185.293 98.0992 185.19 98.304 184.269 98.304C183.501 98.304 183.245 98.6112 183.347 99.4816C183.398 100.096 183.296 101.734 183.04 103.066C182.835 104.397 182.682 107.315 182.784 109.466C182.835 111.616 182.886 114.278 182.886 115.354C182.886 116.531 182.118 118.784 180.838 121.498C175.258 133.069 173.619 136.653 173.312 138.035C172.237 143.155 171.93 143.872 170.752 143.872C169.267 143.872 166.861 147.354 167.27 148.941C167.475 149.709 166.912 150.835 165.376 152.832C162.918 156.006 162.406 156.365 163.584 154.112C164.608 152.166 164.557 151.91 163.328 152.218C162.406 152.474 162.304 152.218 162.304 149.453C162.304 147.814 162.099 146.432 161.894 146.432C161.69 146.432 160.768 147.2 159.846 148.122C158.669 149.299 158.208 150.272 158.208 151.45C158.208 152.627 157.44 154.317 155.648 156.928C153.498 160.154 152.883 160.717 151.757 160.614C150.528 160.512 150.272 160.819 149.197 164.045C148.531 165.99 148.07 167.731 148.224 167.936C148.838 168.909 145.92 170.24 140.186 171.571C132.557 173.312 133.274 173.261 132.864 172.032C132.608 171.213 132.096 171.008 130.099 171.008C128.307 171.008 127.386 171.264 126.72 172.032C126.208 172.595 125.645 173.056 125.491 173.056C125.338 173.056 122.266 171.11 118.682 168.704ZM156.928 112.845C154.317 111.872 153.498 111.104 155.136 111.104H156.314L155.187 109.875L154.01 108.595L156.672 107.264C159.283 105.933 160.154 105.882 163.533 106.854C164.301 107.059 164.096 106.65 162.816 105.011C161.229 103.066 161.178 102.861 161.946 101.99C163.021 100.813 163.021 100.352 162.048 100.352C161.075 100.352 161.075 99.6864 162.048 97.792C162.97 95.9488 163.84 96.0512 152.832 96.768C146.022 97.28 144.947 97.4848 143.258 98.56C141.005 100.045 140.544 101.786 141.158 106.189L141.568 109.21L144.128 110.131C150.579 112.435 154.522 113.562 156.672 113.562L158.976 113.613L156.928 112.845ZM180.224 103.475C180.224 101.888 180.429 101.427 181.146 101.274C182.63 101.018 181.606 97.9968 179.763 97.024L178.278 96.3072L177.92 99.6352C177.664 102.246 177.766 103.219 178.381 104.192C179.61 106.035 180.224 105.779 180.224 103.475Z" fill="#DDEDFE"/>
<path d="M102.656 124.416C102.349 123.085 101.99 122.88 99.5329 122.368C97.0241 121.856 96.8193 121.702 97.2801 120.781C97.9457 119.552 97.4337 119.501 94.8737 120.576C93.9009 120.986 92.9793 121.344 92.8769 121.344C92.7745 121.344 92.4161 120.32 92.1089 119.04C91.8017 117.76 91.2897 116.787 90.9825 116.89C90.6753 116.992 90.0097 118.272 89.4465 119.706C88.8833 121.19 88.3713 122.317 88.3201 122.266C88.2177 122.163 88.4737 118.682 88.8833 114.432C89.4977 107.674 89.4977 106.342 88.8321 103.27C88.0641 99.8912 88.0641 99.7376 89.4465 95.232C90.1633 92.672 90.9825 90.624 91.1361 90.624C91.3409 90.624 91.9553 91.8528 92.5697 93.3376C93.2353 95.1296 93.8497 96 94.4129 95.9488C94.9761 95.8976 95.1809 96.1536 95.0273 96.7168C94.8737 97.1776 94.5153 98.56 94.2081 99.84C93.9009 101.12 93.5425 102.502 93.3889 102.963C93.1841 103.629 93.6961 103.885 95.7953 104.141C98.2017 104.448 98.3553 104.55 97.6385 105.37C97.1265 105.933 97.0241 106.598 97.2801 107.315C97.6385 108.237 98.3041 108.493 101.734 108.8C103.936 108.954 107.366 109.466 109.312 109.824C111.309 110.234 114.176 110.694 115.712 110.899C119.501 111.36 120.832 111.923 122.522 113.715C123.29 114.586 123.904 115.354 123.904 115.507C123.904 115.61 123.238 115.712 122.368 115.712C121.293 115.712 119.757 116.634 116.736 119.04C113.459 121.754 111.667 122.778 107.827 124.16L102.963 125.901L102.656 124.416Z" fill="#DDEDFE"/>
</g>
<defs>
<clipPath id="clip0_8_584">
<rect width="256" height="256" fill="white"/>
</clipPath>
</defs>
</svg>
