<svg height="1419" viewBox="0 0 1419 1419" width="1419" xmlns="http://www.w3.org/2000/svg" xmlns:xlink="http://www.w3.org/1999/xlink"><mask id="a" fill="#fff"><path d="m0 0h1418v1418h-1418z" fill="#fff" fill-rule="evenodd"/></mask><g fill="none" fill-rule="evenodd" opacity=".030832" transform="translate(.47 .48)"><g mask="url(#a)"><g transform="matrix(.70710678 .70710678 -.70710678 .70710678 1.895483 1.426382)"><path d="m0 0h1000v1000h-1000z" fill="none"/><g fill="#f36" fill-rule="nonzero"><path d="m306.506143 199.986837-2.480525.020096c-81.698618 1.324618-147.519475 67.965619-147.519475 149.979904l-.000407 58.502-1.828594.657979c-57.2909123 21.105215-98.1494063 76.179518-98.1494063 140.796834v100.448244l.0199678 2.059193c1.3264864 81.813824 68.0590295 147.53575 149.9800325 147.53575h100.48528l2.059193-.019968 2.449538-.059366c80.672153-2.60329 145.086212-68.818873 145.086212-149.920666l-.000223-58.503 1.852512-.665546c57.279311-21.111734 98.126118-76.180534 98.126118-140.788267v-100.043187c0-82.842712-67.157288-150-150-150zm100.080223 50c55.228475 0 100 44.771525 100 100v100.043187c0 55.221129-44.759616 99.988089-99.977963 99.999997l-.000444 99.956816c0 54.67619-43.880571 99.103524-98.346317 99.986603l-1.653683.013397h-100.080223c-54.67619 0-99.103524-43.880572-99.986603-98.346317l-.013397-1.653683v-100.043187c0-54.67619 43.880572-99.103524 98.346317-99.986603l1.631683-.01421.000407-99.956c0-55.228475 44.771525-100 100-100z"/><path d="m406.586366 249.986837c55.228475 0 100 44.771525 100 100v100.043187c0 55.221129-44.759616 99.988089-99.977963 99.999997l-.000444 99.956816c0 54.67619-43.880571 99.103524-98.346317 99.986603l-1.653683.013397h-100.080223c-54.67619 0-99.103524-43.880572-99.986603-98.346317l-.013397-1.653683v-100.043187c0-54.67619 43.880572-99.103524 98.346317-99.986603l1.631683-.01421.000407-99.956c0-55.228475 44.771525-100 100-100zm.826841 50.006699-.826841-.006699h-100.080223c-27.338096 0-49.551762 21.940286-49.993302 49.173356l-.006698.826847-.001407 98.380797.022206 1.017855c.198295 24.691753-15.968328 49.563035-48.054911 50.528886l-1.944295.029072c-27.338095 0-49.551762 21.940286-49.993301 49.173159l-.006699.826841v99.891187l.009 1.104.017604.706872c.858676 26.594672 22.499241 47.906738 49.155828 48.334571l.817568.006557h99.802l1.23-.01.707095-.016604c26.594672-.858676 47.906738-22.499243 48.334572-49.156043l.006556-.817575.000444-99.956816c.000122-27.33384 21.933933-49.545622 49.162506-49.992902l.826712-.006874c27.33324-.005895 49.540634-21.944468 49.982048-49.173281l.006697-.826718v-100.043187c0-27.338095-21.940286-49.551762-49.173159-49.993301z"/><path d="m714.379722 199.986837c-86.933255 0-157.493806 70.288542-157.851562 157.194895v249.708357l.025372 2.778575c1.711093 105.535271 87.797717 190.318173 193.476009 190.318173 106.868096 0 193.501805-86.633709 193.501805-193.501805l-.025924-3.199906c-1.121922-69.1969-38.566049-129.564233-94.097467-162.867088l-.362219-.214201.41553-.674994c14.493956-23.940822 22.770441-51.955285 22.770441-81.69002 0-86.307452-69.266354-156.436881-155.241614-157.830838zm0 50c59.565006 0 107.851985 48.286979 107.851985 107.851986 0 52.706421-37.807216 96.582494-87.781309 105.987879 5.115871-.559962 10.314398-.843475 15.579143-.843475 79.253859 0 143.501805 64.247946 143.501805 143.501805 0 79.253858-64.247946 143.501805-143.501805 143.501805-78.46132 0-142.215345-62.969412-143.48258-141.12874l-.019225-2.373065v-249.097473c.244351-59.357713 48.437645-107.400722 107.851986-107.400722z"/><path d="m714.379722 249.986837c59.565006 0 107.851985 48.286979 107.851985 107.851986 0 52.706421-37.807216 96.582494-87.781309 105.987879 5.115871-.559962 10.314398-.843475 15.579143-.843475 79.253859 0 143.501805 64.247946 143.501805 143.501805 0 79.253858-64.247946 143.501805-143.501805 143.501805-78.46132 0-142.215345-62.969412-143.48258-141.12874l-.019225-2.373065v-249.097473c.244351-59.357713 48.437645-107.400722 107.851986-107.400722zm0 50c-31.541193 0-57.203488 25.249171-57.840778 56.653052l-.011208.873948v248.816l.015 1.825.034647 1.418679c1.605964 49.748933 42.072207 89.601043 91.923207 90.40106l1.528951.012261c51.639621 0 93.501805-41.862184 93.501805-93.501805s-41.862184-93.501805-93.501805-93.501805c-3.438409 0-6.821091.183478-10.138844.546625-63.767089 6.979679-77.729353-86.975797-14.688199-98.840471 27.062294-5.093265 47.029209-28.919653 47.029209-56.850558 0-31.631262-25.385782-57.333357-56.895297-57.844235z"/></g></g></g><g mask="url(#a)"><g transform="matrix(.70710678 .70710678 -.70710678 .70710678 709.002264 708.533163)"><path d="m0 0h1000v1000h-1000z" fill="none"/><g fill="#f36" fill-rule="nonzero"><path d="m306.506143 199.986837-2.480525.020096c-81.698618 1.324618-147.519475 67.965619-147.519475 149.979904l-.000407 58.502-1.828594.657979c-57.2909123 21.105215-98.1494063 76.179518-98.1494063 140.796834v100.448244l.0199678 2.059193c1.3264864 81.813824 68.0590295 147.53575 149.9800325 147.53575h100.48528l2.059193-.019968 2.449538-.059366c80.672153-2.60329 145.086212-68.818873 145.086212-149.920666l-.000223-58.503 1.852512-.665546c57.279311-21.111734 98.126118-76.180534 98.126118-140.788267v-100.043187c0-82.842712-67.157288-150-150-150zm100.080223 50c55.228475 0 100 44.771525 100 100v100.043187c0 55.221129-44.759616 99.988089-99.977963 99.999997l-.000444 99.956816c0 54.67619-43.880571 99.103524-98.346317 99.986603l-1.653683.013397h-100.080223c-54.67619 0-99.103524-43.880572-99.986603-98.346317l-.013397-1.653683v-100.043187c0-54.67619 43.880572-99.103524 98.346317-99.986603l1.631683-.01421.000407-99.956c0-55.228475 44.771525-100 100-100z"/><path d="m406.586366 249.986837c55.228475 0 100 44.771525 100 100v100.043187c0 55.221129-44.759616 99.988089-99.977963 99.999997l-.000444 99.956816c0 54.67619-43.880571 99.103524-98.346317 99.986603l-1.653683.013397h-100.080223c-54.67619 0-99.103524-43.880572-99.986603-98.346317l-.013397-1.653683v-100.043187c0-54.67619 43.880572-99.103524 98.346317-99.986603l1.631683-.01421.000407-99.956c0-55.228475 44.771525-100 100-100zm.826841 50.006699-.826841-.006699h-100.080223c-27.338096 0-49.551762 21.940286-49.993302 49.173356l-.006698.826847-.001407 98.380797.022206 1.017855c.198295 24.691753-15.968328 49.563035-48.054911 50.528886l-1.944295.029072c-27.338095 0-49.551762 21.940286-49.993301 49.173159l-.006699.826841v99.891187l.009 1.104.017604.706872c.858676 26.594672 22.499241 47.906738 49.155828 48.334571l.817568.006557h99.802l1.23-.01.707095-.016604c26.594672-.858676 47.906738-22.499243 48.334572-49.156043l.006556-.817575.000444-99.956816c.000122-27.33384 21.933933-49.545622 49.162506-49.992902l.826712-.006874c27.33324-.005895 49.540634-21.944468 49.982048-49.173281l.006697-.826718v-100.043187c0-27.338095-21.940286-49.551762-49.173159-49.993301z"/><path d="m714.379722 199.986837c-86.933255 0-157.493806 70.288542-157.851562 157.194895v249.708357l.025372 2.778575c1.711093 105.535271 87.797717 190.318173 193.476009 190.318173 106.868096 0 193.501805-86.633709 193.501805-193.501805l-.025924-3.199906c-1.121922-69.1969-38.566049-129.564233-94.097467-162.867088l-.362219-.214201.41553-.674994c14.493956-23.940822 22.770441-51.955285 22.770441-81.69002 0-86.307452-69.266354-156.436881-155.241614-157.830838zm0 50c59.565006 0 107.851985 48.286979 107.851985 107.851986 0 52.706421-37.807216 96.582494-87.781309 105.987879 5.115871-.559962 10.314398-.843475 15.579143-.843475 79.253859 0 143.501805 64.247946 143.501805 143.501805 0 79.253858-64.247946 143.501805-143.501805 143.501805-78.46132 0-142.215345-62.969412-143.48258-141.12874l-.019225-2.373065v-249.097473c.244351-59.357713 48.437645-107.400722 107.851986-107.400722z"/><path d="m714.379722 249.986837c59.565006 0 107.851985 48.286979 107.851985 107.851986 0 52.706421-37.807216 96.582494-87.781309 105.987879 5.115871-.559962 10.314398-.843475 15.579143-.843475 79.253859 0 143.501805 64.247946 143.501805 143.501805 0 79.253858-64.247946 143.501805-143.501805 143.501805-78.46132 0-142.215345-62.969412-143.48258-141.12874l-.019225-2.373065v-249.097473c.244351-59.357713 48.437645-107.400722 107.851986-107.400722zm0 50c-31.541193 0-57.203488 25.249171-57.840778 56.653052l-.011208.873948v248.816l.015 1.825.034647 1.418679c1.605964 49.748933 42.072207 89.601043 91.923207 90.40106l1.528951.012261c51.639621 0 93.501805-41.862184 93.501805-93.501805s-41.862184-93.501805-93.501805-93.501805c-3.438409 0-6.821091.183478-10.138844.546625-63.767089 6.979679-77.729353-86.975797-14.688199-98.840471 27.062294-5.093265 47.029209-28.919653 47.029209-56.850558 0-31.631262-25.385782-57.333357-56.895297-57.844235z"/></g></g></g><g mask="url(#a)"><g transform="matrix(.70710678 .70710678 -.70710678 .70710678 709.002264 -705.680399)"><path d="m0 0h1000v1000h-1000z" fill="none"/><g fill="#f36" fill-rule="nonzero"><path d="m306.506143 199.986837-2.480525.020096c-81.698618 1.324618-147.519475 67.965619-147.519475 149.979904l-.000407 58.502-1.828594.657979c-57.2909123 21.105215-98.1494063 76.179518-98.1494063 140.796834v100.448244l.0199678 2.059193c1.3264864 81.813824 68.0590295 147.53575 149.9800325 147.53575h100.48528l2.059193-.019968 2.449538-.059366c80.672153-2.60329 145.086212-68.818873 145.086212-149.920666l-.000223-58.503 1.852512-.665546c57.279311-21.111734 98.126118-76.180534 98.126118-140.788267v-100.043187c0-82.842712-67.157288-150-150-150zm100.080223 50c55.228475 0 100 44.771525 100 100v100.043187c0 55.221129-44.759616 99.988089-99.977963 99.999997l-.000444 99.956816c0 54.67619-43.880571 99.103524-98.346317 99.986603l-1.653683.013397h-100.080223c-54.67619 0-99.103524-43.880572-99.986603-98.346317l-.013397-1.653683v-100.043187c0-54.67619 43.880572-99.103524 98.346317-99.986603l1.631683-.01421.000407-99.956c0-55.228475 44.771525-100 100-100z"/><path d="m406.586366 249.986837c55.228475 0 100 44.771525 100 100v100.043187c0 55.221129-44.759616 99.988089-99.977963 99.999997l-.000444 99.956816c0 54.67619-43.880571 99.103524-98.346317 99.986603l-1.653683.013397h-100.080223c-54.67619 0-99.103524-43.880572-99.986603-98.346317l-.013397-1.653683v-100.043187c0-54.67619 43.880572-99.103524 98.346317-99.986603l1.631683-.01421.000407-99.956c0-55.228475 44.771525-100 100-100zm.826841 50.006699-.826841-.006699h-100.080223c-27.338096 0-49.551762 21.940286-49.993302 49.173356l-.006698.826847-.001407 98.380797.022206 1.017855c.198295 24.691753-15.968328 49.563035-48.054911 50.528886l-1.944295.029072c-27.338095 0-49.551762 21.940286-49.993301 49.173159l-.006699.826841v99.891187l.009 1.104.017604.706872c.858676 26.594672 22.499241 47.906738 49.155828 48.334571l.817568.006557h99.802l1.23-.01.707095-.016604c26.594672-.858676 47.906738-22.499243 48.334572-49.156043l.006556-.817575.000444-99.956816c.000122-27.33384 21.933933-49.545622 49.162506-49.992902l.826712-.006874c27.33324-.005895 49.540634-21.944468 49.982048-49.173281l.006697-.826718v-100.043187c0-27.338095-21.940286-49.551762-49.173159-49.993301z"/><path d="m714.379722 199.986837c-86.933255 0-157.493806 70.288542-157.851562 157.194895v249.708357l.025372 2.778575c1.711093 105.535271 87.797717 190.318173 193.476009 190.318173 106.868096 0 193.501805-86.633709 193.501805-193.501805l-.025924-3.199906c-1.121922-69.1969-38.566049-129.564233-94.097467-162.867088l-.362219-.214201.41553-.674994c14.493956-23.940822 22.770441-51.955285 22.770441-81.69002 0-86.307452-69.266354-156.436881-155.241614-157.830838zm0 50c59.565006 0 107.851985 48.286979 107.851985 107.851986 0 52.706421-37.807216 96.582494-87.781309 105.987879 5.115871-.559962 10.314398-.843475 15.579143-.843475 79.253859 0 143.501805 64.247946 143.501805 143.501805 0 79.253858-64.247946 143.501805-143.501805 143.501805-78.46132 0-142.215345-62.969412-143.48258-141.12874l-.019225-2.373065v-249.097473c.244351-59.357713 48.437645-107.400722 107.851986-107.400722z"/><path d="m714.379722 249.986837c59.565006 0 107.851985 48.286979 107.851985 107.851986 0 52.706421-37.807216 96.582494-87.781309 105.987879 5.115871-.559962 10.314398-.843475 15.579143-.843475 79.253859 0 143.501805 64.247946 143.501805 143.501805 0 79.253858-64.247946 143.501805-143.501805 143.501805-78.46132 0-142.215345-62.969412-143.48258-141.12874l-.019225-2.373065v-249.097473c.244351-59.357713 48.437645-107.400722 107.851986-107.400722zm0 50c-31.541193 0-57.203488 25.249171-57.840778 56.653052l-.011208.873948v248.816l.015 1.825.034647 1.418679c1.605964 49.748933 42.072207 89.601043 91.923207 90.40106l1.528951.012261c51.639621 0 93.501805-41.862184 93.501805-93.501805s-41.862184-93.501805-93.501805-93.501805c-3.438409 0-6.821091.183478-10.138844.546625-63.767089 6.979679-77.729353-86.975797-14.688199-98.840471 27.062294-5.093265 47.029209-28.919653 47.029209-56.850558 0-31.631262-25.385782-57.333357-56.895297-57.844235z"/></g></g></g><g mask="url(#a)"><g transform="matrix(.70710678 .70710678 -.70710678 .70710678 1416.109046 1.426382)"><path d="m0 0h1000v1000h-1000z" fill="none"/><g fill="#f36" fill-rule="nonzero"><path d="m306.506143 199.986837-2.480525.020096c-81.698618 1.324618-147.519475 67.965619-147.519475 149.979904l-.000407 58.502-1.828594.657979c-57.2909123 21.105215-98.1494063 76.179518-98.1494063 140.796834v100.448244l.0199678 2.059193c1.3264864 81.813824 68.0590295 147.53575 149.9800325 147.53575h100.48528l2.059193-.019968 2.449538-.059366c80.672153-2.60329 145.086212-68.818873 145.086212-149.920666l-.000223-58.503 1.852512-.665546c57.279311-21.111734 98.126118-76.180534 98.126118-140.788267v-100.043187c0-82.842712-67.157288-150-150-150zm100.080223 50c55.228475 0 100 44.771525 100 100v100.043187c0 55.221129-44.759616 99.988089-99.977963 99.999997l-.000444 99.956816c0 54.67619-43.880571 99.103524-98.346317 99.986603l-1.653683.013397h-100.080223c-54.67619 0-99.103524-43.880572-99.986603-98.346317l-.013397-1.653683v-100.043187c0-54.67619 43.880572-99.103524 98.346317-99.986603l1.631683-.01421.000407-99.956c0-55.228475 44.771525-100 100-100z"/><path d="m406.586366 249.986837c55.228475 0 100 44.771525 100 100v100.043187c0 55.221129-44.759616 99.988089-99.977963 99.999997l-.000444 99.956816c0 54.67619-43.880571 99.103524-98.346317 99.986603l-1.653683.013397h-100.080223c-54.67619 0-99.103524-43.880572-99.986603-98.346317l-.013397-1.653683v-100.043187c0-54.67619 43.880572-99.103524 98.346317-99.986603l1.631683-.01421.000407-99.956c0-55.228475 44.771525-100 100-100zm.826841 50.006699-.826841-.006699h-100.080223c-27.338096 0-49.551762 21.940286-49.993302 49.173356l-.006698.826847-.001407 98.380797.022206 1.017855c.198295 24.691753-15.968328 49.563035-48.054911 50.528886l-1.944295.029072c-27.338095 0-49.551762 21.940286-49.993301 49.173159l-.006699.826841v99.891187l.009 1.104.017604.706872c.858676 26.594672 22.499241 47.906738 49.155828 48.334571l.817568.006557h99.802l1.23-.01.707095-.016604c26.594672-.858676 47.906738-22.499243 48.334572-49.156043l.006556-.817575.000444-99.956816c.000122-27.33384 21.933933-49.545622 49.162506-49.992902l.826712-.006874c27.33324-.005895 49.540634-21.944468 49.982048-49.173281l.006697-.826718v-100.043187c0-27.338095-21.940286-49.551762-49.173159-49.993301z"/><path d="m714.379722 199.986837c-86.933255 0-157.493806 70.288542-157.851562 157.194895v249.708357l.025372 2.778575c1.711093 105.535271 87.797717 190.318173 193.476009 190.318173 106.868096 0 193.501805-86.633709 193.501805-193.501805l-.025924-3.199906c-1.121922-69.1969-38.566049-129.564233-94.097467-162.867088l-.362219-.214201.41553-.674994c14.493956-23.940822 22.770441-51.955285 22.770441-81.69002 0-86.307452-69.266354-156.436881-155.241614-157.830838zm0 50c59.565006 0 107.851985 48.286979 107.851985 107.851986 0 52.706421-37.807216 96.582494-87.781309 105.987879 5.115871-.559962 10.314398-.843475 15.579143-.843475 79.253859 0 143.501805 64.247946 143.501805 143.501805 0 79.253858-64.247946 143.501805-143.501805 143.501805-78.46132 0-142.215345-62.969412-143.48258-141.12874l-.019225-2.373065v-249.097473c.244351-59.357713 48.437645-107.400722 107.851986-107.400722z"/><path d="m714.379722 249.986837c59.565006 0 107.851985 48.286979 107.851985 107.851986 0 52.706421-37.807216 96.582494-87.781309 105.987879 5.115871-.559962 10.314398-.843475 15.579143-.843475 79.253859 0 143.501805 64.247946 143.501805 143.501805 0 79.253858-64.247946 143.501805-143.501805 143.501805-78.46132 0-142.215345-62.969412-143.48258-141.12874l-.019225-2.373065v-249.097473c.244351-59.357713 48.437645-107.400722 107.851986-107.400722zm0 50c-31.541193 0-57.203488 25.249171-57.840778 56.653052l-.011208.873948v248.816l.015 1.825.034647 1.418679c1.605964 49.748933 42.072207 89.601043 91.923207 90.40106l1.528951.012261c51.639621 0 93.501805-41.862184 93.501805-93.501805s-41.862184-93.501805-93.501805-93.501805c-3.438409 0-6.821091.183478-10.138844.546625-63.767089 6.979679-77.729353-86.975797-14.688199-98.840471 27.062294-5.093265 47.029209-28.919653 47.029209-56.850558 0-31.631262-25.385782-57.333357-56.895297-57.844235z"/></g></g></g></g></svg>