<svg width="1011" height="1011" viewBox="0 0 1011 1011" fill="none" xmlns="http://www.w3.org/2000/svg">
<path d="M1001 505.5C1001 779.157 779.157 1001 505.5 1001C231.843 1001 10 779.157 10 505.5C10 231.843 231.843 10 505.5 10C779.157 10 1001 231.843 1001 505.5Z" fill="#FF3366"/>
<path fill-rule="evenodd" clip-rule="evenodd" d="M1011 505.5C1011 784.68 784.68 1011 505.5 1011C226.32 1011 0 784.68 0 505.5C0 226.32 226.32 0 505.5 0C784.68 0 1011 226.32 1011 505.5ZM505.5 1001C779.157 1001 1001 779.157 1001 505.5C1001 231.843 779.157 10 505.5 10C231.843 10 10 231.843 10 505.5C10 779.157 231.843 1001 505.5 1001Z" fill="black"/>
<path d="M128.438 483.5C111.188 483.5 98.375 479.729 90 472.188C81.6667 464.646 77.1458 451.667 76.4375 433.25C76.3542 431.125 76.3125 428.208 76.3125 424.5C76.3125 420.792 76.3958 417.167 76.5625 413.625C76.7292 410.083 77.0208 407.542 77.4375 406H84.875C84.5833 407.458 84.3333 409.646 84.125 412.563C83.9167 415.479 83.7917 418.75 83.75 422.375C83.75 425.958 83.8125 429.5 83.9375 433C84.5625 449 88.3542 460.417 95.3125 467.25C102.271 474.083 113.313 477.5 128.438 477.5C143.896 477.5 155.104 474.063 162.063 467.188C169.021 460.271 172.813 448.854 173.438 432.938C173.521 430.854 173.583 428.854 173.625 426.938C173.708 425.021 173.75 423.125 173.75 421.25C173.792 419.333 173.771 417.354 173.688 415.313C173.229 403.813 170.208 394.438 164.625 387.188C159.083 379.938 151.438 374.979 141.688 372.313L118.5 365.938C115.833 365.188 113.542 363.958 111.625 362.25C109.708 360.5 108.229 358.292 107.188 355.625C106.146 352.958 105.563 349.854 105.438 346.312C105.313 342.854 105.25 339.979 105.25 337.688C105.25 335.354 105.313 332.542 105.438 329.25C105.813 319.917 107.771 313.125 111.313 308.875C114.896 304.625 120.604 302.5 128.438 302.5C135.688 302.5 141.021 304.563 144.438 308.688C147.854 312.813 149.771 319.729 150.188 329.438C150.313 332.604 150.313 336.75 150.188 341.875C150.104 347 149.958 351.708 149.75 356H142.25C142.458 351.875 142.604 347.146 142.688 341.813C142.813 336.438 142.833 332.521 142.75 330.063C142.417 321.604 141.021 315.896 138.562 312.938C136.146 309.979 132.771 308.5 128.438 308.5C123.104 308.5 119.25 310.229 116.875 313.688C114.542 317.104 113.208 322.563 112.875 330.063C112.75 332.979 112.708 335.833 112.75 338.625C112.833 341.375 112.896 343.854 112.938 346.063C113.021 348.479 113.354 350.583 113.938 352.375C114.563 354.125 115.417 355.563 116.5 356.688C117.583 357.771 118.875 358.521 120.375 358.938L143.438 365C155.021 368.042 164.063 373.813 170.563 382.313C177.104 390.771 180.646 401.667 181.188 415C181.271 416.917 181.292 418.917 181.25 421C181.25 423.083 181.208 425.167 181.125 427.25C181.083 429.333 181.021 431.333 180.938 433.25C180.188 451.167 175.75 464.021 167.625 471.813C159.542 479.604 146.479 483.5 128.438 483.5ZM128.438 471.5C116.021 471.5 106.896 468.563 101.062 462.688C95.2292 456.771 92.0208 446.771 91.4375 432.688C91.3542 429.938 91.3125 426.771 91.3125 423.188C91.3542 419.604 91.4375 416.229 91.5625 413.063C91.7292 409.854 91.9583 407.5 92.25 406H99.6875C99.4375 407.792 99.2292 410.104 99.0625 412.938C98.8958 415.771 98.7917 418.896 98.75 422.313C98.75 425.729 98.8125 429.208 98.9375 432.75C99.3958 444.417 101.917 452.792 106.5 457.875C111.125 462.958 118.438 465.5 128.438 465.5C138.604 465.5 146.021 462.958 150.688 457.875C155.396 452.75 157.979 444.375 158.438 432.75C158.563 430.167 158.646 427.917 158.688 426C158.729 424.083 158.75 422.313 158.75 420.688C158.792 419.063 158.771 417.479 158.688 415.938C158.479 410.646 157.542 406.042 155.875 402.125C154.208 398.167 151.875 394.917 148.875 392.375C145.917 389.792 142.354 387.958 138.188 386.875L114.688 380.75C110.146 379.542 106.083 377.542 102.5 374.75C98.9167 371.917 96.0625 368.188 93.9375 363.563C91.8125 358.896 90.6458 353.292 90.4375 346.75C90.3542 344.167 90.2917 341.958 90.25 340.125C90.25 338.292 90.25 336.521 90.25 334.812C90.2917 333.063 90.3542 331.104 90.4375 328.938C91.0208 315.021 94.2917 305.146 100.25 299.313C106.25 293.438 115.646 290.5 128.438 290.5C141.021 290.5 150.146 293.5 155.812 299.5C161.521 305.5 164.646 315.354 165.188 329.062C165.313 332.229 165.313 336.5 165.188 341.875C165.104 347.208 164.938 351.917 164.688 356H157.25C157.458 352.292 157.625 347.813 157.75 342.563C157.875 337.271 157.854 332.75 157.688 329C157.229 317.417 154.708 309.104 150.125 304.063C145.583 299.021 138.354 296.5 128.438 296.5C118.813 296.5 111.438 298.833 106.312 303.5C101.229 308.167 98.4375 316.667 97.9375 329C97.7708 332.792 97.7083 335.833 97.75 338.125C97.7917 340.417 97.8542 343.229 97.9375 346.563C98.1042 351.479 98.9375 355.771 100.438 359.438C101.979 363.063 104.104 366.063 106.812 368.438C109.562 370.771 112.813 372.438 116.563 373.438L139.938 379.563C147.979 381.646 154.271 385.771 158.812 391.938C163.354 398.063 165.813 405.958 166.188 415.625C166.271 417.333 166.312 418.979 166.312 420.563C166.312 422.104 166.271 423.813 166.188 425.688C166.146 427.563 166.063 429.875 165.938 432.625C165.396 446.208 162.271 456.083 156.562 462.25C150.896 468.417 141.521 471.5 128.438 471.5ZM128.438 459.5C121.146 459.5 115.75 457.417 112.25 453.25C108.75 449.083 106.813 442.042 106.438 432.125C106.354 429.208 106.312 426.125 106.312 422.875C106.312 419.625 106.375 416.521 106.5 413.563C106.667 410.604 106.854 408.083 107.062 406H114.5C114.292 408.583 114.104 411.25 113.938 414C113.813 416.75 113.75 419.625 113.75 422.625C113.75 425.583 113.813 428.688 113.938 431.938C114.229 438.813 115.354 444.125 117.313 447.875C119.313 451.625 123.021 453.5 128.438 453.5C133.479 453.5 137.167 451.813 139.5 448.438C141.875 445.021 143.208 439.417 143.5 431.625C143.625 429 143.688 426.75 143.688 424.875C143.729 423 143.75 421.396 143.75 420.063C143.75 418.688 143.729 417.479 143.688 416.438C143.604 413.646 143.188 411.229 142.438 409.188C141.688 407.104 140.646 405.417 139.312 404.125C138.021 402.792 136.458 401.896 134.625 401.438L110.938 395.25C103.604 393.333 97.3333 390.208 92.125 385.875C86.9167 381.5 82.8958 376.063 80.0625 369.563C77.2292 363.063 75.6875 355.625 75.4375 347.25C75.3125 343.208 75.25 339.833 75.25 337.125C75.25 334.417 75.3125 331.542 75.4375 328.5C76.1875 310.667 80.6667 297.875 88.875 290.125C97.0833 282.375 110.271 278.5 128.438 278.5C145.771 278.5 158.542 282.292 166.75 289.875C174.958 297.417 179.437 310.292 180.188 328.5C180.313 331.667 180.313 336.083 180.188 341.75C180.104 347.417 179.938 352.167 179.688 356H172.188C172.479 351.542 172.667 346.688 172.75 341.438C172.833 336.146 172.813 331.917 172.688 328.75C172.063 312.875 168.292 301.542 161.375 294.75C154.5 287.917 143.521 284.5 128.438 284.5C112.979 284.5 101.688 287.896 94.5625 294.688C87.4792 301.438 83.6042 312.771 82.9375 328.688C82.7708 332.563 82.7083 335.792 82.75 338.375C82.7917 340.958 82.8542 343.833 82.9375 347C83.1875 354.167 84.5 360.542 86.875 366.125C89.25 371.667 92.625 376.292 97 380C101.375 383.708 106.646 386.375 112.813 388L136.438 394.188C139.396 394.938 141.938 396.271 144.063 398.188C146.188 400.063 147.854 402.5 149.062 405.5C150.313 408.5 151.021 412.063 151.188 416.188C151.271 417.813 151.292 419.354 151.25 420.813C151.25 422.271 151.229 423.875 151.188 425.625C151.146 427.333 151.063 429.458 150.938 432C150.521 441.792 148.583 448.833 145.125 453.125C141.708 457.375 136.146 459.5 128.438 459.5Z" fill="black"/>
<path d="M197.902 287.5V281H235.402V287.5H197.902ZM197.902 313.5V307H235.402V313.5H197.902ZM197.902 300.5V294H235.402V300.5H197.902ZM227.902 481V331H235.402V481H227.902ZM197.902 481V331H205.402V481H197.902ZM212.902 481V331H220.402V481H212.902Z" fill="black"/>
<path d="M286.008 481V281H293.508V481H286.008ZM256.008 481V281H263.508V481H256.008ZM271.008 481V281H278.508V481H271.008Z" fill="black"/>
<path d="M330.988 481L308.863 331H316.488L337.301 474.5H386.426L407.488 331H415.113L392.738 481H330.988ZM342.426 468L334.551 411.938L324.051 331H331.676L341.801 409.813L348.738 461.5H374.988L381.988 409.875L392.301 331H399.926L389.238 412.063L381.301 468H342.426ZM353.863 455L349.051 407.688L339.301 331H346.863L356.301 405.438L360.176 448.5H363.551L367.613 405.188L377.051 331H384.676L374.801 407.375L369.926 455H353.863Z" fill="black"/>
<path d="M476.576 483.5C459.16 483.5 446.618 480.021 438.951 473.063C431.285 466.063 426.993 454.75 426.076 439.125C425.91 435.875 425.764 431.229 425.639 425.188C425.555 419.146 425.514 412.708 425.514 405.875C425.514 399 425.555 392.625 425.639 386.75C425.764 380.875 425.91 376.479 426.076 373.563C427.16 357.063 431.701 345.438 439.701 338.688C447.701 331.896 459.826 328.5 476.076 328.5C492.826 328.5 504.993 331.875 512.576 338.625C520.16 345.333 524.326 356.458 525.076 372C525.243 375.458 525.347 379.063 525.389 382.813C525.472 386.521 525.493 390.292 525.451 394.125C525.451 397.958 525.389 401.771 525.264 405.563C525.18 409.313 525.035 412.958 524.826 416.5H463.014C463.055 419.042 463.097 421.688 463.139 424.438C463.18 427.146 463.222 429.563 463.264 431.688C463.347 433.813 463.41 435.271 463.451 436.063C463.868 442.063 465.055 446.479 467.014 449.313C469.014 452.104 472.201 453.5 476.576 453.5C480.201 453.5 482.868 452.25 484.576 449.75C486.326 447.208 487.347 443.042 487.639 437.25C487.722 436 487.743 434.167 487.701 431.75C487.66 429.292 487.555 426.292 487.389 422.75H494.889C495.055 426.083 495.16 429.063 495.201 431.688C495.243 434.271 495.222 436.229 495.139 437.563C494.764 445.396 493.118 451.021 490.201 454.438C487.326 457.813 482.785 459.5 476.576 459.5C469.618 459.5 464.535 457.75 461.326 454.25C458.118 450.75 456.305 444.979 455.889 436.938C455.805 435.063 455.722 432.75 455.639 430C455.597 427.25 455.555 424.208 455.514 420.875C455.514 417.542 455.514 414.083 455.514 410.5H517.639C517.764 407.75 517.847 404.813 517.889 401.688C517.972 398.563 518.014 395.354 518.014 392.063C518.014 388.729 517.972 385.417 517.889 382.125C517.847 378.792 517.743 375.542 517.576 372.375C516.91 358.833 513.368 349.146 506.951 343.313C500.576 337.438 490.285 334.5 476.076 334.5C462.201 334.5 451.889 337.479 445.139 343.438C438.389 349.396 434.535 359.583 433.576 374C433.368 377.125 433.222 381.708 433.139 387.75C433.055 393.792 433.014 400.229 433.014 407.063C433.014 413.896 433.055 420.188 433.139 425.938C433.264 431.646 433.389 435.771 433.514 438.313C434.347 451.979 437.972 461.938 444.389 468.188C450.805 474.396 461.535 477.5 476.576 477.5C490.576 477.5 500.743 474.5 507.076 468.5C513.41 462.458 516.91 452.542 517.576 438.75C517.66 436.917 517.68 435.083 517.639 433.25C517.639 431.375 517.597 429.542 517.514 427.75C517.472 425.958 517.41 424.292 517.326 422.75H524.826C524.951 424.958 525.055 427.542 525.139 430.5C525.222 433.458 525.201 436.292 525.076 439C524.326 454.917 520.18 466.313 512.639 473.188C505.139 480.063 493.118 483.5 476.576 483.5ZM476.576 471.5C464.66 471.5 455.93 468.938 450.389 463.813C444.847 458.688 441.722 450.104 441.014 438.063C440.847 435.479 440.722 431.354 440.639 425.688C440.555 420.021 440.514 413.833 440.514 407.125C440.514 400.375 440.555 394.021 440.639 388.063C440.722 382.104 440.868 377.563 441.076 374.438C441.91 362.396 445.014 353.729 450.389 348.438C455.764 343.146 464.326 340.5 476.076 340.5C487.451 340.5 495.826 342.938 501.201 347.813C506.576 352.688 509.535 360.938 510.076 372.563C510.243 375.813 510.347 379.229 510.389 382.813C510.472 386.354 510.514 389.958 510.514 393.625C510.514 397.25 510.451 400.875 510.326 404.5H448.076C448.035 411.417 448.014 417.479 448.014 422.688C448.014 427.854 448.035 432.792 448.076 437.5C448.243 447.5 450.514 454.667 454.889 459C459.305 463.333 466.535 465.5 476.576 465.5C484.66 465.5 490.889 463.563 495.264 459.688C499.639 455.813 502.076 448.708 502.576 438.375C502.66 436.042 502.68 433.583 502.639 431C502.597 428.417 502.493 425.667 502.326 422.75H509.826C509.951 425.292 510.055 427.875 510.139 430.5C510.222 433.125 510.201 435.813 510.076 438.563C509.535 450.271 506.66 458.688 501.451 463.813C496.243 468.938 487.951 471.5 476.576 471.5ZM448.139 398.5H502.951C502.993 395.25 502.993 392.188 502.951 389.313C502.951 386.438 502.91 383.646 502.826 380.938C502.785 378.188 502.701 375.438 502.576 372.688C502.118 362.479 499.576 355.563 494.951 351.938C490.368 348.313 484.076 346.5 476.076 346.5C467.035 346.5 460.347 348.688 456.014 353.063C451.722 357.438 449.222 364.75 448.514 375C448.472 376.042 448.41 378.771 448.326 383.188C448.243 387.604 448.18 392.708 448.139 398.5ZM455.576 392.5C455.618 390.292 455.66 388.063 455.701 385.813C455.743 383.521 455.785 381.458 455.826 379.625C455.91 377.75 455.972 376.354 456.014 375.438C456.597 367.229 458.451 361.354 461.576 357.813C464.701 354.271 469.535 352.5 476.076 352.5C482.66 352.5 487.389 354.167 490.264 357.5C493.18 360.833 494.805 366.167 495.139 373.5C495.222 375.167 495.285 377.104 495.326 379.313C495.41 381.479 495.451 383.729 495.451 386.063C495.493 388.354 495.514 390.5 495.514 392.5H455.576ZM463.139 386.5H487.951C487.951 385.125 487.93 383.667 487.889 382.125C487.847 380.583 487.805 379.083 487.764 377.625C487.722 376.125 487.68 374.833 487.639 373.75C487.389 368.417 486.368 364.542 484.576 362.125C482.785 359.708 479.951 358.5 476.076 358.5C472.035 358.5 469.035 359.833 467.076 362.5C465.118 365.167 463.93 369.604 463.514 375.813C463.472 376.521 463.43 377.375 463.389 378.375C463.347 379.375 463.305 380.542 463.264 381.875C463.222 383.208 463.18 384.75 463.139 386.5Z" fill="black"/>
<path d="M586.129 483.5C570.379 483.5 558.921 480.063 551.754 473.188C544.587 466.313 540.629 454.917 539.879 439C539.754 436.375 539.691 433.521 539.691 430.438C539.733 427.354 539.879 424.792 540.129 422.75H546.941C546.733 424.667 546.608 427.083 546.566 430C546.525 432.917 546.566 435.792 546.691 438.625C547.358 452.5 550.733 462.458 556.816 468.5C562.941 474.5 572.712 477.5 586.129 477.5C601.129 477.5 611.879 474.604 618.379 468.813C624.879 463.021 628.129 453.417 628.129 440C628.129 439.292 628.129 438.542 628.129 437.75C628.129 436.917 628.129 436.083 628.129 435.25C628.129 434.417 628.129 433.667 628.129 433C628.129 423.417 625.316 416.313 619.691 411.688C614.066 407.021 606.462 403.042 596.879 399.75L584.441 395.5C579.941 393.917 576.525 392.292 574.191 390.625C571.9 388.958 570.316 387.313 569.441 385.688C568.608 384.021 568.087 382.458 567.879 381C567.712 380.042 567.65 378.896 567.691 377.563C567.733 376.188 567.796 374.917 567.879 373.75C568.462 366.167 570.15 360.729 572.941 357.438C575.733 354.146 580.712 352.5 587.879 352.5C593.462 352.5 597.9 353.938 601.191 356.813C604.483 359.688 606.316 365.229 606.691 373.438C606.775 375.146 606.775 377.396 606.691 380.188C606.608 382.938 606.525 385.792 606.441 388.75H599.629C599.712 385.958 599.796 383.229 599.879 380.563C599.962 377.854 599.962 375.583 599.879 373.75C599.629 368.333 598.566 364.438 596.691 362.063C594.816 359.688 591.879 358.5 587.879 358.5C583.296 358.5 580.108 359.688 578.316 362.063C576.525 364.396 575.462 368.292 575.129 373.75C575.046 375.125 575.004 376.438 575.004 377.688C575.004 378.938 575.046 380.042 575.129 381C575.296 382.583 575.879 383.875 576.879 384.875C577.921 385.833 579.275 386.667 580.941 387.375C582.65 388.042 584.525 388.75 586.566 389.5L598.629 393.75C605.587 396.167 611.837 398.896 617.379 401.938C622.921 404.938 627.296 408.875 630.504 413.75C633.754 418.583 635.379 425 635.379 433C635.379 433.75 635.379 434.521 635.379 435.313C635.379 436.104 635.379 436.896 635.379 437.688C635.379 438.479 635.379 439.25 635.379 440C635.379 455.542 631.566 466.688 623.941 473.438C616.316 480.146 603.712 483.5 586.129 483.5ZM586.129 471.5C575.046 471.5 566.983 468.938 561.941 463.813C556.9 458.646 554.087 450.146 553.504 438.313C553.421 436.188 553.379 433.583 553.379 430.5C553.421 427.417 553.546 424.833 553.754 422.75H560.566C560.4 424.792 560.296 427.271 560.254 430.188C560.212 433.104 560.233 435.688 560.316 437.938C560.775 447.771 563.004 454.833 567.004 459.125C571.046 463.375 577.421 465.5 586.129 465.5C595.962 465.5 603.004 463.521 607.254 459.563C611.504 455.604 613.629 449.083 613.629 440C613.629 438.792 613.629 437.583 613.629 436.375C613.629 435.167 613.629 434.042 613.629 433C613.629 427.667 612.025 423.375 608.816 420.125C605.65 416.833 600.525 414.042 593.441 411.75L580.316 407.5C574.025 405.458 568.941 403.208 565.066 400.75C561.233 398.25 558.379 395.396 556.504 392.188C554.671 388.979 553.629 385.25 553.379 381C553.337 379.875 553.316 378.625 553.316 377.25C553.358 375.875 553.379 374.708 553.379 373.75C553.379 361.875 556.046 353.375 561.379 348.25C566.754 343.083 575.587 340.5 587.879 340.5C598.837 340.5 606.837 342.979 611.879 347.938C616.921 352.896 619.712 361.104 620.254 372.563C620.337 374.771 620.358 377.188 620.316 379.813C620.275 382.396 620.171 385.375 620.004 388.75H613.191C613.316 385.625 613.421 382.854 613.504 380.438C613.587 377.979 613.566 375.396 613.441 372.688C612.983 362.646 610.566 355.771 606.191 352.062C601.858 348.354 595.754 346.5 587.879 346.5C578.171 346.5 571.191 348.625 566.941 352.875C562.733 357.083 560.629 364.042 560.629 373.75C560.629 374.792 560.608 376.021 560.566 377.438C560.566 378.813 560.587 380 560.629 381C560.879 384.083 561.754 386.875 563.254 389.375C564.796 391.833 567.108 394.063 570.191 396.063C573.316 398.021 577.379 399.833 582.379 401.5L595.191 405.75C604.066 408.667 610.566 412.146 614.691 416.188C618.816 420.229 620.879 425.833 620.879 433C620.879 434.042 620.879 435.208 620.879 436.5C620.879 437.792 620.879 438.958 620.879 440C620.879 451.25 618.191 459.313 612.816 464.188C607.441 469.063 598.546 471.5 586.129 471.5ZM586.129 459.5C579.754 459.5 575.087 457.813 572.129 454.438C569.171 451.021 567.504 445.417 567.129 437.625C567.046 435.708 567.004 433.375 567.004 430.625C567.046 427.875 567.15 425.25 567.316 422.75H574.129C573.962 425.167 573.858 427.688 573.816 430.313C573.816 432.896 573.858 435.167 573.941 437.125C574.233 443 575.316 447.208 577.191 449.75C579.108 452.25 582.087 453.5 586.129 453.5C590.796 453.5 594.129 452.458 596.129 450.375C598.129 448.25 599.129 444.792 599.129 440C599.129 438.792 599.129 437.583 599.129 436.375C599.129 435.167 599.129 434.042 599.129 433C599.129 430.375 598.296 428.396 596.629 427.063C595.004 425.688 592.796 424.583 590.004 423.75L576.129 419.5C569.379 417.417 563.171 414.875 557.504 411.875C551.879 408.875 547.358 404.917 543.941 400C540.566 395.083 538.879 388.75 538.879 381C538.879 379.875 538.879 378.667 538.879 377.375C538.879 376.083 538.879 374.875 538.879 373.75C538.879 357.583 542.671 346 550.254 339C557.837 332 570.379 328.5 587.879 328.5C603.587 328.5 614.983 331.875 622.066 338.625C629.191 345.333 633.129 356.458 633.879 372C634.004 374.667 634.025 377.479 633.941 380.438C633.858 383.354 633.754 386.125 633.629 388.75H626.816C626.9 386.458 626.983 383.792 627.066 380.75C627.191 377.708 627.191 374.917 627.066 372.375C626.4 358.833 623.025 349.146 616.941 343.313C610.9 337.438 601.212 334.5 587.879 334.5C572.962 334.5 562.275 337.542 555.816 343.625C549.358 349.667 546.129 359.708 546.129 373.75C546.129 374.792 546.108 376 546.066 377.375C546.066 378.75 546.087 379.958 546.129 381C546.379 386.667 547.691 391.521 550.066 395.563C552.483 399.604 556.025 403.063 560.691 405.938C565.358 408.771 571.191 411.292 578.191 413.5L591.754 417.75C597.296 419.5 601.108 421.604 603.191 424.063C605.316 426.521 606.379 429.5 606.379 433C606.379 433.792 606.379 434.583 606.379 435.375C606.379 436.125 606.379 436.875 606.379 437.625C606.379 438.375 606.379 439.167 606.379 440C606.379 446.958 604.796 451.958 601.629 455C598.504 458 593.337 459.5 586.129 459.5Z" fill="black"/>
<path d="M714.754 470.5C700.921 470.5 691.004 468.063 685.004 463.188C679.004 458.313 676.004 450.25 676.004 439V350.5H646.754V344H676.004V288.5H683.504V344H724.254V350.5H683.504V439C683.504 447.917 685.921 454.313 690.754 458.188C695.587 462.063 703.587 464 714.754 464C716.754 464 718.712 463.979 720.629 463.938C722.546 463.896 724.587 463.813 726.754 463.688V469.938C725.087 470.146 723.296 470.292 721.379 470.375C719.504 470.458 717.296 470.5 714.754 470.5ZM714.754 483.5C695.587 483.5 681.837 480.063 673.504 473.188C665.171 466.313 661.004 454.917 661.004 439V363.5H646.754V357H668.504V439C668.504 452.542 672.066 462.271 679.191 468.188C686.358 474.063 698.212 477 714.754 477C717.379 477 719.65 476.938 721.566 476.813C723.525 476.688 725.254 476.479 726.754 476.188V482.438C723.796 483.146 719.796 483.5 714.754 483.5ZM714.754 457.563C706.296 457.563 700.212 456.125 696.504 453.25C692.837 450.375 691.004 445.625 691.004 439V357H724.254V363.5H698.504V439C698.504 443.292 699.754 446.375 702.254 448.25C704.796 450.125 708.962 451.063 714.754 451.063C718.587 451.063 721.441 451.063 723.316 451.063C725.233 451.063 726.379 451.042 726.754 451V457.25C725.587 457.333 724.087 457.417 722.254 457.5C720.462 457.542 717.962 457.563 714.754 457.563ZM646.754 337.5V331H661.004V288.5H668.504V337.5H646.754ZM691.004 337.5V288.5H698.504V331H724.254V337.5H691.004Z" fill="black"/>
<path d="M834.467 481V380C834.467 363.75 831.363 352.104 825.154 345.062C818.946 338.021 808.633 334.5 794.217 334.5C779.383 334.5 768.654 337.438 762.029 343.313C755.404 349.146 751.8 358.813 751.217 372.313C751.133 374.854 751.071 377.521 751.029 380.313C751.029 383.104 751.154 385.896 751.404 388.688H743.967C743.717 385.729 743.571 383.063 743.529 380.688C743.529 378.271 743.592 375.375 743.717 372C744.342 356.333 748.613 345.167 756.529 338.5C764.446 331.833 777.008 328.5 794.217 328.5C805.633 328.5 814.842 330.25 821.842 333.75C828.842 337.208 833.946 342.708 837.154 350.25C840.363 357.792 841.967 367.708 841.967 380V481H834.467ZM784.092 466C790.55 466 796.425 464.125 801.717 460.375C807.008 456.583 811.238 451.729 814.404 445.813C817.571 439.896 819.154 433.729 819.154 427.313V404.75C814.571 405.042 809.425 405.792 803.717 407C798.05 408.167 792.425 409.667 786.842 411.5C779.05 414.083 772.925 417.417 768.467 421.5C764.008 425.583 761.55 431.292 761.092 438.625C761.05 439.75 761.071 440.896 761.154 442.063C761.279 443.188 761.363 444.104 761.404 444.813C761.988 451.604 764.238 456.833 768.154 460.5C772.071 464.167 777.383 466 784.092 466ZM786.029 459.5C780.863 459.5 776.904 457.917 774.154 454.75C771.446 451.542 769.675 448 768.842 444.125C768.758 443.625 768.675 442.833 768.592 441.75C768.508 440.667 768.488 439.875 768.529 439.375C768.988 433.625 770.883 429.083 774.217 425.75C777.592 422.375 782.55 419.542 789.092 417.25C792.383 416.083 796.029 415.021 800.029 414.063C804.029 413.063 807.925 412.292 811.717 411.75V428C811.717 433.917 810.696 439.271 808.654 444.063C806.654 448.813 803.738 452.583 799.904 455.375C796.071 458.125 791.446 459.5 786.029 459.5ZM787.154 453.625C790.779 453.625 793.863 452.542 796.404 450.375C798.946 448.208 800.883 445.25 802.217 441.5C803.55 437.75 804.217 433.479 804.217 428.688V419.375C801.175 420.083 798.571 420.75 796.404 421.375C794.279 422 792.633 422.542 791.467 423C785.925 425.292 781.988 427.625 779.654 430C777.363 432.375 776.175 435.479 776.092 439.313C776.092 440.104 776.092 440.833 776.092 441.5C776.092 442.125 776.175 442.792 776.342 443.5C776.842 445.542 777.904 447.75 779.529 450.125C781.196 452.458 783.738 453.625 787.154 453.625ZM776.529 483.625C765.738 483.625 757.029 480.521 750.404 474.313C743.821 468.104 740.008 458.917 738.967 446.75C738.842 445.208 738.738 443.354 738.654 441.188C738.571 438.979 738.592 437.229 738.717 435.938C739.592 425.688 743.196 417.333 749.529 410.875C755.904 404.375 765.946 398.854 779.654 394.313C782.863 393.229 785.592 392.354 787.842 391.688C790.133 391.021 792.529 390.417 795.029 389.875C797.529 389.333 800.675 388.75 804.467 388.125V379.938C804.467 372.271 803.675 366.792 802.092 363.5C800.55 360.167 797.925 358.5 794.217 358.5C789.675 358.5 786.404 359.708 784.404 362.125C782.446 364.5 781.363 368.333 781.154 373.625C781.113 374.5 781.071 376.458 781.029 379.5C780.988 382.542 781.029 385.604 781.154 388.688H773.717C773.55 384.979 773.488 381.854 773.529 379.313C773.613 376.729 773.675 374.563 773.717 372.813C774.05 365.104 775.946 359.792 779.404 356.875C782.863 353.958 787.8 352.5 794.217 352.5C800.633 352.5 805.196 354.625 807.904 358.875C810.613 363.125 811.967 370.146 811.967 379.938V393.313C805.8 394.229 800.488 395.208 796.029 396.25C791.571 397.25 786.925 398.5 782.092 400C769.8 403.875 760.946 408.708 755.529 414.5C750.113 420.292 747.008 427.646 746.217 436.563C746.133 437.771 746.113 439.313 746.154 441.188C746.238 443.063 746.342 444.708 746.467 446.125C747.342 456.5 750.613 464.375 756.279 469.75C761.946 475.125 769.508 477.813 778.967 477.813C787.675 477.813 794.717 475.896 800.092 472.063C805.467 468.188 809.988 463.542 813.654 458.125H815.342L812.779 475.375V481H805.342L805.217 480L809.029 469H807.654C803.238 473.917 798.842 477.583 794.467 480C790.092 482.417 784.113 483.625 776.529 483.625ZM819.467 481.063V463L820.592 443.125H818.904C814.904 452 809.967 459.021 804.092 464.188C798.217 469.354 790.613 471.917 781.279 471.875C773.654 471.833 767.363 469.646 762.404 465.313C757.488 460.979 754.654 454.354 753.904 445.438C753.863 444.604 753.779 443.333 753.654 441.625C753.571 439.875 753.571 438.458 753.654 437.375C754.363 429.5 757.05 423.021 761.717 417.938C766.425 412.854 774.008 408.792 784.467 405.75C788.758 404.5 792.946 403.417 797.029 402.5C801.113 401.542 805.029 400.75 808.779 400.125C812.571 399.5 816.133 399.042 819.467 398.75V380C819.467 368.042 817.529 359.479 813.654 354.312C809.779 349.104 803.3 346.5 794.217 346.5C784.675 346.5 777.717 348.542 773.342 352.625C768.967 356.667 766.592 363.333 766.217 372.625C766.133 375.042 766.071 377.583 766.029 380.25C765.988 382.917 766.071 385.729 766.279 388.688H758.842C758.633 385.479 758.529 382.563 758.529 379.938C758.571 377.271 758.633 374.792 758.717 372.5C759.175 361.083 762.154 352.896 767.654 347.938C773.154 342.979 782.008 340.5 794.217 340.5C805.925 340.5 814.3 343.563 819.342 349.688C824.425 355.771 826.967 365.875 826.967 380V481.063H819.467Z" fill="black"/>
<path d="M876.965 481V331H884.402L884.465 349L883.09 368.875H884.777C888.902 359.792 894.236 353.25 900.777 349.25C907.361 345.208 915.173 343.188 924.215 343.188C926.632 343.188 929.111 343.25 931.652 343.375C934.194 343.5 935.965 343.625 936.965 343.75V350.25C935.715 350.125 933.673 350.021 930.84 349.938C928.048 349.813 925.361 349.75 922.777 349.75C914.486 349.75 907.486 351.417 901.777 354.75C896.069 358.042 891.757 362.354 888.84 367.688C885.923 372.979 884.465 378.646 884.465 384.688V481H876.965ZM861.965 481V331H869.465V481H861.965ZM891.965 481V384C891.965 374.917 894.59 368.146 899.84 363.688C905.132 359.229 911.611 357 919.277 357C922.277 357 925.298 357 928.34 357C931.382 357 934.257 357 936.965 357V363.563C934.298 363.521 931.361 363.521 928.152 363.563C924.944 363.563 921.986 363.563 919.277 363.563C912.611 363.563 907.694 365.167 904.527 368.375C901.402 371.542 899.84 376.479 899.84 383.188V481H891.965ZM888.34 353.875L891.902 336.625V331H899.34L899.465 332L894.652 343H896.027C899.486 339.042 904.132 335.917 909.965 333.625C915.84 331.292 921.777 330.125 927.777 330.125C929.152 330.125 930.673 330.188 932.34 330.313C934.007 330.396 935.548 330.542 936.965 330.75V337.25C935.798 337.042 934.486 336.896 933.027 336.813C931.611 336.688 930.048 336.625 928.34 336.625C920.007 336.625 912.694 337.938 906.402 340.562C900.111 343.146 894.652 347.583 890.027 353.875H888.34Z" fill="black"/>
<path d="M79 711V511H125.25C136.792 511 146.542 512.521 154.5 515.563C162.5 518.563 168.583 523.833 172.75 531.375C176.917 538.875 179 549.375 179 562.875C179 564.417 178.979 565.896 178.938 567.312C178.938 568.687 178.896 570.083 178.813 571.5C178.729 572.875 178.625 574.354 178.5 575.938C177.833 584.104 175.708 590.687 172.125 595.688C168.583 600.646 163.458 604.646 156.75 607.688V609C163.875 611.792 169.521 616.417 173.688 622.875C177.896 629.292 180.083 637.25 180.25 646.75C180.292 649.083 180.313 651.021 180.313 652.562C180.313 654.104 180.292 655.458 180.25 656.625C180.25 657.792 180.208 658.958 180.125 660.125C180.042 661.292 179.917 662.667 179.75 664.25C178.625 676.167 175.958 685.521 171.75 692.312C167.583 699.104 161.75 703.917 154.25 706.75C146.75 709.583 137.417 711 126.25 711H79ZM86.5 704.5H126.25C140.458 704.5 151.229 701.625 158.563 695.875C165.938 690.125 170.5 679.583 172.25 664.25C172.5 662.208 172.646 660.375 172.688 658.75C172.771 657.083 172.813 655.354 172.813 653.562C172.813 651.729 172.792 649.562 172.75 647.062C172.583 636.854 170.479 628.833 166.438 623C162.438 617.167 156.438 612.604 148.438 609.312V607.625C155.854 604.25 161.313 600.125 164.813 595.25C168.313 590.333 170.375 583.854 171 575.812C171.125 574.146 171.229 572.625 171.313 571.25C171.396 569.875 171.438 568.521 171.438 567.188C171.479 565.813 171.5 564.375 171.5 562.875C171.5 551.042 169.708 541.854 166.125 535.312C162.542 528.729 157.313 524.125 150.438 521.5C143.563 518.833 135.167 517.5 125.25 517.5H86.5V704.5ZM94 698V524H125.25C133.25 524 140.146 525.083 145.938 527.25C151.729 529.375 156.188 533.25 159.312 538.875C162.438 544.458 164 552.458 164 562.875C164 564.25 163.958 565.604 163.875 566.938C163.833 568.229 163.771 569.604 163.688 571.062C163.646 572.521 163.583 574.146 163.5 575.938C163.292 583.604 161.417 589.979 157.875 595.062C154.333 600.146 148.417 604.521 140.125 608.188V609.062C148.833 612.562 155.146 617.313 159.063 623.312C163.021 629.313 165.083 637.333 165.25 647.375C165.292 649.792 165.313 651.854 165.313 653.562C165.313 655.271 165.271 656.938 165.188 658.562C165.146 660.188 165.021 662.125 164.813 664.375C163.771 676.917 160.104 685.667 153.813 690.625C147.521 695.542 138.333 698 126.25 698H94ZM101.5 606H120.563C131.271 606 139.667 603.917 145.75 599.75C151.875 595.542 155.313 587.604 156.062 575.938C156.188 574.271 156.271 572.708 156.313 571.25C156.396 569.792 156.438 568.375 156.438 567C156.479 565.625 156.5 564.25 156.5 562.875C156.5 550.208 153.792 541.646 148.375 537.188C143 532.729 135.292 530.5 125.25 530.5H101.5V606ZM109 599.5V537H125.25C132.875 537 138.729 538.792 142.813 542.375C146.938 545.958 149 552.792 149 562.875C149 564.375 148.979 565.833 148.938 567.25C148.938 568.625 148.896 570.021 148.813 571.438C148.771 572.854 148.688 574.354 148.562 575.938C147.938 585.229 145.167 591.479 140.25 594.688C135.375 597.896 128.813 599.5 120.563 599.5H109ZM116.5 593H120.563C126.771 593 131.625 591.833 135.125 589.5C138.667 587.125 140.646 582.604 141.062 575.938C141.229 573.354 141.333 571.083 141.375 569.125C141.458 567.125 141.5 565.042 141.5 562.875C141.5 555.083 140.042 549.917 137.125 547.375C134.208 544.792 130.25 543.5 125.25 543.5H116.5V593ZM101.5 691.5H126.25C136.208 691.5 143.688 689.458 148.688 685.375C153.688 681.25 156.583 674.167 157.375 664.125C157.542 662.375 157.646 660.687 157.688 659.062C157.771 657.437 157.813 655.708 157.813 653.875C157.813 652.042 157.792 649.979 157.75 647.688C157.542 634.521 154.542 625.375 148.75 620.25C143 615.083 134.438 612.5 123.063 612.5H101.5V691.5ZM109 685V619H123.063C131.354 619 137.917 621 142.75 625C147.583 629 150.104 636.75 150.313 648.25C150.354 650.167 150.354 651.979 150.313 653.688C150.313 655.354 150.271 657.042 150.188 658.75C150.104 660.417 149.979 662.25 149.813 664.25C149.188 671.875 146.958 677.25 143.125 680.375C139.333 683.458 133.708 685 126.25 685H109ZM116.5 678.5H126.25C131.333 678.5 135.208 677.417 137.875 675.25C140.542 673.042 142.042 669.354 142.375 664.188C142.5 662.229 142.583 660.437 142.625 658.812C142.708 657.188 142.771 655.542 142.813 653.875C142.854 652.208 142.854 650.375 142.813 648.375C142.688 640.167 141.021 634.313 137.813 630.812C134.646 627.271 129.729 625.5 123.063 625.5H116.5V678.5Z" fill="black"/>
<path d="M197.414 517.5V511H234.914V517.5H197.414ZM197.414 543.5V537H234.914V543.5H197.414ZM197.414 530.5V524H234.914V530.5H197.414ZM227.414 711V561H234.914V711H227.414ZM197.414 711V561H204.914V711H197.414ZM212.414 711V561H219.914V711H212.414Z" fill="black"/>
<path d="M299.02 713.5C283.27 713.5 271.811 710.062 264.645 703.188C257.478 696.312 253.52 684.917 252.77 669C252.645 666.375 252.582 663.521 252.582 660.438C252.624 657.354 252.77 654.792 253.02 652.75H259.832C259.624 654.667 259.499 657.083 259.457 660C259.415 662.917 259.457 665.792 259.582 668.625C260.249 682.5 263.624 692.458 269.707 698.5C275.832 704.5 285.603 707.5 299.02 707.5C314.02 707.5 324.77 704.604 331.27 698.812C337.77 693.021 341.02 683.417 341.02 670C341.02 669.292 341.02 668.542 341.02 667.75C341.02 666.917 341.02 666.083 341.02 665.25C341.02 664.417 341.02 663.667 341.02 663C341.02 653.417 338.207 646.313 332.582 641.688C326.957 637.021 319.353 633.042 309.77 629.75L297.332 625.5C292.832 623.917 289.415 622.292 287.082 620.625C284.79 618.958 283.207 617.313 282.332 615.688C281.499 614.021 280.978 612.458 280.77 611C280.603 610.042 280.54 608.896 280.582 607.562C280.624 606.188 280.686 604.917 280.77 603.75C281.353 596.167 283.04 590.729 285.832 587.438C288.624 584.146 293.603 582.5 300.77 582.5C306.353 582.5 310.79 583.938 314.082 586.812C317.374 589.688 319.207 595.229 319.582 603.438C319.665 605.146 319.665 607.396 319.582 610.188C319.499 612.937 319.415 615.792 319.332 618.75H312.52C312.603 615.958 312.686 613.229 312.77 610.562C312.853 607.854 312.853 605.583 312.77 603.75C312.52 598.333 311.457 594.438 309.582 592.062C307.707 589.688 304.77 588.5 300.77 588.5C296.186 588.5 292.999 589.688 291.207 592.062C289.415 594.396 288.353 598.292 288.02 603.75C287.936 605.125 287.895 606.438 287.895 607.688C287.895 608.938 287.936 610.042 288.02 611C288.186 612.583 288.77 613.875 289.77 614.875C290.811 615.833 292.165 616.667 293.832 617.375C295.54 618.042 297.415 618.75 299.457 619.5L311.52 623.75C318.478 626.167 324.728 628.896 330.27 631.938C335.811 634.938 340.186 638.875 343.395 643.75C346.645 648.583 348.27 655 348.27 663C348.27 663.75 348.27 664.521 348.27 665.312C348.27 666.104 348.27 666.896 348.27 667.688C348.27 668.479 348.27 669.25 348.27 670C348.27 685.542 344.457 696.687 336.832 703.438C329.207 710.146 316.603 713.5 299.02 713.5ZM299.02 701.5C287.936 701.5 279.874 698.938 274.832 693.812C269.79 688.646 266.978 680.146 266.395 668.312C266.311 666.188 266.27 663.583 266.27 660.5C266.311 657.417 266.436 654.833 266.645 652.75H273.457C273.29 654.792 273.186 657.271 273.145 660.188C273.103 663.104 273.124 665.687 273.207 667.938C273.665 677.771 275.895 684.833 279.895 689.125C283.936 693.375 290.311 695.5 299.02 695.5C308.853 695.5 315.895 693.521 320.145 689.562C324.395 685.604 326.52 679.083 326.52 670C326.52 668.792 326.52 667.583 326.52 666.375C326.52 665.167 326.52 664.042 326.52 663C326.52 657.667 324.915 653.375 321.707 650.125C318.54 646.833 313.415 644.042 306.332 641.75L293.207 637.5C286.915 635.458 281.832 633.208 277.957 630.75C274.124 628.25 271.27 625.396 269.395 622.188C267.561 618.979 266.52 615.25 266.27 611C266.228 609.875 266.207 608.625 266.207 607.25C266.249 605.875 266.27 604.708 266.27 603.75C266.27 591.875 268.936 583.375 274.27 578.25C279.645 573.083 288.478 570.5 300.77 570.5C311.728 570.5 319.728 572.979 324.77 577.938C329.811 582.896 332.603 591.104 333.145 602.562C333.228 604.771 333.249 607.188 333.207 609.812C333.165 612.396 333.061 615.375 332.895 618.75H326.082C326.207 615.625 326.311 612.854 326.395 610.438C326.478 607.979 326.457 605.396 326.332 602.688C325.874 592.646 323.457 585.771 319.082 582.062C314.749 578.354 308.645 576.5 300.77 576.5C291.061 576.5 284.082 578.625 279.832 582.875C275.624 587.083 273.52 594.042 273.52 603.75C273.52 604.792 273.499 606.021 273.457 607.438C273.457 608.812 273.478 610 273.52 611C273.77 614.083 274.645 616.875 276.145 619.375C277.686 621.833 279.999 624.063 283.082 626.062C286.207 628.021 290.27 629.833 295.27 631.5L308.082 635.75C316.957 638.667 323.457 642.146 327.582 646.188C331.707 650.229 333.77 655.833 333.77 663C333.77 664.042 333.77 665.208 333.77 666.5C333.77 667.792 333.77 668.958 333.77 670C333.77 681.25 331.082 689.313 325.707 694.188C320.332 699.063 311.436 701.5 299.02 701.5ZM299.02 689.5C292.645 689.5 287.978 687.812 285.02 684.438C282.061 681.021 280.395 675.417 280.02 667.625C279.936 665.708 279.895 663.375 279.895 660.625C279.936 657.875 280.04 655.25 280.207 652.75H287.02C286.853 655.167 286.749 657.688 286.707 660.312C286.707 662.896 286.749 665.167 286.832 667.125C287.124 673 288.207 677.208 290.082 679.75C291.999 682.25 294.978 683.5 299.02 683.5C303.686 683.5 307.02 682.458 309.02 680.375C311.02 678.25 312.02 674.792 312.02 670C312.02 668.792 312.02 667.583 312.02 666.375C312.02 665.167 312.02 664.042 312.02 663C312.02 660.375 311.186 658.396 309.52 657.062C307.895 655.688 305.686 654.583 302.895 653.75L289.02 649.5C282.27 647.417 276.061 644.875 270.395 641.875C264.77 638.875 260.249 634.917 256.832 630C253.457 625.083 251.77 618.75 251.77 611C251.77 609.875 251.77 608.667 251.77 607.375C251.77 606.083 251.77 604.875 251.77 603.75C251.77 587.583 255.561 576 263.145 569C270.728 562 283.27 558.5 300.77 558.5C316.478 558.5 327.874 561.875 334.957 568.625C342.082 575.333 346.02 586.458 346.77 602C346.895 604.667 346.915 607.479 346.832 610.438C346.749 613.354 346.645 616.125 346.52 618.75H339.707C339.79 616.458 339.874 613.792 339.957 610.75C340.082 607.708 340.082 604.917 339.957 602.375C339.29 588.833 335.915 579.146 329.832 573.312C323.79 567.437 314.103 564.5 300.77 564.5C285.853 564.5 275.165 567.542 268.707 573.625C262.249 579.667 259.02 589.708 259.02 603.75C259.02 604.792 258.999 606 258.957 607.375C258.957 608.75 258.978 609.958 259.02 611C259.27 616.667 260.582 621.521 262.957 625.562C265.374 629.604 268.915 633.062 273.582 635.938C278.249 638.771 284.082 641.292 291.082 643.5L304.645 647.75C310.186 649.5 313.999 651.604 316.082 654.062C318.207 656.521 319.27 659.5 319.27 663C319.27 663.792 319.27 664.583 319.27 665.375C319.27 666.125 319.27 666.875 319.27 667.625C319.27 668.375 319.27 669.167 319.27 670C319.27 676.958 317.686 681.958 314.52 685C311.395 688 306.228 689.5 299.02 689.5Z" fill="black"/>
<path d="M427.645 700.5C413.811 700.5 403.895 698.063 397.895 693.188C391.895 688.313 388.895 680.25 388.895 669V580.5H359.645V574H388.895V518.5H396.395V574H437.145V580.5H396.395V669C396.395 677.917 398.811 684.312 403.645 688.188C408.478 692.062 416.478 694 427.645 694C429.645 694 431.603 693.979 433.52 693.938C435.436 693.896 437.478 693.812 439.645 693.688V699.938C437.978 700.146 436.186 700.292 434.27 700.375C432.395 700.458 430.186 700.5 427.645 700.5ZM427.645 713.5C408.478 713.5 394.728 710.062 386.395 703.188C378.061 696.312 373.895 684.917 373.895 669V593.5H359.645V587H381.395V669C381.395 682.542 384.957 692.271 392.082 698.188C399.249 704.063 411.103 707 427.645 707C430.27 707 432.54 706.937 434.457 706.812C436.415 706.688 438.145 706.479 439.645 706.188V712.438C436.686 713.146 432.686 713.5 427.645 713.5ZM427.645 687.562C419.186 687.562 413.103 686.125 409.395 683.25C405.728 680.375 403.895 675.625 403.895 669V587H437.145V593.5H411.395V669C411.395 673.292 412.645 676.375 415.145 678.25C417.686 680.125 421.853 681.062 427.645 681.062C431.478 681.062 434.332 681.062 436.207 681.062C438.124 681.062 439.27 681.042 439.645 681V687.25C438.478 687.333 436.978 687.417 435.145 687.5C433.353 687.542 430.853 687.562 427.645 687.562ZM359.645 567.5V561H373.895V518.5H381.395V567.5H359.645ZM403.895 567.5V518.5H411.395V561H437.145V567.5H403.895Z" fill="black"/>
<path d="M469.982 711V561H477.42L477.482 579L476.107 598.875H477.795C481.92 589.792 487.253 583.25 493.795 579.25C500.378 575.208 508.191 573.188 517.232 573.188C519.649 573.188 522.128 573.25 524.67 573.375C527.212 573.5 528.982 573.625 529.982 573.75V580.25C528.732 580.125 526.691 580.021 523.857 579.938C521.066 579.812 518.378 579.75 515.795 579.75C507.503 579.75 500.503 581.417 494.795 584.75C489.087 588.042 484.774 592.354 481.857 597.688C478.941 602.979 477.482 608.646 477.482 614.688V711H469.982ZM454.982 711V561H462.482V711H454.982ZM484.982 711V614C484.982 604.917 487.607 598.146 492.857 593.688C498.149 589.229 504.628 587 512.295 587C515.295 587 518.316 587 521.357 587C524.399 587 527.274 587 529.982 587V593.562C527.316 593.521 524.378 593.521 521.17 593.562C517.962 593.562 515.003 593.562 512.295 593.562C505.628 593.562 500.712 595.167 497.545 598.375C494.42 601.542 492.857 606.479 492.857 613.188V711H484.982ZM481.357 583.875L484.92 566.625V561H492.357L492.482 562L487.67 573H489.045C492.503 569.042 497.149 565.917 502.982 563.625C508.857 561.292 514.795 560.125 520.795 560.125C522.17 560.125 523.691 560.187 525.357 560.312C527.024 560.396 528.566 560.542 529.982 560.75V567.25C528.816 567.042 527.503 566.896 526.045 566.812C524.628 566.687 523.066 566.625 521.357 566.625C513.024 566.625 505.712 567.938 499.42 570.562C493.128 573.146 487.67 577.583 483.045 583.875H481.357Z" fill="black"/>
<path d="M593.242 713.5C575.951 713.5 563.284 709.625 555.242 701.875C547.201 694.125 542.721 681.271 541.805 663.312C541.43 655.937 541.18 649.208 541.055 643.125C540.93 637 540.93 631.146 541.055 625.562C541.18 619.938 541.409 614.25 541.742 608.5C542.742 591.167 547.076 578.5 554.742 570.5C562.451 562.5 575.284 558.5 593.242 558.5C610.659 558.5 623.305 562.417 631.18 570.25C639.096 578.042 643.513 590.792 644.43 608.5C645.013 619.833 645.284 629.729 645.242 638.188C645.201 646.604 644.951 654.958 644.492 663.25C643.492 681 639.076 693.812 631.242 701.688C623.409 709.563 610.742 713.5 593.242 713.5ZM593.242 707.5C608.534 707.5 619.43 703.917 625.93 696.75C632.43 689.542 636.117 678.229 636.992 662.812C637.451 654.604 637.701 646.479 637.742 638.438C637.784 630.354 637.513 620.479 636.93 608.812C636.138 593.188 632.367 581.896 625.617 574.938C618.909 567.979 608.117 564.5 593.242 564.5C578.076 564.5 567.159 568.021 560.492 575.062C553.867 582.104 550.117 593.396 549.242 608.938C548.951 614.021 548.721 619.208 548.555 624.5C548.43 629.792 548.409 635.562 548.492 641.812C548.617 648.062 548.888 655.188 549.305 663.188C550.138 679.479 554.117 690.937 561.242 697.562C568.367 704.188 579.034 707.5 593.242 707.5ZM593.242 701.5C581.576 701.5 572.742 698.625 566.742 692.875C560.784 687.125 557.451 676.979 556.742 662.438C556.409 655.771 556.18 649.354 556.055 643.188C555.971 636.979 555.971 631.083 556.055 625.5C556.18 619.875 556.388 614.604 556.68 609.688C557.471 596.062 560.596 586.125 566.055 579.875C571.513 573.625 580.576 570.5 593.242 570.5C605.117 570.5 613.93 573.417 619.68 579.25C625.471 585.083 628.721 594.979 629.43 608.938C629.805 616.354 630.034 623.125 630.117 629.25C630.242 635.375 630.242 641.104 630.117 646.438C630.034 651.771 629.846 656.979 629.555 662.062C628.763 676.188 625.576 686.292 619.992 692.375C614.409 698.458 605.492 701.5 593.242 701.5ZM593.242 695.5C602.867 695.5 609.909 692.896 614.367 687.688C618.826 682.479 621.388 673.854 622.055 661.812C622.471 654.938 622.701 647.229 622.742 638.688C622.784 630.104 622.534 620.458 621.992 609.75C621.409 597.708 618.826 589.167 614.242 584.125C609.701 579.042 602.701 576.5 593.242 576.5C583.534 576.5 576.43 579.083 571.93 584.25C567.471 589.417 564.888 597.979 564.18 609.938C563.93 614.354 563.742 619.208 563.617 624.5C563.492 629.792 563.471 635.562 563.555 641.812C563.638 648.062 563.867 654.833 564.242 662.125C564.867 674.292 567.492 682.896 572.117 687.938C576.742 692.979 583.784 695.5 593.242 695.5ZM593.242 689.5C586.201 689.5 580.971 687.375 577.555 683.125C574.18 678.875 572.242 671.75 571.742 661.75C571.409 655.208 571.18 649.083 571.055 643.375C570.971 637.667 570.971 632.125 571.055 626.75C571.18 621.333 571.388 615.833 571.68 610.25C572.263 600.333 574.201 593.229 577.492 588.938C580.826 584.646 586.076 582.5 593.242 582.5C600.034 582.5 605.138 584.563 608.555 588.688C612.013 592.771 613.992 599.875 614.492 610C614.992 620.042 615.242 629.25 615.242 637.625C615.242 645.958 615.013 653.917 614.555 661.5C614.013 671.5 612.076 678.667 608.742 683C605.451 687.333 600.284 689.5 593.242 689.5ZM593.242 683.5C597.951 683.5 601.326 681.687 603.367 678.062C605.409 674.396 606.638 668.75 607.055 661.125C607.471 654.042 607.701 646.521 607.742 638.562C607.784 630.604 607.534 621.208 606.992 610.375C606.659 603.042 605.471 597.563 603.43 593.938C601.388 590.313 597.992 588.5 593.242 588.5C588.451 588.5 585.013 590.292 582.93 593.875C580.888 597.458 579.638 603.042 579.18 610.625C578.888 615.958 578.68 621.187 578.555 626.312C578.471 631.396 578.471 636.771 578.555 642.438C578.68 648.104 578.909 654.458 579.242 661.5C579.617 669.292 580.888 674.917 583.055 678.375C585.263 681.792 588.659 683.5 593.242 683.5Z" fill="black"/>
<path d="M675.715 711L653.59 561H661.215L682.027 704.5H731.152L752.215 561H759.84L737.465 711H675.715ZM687.152 698L679.277 641.938L668.777 561H676.402L686.527 639.812L693.465 691.5H719.715L726.715 639.875L737.027 561H744.652L733.965 642.062L726.027 698H687.152ZM698.59 685L693.777 637.688L684.027 561H691.59L701.027 635.438L704.902 678.5H708.277L712.34 635.188L721.777 561H729.402L719.527 637.375L714.652 685H698.59Z" fill="black"/>
<path d="M775.051 517.5V511H812.551V517.5H775.051ZM775.051 543.5V537H812.551V543.5H775.051ZM775.051 530.5V524H812.551V530.5H775.051ZM805.051 711V561H812.551V711H805.051ZM775.051 711V561H782.551V711H775.051ZM790.051 711V561H797.551V711H790.051Z" fill="black"/>
<path d="M882.094 713.5C864.677 713.5 852.135 710.021 844.469 703.062C836.802 696.062 832.51 684.75 831.594 669.125C831.427 665.875 831.281 661.229 831.156 655.188C831.073 649.146 831.031 642.708 831.031 635.875C831.031 629 831.073 622.625 831.156 616.75C831.281 610.875 831.427 606.479 831.594 603.562C832.677 587.063 837.219 575.438 845.219 568.688C853.219 561.896 865.344 558.5 881.594 558.5C898.344 558.5 910.51 561.875 918.094 568.625C925.677 575.333 929.844 586.458 930.594 602C930.719 604.583 930.74 607.438 930.656 610.562C930.573 613.646 930.469 616.354 930.344 618.688H922.844C922.969 616.188 923.073 613.521 923.156 610.688C923.24 607.812 923.219 605.021 923.094 602.312C922.427 588.812 918.885 579.146 912.469 573.312C906.094 567.437 895.802 564.5 881.594 564.5C867.719 564.5 857.406 567.479 850.656 573.438C843.906 579.396 840.052 589.583 839.094 604C838.885 607.125 838.74 611.708 838.656 617.75C838.573 623.792 838.531 630.25 838.531 637.125C838.531 643.958 838.573 650.25 838.656 656C838.781 661.708 838.906 665.812 839.031 668.312C839.781 681.396 843.385 691.208 849.844 697.75C856.302 704.25 867.052 707.5 882.094 707.5C896.094 707.5 906.26 704.5 912.594 698.5C918.927 692.458 922.427 682.542 923.094 668.75C923.219 666.167 923.26 663.771 923.219 661.562C923.219 659.354 923.094 656.417 922.844 652.75H930.344C930.594 656.25 930.719 659.146 930.719 661.438C930.76 663.729 930.719 666.25 930.594 669C929.844 684.917 925.698 696.312 918.156 703.188C910.656 710.062 898.635 713.5 882.094 713.5ZM882.094 701.5C870.052 701.5 861.26 698.646 855.719 692.938C850.219 687.229 847.156 678.938 846.531 668.062C846.365 665.479 846.24 661.354 846.156 655.688C846.073 650.021 846.031 643.813 846.031 637.062C846.031 630.313 846.073 623.958 846.156 618C846.24 612.042 846.385 607.521 846.594 604.438C847.427 592.396 850.531 583.729 855.906 578.438C861.281 573.146 869.844 570.5 881.594 570.5C892.802 570.5 901.135 572.917 906.594 577.75C912.052 582.542 915.052 590.792 915.594 602.5C915.719 604.958 915.74 607.604 915.656 610.438C915.573 613.229 915.469 615.979 915.344 618.688H907.844C907.969 615.812 908.073 613.042 908.156 610.375C908.24 607.667 908.219 605.104 908.094 602.688C907.635 592.729 905.156 585.875 900.656 582.125C896.198 578.375 889.844 576.5 881.594 576.5C873.177 576.5 866.656 578.542 862.031 582.625C857.406 586.667 854.74 594.125 854.031 605C853.948 606.292 853.823 609.458 853.656 614.5C853.531 619.542 853.406 625.375 853.281 632C853.198 638.625 853.156 645.063 853.156 651.312C853.156 657.562 853.281 662.542 853.531 666.25C854.24 677.167 856.906 684.771 861.531 689.062C866.198 693.354 873.052 695.5 882.094 695.5C890.219 695.5 896.448 693.563 900.781 689.688C905.156 685.771 907.594 678.667 908.094 668.375C908.177 666.25 908.219 664.167 908.219 662.125C908.219 660.042 908.094 656.917 907.844 652.75H915.344C915.635 657.083 915.76 660.229 915.719 662.188C915.719 664.146 915.677 666.271 915.594 668.562C915.052 680.271 912.177 688.687 906.969 693.812C901.76 698.938 893.469 701.5 882.094 701.5ZM882.094 689.5C875.302 689.5 870.26 687.729 866.969 684.188C863.677 680.646 861.823 674.604 861.406 666.062C861.281 663.187 861.177 658.937 861.094 653.312C861.052 647.646 861.031 641.604 861.031 635.188C861.031 628.729 861.073 622.792 861.156 617.375C861.24 611.917 861.365 607.938 861.531 605.438C862.115 596.396 864.156 590.312 867.656 587.188C871.156 584.063 875.802 582.5 881.594 582.5C887.927 582.5 892.594 584.125 895.594 587.375C898.635 590.583 900.323 595.937 900.656 603.438C900.74 604.604 900.76 606.458 900.719 609C900.677 611.5 900.552 614.729 900.344 618.688H892.906C893.031 615.354 893.115 612.396 893.156 609.812C893.24 607.188 893.24 605.167 893.156 603.75C892.906 598.417 891.885 594.542 890.094 592.125C888.302 589.708 885.469 588.5 881.594 588.5C877.719 588.5 874.76 589.792 872.719 592.375C870.677 594.917 869.448 599.417 869.031 605.875C868.865 608.667 868.74 612.917 868.656 618.625C868.573 624.292 868.531 630.375 868.531 636.875C868.531 643.333 868.573 649.25 868.656 654.625C868.74 660 868.844 663.792 868.969 666C869.385 672.25 870.615 676.729 872.656 679.438C874.74 682.146 877.885 683.5 882.094 683.5C885.927 683.5 888.677 682.25 890.344 679.75C892.01 677.208 892.927 673.146 893.094 667.562C893.177 665.521 893.219 663.708 893.219 662.125C893.219 660.542 893.094 657.417 892.844 652.75H900.344C900.552 656.292 900.677 659.292 900.719 661.75C900.76 664.167 900.74 666.104 900.656 667.562C900.281 675.396 898.635 681.021 895.719 684.438C892.844 687.812 888.302 689.5 882.094 689.5ZM868.469 549.75L892.344 511H900.594L875.656 549.75H868.469ZM896.281 549.75L924.344 511H932.594L903.469 549.75H896.281ZM882.406 549.75L908.344 511H916.594L889.531 549.75H882.406Z" fill="black"/>
</svg>
