<?xml version="1.0" encoding="UTF-8"?>
<svg width="363px" height="363px" viewBox="0 0 363 363" version="1.1" xmlns="http://www.w3.org/2000/svg" xmlns:xlink="http://www.w3.org/1999/xlink">
    <title>Artboard</title>
    <g id="Artboard" stroke="none" stroke-width="1" fill="none" fill-rule="evenodd">
        <circle id="Oval" stroke="" stroke-width="4" cx="181" cy="183" r="135"></circle>
        <path d="M181.44,32.56 C183.44,32.56 185.266667,32.2666667 186.92,31.68 C188.573333,31.0933333 189.886667,30.2066667 190.86,29.02 C191.833333,27.8333333 192.32,26.3733333 192.32,24.64 C192.32,23.28 192.046667,22.08 191.5,21.04 C190.953333,20 190.24,19.0866667 189.36,18.3 C188.48,17.5133333 187.306667,16.6133333 185.84,15.6 C185.706667,15.4933333 185.566667,15.3866667 185.42,15.28 C185.273333,15.1733333 185.12,15.08 184.96,15 C183.2,13.7733333 181.933333,12.8466667 181.16,12.22 C180.386667,11.5933333 179.8,10.9466667 179.4,10.28 C179,9.61333333 178.8,8.82666667 178.8,7.92 C178.8,6.74666667 179.173333,5.83333333 179.92,5.18 C180.666667,4.52666667 181.653333,4.2 182.88,4.2 C184.213333,4.2 185.386667,4.64 186.4,5.52 C187.413333,6.4 188.213333,7.53333333 188.8,8.92 C189.386667,10.3066667 189.733333,11.76 189.84,13.28 L189.84,13.28 L190.76,13.28 C190.76,8.69333333 190.826667,5.44 190.96,3.52 L190.96,3.52 L190.04,3.52 C189.96,4.13333333 189.853333,4.58 189.72,4.86 C189.586667,5.14 189.4,5.28 189.16,5.28 C189,5.28 188.806667,5.22666667 188.58,5.12 C188.353333,5.01333333 188.093333,4.88 187.8,4.72 C186.893333,4.21333333 185.966667,3.82 185.02,3.54 C184.073333,3.26 182.84,3.12 181.32,3.12 C179.533333,3.12 177.886667,3.39333333 176.38,3.94 C174.873333,4.48666667 173.666667,5.32666667 172.76,6.46 C171.853333,7.59333333 171.4,9 171.4,10.68 C171.4,12.0666667 171.706667,13.2866667 172.32,14.34 C172.933333,15.3933333 173.72,16.32 174.68,17.12 C175.64,17.92 176.92,18.8533333 178.52,19.92 C180.52,21.2533333 181.993333,22.46 182.94,23.54 C183.886667,24.62 184.36,25.92 184.36,27.44 C184.36,28.6666667 183.926667,29.6266667 183.06,30.32 C182.193333,31.0133333 181.026667,31.36 179.56,31.36 C177.186667,31.36 175.426667,30.3733333 174.28,28.4 C173.133333,26.4266667 172.466667,23.8533333 172.28,20.68 L172.28,20.68 L171.36,20.68 C171.36,26.6 171.306667,30.4666667 171.2,32.28 L171.2,32.28 L172.12,32.28 C172.2,31.6666667 172.306667,31.22 172.44,30.94 C172.573333,30.66 172.76,30.52 173,30.52 C173.32,30.52 173.773333,30.7066667 174.36,31.08 C175.293333,31.5333333 176.3,31.8933333 177.38,32.16 C178.46,32.4266667 179.813333,32.56 181.44,32.56 Z" id="S" fill="#FF3366" fill-rule="nonzero"></path>
        <path d="M243.659521,42.5143383 L243.659521,41.7143383 C242.806188,41.6610049 242.192854,41.5543383 241.819521,41.3943383 C241.446188,41.2343383 241.186188,40.9276716 241.039521,40.4743383 C240.892854,40.0210049 240.819521,39.2876716 240.819521,38.2743383 L240.819521,38.2743383 L240.819521,18.4343383 C240.819521,17.4210049 240.886188,16.6876716 241.019521,16.2343383 C241.152854,15.7810049 241.412854,15.4743383 241.799521,15.3143383 C242.186188,15.1543383 242.806188,15.0476716 243.659521,14.9943383 L243.659521,14.9943383 L243.659521,14.1943383 C242.086188,14.2743383 239.859521,14.3143383 236.979521,14.3143383 L236.501921,14.3140383 C233.517654,14.3102383 231.303521,14.2703383 229.859521,14.1943383 L229.859521,14.1943383 L229.859521,14.9943383 C230.712854,15.0476716 231.326188,15.1543383 231.699521,15.3143383 C232.072854,15.4743383 232.332854,15.7810049 232.479521,16.2343383 C232.626188,16.6876716 232.699521,17.4210049 232.699521,18.4343383 L232.699521,18.4343383 L232.699521,38.2743383 C232.699521,39.2876716 232.632854,40.0210049 232.499521,40.4743383 C232.366188,40.9276716 232.106188,41.2343383 231.719521,41.3943383 C231.332854,41.5543383 230.712854,41.6610049 229.859521,41.7143383 L229.859521,41.7143383 L229.859521,42.5143383 C231.379521,42.4343383 233.752854,42.3943383 236.979521,42.3943383 C239.886188,42.3943383 242.112854,42.4343383 243.659521,42.5143383 L243.659521,42.5143383 Z" id="I" fill="#FF3366" fill-rule="nonzero" transform="translate(236.759521, 28.354338) rotate(20.000000) translate(-236.759521, -28.354338) "></path>
        <path d="M297.520648,70.920228 C297.333981,69.0535614 297.240648,66.680228 297.240648,63.800228 C297.240648,62.3068947 297.280648,61.080228 297.360648,60.120228 L297.360648,60.120228 L296.440648,60.120228 C296.147314,61.7735614 295.560648,63.3668947 294.680648,64.900228 C293.800648,66.4335614 292.813981,67.6668947 291.720648,68.600228 C290.627314,69.5335614 289.613981,70.000228 288.680648,70.000228 L288.680648,70.000228 L287.360648,70.000228 C286.747314,70.000228 286.307314,69.940228 286.040648,69.820228 C285.773981,69.700228 285.587314,69.4668947 285.480648,69.120228 C285.373981,68.7735614 285.320648,68.2268947 285.320648,67.480228 L285.320648,67.480228 L285.320648,46.840228 C285.320648,45.8268947 285.400648,45.0935614 285.560648,44.640228 C285.720648,44.1868947 286.020648,43.880228 286.460648,43.720228 C286.900648,43.560228 287.600648,43.4535614 288.560648,43.400228 L288.560648,43.400228 L288.560648,42.600228 C286.907314,42.680228 284.547314,42.720228 281.480648,42.720228 L281.003048,42.719928 C278.018781,42.716128 275.804648,42.676228 274.360648,42.600228 L274.360648,42.600228 L274.360648,43.400228 C275.213981,43.4535614 275.827314,43.560228 276.200648,43.720228 C276.573981,43.880228 276.833981,44.1868947 276.980648,44.640228 C277.127314,45.0935614 277.200648,45.8268947 277.200648,46.840228 L277.200648,46.840228 L277.200648,66.680228 C277.200648,67.6935614 277.133981,68.4268947 277.000648,68.880228 C276.867314,69.3335614 276.607314,69.640228 276.220648,69.800228 C275.833981,69.960228 275.213981,70.0668947 274.360648,70.120228 L274.360648,70.120228 L274.360648,70.920228 C277.453981,70.840228 282.120648,70.800228 288.360648,70.800228 C292.653981,70.800228 295.707314,70.840228 297.520648,70.920228 Z" id="L" fill="#FF3366" fill-rule="nonzero" transform="translate(285.940648, 56.760228) rotate(40.000000) translate(-285.940648, -56.760228) "></path>
        <path d="M324.633267,113.178203 L332.433267,91.2582032 C332.993267,89.6848699 333.6266,88.4448699 334.333267,87.5382032 C335.039933,86.6315366 335.739933,86.0048699 336.433267,85.6582032 L336.433267,85.6582032 L336.433267,84.8582032 C335.633267,84.9382032 334.6066,84.9782032 333.353267,84.9782032 C331.859933,84.9782032 330.113267,84.9382032 328.113267,84.8582032 L328.113267,84.8582032 L328.113267,85.6582032 C330.299933,85.7382032 331.393267,86.9382032 331.393267,89.2582032 C331.393267,90.7515366 330.953267,92.7248699 330.073267,95.1782032 L330.073267,95.1782032 L326.193267,106.058203 L319.273267,89.0182032 C318.953267,88.2182032 318.793267,87.5915366 318.793267,87.1382032 C318.793267,86.5782032 319.0066,86.2048699 319.433267,86.0182032 C319.859933,85.8315366 320.579933,85.7115366 321.593267,85.6582032 L321.593267,85.6582032 L321.593267,84.8582032 C320.153267,84.9382032 317.913267,84.9782032 314.873267,84.9782032 L314.293356,84.9776699 C311.61863,84.9726921 309.385267,84.9328699 307.593267,84.8582032 L307.593267,84.8582032 L307.593267,85.6582032 C307.993267,85.6848699 308.399933,85.9048699 308.813267,86.3182032 C309.2266,86.7315366 309.6066,87.3648699 309.953267,88.2182032 L309.953267,88.2182032 L320.433267,113.178203 C321.2866,113.12487 321.979933,113.098203 322.513267,113.098203 C323.073267,113.098203 323.779933,113.12487 324.633267,113.178203 L324.633267,113.178203 Z" id="V" fill="#FF3366" fill-rule="nonzero" transform="translate(322.013267, 99.018203) rotate(60.000000) translate(-322.013267, -99.018203) "></path>
        <path d="M354.009667,166.555156 C353.823,164.795156 353.729667,162.555156 353.729667,159.835156 C353.729667,158.341823 353.769667,157.115156 353.849667,156.155156 L353.849667,156.155156 L352.929667,156.155156 C352.343,159.461823 351.356333,161.868489 349.969667,163.375156 C348.583,164.881823 347.116333,165.635156 345.569667,165.635156 L345.569667,165.635156 L344.249667,165.635156 C343.529667,165.635156 343.003,165.575156 342.669667,165.455156 C342.336333,165.335156 342.109667,165.108489 341.989667,164.775156 C341.869667,164.441823 341.809667,163.888489 341.809667,163.115156 L341.809667,163.115156 L341.809667,152.715156 L342.209667,152.715156 C343.676333,152.715156 344.909667,153.215156 345.909667,154.215156 C346.909667,155.215156 347.529667,156.475156 347.769667,157.995156 L347.769667,157.995156 L348.689667,157.995156 C348.529667,155.568489 348.449667,153.675156 348.449667,152.315156 L348.449667,152.315156 L348.449667,150.395156 C348.449667,149.008489 348.489667,147.755156 348.569667,146.635156 L348.569667,146.635156 L347.649667,146.635156 C347.383,147.968489 346.756333,149.181823 345.769667,150.275156 C344.783,151.368489 343.596333,151.915156 342.209667,151.915156 L342.209667,151.915156 L341.809667,151.915156 L341.809667,141.675156 C341.809667,140.901823 341.869667,140.348489 341.989667,140.015156 C342.109667,139.681823 342.336333,139.455156 342.669667,139.335156 C343.003,139.215156 343.529667,139.155156 344.249667,139.155156 L344.249667,139.155156 L344.769667,139.155156 C346.583,139.155156 348.143,139.828489 349.449667,141.175156 C350.756333,142.521823 351.649667,144.741823 352.129667,147.835156 L352.129667,147.835156 L353.049667,147.835156 C352.969667,147.141823 352.929667,146.181823 352.929667,144.955156 C352.929667,142.981823 353.023,140.741823 353.209667,138.235156 C351.694111,138.308489 349.226241,138.348212 345.806056,138.354323 L343.622645,138.354623 C337.994437,138.349645 333.736778,138.309823 330.849667,138.235156 L330.849667,138.235156 L330.849667,139.035156 C331.703,139.088489 332.316333,139.195156 332.689667,139.355156 C333.063,139.515156 333.323,139.821823 333.469667,140.275156 C333.616333,140.728489 333.689667,141.461823 333.689667,142.475156 L333.689667,142.475156 L333.689667,162.315156 C333.689667,163.328489 333.623,164.061823 333.489667,164.515156 C333.356333,164.968489 333.096333,165.275156 332.709667,165.435156 C332.323,165.595156 331.703,165.701823 330.849667,165.755156 L330.849667,165.755156 L330.849667,166.555156 C333.943,166.475156 338.609667,166.435156 344.849667,166.435156 C349.143,166.435156 352.196333,166.475156 354.009667,166.555156 Z" id="E" fill="#FF3366" fill-rule="nonzero" transform="translate(342.429667, 152.395156) rotate(80.000000) translate(-342.429667, -152.395156) "></path>
        <path d="M332.843267,278.111216 L332.843267,277.311216 C331.5366,277.311216 330.583267,277.224549 329.983267,277.051216 C329.383267,276.877883 328.969933,276.537883 328.743267,276.031216 C328.5166,275.524549 328.403267,274.711216 328.403267,273.591216 L328.403267,273.591216 L328.403267,250.711216 L328.443267,250.711216 C330.043267,250.711216 331.5366,251.484549 332.923267,253.031216 C334.309933,254.577883 335.443267,257.097883 336.323267,260.591216 L336.323267,260.591216 L337.243267,260.591216 C337.163267,259.897883 337.123267,258.937883 337.123267,257.711216 C337.123267,255.391216 337.2166,252.751216 337.403267,249.791216 C335.028267,249.866216 331.059517,249.90606 325.497017,249.910747 L323.224673,249.910747 C317.638735,249.90606 313.658267,249.866216 311.283267,249.791216 C311.469933,252.751216 311.563267,255.391216 311.563267,257.711216 C311.563267,258.937883 311.523267,259.897883 311.443267,260.591216 L311.443267,260.591216 L312.363267,260.591216 C313.243267,257.071216 314.369933,254.544549 315.743267,253.011216 C317.1166,251.477883 318.6166,250.711216 320.243267,250.711216 L320.243267,250.711216 L320.283267,250.711216 L320.283267,273.591216 C320.283267,274.711216 320.169933,275.524549 319.943267,276.031216 C319.7166,276.537883 319.303267,276.877883 318.703267,277.051216 C318.103267,277.224549 317.149933,277.311216 315.843267,277.311216 L315.843267,277.311216 L315.843267,278.111216 C319.443267,278.031216 322.189933,277.991216 324.083267,277.991216 C326.163267,277.991216 329.083267,278.031216 332.843267,278.111216 L332.843267,278.111216 Z" id="T" fill="#FF3366" fill-rule="nonzero" transform="translate(324.343267, 263.951216) rotate(120.000000) translate(-324.343267, -263.951216) "></path>
        <path d="M343.97812,224.269364 C345.97812,224.269364 347.804787,223.976031 349.45812,223.389364 C351.111453,222.802697 352.424787,221.916031 353.39812,220.729364 C354.371453,219.542697 354.85812,218.082697 354.85812,216.349364 C354.85812,214.989364 354.584787,213.789364 354.03812,212.749364 C353.491453,211.709364 352.77812,210.796031 351.89812,210.009364 C351.01812,209.222697 349.844787,208.322697 348.37812,207.309364 C348.244787,207.202697 348.104787,207.096031 347.95812,206.989364 C347.811453,206.882697 347.65812,206.789364 347.49812,206.709364 C345.73812,205.482697 344.471453,204.556031 343.69812,203.929364 C342.924787,203.302697 342.33812,202.656031 341.93812,201.989364 C341.53812,201.322697 341.33812,200.536031 341.33812,199.629364 C341.33812,198.456031 341.711453,197.542697 342.45812,196.889364 C343.204787,196.236031 344.191453,195.909364 345.41812,195.909364 C346.751453,195.909364 347.924787,196.349364 348.93812,197.229364 C349.951453,198.109364 350.751453,199.242697 351.33812,200.629364 C351.924787,202.016031 352.271453,203.469364 352.37812,204.989364 L352.37812,204.989364 L353.29812,204.989364 C353.29812,200.402697 353.364787,197.149364 353.49812,195.229364 L353.49812,195.229364 L352.57812,195.229364 C352.49812,195.842697 352.391453,196.289364 352.25812,196.569364 C352.124787,196.849364 351.93812,196.989364 351.69812,196.989364 C351.53812,196.989364 351.344787,196.936031 351.11812,196.829364 C350.891453,196.722697 350.631453,196.589364 350.33812,196.429364 C349.431453,195.922697 348.504787,195.529364 347.55812,195.249364 C346.611453,194.969364 345.37812,194.829364 343.85812,194.829364 C342.071453,194.829364 340.424787,195.102697 338.91812,195.649364 C337.411453,196.196031 336.204787,197.036031 335.29812,198.169364 C334.391453,199.302697 333.93812,200.709364 333.93812,202.389364 C333.93812,203.776031 334.244787,204.996031 334.85812,206.049364 C335.471453,207.102697 336.25812,208.029364 337.21812,208.829364 C338.17812,209.629364 339.45812,210.562697 341.05812,211.629364 C343.05812,212.962697 344.531453,214.169364 345.47812,215.249364 C346.424787,216.329364 346.89812,217.629364 346.89812,219.149364 C346.89812,220.376031 346.464787,221.336031 345.59812,222.029364 C344.731453,222.722697 343.564787,223.069364 342.09812,223.069364 C339.724787,223.069364 337.964787,222.082697 336.81812,220.109364 C335.671453,218.136031 335.004787,215.562697 334.81812,212.389364 L334.81812,212.389364 L333.89812,212.389364 C333.89812,218.309364 333.844787,222.176031 333.73812,223.989364 L333.73812,223.989364 L334.65812,223.989364 C334.73812,223.376031 334.844787,222.929364 334.97812,222.649364 C335.111453,222.369364 335.29812,222.229364 335.53812,222.229364 C335.85812,222.229364 336.311453,222.416031 336.89812,222.789364 C337.831453,223.242697 338.83812,223.602697 339.91812,223.869364 C340.99812,224.136031 342.351453,224.269364 343.97812,224.269364 Z" id="S" fill="#FF3366" fill-rule="nonzero" transform="translate(344.298120, 209.549364) rotate(100.000000) translate(-344.298120, -209.549364) "></path>
        <path d="M301.740914,322.685768 L301.740914,321.885768 C301.340914,321.859101 300.934248,321.639101 300.520914,321.225768 C300.107581,320.812434 299.727581,320.179101 299.380914,319.325768 L299.380914,319.325768 L289.700914,294.365768 C288.847581,294.419101 288.154248,294.445768 287.620914,294.445768 C287.060914,294.445768 286.354248,294.419101 285.500914,294.365768 L285.500914,294.365768 L276.620914,317.205768 C276.007581,318.779101 275.407581,319.925768 274.820914,320.645768 C274.234248,321.365768 273.607581,321.779101 272.940914,321.885768 L272.940914,321.885768 L272.940914,322.685768 C273.740914,322.605768 274.767581,322.565768 276.020914,322.565768 C277.514248,322.565768 279.260914,322.605768 281.260914,322.685768 L281.260914,322.685768 L281.260914,321.885768 C280.060914,321.832434 279.154248,321.605768 278.540914,321.205768 C277.927581,320.805768 277.620914,320.059101 277.620914,318.965768 C277.620914,317.765768 278.060914,316.032434 278.940914,313.765768 L278.940914,313.765768 L279.620914,311.965768 L287.700914,311.965768 L290.060914,318.525768 C290.380914,319.325768 290.540914,319.965768 290.540914,320.445768 C290.540914,320.952434 290.327581,321.305768 289.900914,321.505768 C289.474248,321.705768 288.754248,321.832434 287.740914,321.885768 L287.740914,321.885768 L287.740914,322.685768 C289.180914,322.605768 291.420914,322.565768 294.460914,322.565768 C297.394248,322.565768 299.820914,322.605768 301.740914,322.685768 L301.740914,322.685768 Z M287.420914,311.165768 L279.940914,311.165768 L283.780914,301.165768 L287.420914,311.165768 Z" id="A" fill="#FF3366" fill-rule="nonzero" transform="translate(287.340914, 308.525768) rotate(140.000000) translate(-287.340914, -308.525768) "></path>
        <path d="M247.028697,351.847733 C248.308697,351.847733 249.428697,351.687733 250.388697,351.367733 C251.348697,351.047733 252.228697,350.487733 253.028697,349.687733 L253.028697,349.687733 L252.508697,349.167733 C252.16203,349.514399 251.748697,349.687733 251.268697,349.687733 C250.788697,349.687733 250.415364,349.501066 250.148697,349.127733 C249.88203,348.754399 249.655364,348.074399 249.468697,347.087733 L249.468697,347.087733 L248.628697,342.927733 C248.308697,341.301066 247.455364,340.067733 246.068697,339.227733 C244.68203,338.387733 242.628697,337.874399 239.908697,337.687733 C243.428697,337.367733 245.935364,336.501066 247.428697,335.087733 C248.92203,333.674399 249.668697,331.967733 249.668697,329.967733 C249.668697,327.621066 248.675364,325.874399 246.688697,324.727733 C244.70203,323.581066 241.68203,323.007733 237.628697,323.007733 C236.935364,323.007733 236.32203,323.021066 235.788697,323.047733 L235.788697,323.047733 L231.188697,323.087733 C228.12203,323.087733 225.828697,323.047733 224.308697,322.967733 L224.308697,322.967733 L224.308697,323.767733 C225.16203,323.821066 225.775364,323.927733 226.148697,324.087733 C226.52203,324.247733 226.78203,324.554399 226.928697,325.007733 C227.075364,325.461066 227.148697,326.194399 227.148697,327.207733 L227.148697,327.207733 L227.148697,347.047733 C227.148697,348.061066 227.08203,348.794399 226.948697,349.247733 C226.815364,349.701066 226.555364,350.007733 226.168697,350.167733 C225.78203,350.327733 225.16203,350.434399 224.308697,350.487733 L224.308697,350.487733 L224.308697,351.287733 C225.828697,351.207733 228.20203,351.167733 231.428697,351.167733 C234.335364,351.167733 236.56203,351.207733 238.108697,351.287733 L238.108697,351.287733 L238.108697,350.487733 C237.255364,350.434399 236.64203,350.327733 236.268697,350.167733 C235.895364,350.007733 235.635364,349.701066 235.488697,349.247733 C235.34203,348.794399 235.268697,348.061066 235.268697,347.047733 L235.268697,347.047733 L235.268697,337.847733 L237.068697,337.847733 C238.00203,337.847733 238.70203,338.327733 239.168697,339.287733 C239.635364,340.247733 240.00203,341.661066 240.268697,343.527733 L240.268697,343.527733 L240.868697,347.527733 C241.108697,349.101066 241.735364,350.214399 242.748697,350.867733 C243.76203,351.521066 245.188697,351.847733 247.028697,351.847733 Z M236.348697,337.047733 L235.268697,337.047733 L235.268697,327.207733 C235.268697,326.247733 235.32203,325.527733 235.428697,325.047733 C235.535364,324.567733 235.74203,324.234399 236.048697,324.047733 C236.355364,323.861066 236.815364,323.767733 237.428697,323.767733 C238.788697,323.767733 239.768697,324.327733 240.368697,325.447733 C240.968697,326.567733 241.268697,328.221066 241.268697,330.407733 C241.268697,332.514399 240.92203,334.147733 240.228697,335.307733 C239.535364,336.467733 238.24203,337.047733 236.348697,337.047733 L236.348697,337.047733 Z" id="R" fill="#FF3366" fill-rule="nonzero" transform="translate(238.668697, 337.407733) rotate(160.000000) translate(-238.668697, -337.407733) "></path>
        <path d="M182.78,362 C186.62,362 189.58,361.36 191.66,360.08 C193.74,358.8 194.78,356.853333 194.78,354.24 C194.78,353.093333 194.393333,352.006667 193.62,350.98 C192.846667,349.953333 191.613333,349.093333 189.92,348.4 C188.226667,347.706667 186.073333,347.293333 183.46,347.16 L183.46,347.16 L183.46,347.08 C185.46,346.84 187.153333,346.346667 188.54,345.6 C189.926667,344.853333 190.966667,343.98 191.66,342.98 C192.353333,341.98 192.7,340.986667 192.7,340 C192.7,338.08 191.773333,336.553333 189.92,335.42 C188.066667,334.286667 185.38,333.72 181.86,333.72 C181.166667,333.72 180.553333,333.733333 180.02,333.76 L180.02,333.76 L175.42,333.8 C172.353333,333.8 170.06,333.76 168.54,333.68 L168.54,333.68 L168.54,334.48 C169.393333,334.533333 170.006667,334.64 170.38,334.8 C170.753333,334.96 171.013333,335.266667 171.16,335.72 C171.306667,336.173333 171.38,336.906667 171.38,337.92 L171.38,337.92 L171.38,357.76 C171.38,358.773333 171.313333,359.506667 171.18,359.96 C171.046667,360.413333 170.786667,360.72 170.4,360.88 C170.013333,361.04 169.393333,361.146667 168.54,361.2 L168.54,361.2 L168.54,362 C170.06,361.92 172.38,361.88 175.5,361.88 C177.233333,361.88 179.006667,361.906667 180.82,361.96 C181.353333,361.986667 182.006667,362 182.78,362 Z M180.58,346.96 L179.5,346.96 L179.5,337.92 C179.5,336.96 179.553333,336.24 179.66,335.76 C179.766667,335.28 179.973333,334.946667 180.28,334.76 C180.586667,334.573333 181.046667,334.48 181.66,334.48 C182.646667,334.48 183.36,334.966667 183.8,335.94 C184.24,336.913333 184.46,338.413333 184.46,340.44 C184.46,342.413333 184.173333,343.993333 183.6,345.18 C183.026667,346.366667 182.02,346.96 180.58,346.96 L180.58,346.96 Z M182.1,361.08 C181.353333,361.08 180.8,360.993333 180.44,360.82 C180.08,360.646667 179.833333,360.333333 179.7,359.88 C179.566667,359.426667 179.5,358.72 179.5,357.76 L179.5,357.76 L179.5,347.64 L180.06,347.64 C182.246667,347.64 183.846667,348.186667 184.86,349.28 C185.873333,350.373333 186.38,351.973333 186.38,354.08 C186.38,358.746667 184.953333,361.08 182.1,361.08 Z" id="B" fill="#12E09F" fill-rule="nonzero" transform="translate(181.660000, 347.840000) rotate(180.000000) translate(-181.660000, -347.840000) "></path>
        <path d="M131.140479,351.485662 L131.140479,350.685662 C130.287146,350.632328 129.673812,350.525662 129.300479,350.365662 C128.927146,350.205662 128.667146,349.898995 128.520479,349.445662 C128.373812,348.992328 128.300479,348.258995 128.300479,347.245662 L128.300479,347.245662 L128.300479,327.405662 C128.300479,326.392328 128.367146,325.658995 128.500479,325.205662 C128.633812,324.752328 128.893812,324.445662 129.280479,324.285662 C129.667146,324.125662 130.287146,324.018995 131.140479,323.965662 L131.140479,323.965662 L131.140479,323.165662 C129.567146,323.245662 127.340479,323.285662 124.460479,323.285662 L123.982879,323.285362 C120.998612,323.281562 118.784479,323.241662 117.340479,323.165662 L117.340479,323.165662 L117.340479,323.965662 C118.193812,324.018995 118.807146,324.125662 119.180479,324.285662 C119.553812,324.445662 119.813812,324.752328 119.960479,325.205662 C120.107146,325.658995 120.180479,326.392328 120.180479,327.405662 L120.180479,327.405662 L120.180479,347.245662 C120.180479,348.258995 120.113812,348.992328 119.980479,349.445662 C119.847146,349.898995 119.587146,350.205662 119.200479,350.365662 C118.813812,350.525662 118.193812,350.632328 117.340479,350.685662 L117.340479,350.685662 L117.340479,351.485662 C118.860479,351.405662 121.233812,351.365662 124.460479,351.365662 C127.367146,351.365662 129.593812,351.405662 131.140479,351.485662 L131.140479,351.485662 Z" id="I" fill="#12E09F" fill-rule="nonzero" transform="translate(124.240479, 337.325662) rotate(200.000000) translate(-124.240479, -337.325662) "></path>
        <path d="M73.4453968,323.28256 C75.4453968,323.28256 77.2720634,322.989226 78.9253968,322.40256 C80.5787301,321.815893 81.8920634,320.929226 82.8653968,319.74256 C83.8387301,318.555893 84.3253968,317.095893 84.3253968,315.36256 C84.3253968,314.00256 84.0520634,312.80256 83.5053968,311.76256 C82.9587301,310.72256 82.2453968,309.809226 81.3653968,309.02256 C80.4853968,308.235893 79.3120634,307.335893 77.8453968,306.32256 C77.7120634,306.215893 77.5720634,306.109226 77.4253968,306.00256 C77.2787301,305.895893 77.1253968,305.80256 76.9653968,305.72256 C75.2053968,304.495893 73.9387301,303.569226 73.1653968,302.94256 C72.3920634,302.315893 71.8053968,301.669226 71.4053968,301.00256 C71.0053968,300.335893 70.8053968,299.549226 70.8053968,298.64256 C70.8053968,297.469226 71.1787301,296.555893 71.9253968,295.90256 C72.6720634,295.249226 73.6587301,294.92256 74.8853968,294.92256 C76.2187301,294.92256 77.3920634,295.36256 78.4053968,296.24256 C79.4187301,297.12256 80.2187301,298.255893 80.8053968,299.64256 C81.3920634,301.029226 81.7387301,302.48256 81.8453968,304.00256 L81.8453968,304.00256 L82.7653968,304.00256 C82.7653968,299.415893 82.8320634,296.16256 82.9653968,294.24256 L82.9653968,294.24256 L82.0453968,294.24256 C81.9653968,294.855893 81.8587301,295.30256 81.7253968,295.58256 C81.5920634,295.86256 81.4053968,296.00256 81.1653968,296.00256 C81.0053968,296.00256 80.8120634,295.949226 80.5853968,295.84256 C80.3587301,295.735893 80.0987301,295.60256 79.8053968,295.44256 C78.8987301,294.935893 77.9720634,294.54256 77.0253968,294.26256 C76.0787301,293.98256 74.8453968,293.84256 73.3253968,293.84256 C71.5387301,293.84256 69.8920634,294.115893 68.3853968,294.66256 C66.8787301,295.209226 65.6720634,296.049226 64.7653968,297.18256 C63.8587301,298.315893 63.4053968,299.72256 63.4053968,301.40256 C63.4053968,302.789226 63.7120634,304.009226 64.3253968,305.06256 C64.9387301,306.115893 65.7253968,307.04256 66.6853968,307.84256 C67.6453968,308.64256 68.9253968,309.575893 70.5253968,310.64256 C72.5253968,311.975893 73.9987301,313.18256 74.9453968,314.26256 C75.8920634,315.34256 76.3653968,316.64256 76.3653968,318.16256 C76.3653968,319.389226 75.9320634,320.349226 75.0653968,321.04256 C74.1987301,321.735893 73.0320634,322.08256 71.5653968,322.08256 C69.1920634,322.08256 67.4320634,321.095893 66.2853968,319.12256 C65.1387301,317.149226 64.4720634,314.575893 64.2853968,311.40256 L64.2853968,311.40256 L63.3653968,311.40256 C63.3653968,317.32256 63.3120634,321.189226 63.2053968,323.00256 L63.2053968,323.00256 L64.1253968,323.00256 C64.2053968,322.389226 64.3120634,321.94256 64.4453968,321.66256 C64.5787301,321.38256 64.7653968,321.24256 65.0053968,321.24256 C65.3253968,321.24256 65.7787301,321.429226 66.3653968,321.80256 C67.2987301,322.255893 68.3053968,322.615893 69.3853968,322.88256 C70.4653968,323.149226 71.8187301,323.28256 73.4453968,323.28256 Z" id="S" fill="#12E09F" fill-rule="nonzero" transform="translate(73.765397, 308.562560) rotate(220.000000) translate(-73.765397, -308.562560) "></path>
        <path d="M46.6567333,278.388784 L46.6567333,277.588784 C45.3500666,277.588784 44.3967333,277.502117 43.7967333,277.328784 C43.1967333,277.155451 42.7833999,276.815451 42.5567333,276.308784 C42.3300666,275.802117 42.2167333,274.988784 42.2167333,273.868784 L42.2167333,273.868784 L42.2167333,250.988784 L42.2567333,250.988784 C43.8567333,250.988784 45.3500666,251.762117 46.7367333,253.308784 C48.1233999,254.855451 49.2567333,257.375451 50.1367333,260.868784 L50.1367333,260.868784 L51.0567333,260.868784 C50.9767333,260.175451 50.9367333,259.215451 50.9367333,257.988784 C50.9367333,255.668784 51.0300666,253.028784 51.2167333,250.068784 C48.8417333,250.143784 44.8729833,250.183628 39.3104833,250.188315 L37.0381395,250.188315 C31.452202,250.183628 27.4717333,250.143784 25.0967333,250.068784 C25.2833999,253.028784 25.3767333,255.668784 25.3767333,257.988784 C25.3767333,259.215451 25.3367333,260.175451 25.2567333,260.868784 L25.2567333,260.868784 L26.1767333,260.868784 C27.0567333,257.348784 28.1833999,254.822117 29.5567333,253.288784 C30.9300666,251.755451 32.4300666,250.988784 34.0567333,250.988784 L34.0567333,250.988784 L34.0967333,250.988784 L34.0967333,273.868784 C34.0967333,274.988784 33.9833999,275.802117 33.7567333,276.308784 C33.5300666,276.815451 33.1167333,277.155451 32.5167333,277.328784 C31.9167333,277.502117 30.9633999,277.588784 29.6567333,277.588784 L29.6567333,277.588784 L29.6567333,278.388784 C33.2567333,278.308784 36.0033999,278.268784 37.8967333,278.268784 C39.9767333,278.268784 42.8967333,278.308784 46.6567333,278.388784 L46.6567333,278.388784 Z" id="T" fill="#12E09F" fill-rule="nonzero" transform="translate(38.156733, 264.228784) rotate(240.000000) translate(-38.156733, -264.228784) "></path>
        <path d="M27.016685,223.020036 C28.296685,223.020036 29.416685,222.860036 30.376685,222.540036 C31.336685,222.220036 32.216685,221.660036 33.016685,220.860036 L33.016685,220.860036 L32.496685,220.340036 C32.1500183,220.686703 31.736685,220.860036 31.256685,220.860036 C30.776685,220.860036 30.4033517,220.673369 30.136685,220.300036 C29.8700183,219.926703 29.6433517,219.246703 29.456685,218.260036 L29.456685,218.260036 L28.616685,214.100036 C28.296685,212.473369 27.4433517,211.240036 26.056685,210.400036 C24.6700183,209.560036 22.616685,209.046703 19.896685,208.860036 C23.416685,208.540036 25.9233517,207.673369 27.416685,206.260036 C28.9100183,204.846703 29.656685,203.140036 29.656685,201.140036 C29.656685,198.793369 28.6633517,197.046703 26.676685,195.900036 C24.6900183,194.753369 21.6700183,194.180036 17.616685,194.180036 C16.9233517,194.180036 16.3100183,194.193369 15.776685,194.220036 L15.776685,194.220036 L11.176685,194.260036 C8.11001833,194.260036 5.81668499,194.220036 4.29668499,194.140036 L4.29668499,194.140036 L4.29668499,194.940036 C5.15001833,194.993369 5.76335166,195.100036 6.13668499,195.260036 C6.51001833,195.420036 6.77001833,195.726703 6.91668499,196.180036 C7.06335166,196.633369 7.13668499,197.366703 7.13668499,198.380036 L7.13668499,198.380036 L7.13668499,218.220036 C7.13668499,219.233369 7.07001833,219.966703 6.93668499,220.420036 C6.80335166,220.873369 6.54335166,221.180036 6.15668499,221.340036 C5.77001833,221.500036 5.15001833,221.606703 4.29668499,221.660036 L4.29668499,221.660036 L4.29668499,222.460036 C5.81668499,222.380036 8.19001833,222.340036 11.416685,222.340036 C14.3233517,222.340036 16.5500183,222.380036 18.096685,222.460036 L18.096685,222.460036 L18.096685,221.660036 C17.2433517,221.606703 16.6300183,221.500036 16.256685,221.340036 C15.8833517,221.180036 15.6233517,220.873369 15.476685,220.420036 C15.3300183,219.966703 15.256685,219.233369 15.256685,218.220036 L15.256685,218.220036 L15.256685,209.020036 L17.056685,209.020036 C17.9900183,209.020036 18.6900183,209.500036 19.156685,210.460036 C19.6233517,211.420036 19.9900183,212.833369 20.256685,214.700036 L20.256685,214.700036 L20.856685,218.700036 C21.096685,220.273369 21.7233517,221.386703 22.736685,222.040036 C23.7500183,222.693369 25.176685,223.020036 27.016685,223.020036 Z M16.336685,208.220036 L15.256685,208.220036 L15.256685,198.380036 C15.256685,197.420036 15.3100183,196.700036 15.416685,196.220036 C15.5233517,195.740036 15.7300183,195.406703 16.036685,195.220036 C16.3433517,195.033369 16.8033517,194.940036 17.416685,194.940036 C18.776685,194.940036 19.756685,195.500036 20.356685,196.620036 C20.956685,197.740036 21.256685,199.393369 21.256685,201.580036 C21.256685,203.686703 20.9100183,205.320036 20.216685,206.480036 C19.5233517,207.640036 18.2300183,208.220036 16.336685,208.220036 L16.336685,208.220036 Z" id="R" fill="#12E09F" fill-rule="nonzero" transform="translate(18.656685, 208.580036) rotate(260.000000) translate(-18.656685, -208.580036) "></path>
        <path d="M19.3760004,164.388617 C22.3093337,164.388617 24.922667,163.76195 27.2160004,162.508617 C29.5093337,161.255283 31.2960004,159.495283 32.5760004,157.228617 C33.8560004,154.96195 34.4960004,152.36195 34.4960004,149.428617 C34.4960004,146.415283 33.8693337,143.82195 32.6160004,141.648617 C31.362667,139.475283 29.602667,137.815283 27.3360004,136.668617 C25.0693337,135.52195 22.4293337,134.948617 19.4160004,134.948617 C16.482667,134.948617 13.8693337,135.575283 11.5760004,136.828617 C9.28266704,138.08195 7.49600037,139.84195 6.21600037,142.108617 C4.93600037,144.375283 4.29600037,146.975283 4.29600037,149.908617 C4.29600037,152.92195 4.92266704,155.515283 6.17600037,157.688617 C7.4293337,159.86195 9.1893337,161.52195 11.4560004,162.668617 C13.722667,163.815283 16.362667,164.388617 19.3760004,164.388617 Z M19.5360004,163.668617 C18.282667,163.668617 17.1360004,163.095283 16.0960004,161.948617 C15.0560004,160.80195 14.2293337,159.175283 13.6160004,157.068617 C13.002667,154.96195 12.6960004,152.52195 12.6960004,149.748617 C12.6960004,147.00195 12.962667,144.56195 13.4960004,142.428617 C14.0293337,140.295283 14.7960004,138.635283 15.7960004,137.448617 C16.7960004,136.26195 17.9493337,135.668617 19.2560004,135.668617 C20.5093337,135.668617 21.6560004,136.24195 22.6960004,137.388617 C23.7360004,138.535283 24.562667,140.16195 25.1760004,142.268617 C25.7893337,144.375283 26.0960004,146.815283 26.0960004,149.588617 C26.0960004,152.335283 25.8293337,154.775283 25.2960004,156.908617 C24.762667,159.04195 23.9960004,160.70195 22.9960004,161.888617 C21.9960004,163.075283 20.842667,163.668617 19.5360004,163.668617 Z" id="O" fill="#12E09F" fill-rule="nonzero" transform="translate(19.396000, 149.668617) rotate(280.000000) translate(-19.396000, -149.668617) "></path>
        <path d="M43.4467333,111.321797 L51.2467333,89.4017968 C51.8067333,87.8284634 52.4400666,86.5884634 53.1467333,85.6817968 C53.8533999,84.7751301 54.5533999,84.1484634 55.2467333,83.8017968 L55.2467333,83.8017968 L55.2467333,83.0017968 C54.4467333,83.0817968 53.4200666,83.1217968 52.1667333,83.1217968 C50.6733999,83.1217968 48.9267333,83.0817968 46.9267333,83.0017968 L46.9267333,83.0017968 L46.9267333,83.8017968 C49.1133999,83.8817968 50.2067333,85.0817968 50.2067333,87.4017968 C50.2067333,88.8951301 49.7667333,90.8684634 48.8867333,93.3217968 L48.8867333,93.3217968 L45.0067333,104.201797 L38.0867333,87.1617968 C37.7667333,86.3617968 37.6067333,85.7351301 37.6067333,85.2817968 C37.6067333,84.7217968 37.8200666,84.3484634 38.2467333,84.1617968 C38.6733999,83.9751301 39.3933999,83.8551301 40.4067333,83.8017968 L40.4067333,83.8017968 L40.4067333,83.0017968 C38.9667333,83.0817968 36.7267333,83.1217968 33.6867333,83.1217968 L33.1068221,83.1212634 C30.4320962,83.1162857 28.1987333,83.0764634 26.4067333,83.0017968 L26.4067333,83.0017968 L26.4067333,83.8017968 C26.8067333,83.8284634 27.2133999,84.0484634 27.6267333,84.4617968 C28.0400666,84.8751301 28.4200666,85.5084634 28.7667333,86.3617968 L28.7667333,86.3617968 L39.2467333,111.321797 C40.1000666,111.268463 40.7933999,111.241797 41.3267333,111.241797 C41.8867333,111.241797 42.5933999,111.268463 43.4467333,111.321797 L43.4467333,111.321797 Z" id="V" fill="#12E09F" fill-rule="nonzero" transform="translate(40.826733, 97.161797) rotate(300.000000) translate(-40.826733, -97.161797) "></path>
        <path d="M84.3639745,68.9212015 L84.3639745,68.1212015 C83.5106412,68.0678682 82.8973079,67.9612015 82.5239745,67.8012015 C82.1506412,67.6412015 81.8906412,67.3345348 81.7439745,66.8812015 C81.5973079,66.4278682 81.5239745,65.6945348 81.5239745,64.6812015 L81.5239745,64.6812015 L81.5239745,44.8412015 C81.5239745,43.8278682 81.5906412,43.0945348 81.7239745,42.6412015 C81.8573079,42.1878682 82.1173079,41.8812015 82.5039745,41.7212015 C82.8906412,41.5612015 83.5106412,41.4545348 84.3639745,41.4012015 L84.3639745,41.4012015 L84.3639745,40.6012015 C82.7906412,40.6812015 80.5639745,40.7212015 77.6839745,40.7212015 L77.2063745,40.7209015 C74.2221079,40.7171015 72.0079745,40.6772015 70.5639745,40.6012015 L70.5639745,40.6012015 L70.5639745,41.4012015 C71.4173079,41.4545348 72.0306412,41.5612015 72.4039745,41.7212015 C72.7773079,41.8812015 73.0373079,42.1878682 73.1839745,42.6412015 C73.3306412,43.0945348 73.4039745,43.8278682 73.4039745,44.8412015 L73.4039745,44.8412015 L73.4039745,64.6812015 C73.4039745,65.6945348 73.3373079,66.4278682 73.2039745,66.8812015 C73.0706412,67.3345348 72.8106412,67.6412015 72.4239745,67.8012015 C72.0373079,67.9612015 71.4173079,68.0678682 70.5639745,68.1212015 L70.5639745,68.1212015 L70.5639745,68.9212015 C72.0839745,68.8412015 74.4573079,68.8012015 77.6839745,68.8012015 C80.5906412,68.8012015 82.8173079,68.8412015 84.3639745,68.9212015 L84.3639745,68.9212015 Z" id="I" fill="#12E09F" fill-rule="nonzero" transform="translate(77.463975, 54.761201) rotate(320.000000) translate(-77.463975, -54.761201) "></path>
        <path d="M123.656176,10.8460563 C125.336176,10.3393896 127.122842,9.9393896 129.016176,9.64605626 C129.789509,9.51272293 130.402842,9.39272293 130.856176,9.28605626 C131.309509,9.1793896 131.749509,9.0193896 132.176176,8.80605626 C132.656176,8.56605626 133.029509,8.23272293 133.296176,7.80605626 C133.562842,7.3793896 133.696176,6.92605626 133.696176,6.44605626 C133.696176,6.07272293 133.616176,5.72605626 133.456176,5.40605626 C133.216176,4.92605626 132.862842,4.55272293 132.396176,4.28605626 C131.929509,4.0193896 131.442842,3.88605626 130.936176,3.88605626 C130.536176,3.88605626 130.122842,3.9793896 129.696176,4.16605626 C129.242842,4.3793896 128.856176,4.64605626 128.536176,4.96605626 C128.216176,5.28605626 127.776176,5.76605626 127.216176,6.40605626 C126.042842,7.87272293 124.762842,9.19272293 123.376176,10.3660563 L123.376176,10.3660563 L123.656176,10.8460563 Z M127.576176,42.2860563 C129.122842,42.2860563 130.442842,42.0660563 131.536176,41.6260563 C132.629509,41.1860563 133.776176,40.5393896 134.976176,39.6860563 C135.322842,39.4727229 135.602842,39.3660563 135.816176,39.3660563 C136.082842,39.3660563 136.289509,39.5460563 136.436176,39.9060563 C136.582842,40.2660563 136.696176,40.8727229 136.776176,41.7260563 L136.776176,41.7260563 L137.696176,41.7260563 C137.596865,39.9136425 137.543786,36.7836544 137.536937,32.3360919 L137.536176,31.3260563 L136.616176,31.3260563 C136.429509,33.7260563 136.082842,35.5793896 135.576176,36.8860563 C135.069509,38.1927229 134.189509,39.2327229 132.936176,40.0060563 C131.682842,40.8060563 130.442842,41.2060563 129.216176,41.2060563 C126.442842,41.2060563 124.496176,39.8727229 123.376176,37.2060563 C122.256176,34.5393896 121.696176,31.3527229 121.696176,27.6460563 C121.696176,23.9393896 122.256176,20.7527229 123.376176,18.0860563 C124.496176,15.4193896 126.442842,14.0860563 129.216176,14.0860563 C130.442842,14.0860563 131.682842,14.4860563 132.936176,15.2860563 C134.189509,16.1127229 135.069509,17.1393896 135.576176,18.3660563 C136.082842,19.5927229 136.429509,21.2727229 136.616176,23.4060563 L136.616176,23.4060563 L137.536176,23.4060563 L137.536176,23.4060563 L137.536992,22.4052399 C137.544067,18.1638794 137.597128,15.1641515 137.696176,13.4060563 L137.696176,13.4060563 L136.776176,13.4060563 C136.616176,15.0060563 136.269509,15.8060563 135.736176,15.8060563 C135.496176,15.8060563 135.242842,15.6860563 134.976176,15.4460563 C133.909509,14.6193896 132.816176,13.9793896 131.696176,13.5260563 C130.576176,13.0727229 129.216176,12.8460563 127.616176,12.8460563 C124.682842,12.8460563 122.069509,13.4727229 119.776176,14.7260563 C117.482842,15.9793896 115.696176,17.7393896 114.416176,20.0060563 C113.136176,22.2727229 112.496176,24.8727229 112.496176,27.8060563 C112.496176,30.8193896 113.122842,33.4127229 114.376176,35.5860563 C115.629509,37.7593896 117.389509,39.4193896 119.656176,40.5660563 C121.922842,41.7127229 124.562842,42.2860563 127.576176,42.2860563 Z" id="Ć" fill="#12E09F" fill-rule="nonzero" transform="translate(125.096176, 23.086056) rotate(340.000000) translate(-125.096176, -23.086056) "></path>
        <g id="Logo" transform="translate(82.003610, 116.000000)" fill-rule="nonzero">
            <path d="M56.9248228,0 L56.3690667,0.00449672621 C38.0646709,0.300900575 23.3176524,15.2128528 23.3176524,33.5648148 L23.3175613,46.6555401 L22.9078688,46.8027731 C10.0719659,51.5253907 0.917710151,63.8491159 0.917710151,78.3082375 L0.917710151,100.785082 L0.922183885,101.245858 C1.21938026,119.552964 16.1706599,134.259259 34.5248805,134.259259 L57.0383866,134.259259 L57.4997444,134.254791 L58.0485579,134.241507 C76.1229765,133.658981 90.5548049,118.842222 90.5548049,100.694444 L90.5547549,87.6034954 L90.9698062,87.4545692 C103.80311,82.7304929 112.954747,70.4079991 112.954747,55.9510217 L112.954747,33.5648148 C112.954747,15.0274795 97.9083045,0 79.3475768,0 L56.9248228,0 Z M79.8868377,12.0833333 C92.1857546,12.0833333 102.155997,22.0615797 102.155997,34.3703704 L102.155997,56.6670325 C102.155997,68.9741859 92.1884067,78.951415 79.8917452,78.954069 L79.8916464,101.231481 C79.8916464,113.417184 70.1198121,123.318721 57.9907487,123.515533 L57.6224874,123.518519 L35.3354635,123.518519 C23.1595358,123.518519 13.2659422,113.738839 13.069288,101.600038 L13.0663045,101.231481 L13.0663045,78.9348194 C13.0663045,66.7491166 22.8381388,56.8475803 34.9672022,56.6507682 L35.3305642,56.6476011 L35.3306548,34.3703704 C35.3306548,22.0615797 45.3008968,12.0833333 57.5998137,12.0833333 L79.8868377,12.0833333 Z" id="Combined-Shape" fill="#FF3366"></path>
            <path d="M79.3932567,11.1111111 C91.7922774,11.1111111 101.84367,21.2261594 101.84367,33.7037037 L101.84367,56.3060533 C101.84367,68.781938 91.7949512,78.8959551 79.3982042,78.8986454 L79.3981045,101.481481 C79.3981045,113.83425 69.5467349,123.871537 57.3189501,124.071047 L56.9476915,124.074074 L34.479268,124.074074 C22.2042374,124.074074 12.2301175,114.160315 12.0318626,101.855091 L12.0288549,101.481481 L12.0288549,78.8791319 C12.0288549,66.526363 21.8802245,56.4890765 34.1080093,56.289566 L34.4743289,56.2863556 L34.4744202,33.7037037 C34.4744202,21.2261594 44.5258124,11.1111111 56.9248332,11.1111111 L79.3932567,11.1111111 Z M80.1353954,23.2157946 L79.9506986,23.2142857 L57.5951504,23.2142857 C51.4884684,23.2142857 46.5264621,28.1564125 46.4278326,34.2907576 L46.4263363,34.4770079 L46.4260221,56.6376294 L46.4309824,56.8669049 C46.4752768,62.4288093 42.8640366,68.0311533 35.6966551,68.2487147 L35.2623457,68.2552632 C29.1556636,68.2552632 24.1936573,73.19739 24.0950278,79.3316906 L24.0935315,79.5179396 L24.0935315,102.018782 L24.0955419,102.267462 L24.0994743,102.426687 C24.291282,108.417231 29.1252711,113.217849 35.0797203,113.31422 L35.2623457,113.315697 L57.5557454,113.315697 L57.8304982,113.313444 L57.9884465,113.309704 C63.9290654,113.116284 68.6896755,108.24167 68.7852434,102.237132 L68.786708,102.05297 L68.7868072,79.537345 C68.7868343,73.380301 73.6863275,68.3770188 79.7685449,68.2762675 L79.9532127,68.2747189 C86.0588102,68.2733911 91.0194153,63.3316502 91.1180169,57.1982639 L91.1195127,57.0120428 L91.1195127,34.4769621 C91.1195127,28.3189597 86.2185733,23.3152529 80.1353954,23.2157946 Z" id="Combined-Shape" stroke="#B32447" fill="#B32447"></path>
            <path d="M148.455611,0 C128.904317,0 113.035246,15.728146 112.954786,35.1747836 L112.954786,91.0508819 L112.960492,91.672631 C113.345317,115.287776 132.706204,134.259259 156.473257,134.259259 C180.507898,134.259259 199.991823,114.87363 199.991823,90.9602442 L199.985993,90.2442159 C199.733673,74.7603418 191.312486,61.2522192 178.823468,53.8001916 L178.742005,53.7522608 L178.835457,53.6012204 C182.095149,48.2440921 183.956531,41.9754236 183.956531,35.3218178 C183.956531,16.0091935 168.378524,0.316651688 149.042683,0.00473211441 L148.455611,0 Z M149.159162,12.0833333 C162.498547,12.0833333 173.312255,22.8450702 173.312255,36.1203453 C173.312255,47.867045 164.845455,57.6457216 153.653923,59.7419032 C154.799605,59.6171043 155.963798,59.5539176 157.14282,59.5539176 C174.891459,59.5539176 189.279573,73.8728813 189.279573,91.5362181 C189.279573,109.199555 174.891459,123.518519 157.14282,123.518519 C139.571669,123.518519 125.294167,109.484502 125.010374,92.0651039 L125.006068,91.5362181 L125.006068,36.019772 C125.06079,22.7906966 135.853518,12.0833333 149.159162,12.0833333 Z" id="Combined-Shape" fill="#12E09F"></path>
            <path d="M149.348293,11.1111111 C162.800023,11.1111111 173.704804,22.0203915 173.704804,35.4776708 C173.704804,47.3854179 165.166696,57.2981603 153.880909,59.4230806 C155.03624,59.2965707 156.210238,59.2325177 157.39919,59.2325177 C175.297307,59.2325177 189.806597,73.7477945 189.806597,91.6532959 C189.806597,109.558797 175.297307,124.074074 157.39919,124.074074 C139.680054,124.074074 125.282307,109.847651 124.996124,92.1894327 L124.991783,91.6532959 L124.991783,35.3757187 C125.046965,21.9652724 135.930589,11.1111111 149.348293,11.1111111 Z M150.094359,23.2142857 C143.034064,23.2142857 137.289722,28.9017506 137.147069,35.9755856 L137.14456,36.1724454 L137.14456,92.219127 L137.147918,92.6302147 L137.155673,92.9497773 C137.515158,104.1559 146.573269,113.132728 157.732098,113.312935 L158.074344,113.315697 C169.633545,113.315697 179.004128,103.886092 179.004128,92.2540852 C179.004128,80.6220785 169.633545,71.1924738 158.074344,71.1924738 C157.304678,71.1924738 156.547487,71.2338029 155.804829,71.3156031 C141.530972,72.8878005 138.405608,51.7239979 152.516969,49.0514382 C158.574691,47.9041624 163.044158,42.5371845 163.044158,36.2456495 C163.044158,29.1205963 157.361712,23.3311088 150.308508,23.2160315 L150.094359,23.2142857 Z" id="Combined-Shape" stroke="#0B865F" fill="#0B865F"></path>
        </g>
    </g>
</svg>