<svg width="312" height="312" viewBox="0 0 312 312" fill="none" xmlns="http://www.w3.org/2000/svg">
<path d="M302 156C302 236.634 236.634 302 156 302C75.3664 302 10 236.634 10 156C10 75.3664 75.3664 10 156 10C236.634 10 302 75.3664 302 156Z" fill="#12E09F"/>
<path fill-rule="evenodd" clip-rule="evenodd" d="M312 156C312 242.156 242.156 312 156 312C69.8436 312 0 242.156 0 156C0 69.8436 69.8436 0 156 0C242.156 0 312 69.8436 312 156ZM156 302C236.634 302 302 236.634 302 156C302 75.3664 236.634 10 156 10C75.3664 10 10 75.3664 10 156C10 236.634 75.3664 302 156 302Z" fill="black"/>
<path d="M103.305 248.2C88.125 248.2 76.85 244.881 69.48 238.245C62.1467 231.608 58.1683 220.186 57.545 203.98C57.4717 202.11 57.435 199.543 57.435 196.28C57.435 193.016 57.5083 189.826 57.655 186.71C57.8017 183.593 58.0583 181.356 58.425 180H64.97C64.7133 181.283 64.4933 183.208 64.31 185.775C64.1267 188.341 64.0167 191.22 63.98 194.41C63.98 197.563 64.035 200.68 64.145 203.76C64.695 217.84 68.0317 227.886 74.155 233.9C80.2783 239.913 89.995 242.92 103.305 242.92C116.908 242.92 126.772 239.895 132.895 233.845C139.018 227.758 142.355 217.711 142.905 203.705C142.978 201.871 143.033 200.111 143.07 198.425C143.143 196.738 143.18 195.07 143.18 193.42C143.217 191.733 143.198 189.991 143.125 188.195C142.722 178.075 140.063 169.825 135.15 163.445C130.273 157.065 123.545 152.701 114.965 150.355L94.56 144.745C92.2133 144.085 90.1967 143.003 88.51 141.5C86.8233 139.96 85.5217 138.016 84.605 135.67C83.6883 133.323 83.175 130.591 83.065 127.475C82.955 124.431 82.9 121.901 82.9 119.885C82.9 117.831 82.955 115.356 83.065 112.46C83.395 104.246 85.1183 98.2698 88.235 94.5298C91.3883 90.7898 96.4117 88.9198 103.305 88.9198C109.685 88.9198 114.378 90.7348 117.385 94.3648C120.392 97.9948 122.078 104.081 122.445 112.625C122.555 115.411 122.555 119.06 122.445 123.57C122.372 128.08 122.243 132.223 122.06 136H115.46C115.643 132.37 115.772 128.208 115.845 123.515C115.955 118.785 115.973 115.338 115.9 113.175C115.607 105.731 114.378 100.708 112.215 98.1048C110.088 95.5015 107.118 94.1998 103.305 94.1998C98.6117 94.1998 95.22 95.7215 93.13 98.7648C91.0767 101.771 89.9033 106.575 89.61 113.175C89.5 115.741 89.4633 118.253 89.5 120.71C89.5733 123.13 89.6283 125.311 89.665 127.255C89.7383 129.381 90.0317 131.233 90.545 132.81C91.095 134.35 91.8467 135.615 92.8 136.605C93.7533 137.558 94.89 138.218 96.21 138.585L116.505 143.92C126.698 146.596 134.655 151.675 140.375 159.155C146.132 166.598 149.248 176.186 149.725 187.92C149.798 189.606 149.817 191.366 149.78 193.2C149.78 195.033 149.743 196.866 149.67 198.7C149.633 200.533 149.578 202.293 149.505 203.98C148.845 219.746 144.94 231.058 137.79 237.915C130.677 244.771 119.182 248.2 103.305 248.2ZM103.305 237.64C92.3783 237.64 84.3483 235.055 79.215 229.885C74.0817 224.678 71.2583 215.878 70.745 203.485C70.6717 201.065 70.635 198.278 70.635 195.125C70.6717 191.971 70.745 189.001 70.855 186.215C71.0017 183.391 71.2033 181.32 71.46 180H78.005C77.785 181.576 77.6017 183.611 77.455 186.105C77.3083 188.598 77.2167 191.348 77.18 194.355C77.18 197.361 77.235 200.423 77.345 203.54C77.7483 213.806 79.9667 221.176 84 225.65C88.07 230.123 94.505 232.36 103.305 232.36C112.252 232.36 118.778 230.123 122.885 225.65C127.028 221.14 129.302 213.77 129.705 203.54C129.815 201.266 129.888 199.286 129.925 197.6C129.962 195.913 129.98 194.355 129.98 192.925C130.017 191.495 129.998 190.101 129.925 188.745C129.742 184.088 128.917 180.036 127.45 176.59C125.983 173.106 123.93 170.246 121.29 168.01C118.687 165.736 115.552 164.123 111.885 163.17L91.205 157.78C87.2083 156.716 83.6333 154.956 80.48 152.5C77.3267 150.006 74.815 146.725 72.945 142.655C71.075 138.548 70.0483 133.616 69.865 127.86C69.7917 125.586 69.7367 123.643 69.7 122.03C69.7 120.416 69.7 118.858 69.7 117.355C69.7367 115.815 69.7917 114.091 69.865 112.185C70.3783 99.9381 73.2567 91.2481 78.5 86.1148C83.78 80.9448 92.0483 78.3598 103.305 78.3598C114.378 78.3598 122.408 80.9998 127.395 86.2798C132.418 91.5598 135.168 100.231 135.645 112.295C135.755 115.081 135.755 118.84 135.645 123.57C135.572 128.263 135.425 132.406 135.205 136H128.66C128.843 132.736 128.99 128.795 129.1 124.175C129.21 119.518 129.192 115.54 129.045 112.24C128.642 102.046 126.423 94.7315 122.39 90.2948C118.393 85.8581 112.032 83.6398 103.305 83.6398C94.835 83.6398 88.345 85.6931 83.835 89.7998C79.3617 93.9065 76.905 101.386 76.465 112.24C76.3183 115.576 76.2633 118.253 76.3 120.27C76.3367 122.286 76.3917 124.761 76.465 127.695C76.6117 132.021 77.345 135.798 78.665 139.025C80.0217 142.215 81.8917 144.855 84.275 146.945C86.695 148.998 89.555 150.465 92.855 151.345L113.425 156.735C120.502 158.568 126.038 162.198 130.035 167.625C134.032 173.015 136.195 179.963 136.525 188.47C136.598 189.973 136.635 191.421 136.635 192.815C136.635 194.171 136.598 195.675 136.525 197.325C136.488 198.975 136.415 201.01 136.305 203.43C135.828 215.383 133.078 224.073 128.055 229.5C123.068 234.926 114.818 237.64 103.305 237.64ZM103.305 227.08C96.8883 227.08 92.14 225.246 89.06 221.58C85.98 217.913 84.275 211.716 83.945 202.99C83.8717 200.423 83.835 197.71 83.835 194.85C83.835 191.99 83.89 189.258 84 186.655C84.1467 184.051 84.3117 181.833 84.495 180H91.04C90.8567 182.273 90.6917 184.62 90.545 187.04C90.435 189.46 90.38 191.99 90.38 194.63C90.38 197.233 90.435 199.965 90.545 202.825C90.8017 208.875 91.7917 213.55 93.515 216.85C95.275 220.15 98.5383 221.8 103.305 221.8C107.742 221.8 110.987 220.315 113.04 217.345C115.13 214.338 116.303 209.406 116.56 202.55C116.67 200.24 116.725 198.26 116.725 196.61C116.762 194.96 116.78 193.548 116.78 192.375C116.78 191.165 116.762 190.101 116.725 189.185C116.652 186.728 116.285 184.601 115.625 182.805C114.965 180.971 114.048 179.486 112.875 178.35C111.738 177.176 110.363 176.388 108.75 175.985L87.905 170.54C81.4517 168.853 75.9333 166.103 71.35 162.29C66.7667 158.44 63.2283 153.655 60.735 147.935C58.2417 142.215 56.885 135.67 56.665 128.3C56.555 124.743 56.5 121.773 56.5 119.39C56.5 117.006 56.555 114.476 56.665 111.8C57.325 96.1065 61.2667 84.8498 68.49 78.0298C75.7133 71.2098 87.3183 67.7998 103.305 67.7998C118.558 67.7998 129.797 71.1365 137.02 77.8098C144.243 84.4465 148.185 95.7765 148.845 111.8C148.955 114.586 148.955 118.473 148.845 123.46C148.772 128.446 148.625 132.626 148.405 136H141.805C142.062 132.076 142.227 127.805 142.3 123.185C142.373 118.528 142.355 114.806 142.245 112.02C141.695 98.0498 138.377 88.0765 132.29 82.0998C126.24 76.0865 116.578 73.0798 103.305 73.0798C89.7017 73.0798 79.765 76.0681 73.495 82.0448C67.2617 87.9848 63.8517 97.9581 63.265 111.965C63.1183 115.375 63.0633 118.216 63.1 120.49C63.1367 122.763 63.1917 125.293 63.265 128.08C63.485 134.386 64.64 139.996 66.73 144.91C68.82 149.786 71.79 153.856 75.64 157.12C79.49 160.383 84.1283 162.73 89.555 164.16L110.345 169.605C112.948 170.265 115.185 171.438 117.055 173.125C118.925 174.775 120.392 176.92 121.455 179.56C122.555 182.2 123.178 185.335 123.325 188.965C123.398 190.395 123.417 191.751 123.38 193.035C123.38 194.318 123.362 195.73 123.325 197.27C123.288 198.773 123.215 200.643 123.105 202.88C122.738 211.496 121.033 217.693 117.99 221.47C114.983 225.21 110.088 227.08 103.305 227.08Z" fill="black"/>
<path d="M164.214 246V69.9998H204.914C215.071 69.9998 223.651 71.3381 230.654 74.0148C237.694 76.6548 243.047 81.2931 246.714 87.9298C250.381 94.5298 252.214 103.77 252.214 115.65C252.214 117.006 252.196 118.308 252.159 119.555C252.159 120.765 252.122 121.993 252.049 123.24C251.976 124.45 251.884 125.751 251.774 127.145C251.187 134.331 249.317 140.125 246.164 144.525C243.047 148.888 238.537 152.408 232.634 155.085V156.24C238.904 158.696 243.872 162.766 247.539 168.45C251.242 174.096 253.167 181.1 253.314 189.46C253.351 191.513 253.369 193.218 253.369 194.575C253.369 195.931 253.351 197.123 253.314 198.15C253.314 199.176 253.277 200.203 253.204 201.23C253.131 202.256 253.021 203.466 252.874 204.86C251.884 215.346 249.537 223.578 245.834 229.555C242.167 235.531 237.034 239.766 230.434 242.26C223.834 244.753 215.621 246 205.794 246H164.214ZM170.814 240.28H205.794C218.297 240.28 227.776 237.75 234.229 232.69C240.719 227.63 244.734 218.353 246.274 204.86C246.494 203.063 246.622 201.45 246.659 200.02C246.732 198.553 246.769 197.031 246.769 195.455C246.769 193.841 246.751 191.935 246.714 189.735C246.567 180.751 244.716 173.693 241.159 168.56C237.639 163.426 232.359 159.411 225.319 156.515V155.03C231.846 152.06 236.649 148.43 239.729 144.14C242.809 139.813 244.624 134.111 245.174 127.035C245.284 125.568 245.376 124.23 245.449 123.02C245.522 121.81 245.559 120.618 245.559 119.445C245.596 118.235 245.614 116.97 245.614 115.65C245.614 105.236 244.037 97.1515 240.884 91.3948C237.731 85.6015 233.129 81.5498 227.079 79.2398C221.029 76.8931 213.641 75.7198 204.914 75.7198H170.814V240.28ZM177.414 234.56V81.4398H204.914C211.954 81.4398 218.022 82.3931 223.119 84.2998C228.216 86.1698 232.139 89.5798 234.889 94.5298C237.639 99.4431 239.014 106.483 239.014 115.65C239.014 116.86 238.977 118.051 238.904 119.225C238.867 120.361 238.812 121.571 238.739 122.855C238.702 124.138 238.647 125.568 238.574 127.145C238.391 133.891 236.741 139.501 233.624 143.975C230.507 148.448 225.301 152.298 218.004 155.525V156.295C225.667 159.375 231.222 163.555 234.669 168.835C238.152 174.115 239.967 181.173 240.114 190.01C240.151 192.136 240.169 193.951 240.169 195.455C240.169 196.958 240.132 198.425 240.059 199.855C240.022 201.285 239.912 202.99 239.729 204.97C238.812 216.006 235.586 223.706 230.049 228.07C224.512 232.396 216.427 234.56 205.794 234.56H177.414ZM184.014 153.6H200.789C210.212 153.6 217.601 151.766 222.954 148.1C228.344 144.396 231.369 137.411 232.029 127.145C232.139 125.678 232.212 124.303 232.249 123.02C232.322 121.736 232.359 120.49 232.359 119.28C232.396 118.07 232.414 116.86 232.414 115.65C232.414 104.503 230.031 96.9681 225.264 93.0448C220.534 89.1215 213.751 87.1598 204.914 87.1598H184.014V153.6ZM190.614 147.88V92.8798H204.914C211.624 92.8798 216.776 94.4565 220.369 97.6098C223.999 100.763 225.814 106.776 225.814 115.65C225.814 116.97 225.796 118.253 225.759 119.5C225.759 120.71 225.722 121.938 225.649 123.185C225.612 124.431 225.539 125.751 225.429 127.145C224.879 135.321 222.441 140.821 218.114 143.645C213.824 146.468 208.049 147.88 200.789 147.88H190.614ZM197.214 142.16H200.789C206.252 142.16 210.524 141.133 213.604 139.08C216.721 136.99 218.462 133.011 218.829 127.145C218.976 124.871 219.067 122.873 219.104 121.15C219.177 119.39 219.214 117.556 219.214 115.65C219.214 108.793 217.931 104.246 215.364 102.01C212.797 99.7365 209.314 98.5998 204.914 98.5998H197.214V142.16ZM184.014 228.84H205.794C214.557 228.84 221.139 227.043 225.539 223.45C229.939 219.82 232.487 213.586 233.184 204.75C233.331 203.21 233.422 201.725 233.459 200.295C233.532 198.865 233.569 197.343 233.569 195.73C233.569 194.116 233.551 192.301 233.514 190.285C233.331 178.698 230.691 170.65 225.594 166.14C220.534 161.593 212.999 159.32 202.989 159.32H184.014V228.84ZM190.614 223.12V165.04H202.989C210.286 165.04 216.061 166.8 220.314 170.32C224.567 173.84 226.786 180.66 226.969 190.78C227.006 192.466 227.006 194.061 226.969 195.565C226.969 197.031 226.932 198.516 226.859 200.02C226.786 201.486 226.676 203.1 226.529 204.86C225.979 211.57 224.017 216.3 220.644 219.05C217.307 221.763 212.357 223.12 205.794 223.12H190.614ZM197.214 217.4H205.794C210.267 217.4 213.677 216.446 216.024 214.54C218.371 212.596 219.691 209.351 219.984 204.805C220.094 203.081 220.167 201.505 220.204 200.075C220.277 198.645 220.332 197.196 220.369 195.73C220.406 194.263 220.406 192.65 220.369 190.89C220.259 183.666 218.792 178.515 215.969 175.435C213.182 172.318 208.856 170.76 202.989 170.76H197.214V217.4Z" fill="black"/>
</svg>
