<svg height="1068" viewBox="0 0 1068 1068" width="1068" xmlns="http://www.w3.org/2000/svg" xmlns:xlink="http://www.w3.org/1999/xlink"><linearGradient id="a" x1="0%" x2="100%" y1="50%" y2="50%"><stop offset="0" stop-color="#12e09f"/><stop offset="1" stop-color="#f36"/></linearGradient><g fill="none" fill-rule="evenodd"><circle cx="533.971875" cy="540.162317" r="362.5" stroke="url(#a)" stroke-width="32"/><g fill-rule="nonzero"><path d="m534.077936 119.662317c5.587121 0 10.690025-.817029 15.308712-2.451087s8.287563-4.103714 11.006629-7.408968c2.719065-3.305253 4.078598-7.37183 4.078598-12.1997281 0-3.7880435-.763573-7.1304348-2.290719-10.0271739-1.527147-2.8967391-3.519887-5.4406703-5.97822-7.6317935s-5.736111-4.6979166-9.833333-7.5203804c-.372475-.2971015-.763574-.5942029-1.173296-.8913044-.409722-.2971014-.838068-.5570652-1.285038-.7798913-4.916666-3.4166666-8.455177-5.9977355-10.61553-7.7432065-2.160354-1.745471-3.799243-3.5466485-4.916667-5.4035326-1.117424-1.856884-1.676136-4.0480072-1.676136-6.5733696 0-3.2681159 1.042929-5.8120471 3.128788-7.6317934 2.085858-1.8197464 4.842171-2.7296196 8.268939-2.7296196 3.724748 0 7.002525 1.2255435 9.833333 3.6766304 2.830809 2.451087 5.065657 5.6077899 6.704546 9.4701087 1.638889 3.8623189 2.607323 7.9103261 2.905303 12.1440218h2.570076c0-12.7753623.186237-21.8369565.558712-27.1847826h-2.570076c-.223485 1.7083333-.521465 2.9524456-.893939 3.7323369-.372475.7798913-.89394 1.169837-1.564394 1.169837-.44697 0-.987058-.1485507-1.620265-.4456522-.633207-.2971014-1.359533-.6684783-2.178978-1.1141304-2.532828-1.4112319-5.121527-2.5067935-7.766098-3.2866848s-6.089962-1.169837-10.336174-1.169837c-4.991162 0-9.591225.7613225-13.80019 2.2839674-4.208964 1.5226449-7.579861 3.8623189-10.112689 7.0190218s-3.799243 7.0747282-3.799243 11.754076c0 3.8623189.856692 7.2604167 2.570076 10.1942935s3.910985 5.5149457 6.592803 7.7432065c2.681818 2.2282609 6.257576 4.8278986 10.727273 7.7989131 5.587121 3.7137681 9.702967 7.0747283 12.347538 10.0828804 2.64457 3.0081522 3.966856 6.6290758 3.966856 10.8627718 0 3.416667-1.210543 6.09058-3.631629 8.021739-2.421086 1.93116-5.68024 2.896739-9.777462 2.896739-6.630051 0-11.546717-2.748188-14.75-8.244565s-5.065657-12.6639493-5.587121-21.5027174h-2.570076c0 16.4891304-.14899 27.2590584-.44697 32.3097824h2.570076c.223485-1.708333.521465-2.952445.893939-3.732337.372475-.779891.89394-1.169837 1.564394-1.169837.89394 0 2.160354.519928 3.799243 1.559783 2.607323 1.262681 5.419507 2.265398 8.436553 3.008152 3.017045.742754 6.797664 1.114131 11.341856 1.114131z" fill="#f36"/><path d="m707.471875 147.662317v-2.231639c-2.349758-.148776-4.038647-.446328-5.066666-.892655-1.02802-.446328-1.743962-1.301789-2.147826-2.566384-.403865-1.264596-.605798-3.310264-.605798-6.137006v-55.3446329c0-2.826742.183575-4.8724105.550725-6.1370056s1.083092-2.1200565 2.147826-2.5663842 2.771981-.7438795 5.121739-.8926554v-2.2316384c-4.332367.2231639-10.463768.3347458-18.394203.3347458l-1.31513-.0008369c-8.217546-.0106003-14.314435-.1219032-18.290667-.3339089v2.2316384c2.349759.1487759 4.038648.4463277 5.066667.8926554s1.743961 1.3017891 2.147826 2.5663842.605797 3.3102636.605797 6.1370056v55.3446329c0 2.826742-.183575 4.87241-.550725 6.137006-.367149 1.264595-1.083091 2.120056-2.147826 2.566384-1.064734.446327-2.77198.743879-5.121739.892655v2.231639c4.185508-.223164 10.720773-.334746 19.605797-.334746 8.003865 0 14.135266.111582 18.394203.334746z" fill="#f36" transform="matrix(.93969262 .34202014 -.34202014 .93969262 78.513626 -228.948263)"/><path d="m857.471875 226.662317c-.523892-5.207157-.785837-11.827684-.785837-19.861582 0-4.165725.112262-7.587571.336787-10.265537h-2.582038c-.823258 4.612053-2.469775 9.056732-4.939551 13.334039-2.469775 4.277307-5.238917 7.71775-8.307426 10.321328s-5.912493 3.905367-8.531952 3.905367h-3.704663c-1.721359 0-2.956247-.167373-3.704663-.502118-.748417-.334746-1.272309-.985641-1.571676-1.952684-.299366-.967043-.44905-2.491996-.44905-4.574859v-57.576271c0-2.826742.224525-4.87241.673575-6.137006.44905-1.264595 1.291019-2.120056 2.525907-2.566384 1.234888-.446327 3.199482-.743879 5.893782-.892655v-2.231638c-4.640184.223163-11.263673.334745-19.870466.334745l-1.340414-.000837c-8.375533-.0106-14.589638-.121903-18.642315-.333908v2.231638c2.394934.148776 4.116293.446328 5.164076.892655 1.047784.446328 1.77749 1.301789 2.189119 2.566384.41163 1.264596.617444 3.310264.617444 6.137006v55.344633c0 2.826742-.187104 4.87241-.561312 6.137006-.374209 1.264595-1.103915 2.120056-2.189119 2.566384-1.085205.446327-2.825274.743879-5.220208.892655v2.231639c8.681635-.223164 21.778929-.334746 39.291883-.334746 12.04951 0 20.618883.111582 25.708117.334746z" fill="#f36" transform="matrix(.76604444 .64278761 -.64278761 .76604444 313.312373 -486.494035)"/><path d="m933.330405 343.662317 21.907074-60.372882c1.572815-4.333333 3.351595-7.748587 5.336338-10.245763 1.984743-2.497175 3.950763-4.223163 5.898058-5.177966v-2.203389c-2.246879.220339-5.130374.330508-8.650485.330508-4.194175 0-9.099861-.110169-14.71706-.330508v2.203389c6.14147.220339 9.212205 3.525424 9.212205 9.915255 0 4.112994-1.235783 9.548022-3.70735 16.305084l-10.897365 29.966102-19.435506-46.932203c-.898752-2.20339-1.348128-3.929379-1.348128-5.177966 0-1.542373.599168-2.570622 1.797503-3.084746 1.198336-.514125 3.220527-.844633 6.066575-.991526v-2.203389c-4.044383.220339-10.335645.330508-18.873787.330508l-1.628738-.001469c-7.512233-.01371-13.784854-.12339-18.817864-.329039v2.203389c1.12344.073447 2.265604.679379 3.426491 1.817797 1.160888 1.138418 2.228156 2.882768 3.201803 5.233051l29.43412 68.745763c2.396671-.146893 4.343966-.220339 5.841886-.220339 1.572815 0 3.557559.073446 5.95423.220339z" fill="#f36" transform="matrix(.5 .8660254 -.8660254 .5 726.831244 -649.584008)"/><path d="m1016.47188 492.662317c-.5239-4.847458-.78584-11.01695-.78584-18.508475 0-4.112994.11226-7.491525.33679-10.135593h-2.58204c-1.64652 9.107344-4.41566 15.735875-8.30743 19.885593-3.89177 4.149717-8.008059 6.224576-12.348877 6.224576h-3.704663c-2.020725 0-3.498849-.165254-4.43437-.495762-.935521-.330509-1.571675-.954803-1.908462-1.872882-.336788-.918079-.505182-2.44209-.505182-4.572034v-28.644068h1.122625c4.116293 0 7.577721 1.377119 10.384284 4.131356 2.806563 2.754238 4.546632 6.224577 5.220207 10.411017h2.582038c-.44905-6.683615-.67358-11.898305-.67358-15.644067v-5.288136c0-3.819209.11227-7.271186.33679-10.355932h-2.582036c-.748416 3.672316-2.507196 7.014124-5.276338 10.025423-2.769142 3.0113-6.099597 4.51695-9.991365 4.51695h-1.122625v-28.20339c0-2.129944.168394-3.653955.505182-4.572034.336787-.918079.972941-1.542373 1.908462-1.872881.935521-.330509 2.413645-.495763 4.43437-.495763h1.459413c5.089234 0 9.467477 1.85452 13.134717 5.563559 3.66724 3.70904 6.17444 9.823446 7.52159 18.34322h2.58203c-.22452-1.909604-.33678-4.553672-.33678-7.932203 0-5.435028.26194-11.60452.78583-18.508474-4.2535.201977-11.17973.311381-20.778696.328213l-6.127881.000826c-15.795919-.01371-27.745308-.12339-35.848168-.329039v2.203389c2.394934.146893 4.116293.440678 5.164076.881356 1.047784.440678 1.77749 1.285311 2.189119 2.533899.41163 1.248587.617444 3.268361.617444 6.059322v54.644067c0 2.790961-.187104 4.810735-.561312 6.059322-.374209 1.248588-1.103915 2.093221-2.189119 2.533899-1.085205.440678-2.825274.734463-5.220208.881356v2.20339c8.681635-.220339 21.778929-.330509 39.291883-.330509 12.049512 0 20.618882.11017 25.708122.330509z" fill="#f36" transform="matrix(.17364818 .98480775 -.98480775 .17364818 1259.877119 -594.138449)"/><path d="m956.727618 804.662317v-2.259887c-3.651863 0-6.316233-.244822-7.993109-.734464s-2.832057-1.450094-3.465543-2.881356c-.633487-1.431261-.95023-3.728813-.95023-6.892655v-64.632768h.111792c4.471669 0 8.645227 2.184557 12.520673 6.553672 3.875447 4.369115 7.042879 11.487759 9.502298 21.355932h2.571209c-.223583-1.958569-.335375-4.670433-.335375-8.135593 0-6.553672.260848-14.0113.782542-22.372881-6.637634.211864-17.729469.324417-33.275507.337658h-6.350731c-15.61154-.013241-26.736128-.125794-33.373762-.337658.521695 8.361581.782542 15.819209.782542 22.372881 0 3.46516-.111791 6.177024-.335375 8.135593h2.57121c2.459418-9.943503 5.608218-17.080979 9.446401-21.412429s8.030373-6.497175 12.57657-6.497175h.111792v64.632768c0 3.163842-.316744 5.461394-.95023 6.892655-.633487 1.431262-1.788668 2.391714-3.465544 2.881356s-4.341245.734464-7.993108.734464v2.259887c10.061255-.225989 17.737621-.338984 23.029096-.338984 5.81317 0 13.973966.112995 24.482389.338984z" fill="#f36" transform="matrix(-.5 .8660254 -.8660254 -.5 2061.674804 339.016131)"/><path d="m987.077936 654.662317c5.587121 0 10.690025-.826993 15.308714-2.480979 4.61868-1.653985 8.28756-4.153759 11.00663-7.49932 2.71906-3.345562 4.0786-7.46173 4.0786-12.348506 0-3.834239-.76358-7.217391-2.29072-10.149456-1.52715-2.932066-3.51989-5.50702-5.97822-7.724864-2.45834-2.217845-5.73612-4.755209-9.833337-7.612093-.372475-.300724-.763574-.601449-1.173296-.902174-.409722-.300724-.838068-.563858-1.285038-.789402-4.916666-3.458333-8.455177-6.070879-10.61553-7.837636-2.160354-1.766757-3.799243-3.5899-4.916667-5.469429s-1.676136-4.097373-1.676136-6.653533c0-3.307971 1.042929-5.882925 3.128788-7.724864 2.085858-1.841938 4.842171-2.762908 8.268939-2.762908 3.724748 0 7.002525 1.24049 9.833337 3.721468 2.8308 2.480978 5.06565 5.676177 6.70454 9.585598 1.63889 3.90942 2.60733 8.006793 2.9053 12.292119h2.57008c0-12.931159.18624-22.103261.55871-27.516304h-2.57007c-.22349 1.729167-.52147 2.988451-.89394 3.777853-.37248.789402-.89394 1.184103-1.5644 1.184103-.44697 0-.98705-.150362-1.62026-.451087-.63321-.300724-1.35953-.67663-2.17898-1.127717-2.53283-1.428442-5.121526-2.537364-7.766097-3.326766s-6.089962-1.184103-10.336174-1.184103c-4.991162 0-9.591225.770606-13.80019 2.31182-4.208964 1.541214-7.579861 3.90942-10.112689 7.10462-2.532828 3.195199-3.799243 7.161005-3.799243 11.897418 0 3.909421.856692 7.348959 2.570076 10.318614 1.713384 2.969656 3.910985 5.582201 6.592803 7.837636s6.257576 4.886776 10.727273 7.894022c5.587121 3.759058 9.702967 7.161005 12.347538 10.205842 2.64457 3.044837 3.966856 6.709919 3.966856 10.995245 0 3.458333-1.210543 6.164855-3.631629 8.119565s-5.68024 2.932065-9.777462 2.932065c-6.630051 0-11.546717-2.781703-14.75-8.345108-3.203283-5.563406-5.065657-12.818388-5.587121-21.764946h-2.570076c0 16.690217-.14899 27.591486-.44697 32.703804h2.570076c.223485-1.729166.521465-2.988451.893939-3.777853.372475-.789402.89394-1.184103 1.564394-1.184103.89394 0 2.160354.526268 3.799243 1.578804 2.607323 1.27808 5.419507 2.293026 8.436553 3.044837 3.017045.751812 6.797664 1.127718 11.341856 1.127718z" fill="#f36" transform="matrix(-.17364818 .98480775 -.98480775 -.17364818 1763.378394 -253.325526)"/><path d="m868.284367 927.064164v-2.20339c-1.097222-.073446-2.212731-.679378-3.346528-1.817796-1.133796-1.138419-2.176157-2.882769-3.127083-5.233051l-26.552778-68.745763c-2.340741.146893-4.242592.220339-5.705555.220339-1.536112 0-3.474537-.073446-5.815278-.220339l-24.358334 62.90678c-1.682407 4.333333-3.32824 7.491525-4.9375 9.474576-1.609259 1.983051-3.32824 3.121469-5.156944 3.415254v2.20339c2.194444-.220339 5.010648-.330509 8.448611-.330509 4.096296 0 8.8875.11017 14.373611.330509v-2.20339c-3.291666-.146893-5.778703-.771186-7.461111-1.872881-1.682407-1.101695-2.523611-3.158192-2.523611-6.169492 0-3.305085 1.206944-8.079096 3.620833-14.322034l1.865278-4.957627h22.163889l6.473611 18.067797c.877778 2.20339 1.316667 3.966102 1.316667 5.288135 0 1.395481-.585185 2.368644-1.755556 2.919492-1.17037.550847-3.14537.899717-5.925 1.04661v2.20339c3.95-.220339 10.094445-.330509 18.433334-.330509 8.046296 0 14.702777.11017 19.969444.330509zm-39.595086-30.859969h-20l10.267379-28z" fill="#f36" transform="matrix(-.76604444 .64278761 -.64278761 -.76604444 2035.2223 1036.564297)"/><path d="m715.586917 1009.16437c3.520891 0 6.601671-.44875 9.242339-1.34626 2.640669-.89751 5.061282-2.46815 7.261839-4.71191l-1.430362-1.45845c-.953575.9723-2.090529 1.45845-3.410864 1.45845-1.320334 0-2.347261-.52355-3.08078-1.57064s-1.35701-2.954294-1.870473-5.721607l-2.310585-11.66759c-.880223-4.562327-3.227484-8.021468-7.041783-10.377424-3.814299-2.355955-9.462395-3.795706-16.94429-4.319252 9.682452-.897507 16.577531-3.328255 20.685237-7.292244 4.107707-3.963989 6.16156-8.750692 6.16156-14.36011 0-6.581718-2.732358-11.48061-8.197075-14.696676-5.464717-3.216067-13.77182-4.8241-24.921309-4.8241-1.90715 0-3.594244.037396-5.061282.112188l-12.653203.112189c-8.435469 0-14.743733-.112189-18.924791-.336565v2.243767c2.347261.149584 4.034355.448753 5.061281.897507 1.026927.448753 1.742108 1.308864 2.145543 2.580332.403436 1.271468.605154 3.328255.605154 6.17036v55.64543c0 2.842105-.18338 4.898895-.55014 6.170355-.366759 1.27147-1.08194 2.13158-2.145543 2.58034-1.063602.44875-2.769034.74792-5.116295.8975v2.24377c4.181058-.22438 10.709378-.33656 19.584958-.33656 7.995358 0 14.120242.11218 18.374652.33656v-2.24377c-2.347261-.14958-4.034355-.44875-5.061281-.8975-1.026927-.44876-1.742108-1.30887-2.145544-2.58034-.403435-1.27146-.605153-3.32825-.605153-6.170355v-25.803324h4.951254c2.567316 0 4.492804 1.34626 5.776462 4.038781s2.292247 6.656509 3.025766 11.891967l1.650418 11.218836c.660167 4.412745 2.383937 7.535315 5.171309 9.367725s6.711699 2.74862 11.772981 2.74862zm-29.968011-40.680783h-3.06v-28.156627c0-2.746988.151112-4.807229.453334-6.180723s.887778-2.327309 1.756666-2.861446c.868889-.534136 2.172223-.801204 3.91-.801204 3.853334 0 6.63 1.602409 8.33 4.807228 1.7 3.20482 2.55 7.935743 2.55 14.192772 0 6.028112-.982222 10.701807-2.946666 14.021084-1.964445 3.319277-5.628889 4.978916-10.993334 4.978916z" fill="#f36" transform="matrix(-.93969262 .34202014 -.34202014 -.93969262 1675.625467 1642.866655)"/><path d="m536.559604 1037.32463c10.682927 0 18.917683-1.78531 24.704268-5.35593 5.786586-3.57062 8.679879-9.00094 8.679879-16.29096 0-3.19868-1.075712-6.22999-3.227135-9.09393-2.151422-2.86393-5.582571-5.26294-10.293445-7.19703-4.710874-1.934087-10.701473-3.0871-17.971799-3.45904v-.223163c5.564025-.669492 10.274899-2.045669 14.132622-4.128532 3.857724-2.082862 6.751017-4.519067 8.679878-7.308615 1.928862-2.789548 2.893293-5.560499 2.893293-8.312853 0-5.355933-2.577998-9.614643-7.733994-12.77613-5.155996-3.161488-12.630335-4.742232-22.423018-4.742232-1.928862 0-3.635163.037194-5.118902.111582l-12.797257.111582c-8.531504 0-14.911585-.111582-19.140243-.334746v2.231638c2.373983.148776 4.080284.446328 5.118902.892656s1.761941 1.301789 2.169969 2.566384c.408029 1.264595.612043 3.310264.612043 6.137006v55.344633c0 2.82674-.185467 4.87241-.556402 6.13701-.370935 1.26459-1.094258 2.12005-2.16997 2.56638-1.075711.44633-2.800559.74388-5.174542.89265v2.23164c4.228658-.22316 10.682926-.33474 19.362804-.33474 4.822155 0 9.75559.07439 14.800305.22316 1.48374.07439 3.301321.11158 5.452744.11158zm-5.567466-40.999997h-3.048387v-25.352564c0-2.692308.150537-4.711539.451612-6.057692.301076-1.346154.884409-2.280983 1.75-2.804488.865592-.523504 2.163979-.785256 3.895162-.785256 2.784946 0 4.798387 1.36485 6.040322 4.094551 1.241936 2.729701 1.862904 6.936432 1.862904 12.620193 0 5.534188-.80914 9.965277-2.42742 13.293269-1.618279 3.327991-4.459677 4.991987-8.524193 4.991987zm4.131845 39.999997c-2.062015 0-3.590116-.24504-4.584302-.73512s-1.675388-1.37599-2.043605-2.65773c-.368217-1.28175-.552325-3.27977-.552325-5.99405v-28.613097h1.546511c6.03876 0 10.457364 1.545635 13.255814 4.636907 2.79845 3.09127 4.197675 7.61508 4.197675 13.57143 0 13.19444-3.939923 19.79166-11.819768 19.79166z" fill="#12e09f" transform="matrix(-1 0 0 -1 1067.94375 1996.324634)"/><path d="m393.471875 1008.66232v-2.23164c-2.349758-.14878-4.038647-.44633-5.066666-.89266-1.02802-.44632-1.743962-1.30179-2.147826-2.56638-.403865-1.2646-.605798-3.310265-.605798-6.137007v-55.344633c0-2.826742.183575-4.87241.550725-6.137006.36715-1.264595 1.083092-2.120056 2.147826-2.566384 1.064734-.446327 2.771981-.743879 5.121739-.892655v-2.231638c-4.332367.223163-10.463768.334745-18.394203.334745l-1.31513-.000837c-8.217546-.0106-14.314435-.121903-18.290667-.333908v2.231638c2.349759.148776 4.038648.446328 5.066667.892655 1.028019.446328 1.743961 1.301789 2.147826 2.566384.403865 1.264596.605797 3.310264.605797 6.137006v55.344633c0 2.826742-.183575 4.872407-.550725 6.137007-.367149 1.26459-1.083091 2.12006-2.147826 2.56638-1.064734.44633-2.77198.74388-5.121739.89266v2.23164c4.185508-.22317 10.720773-.33475 19.605797-.33475 8.003865 0 14.135266.11158 18.394203.33475z" fill="#12e09f" transform="matrix(-.93969262 -.34202014 .34202014 -.93969262 394.887298 2007.953919)"/><path d="m233.077936 929.662317c5.587121 0 10.690025-.817029 15.308712-2.451087s8.287563-4.103714 11.006629-7.408968c2.719065-3.305253 4.078598-7.37183 4.078598-12.199728 0-3.788044-.763573-7.130435-2.290719-10.027174-1.527147-2.896739-3.519887-5.44067-5.97822-7.631793-2.458333-2.191124-5.736111-4.697917-9.833333-7.520381-.372475-.297101-.763574-.594203-1.173296-.891304-.409722-.297102-.838068-.557065-1.285038-.779892-4.916666-3.416666-8.455177-5.997735-10.61553-7.743206-2.160354-1.745471-3.799243-3.546649-4.916667-5.403533s-1.676136-4.048007-1.676136-6.573369c0-3.268116 1.042929-5.812047 3.128788-7.631794 2.085858-1.819746 4.842171-2.729619 8.268939-2.729619 3.724748 0 7.002525 1.225543 9.833333 3.67663 2.830809 2.451087 5.065657 5.60779 6.704546 9.470109s2.607323 7.910326 2.905303 12.144022h2.570076c0-12.775363.186237-21.836957.558712-27.184783h-2.570076c-.223485 1.708333-.521465 2.952446-.893939 3.732337-.372475.779891-.89394 1.169837-1.564394 1.169837-.44697 0-.987058-.148551-1.620265-.445652-.633207-.297102-1.359533-.668479-2.178978-1.114131-2.532828-1.411232-5.121527-2.506793-7.766098-3.286685-2.644571-.779891-6.089962-1.169836-10.336174-1.169836-4.991162 0-9.591225.761322-13.80019 2.283967-4.208964 1.522645-7.579861 3.862319-10.112689 7.019022s-3.799243 7.074728-3.799243 11.754076c0 3.862319.856692 7.260416 2.570076 10.194293s3.910985 5.514946 6.592803 7.743207 6.257576 4.827898 10.727273 7.798913c5.587121 3.713768 9.702967 7.074728 12.347538 10.08288 2.64457 3.008152 3.966856 6.629076 3.966856 10.862772 0 3.416667-1.210543 6.09058-3.631629 8.021739-2.421086 1.93116-5.68024 2.896739-9.777462 2.896739-6.630051 0-11.546717-2.748188-14.75-8.244565s-5.065657-12.663949-5.587121-21.502717h-2.570076c0 16.48913-.14899 27.259058-.44697 32.309782h2.570076c.223485-1.708333.521465-2.952445.893939-3.732337.372475-.779891.89394-1.169837 1.564394-1.169837.89394 0 2.160354.519928 3.799243 1.559783 2.607323 1.262681 5.419507 2.265398 8.436553 3.008152 3.017045.742754 6.797664 1.114131 11.341856 1.114131z" fill="#12e09f" transform="matrix(-.76604444 -.64278761 .64278761 -.76604444 -158.016397 1719.811369)"/><path d="m157.902197 804.662317v-2.231639c-3.601838 0-6.229709-.241761-7.883614-.725282-1.653905-.483522-2.793262-1.431968-3.418071-2.845339-.624808-1.413371-.937213-3.682204-.937213-6.806498v-63.824858h.110261c4.410413 0 8.526799 2.15725 12.349158 6.471751 3.822358 4.314501 6.946401 11.344162 9.372128 21.088983h2.535988c-.220521-1.934086-.330781-4.612053-.330781-8.033898 0-6.471752.257274-13.836158.771822-22.09322-6.546707.209216-17.4866.320362-32.819678.333438h-6.263735c-15.397684-.013076-26.369879-.124222-32.9165867-.333438.5145482 8.257062.7718223 15.621468.7718223 22.09322 0 3.421845-.1102603 6.099812-.330781 8.033898h2.5359874c2.425728-9.819209 5.531394-16.867467 9.316999-21.144774s7.920367-6.41596 12.404288-6.41596h.11026v63.824858c0 3.124294-.312404 5.393127-.937213 6.806498-.624808 1.413371-1.764165 2.361817-3.41807 2.845339-1.653905.483521-4.281777.725282-7.883614.725282v2.231639c9.92343-.223164 17.49464-.334746 22.713629-.334746 5.733538 0 13.782542.111582 24.147014.334746z" fill="#12e09f" transform="matrix(-.5 -.8660254 .8660254 -.5 -460.942192 1264.199535)"/><path d="m102.543436 651.12378c3.520891 0 6.601671-.448754 9.24234-1.346261 2.640668-.897507 5.061281-2.468144 7.261838-4.711911l-1.430362-1.458449c-.953575.972299-2.090529 1.458449-3.410864 1.458449-1.320334 0-2.34726-.523546-3.08078-1.570637-.733519-1.047092-1.35701-2.954294-1.870473-5.721607l-2.310585-11.66759c-.880223-4.562327-3.227484-8.021468-7.0417827-10.377424-3.814299-2.355955-9.4623956-3.795706-16.9442897-4.319252 9.6824512-.897507 16.5775302-3.328255 20.6852364-7.292243 4.107707-3.963989 6.16156-8.750693 6.16156-14.360111 0-6.581718-2.732358-11.48061-8.197075-14.696676-5.4647168-3.216067-13.7718198-4.8241-24.9213092-4.8241-1.9071495 0-3.5942432.037396-5.0612813.112188l-12.6532033.112189c-8.4354689 0-14.7437326-.112189-18.9247911-.336565v2.243767c2.3472609.149585 4.0343547.448754 5.0612813.897507 1.0269267.448753 1.7421077 1.308864 2.1455432 2.580332.4034354 1.271469.6051532 3.328255.6051532 6.170361v55.645429c0 2.842105-.1833798 4.898892-.5501393 6.17036s-1.0819406 2.131579-2.1455432 2.580332c-1.0636026.448754-2.7690343.747923-5.1162952.897507v2.243768c4.1810585-.224377 10.7093779-.336565 19.5849582-.336565 7.9953575 0 14.1202414.112188 18.3746518.336565v-2.243768c-2.3472609-.149584-4.0343547-.448753-5.0612813-.897507-1.0269267-.448753-1.7421077-1.308864-2.1455432-2.580332s-.6051532-3.328255-.6051532-6.17036v-25.803324h4.9512535c2.5673166 0 4.492804 1.34626 5.7764624 4.038781 1.2836583 2.692521 2.2922469 6.65651 3.025766 11.891967l1.6504178 11.218836c.6601671 4.412743 2.3839369 7.535319 5.1713092 9.367729s6.7116992 2.748615 11.7729807 2.748615zm-29.3944933-41.977572h-3.06v-28.156627c0-2.746988.1511111-4.807229.4533334-6.180723.3022222-1.373493.8877777-2.327309 1.7566666-2.861445.8688889-.534137 2.1722223-.801205 3.91-.801205 3.8533334 0 6.63 1.60241 8.33 4.807229s2.55 7.935743 2.55 14.192771c0 6.028112-.9822222 10.701807-2.9466666 14.021084-1.9644445 3.319277-5.6288889 4.978916-10.9933334 4.978916z" fill="#12e09f" transform="matrix(-.17364818 -.98480775 .98480775 -.17364818 -507.033735 794.872814)"/><path d="m82.1754007 488.241056c8.1589404 0 15.4278146-1.766757 21.8066223-5.300272 6.378808-3.533514 11.348345-8.495471 14.90861-14.885869 3.560264-6.390399 5.340397-13.720562 5.340397-21.990489 0-8.495471-1.743046-15.806839-5.229139-21.934104-3.486093-6.127264-8.381457-10.807291-14.686093-14.040081-6.3046357-3.23279-13.647682-4.849185-22.029139-4.849185-8.1589404 0-15.4278146 1.766757-21.8066225 5.300272-6.378808 3.533514-11.3483444 8.495471-14.9086093 14.885869-3.5602649 6.390399-5.3403973 13.720562-5.3403973 21.990489 0 8.495471 1.7430463 15.806839 5.229139 21.934104 3.4860928 6.127264 8.381457 10.807291 14.6860928 14.040081 6.3046357 3.23279 13.6476821 4.849185 22.029139 4.849185zm.3553722-2.492404c-3.4606965 0-6.6268656-1.617619-9.4985074-4.852857s-5.1542289-7.824762-6.8477612-13.768571c-1.6935324-5.94381-2.5402985-12.828096-2.5402985-20.652858 0-7.749523.7363184-14.633809 2.2089552-20.652857 1.4726368-6.019047 3.5895522-10.702619 6.3507463-14.050714 2.761194-3.348095 5.9457711-5.022143 9.5537313-5.022143 3.4606965 0 6.6268657 1.617619 9.4985075 4.852857s5.1542288 7.824762 6.8477612 13.768572c1.6935323 5.943809 2.5402987 12.828095 2.5402987 20.652857 0 7.749524-.7363186 14.633809-2.2089554 20.652857-1.4726369 6.019048-3.5895523 10.702619-6.3507463 14.050714s-5.9457712 5.022143-9.5537314 5.022143z" fill="#12e09f" transform="matrix(.17364818 -.98480775 .98480775 .17364818 -371.233325 449.905986)"/><path d="m149.148713 339.662317 21.366158-61.146893c1.533981-4.388889 3.26884-7.847929 5.204577-10.377119s3.853213-4.277307 5.752427-5.24435v-2.231638c-2.191401.223163-5.003698.334745-8.436893.334745-4.090615 0-8.875173-.111582-14.353675-.334745v2.231638c5.989829.223164 8.984743 3.570621 8.984743 10.042373 0 4.165725-1.20527 9.670433-3.615811 16.514124l-10.628294 30.350283-18.955618-47.533899c-.87656-2.231638-1.31484-3.979755-1.31484-5.24435 0-1.562147.584373-2.603578 1.753121-3.124294 1.168747-.520715 3.141007-.855461 5.916782-1.004237v-2.231638c-3.944522.223163-10.080444.334745-18.407767.334745l-1.588522-.001487c-7.326746-.013886-13.444488-.124972-18.353226-.333258v2.231638c1.095701.074388 2.209663.688088 3.341887 1.841102 1.132223 1.153013 2.173139 2.919727 3.122746 5.300141l28.707351 69.627119c2.337494-.148776 4.236708-.223164 5.697642-.223164 1.53398 0 3.469718.074388 5.807212.223164z" fill="#12e09f" transform="matrix(.5 -.8660254 .8660254 .5 -188.962254 273.032409)"/><path d="m263.471875 221.662317v-2.231639c-2.411594-.148776-4.144927-.446328-5.2-.892655-1.055072-.446328-1.789855-1.301789-2.204348-2.566384-.414492-1.264596-.621739-3.310264-.621739-6.137006v-55.344633c0-2.826742.188406-4.87241.565218-6.137006.376811-1.264595 1.111594-2.120056 2.204348-2.566384 1.092753-.446327 2.844927-.743879 5.256521-.892655v-2.231638c-4.446377.223163-10.73913.334745-18.878261.334745l-1.349739-.000837c-8.433797-.0106-14.69113-.121903-18.772-.333908v2.231638c2.411594.148776 4.144928.446328 5.2.892655 1.055073.446328 1.789855 1.301789 2.204348 2.566384.414493 1.264596.621739 3.310264.621739 6.137006v55.344633c0 2.826742-.188406 4.87241-.565217 6.137006-.376812 1.264595-1.111594 2.120056-2.204348 2.566384-1.092754.446327-2.844928.743879-5.256522.892655v2.231639c4.295652-.223164 11.002899-.334746 20.121739-.334746 8.214493 0 14.507247.111582 18.878261.334746z" fill="#12e09f" transform="matrix(.76604444 -.64278761 .64278761 .76604444 -60.013104 199.439985)"/><path d="m373.422382 59.6509656c4.72093-1.4559387 9.741602-2.605364 15.062015-3.4482758 2.173127-.3831418 3.896641-.7279694 5.170543-1.0344828s2.510336-.7662835 3.709302-1.3793103c1.348837-.6896552 2.397933-1.6475096 3.147287-2.8735633.749354-1.2260536 1.124031-2.5287356 1.124031-3.9080459 0-1.072797-.224806-2.0689656-.674419-2.9885058-.674418-1.3793103-1.667312-2.4521073-2.978682-3.2183908-1.311369-.7662835-2.67894-1.1494253-4.102713-1.1494253-1.124031 0-2.28553.2681993-3.484496.8045977-1.273902.6130268-2.360465 1.3793104-3.25969 2.2988506s-2.135659 2.2988506-3.709302 4.137931c-3.297158 4.2145594-6.894057 8.0076629-10.790698 11.3793104zm11.144701 88.1838444c4.296297 0 7.962963-.620244 11-1.860733 3.037037-1.24049 6.222223-3.063633 9.555556-5.46943.962963-.601449 1.740741-.902174 2.333333-.902174.740741 0 1.314815.507473 1.722222 1.522419.407408 1.014945.722223 2.725317.944445 5.131114h2.555555c-.275862-5.109727-.423305-13.934082-.44233-26.473065l-.002114-2.847587h-2.555556c-.518518 6.766304-1.481481 11.991395-2.888888 15.675271-1.407408 3.683877-3.851852 6.615942-7.333334 8.796196-3.481481 2.255435-6.925926 3.383152-10.333333 3.383152-7.703704 0-13.111111-3.759058-16.222222-11.277174s-4.666667-16.502264-4.666667-26.952445c0-10.4501815 1.555556-19.43433 4.666667-26.952446 3.111111-7.5181159 8.518518-11.2771739 16.222222-11.2771739 3.407407 0 6.851852 1.1277174 10.333333 3.3831522 3.481482 2.3306159 5.925926 5.2250906 7.333334 8.6834239 1.407407 3.4583333 2.37037 8.1947464 2.888888 14.2092391h2.555556l.002268-2.8215949c.019652-11.9576401.167044-20.4147534.442176-25.3713398h-2.555555c-.444445 4.5108695-1.407407 6.7663043-2.888889 6.7663043-.666667 0-1.37037-.3383152-2.111111-1.0149457-2.962963-2.3306159-6-4.1349637-9.111111-5.4130434s-6.888889-1.9171196-11.333334-1.9171196c-8.148148 0-15.407407 1.7667573-21.777777 5.3002717-6.370371 3.5335145-11.333334 8.4954711-14.888889 14.8858696-3.555556 6.3903986-5.333334 13.7205616-5.333334 21.9904895 0 8.495471 1.740741 15.806838 5.222223 21.934103 3.481481 6.127264 8.37037 10.807292 14.666666 14.040081 6.296297 3.23279 13.62963 4.849185 22 4.849185z" fill="#12e09f" transform="matrix(.93969262 -.34202014 .34202014 .93969262 -9.27006 134.751514)"/><g transform="translate(259.471875 352.662317)"><path d="m156.496362.33768347-1.547666.01252633c-50.973961.82567891-92.0413601 42.3652358-92.0413601 93.4874737l-.0002537 36.4662465-1.140909.41014c-35.7453376 13.155585-61.23804846 47.485234-61.23804846 87.76336v62.612739l.01245842 1.283564c.82763051 50.997284 42.46385504 91.96395 93.57656734 91.96395h62.6954635l1.284786-.012446 1.528332-.037005c50.333521-1.622717 90.523182-42.897098 90.523182-93.450549l-.00014-36.46687 1.155832-.414856c35.7381-13.159648 61.223519-47.485867 61.223519-87.75802v-62.3602535c0-51.6386241-41.901234-93.50000003-93.589026-93.50000003zm63.944467 33.66000003c34.249942 0 62.015007 27.7959536 62.015007 62.084v62.1108125c0 34.283485-27.757679 62.076605-62.00134 62.083998l-.000276 62.057189c0 33.945166-27.212539 61.527432-60.989475 62.075683l-1.025531.008317h-62.0647574c-33.907443 0-61.4590568-27.242814-62.0066983-61.057327l-.0083083-1.026673v-62.110812c0-33.945166 27.2125394-61.527431 60.9894751-62.075682l1.0118882-.008822.0002521-62.0566835c0-34.2880464 27.7650646-62.084 62.0150066-62.084z" fill="#f36"/><path d="m219.037284 31.3376835c34.512738 0 62.490841 28.2060607 62.490841 63v63.0272075c0 34.789311-27.97066 62.992497-62.477069 62.999999l-.000278 62.972793c0 34.446-27.421338 62.43522-61.45744 62.99156l-1.0334.00844h-62.5409728c-34.1676108 0-61.930625-27.64476-62.4824685-61.958179l-.008372-1.041821v-63.027207c0-34.446 27.4213381-62.43522 61.4574401-62.99156l1.0196524-.008953.000254-62.9722795c0-34.7939393 27.9781018-63 62.4908408-63zm2.065747 33.7542075-.514104-.0042075h-62.226784c-16.997981 0-30.809751 13.781242-31.084287 30.8870142l-.004165.5193635-.000874 61.7954378.013807.63934c.123294 15.509508-9.928612 31.131782-29.8790554 31.738457l-1.2089027.018261c-16.9979809 0-30.809751 13.781242-31.0842866 30.88689l-.004165.51936v62.744151l.0055959.69345.0109457.444004c.5338978 16.704779 13.9893314 30.09142 30.5635715 30.360153l.5083385.004118h62.0537931l.764776-.006281.43965-.010429c16.535743-.539356 29.786926-14.132337 30.052939-30.87614l.004077-.513539.000276-62.785375c.000076-17.169068 13.637841-31.120844 30.567724-31.401791l.514024-.004319c16.994962-.003702 30.802832-13.783868 31.07729-30.886967l.004163-.519282v-62.8396265c0-17.171741-13.64179-31.1247005-30.574347-31.4020425z" fill="#b32447" stroke="#b32447"/><path d="m411.643406.33768347c-54.585548 0-98.890645 43.81319133-99.115281 97.98481783v155.6515427l.015931 1.731978c1.074399 65.783652 55.128345 118.631661 121.483936 118.631661 67.10267 0 121.500133-54.001678 121.500133-120.616125l-.016278-1.994608c-.704457-43.132734-24.215692-80.761705-59.08397-101.520484l-.227438-.133519.260912-.420747c9.100781-14.923112 14.297602-32.385461 14.297602-50.9201122 0-53.7983117-43.492469-97.51232192-97.476491-98.38122229zm1.964254 33.66000003c37.242429 0 67.433382 29.9784878 67.433382 66.9588265 0 32.722255-23.638586 59.962276-54.884391 65.801515 3.198648-.347647 6.448975-.523663 9.740705-.523663 49.552687 0 89.723076 39.887695 89.723076 89.091661 0 49.203965-40.170389 89.09166-89.723076 89.09166-49.057161 0-88.918731-39.09393-89.711057-87.618367l-.01202-1.473293v-154.649675c.152777-36.8516427 30.285156-66.6786645 67.433381-66.6786645z" fill="#12e09f"/><path d="m414.54542 31.3376835c37.564915 0 68.017296 30.4207965 68.017296 67.9467509 0 33.2050456-23.843275 60.8469716-55.359641 66.7723636 3.226344-.352776 6.504817-.531389 9.82505-.531389 49.98177 0 90.5 40.476206 90.5 90.406137s-40.51823 90.406137-90.5 90.406137c-49.481952 0-89.688689-39.670729-90.487876-88.911106l-.012124-1.495031v-156.9314077c.1541-37.3953591 30.547399-67.6624548 68.017295-67.6624548zm2.083443 33.75c-19.716379 0-35.757863 15.8596357-36.156232 35.5851985l-.007006.548948v156.28755l.009376 1.146328.021658.891108c1.003887 31.248549 26.299309 56.280655 57.461136 56.783166l.955746.007701c32.279893 0 58.447917-26.294684 58.447917-58.730821s-26.168024-58.730821-58.447917-58.730821c-2.149347 0-4.263859.115247-6.337784.343349-39.860766 4.384111-48.588568-54.631673-9.181584-62.084171 16.916622-3.199207 29.397928-18.165157 29.397928-35.709257 0-19.8683863-15.868636-36.0125145-35.565213-36.3334102z" fill="#0b865f" stroke="#0b865f"/></g></g></g></svg>