<svg height="32" viewBox="0 0 32 32" width="32" xmlns="http://www.w3.org/2000/svg"><g fill="none" fill-rule="evenodd" transform="matrix(.99254615 .12186934 -.12186934 .99254615 3.566786 2.883275)"><path d="m4 0c-4 0 0 10.78125-4 11.5 4 .71875 0 11.5 4 11.5" stroke="#12e09f" stroke-linecap="round" stroke-linejoin="round"/><path d="m28 0c-4 0 0 10.78125-4 11.5 4 .71875 0 11.5 4 11.5" stroke="#12e09f" stroke-linecap="round" stroke-linejoin="round" transform="matrix(-1 0 0 1 52 0)"/><g fill="#f36" fill-rule="nonzero"><g transform="translate(6 8.8)"><path d="m3.150525 6.5688c.3451 0 .639625-.0490875.883575-.1472625s.4998-.2424625.76755-.4328625c.07735-.0476.139825-.0714.187425-.0714.0595 0 .1056125.0401625.1383375.1204875s.0580125.2156875.0758625.4060875h.205275c-.0238-.42245-.0357-1.17215-.0357-2.2491h-.205275c-.0476.48195-.1145375.847875-.2008125 1.097775s-.2394875.45815-.4596375.62475c-.13685.1428-.3049375.2513875-.5042625.3257625s-.4001375.1115625-.6024375.1115625c-.60095 0-1.05315-.29155-1.3566-.87465s-.455175-1.309-.455175-2.1777c0-.87465.145775-1.6050125.437325-2.1910875s.7378-.8791125 1.33875-.8791125c.2142 0 .419475.0371875.615825.1115625s.3689.1829625.51765.3257625c.2142.17255.365925.37485.455175.6069s.16065.568225.2142 1.008525h.205275c0-1.0353.0119-1.75525.0357-2.15985h-.205275c-.0357.357-.11305.5355-.23205.5355-.0476 0-.104125-.026775-.169575-.080325-.238-.18445-.48195-.32725-.73185-.4284s-.55335-.151725-.91035-.151725c-.61285 0-1.1587625.139825-1.6377375.419475s-.8523375.67235-1.1200875 1.1781-.401625 1.085875-.401625 1.740375c0 .67235.1309 1.2509875.3927 1.7359125s.6292125.8553125 1.1022375 1.1111625 1.0248875.383775 1.6555875.383775z"/><path d="m8.541225 6.5688c.41055 0 .7839125-.06545 1.1200875-.19635s.6024375-.3257625.7987875-.5845875.294525-.5786375.294525-.9594375c0-.30345-.0639625-.5697125-.1918875-.7987875s-.2930375-.4298875-.4953375-.6024375-.478975-.37485-.830025-.6069l-.2856-.19635c-.3332-.22015-.580125-.3941875-.740775-.5221125s-.2856-.2692375-.37485-.4239375-.133875-.336175-.133875-.544425c0-.27965.0907375-.5012875.2722125-.6649125s.4179875-.2454375.7095375-.2454375c.2975 0 .5578125.0907375.7809375.2722125s.395675.4179875.51765.7095375.1948625.597975.2186625.919275h.205275c0-.95795.014875-1.63625.044625-2.0349h-.205275c-.01785.13685-.04165.2365125-.0714.2989875s-.0714.0937125-.12495.0937125c-.0357 0-.0788375-.0119-.1294125-.0357s-.1085875-.05355-.1740375-.08925c-.1904-.11305-.377825-.199325-.562275-.258825s-.431375-.08925-.740775-.08925c-.36295 0-.69615.0595-.9996.1785s-.5459125.3019625-.7273875.5488875-.2722125.5488875-.2722125.9058875c0 .3094.068425.5816125.205275.8166375s.312375.4388125.526575.6113625.4998.37485.8568.6069c.4641.2975.80325.56525 1.01745.80325s.3213.5236.3213.8568c0 .3213-.104125.568225-.312375.740775s-.473025.258825-.794325.258825c-.52955 0-.92225-.2067625-1.1781-.6202875s-.4046-.9534875-.44625-1.6198875h-.205275c0 1.23165-.0119 2.0349-.0357 2.40975h.205275c.01785-.13685.04165-.2365125.0714-.2989875s.0714-.0937125.12495-.0937125c.0714 0 .17255.04165.30345.12495.18445.10115.38675.181475.6069.240975s.496825.08925.830025.08925z"/><path d="m13.753425 6.5688c.41055 0 .7839125-.06545 1.1200875-.19635s.6024375-.3257625.7987875-.5845875.294525-.5786375.294525-.9594375c0-.30345-.0639625-.5697125-.1918875-.7987875s-.2930375-.4298875-.4953375-.6024375-.478975-.37485-.830025-.6069l-.2856-.19635c-.3332-.22015-.580125-.3941875-.740775-.5221125s-.2856-.2692375-.37485-.4239375-.133875-.336175-.133875-.544425c0-.27965.0907375-.5012875.2722125-.6649125s.4179875-.2454375.7095375-.2454375c.2975 0 .5578125.0907375.7809375.2722125s.395675.4179875.51765.7095375.1948625.597975.2186625.919275h.205275c0-.95795.014875-1.63625.044625-2.0349h-.205275c-.01785.13685-.04165.2365125-.0714.2989875s-.0714.0937125-.12495.0937125c-.0357 0-.0788375-.0119-.1294125-.0357s-.1085875-.05355-.1740375-.08925c-.1904-.11305-.377825-.199325-.562275-.258825s-.431375-.08925-.740775-.08925c-.36295 0-.69615.0595-.9996.1785s-.5459125.3019625-.7273875.5488875-.2722125.5488875-.2722125.9058875c0 .3094.068425.5816125.205275.8166375s.312375.4388125.526575.6113625.4998.37485.8568.6069c.4641.2975.80325.56525 1.01745.80325s.3213.5236.3213.8568c0 .3213-.104125.568225-.312375.740775s-.473025.258825-.794325.258825c-.52955 0-.92225-.2067625-1.1781-.6202875s-.4046-.9534875-.44625-1.6198875h-.205275c0 1.23165-.0119 2.0349-.0357 2.40975h.205275c.01785-.13685.04165-.2365125.0714-.2989875s.0714-.0937125.12495-.0937125c.0714 0 .17255.04165.30345.12495.18445.10115.38675.181475.6069.240975s.496825.08925.830025.08925z"/></g><g transform="translate(6)"><path d="m4 6.56v-.18531073c-.12369259-.01235405-.21282401-.03706215-.26739427-.0741243s-.09185994-.10809793-.11186903-.21310734c-.0200091-.10500942-.03001364-.27487759-.03001364-.50960452v-4.59570622c0-.23472693.01000454-.4045951.03001364-.50960452.02000909-.10500941.05729877-.17604519.11186903-.21310734s.14370168-.06177025.26739427-.0741243v-.18531073c-.17826285.01853107-.45475216.02779661-.82946794.02779661l-.2106412-.00111186c-.26775807-.00296498-.4831287-.01185989-.64611187-.02668475v.18531073c.12005457.01235405.20827649.03706215.26466576.0741243s.09458845.10809793.11459754.21310734c.0200091.10500942.03001364.27487759.03001364.50960452v2.18666667h-1.44611186v-2.18666667c0-.23472693.01000454-.4045951.03001364-.50960452.02000909-.10500941.05729877-.17604519.11186903-.21310734s.14370168-.06177025.26739427-.0741243v-.18531073c-.19645293.01853107-.47112324.02779661-.82401091.02779661l-.22133698-.00111186c-.27881764-.00296498-.49244201-.01185989-.64087312-.02668475v.18531073c.12005457.01235405.20827649.03706215.26466576.0741243s.09458845.10809793.11459754.21310734c.0200091.10500942.03001364.27487759.03001364.50960452v4.59570622c0 .23472693-.01000454.4045951-.03001364.50960452-.02000909.10500941-.05820827.17604519-.11459754.21310734s-.14461119.06177025-.26466576.0741243v.18531073c.18553888-.01853107.47294225-.02779661.8622101-.02779661.35288767 0 .62755798.00926554.82401091.02779661v-.18531073c-.12369259-.01235405-.21282401-.03706215-.26739427-.0741243s-.09185994-.10809793-.11186903-.21310734c-.0200091-.10500942-.03001364-.27487759-.03001364-.50960452v-2.22372882h1.44611186v2.22372882c0 .23472693-.01000454.4045951-.03001364.50960452-.02000909.10500941-.05820827.17604519-.11459754.21310734s-.14461119.06177025-.26466576.0741243v.18531073c.20372897-.01853107.48931332-.02779661.85675307-.02779661.37471578 0 .65120509.00926554.82946794.02779661z"/><path d="m7.20907618 6.56v-.18531073c-.20313345-.00617703-.35116154-.02934087-.44408428-.06949153-.09292275-.04015066-.15775257-.11890772-.19448947-.23627119-.0367369-.11736346-.05510535-.30576271-.05510535-.56519774v-5.29062146h.14910859c.31118315 0 .55645597.15442561.73581848.46327683.17936251.30885123.32090762.84316384.42463533 1.60293785h.14910859c-.01296596-.17913371-.01944895-.41386064-.01944895-.70418079 0-.46327683.01512696-.98832391.04538088-1.57514124-.2917342.01389831-.73905997.02258475-1.34197731.02605932h-1.30996758c-.60372772-.00347457-1.05307942-.01216101-1.34805511-.02605932.03025392.58681733.04538088 1.11186441.04538088 1.57514124 0 .29032015-.00648299.52504708-.01944895.70418079h.14910859c.0734738-.51887005.16207455-.92809792.26580227-1.22768361.10372771-.29958569.22798487-.51423729.37277147-.6439548.1447866-.12971752.32090762-.19457627.52836305-.19457627h.14262561v5.29062146c0 .25943503-.01836845.44783428-.05510535.56519774-.0367369.11736347-.10156672.19612053-.19448947.23627119-.09292274.04015066-.24095083.0633145-.44408428.06949153v.18531073c.51863858-.01853107.91410049-.02779661 1.18638574-.02779661.27660724 0 .68719611.00926554 1.23176662.02779661z"/><path d="m10.3841676 6.56 1.4963136-5.82905501v4.83904091c0 .23439586-.0124176.40402444-.0372526.50888575-.0248351.10486131-.0714009.1757969-.1396974.21280677-.0682964.03700987-.1769499.06168312-.3259604.07401975v.18504936c.2110982-.01850493.5380934-.0277574.9809857-.0277574.4221963 0 .7471219.00925247.9747768.0277574v-.18504936c-.1365929-.01233663-.236968-.03700988-.3011253-.07401975s-.1076187-.10794546-.1303842-.21280677-.0341482-.27448989-.0341482-.50888575v-4.58922426c0-.23439587.0113827-.40402445.0341482-.50888576.0227655-.1048613.0651921-.1757969.1272798-.21280677s.1634976-.06168312.3042297-.07401974v-.18504937c-.2276549.01850494-.5525805.0277574-.9747768.0277574h-.4408227l-1.1424137 4.47819465-1.25417148-4.50595205c-.27318587.01850494-.60018109.0277574-.98098564.0277574-.2276549 0-.40770922-.00925246-.54016298-.0277574v.18504937c.13659294.01233662.23696805.03700987.30112534.07401974s.10761868.10794547.13038417.21280677c.02276549.10486131.03414823.27448989.03414823.50888576v4.16361072c0 .31458392-.01138274.55206394-.03414823.71244005-.02276549.16037612-.06622688.27757405-.13038417.3515938-.06415729.07401974-.1645324.1264504-.30112534.15729196v.18504936c.13245376-.01850493.31250808-.0277574.54016298-.0277574.28560342 0 .50911913.00925247.67054715.0277574v-.18504936c-.1862631-.03084156-.32078645-.0848143-.40357004-.1619182-.0827836-.0771039-.13659294-.20047014-.16142802-.37009873-.02483508-.16962858-.03725262-.43640809-.03725262-.8003385v-4.4319323l1.67636785 5.95858956z"/><path d="m16 6.56c-.0224224-.38297552-.0336336-.87096045-.0336336-1.4639548 0-.33355932.0048048-.6053484.0144144-.81536723h-.1105105c-.0480481.62387947-.1513514 1.12421845-.3099099 1.50101695-.1585586.37679849-.3467468.56519774-.5645646.56519774h-.2354354c-.0896897 0-.1545546-.01544257-.1945946-.04632769-.0400401-.03088512-.0680681-.09111111-.0840841-.18067796-.016016-.08956686-.024024-.23318268-.024024-.43084746v-4.70689266c0-.23472693.0096096-.4045951.0288288-.50960452.0192192-.10500941.0552552-.17604519.1081081-.21310734.0528528-.03706215.1369369-.06177025.2522522-.0741243v-.18531073c-.1761761.01853107-.4276276.02779661-.7543543.02779661l-.1948829-.00111186c-.2454935-.00296498-.4335856-.01185989-.5642763-.02668475v.18531073c.1057057.01235405.1833834.03706215.2330331.0741243.0496496.03706215.0832832.10809793.1009009.21310734.0176176.10500942.0264264.27487759.0264264.50960452v4.59570622c0 .23472693-.0088088.4045951-.0264264.50960452-.0176177.10500941-.0512513.17604519-.1009009.21310734-.0496497.03706215-.1273274.06177025-.2330331.0741243v.18531073c.345946-.01853107.8680681-.02779661 1.5663664-.02779661.5157157 0 .8824825.00926554 1.1003003.02779661z"/></g><path d="m6 23.31c.24706956 0 .44753281-.1021807.60138977-.3065421.15385695-.2043613.25436934-.4723018.30153716-.8038213.03818348-.2679405.05727522-.7220769.05727522-1.3624092v-2.9087435c0-.1725718.00617674-.2974593.01853021-.3746625.01235348-.0772032.03537587-.1294289.06906718-.1566771.0336913-.0272481.08872043-.0454136.16508738-.0544963v-.1362409c-.12353478.0136241-.30097564.0204361-.53232259.0204361l-.12923984-.0008174c-.16315575-.0021799-.28965537-.0087195-.37949884-.0196187v.1362409c.07412087.0090827.12858847.0272482.16340282.0544963.03481435.0272482.05839826.0794739.07075174.1566771.01235347.0772032.01853021.2020907.01853021.3746625v3.733001c0 .3723919-.01628413.6664452-.04885239.88216-.03256826.2157147-.07973608.3701211-.14150347.4632191-.06176739.0930979-.13981891.1487296-.23415456.1668951zm2.66161297-1.2329803c.14599565 0 .26953043-.0840152.37060434-.2520457l-.0336913-.1158047c-.04716783.0772031-.08759739.1158047-.1212887.1158047-.02919913 0-.04885239-.0227068-.05895978-.0681204-.01010739-.0454137-.01516108-.1226168-.01516108-.2316096v-1.8528764c0-.249775-.00842283-.4473243-.02526848-.592648-.01684565-.1453236-.04997544-.2679404-.09938935-.3678504-.05390608-.1089928-.12128869-.186196-.20214782-.2316096s-.17631782-.0681205-.28637608-.0681205c-.10556608 0-.20270934.0204362-.29142977.0613085-.08872043.0408722-.16340282.0976393-.22404717.1703011-.06289043.0772032-.10949674.1600831-.13981891.2486397s-.04548326.196414-.04548326.3235721c0 .149865.02133783.2747525.06401348.3746626.04267565.09991.10332.149865.18193304.149865.07412086 0 .1370113-.0454137.1886713-.136241.05165999-.0908272.07748999-.2134441.07748999-.3678504 0-.1226168-.01740717-.2293389-.05222152-.3201662-.03481434-.0908272-.08366673-.1589477-.14655717-.2043613.05615218-.1089928.13813435-.1634891.24594652-.1634891.09208956 0 .16003369.053361.20383238.160083.0437987.1067221.06569805.2554517.06569805.446189v.5313396c0 .1226168-.02863761.2191208-.08591283.2895119-.05727521.0703912-.14768021.1487297-.27121499.2350156-.11679652.0817446-.21281673.1589477-.28806064.2316096-.07524392.0726618-.13925739.1759778-.19204043.309948-.05278305.1339703-.07917457.3031361-.07917457.5074974 0 .2452337.03537587.442783.10612761.592648s.17800239.2247975.32175195.2247975c.21787043 0 .38295781-.1839252.49526216-.5517757.00224608.1680305.02807608.3020007.07748999.4019107.04941392.09991.13588826.149865.25942304.149865zm-.57275216-.4359709c-.06289043 0-.11342739-.0442783-.15161086-.1328349-.03818348-.0885566-.05727522-.2259328-.05727522-.4121287 0-.2134441.02246087-.3769332.06738261-.4904673s.1111813-.2270682.19877869-.3406023c.08759739-.1089928.1448726-.2089028.17182565-.29973v1.3964693c-.06513652.1861959-.14150348.2792939-.22910087.2792939zm1.94398819.4019107.4918931-2.8133749c.0336913-.1861959.0690671-.3235721.1061276-.4121287.0370604-.0885566.0791745-.146459.1263423-.1737072v-.1362409c-.0583982.0136241-.1448726.0204361-.259423.0204361-.1123043 0-.2201165-.006812-.3234365-.0204361v.1362409c.1639643.0272482.2459465.2066321.2459465.5381516 0 .1544064-.0179687.3383316-.0539061.5517757l-.2425774 1.3487851-.38408082-2.0640499c-.01123043-.0772032-.01684565-.1339702-.01684565-.1703011 0-.0908273.01628413-.146459.04885239-.1668951.03256826-.0204362.08703587-.0306543.16340282-.0306543v-.1430529c-.15048782.0227068-.29648347.0340602-.43798694.0340602-.16171826 0-.32119043-.0113534-.47841651-.0340602v.1430529c.0336913 0 .06682108.0249775.09938934.0749326.03256826.049955.064575.1521356.09602022.306542l.5997052 3.0109242c.02470695-.0045414.06064434-.006812.10781217-.006812.04941391 0 .08647438.0022706.11118128.006812zm2.0854917.0340602c.1459957 0 .2695304-.0840152.3706043-.2520457l-.0336913-.1158047c-.0471678.0772031-.0875974.1158047-.1212887.1158047-.0291991 0-.0488523-.0227068-.0589597-.0681204-.0101074-.0454137-.0151611-.1226168-.0151611-.2316096v-1.8528764c0-.249775-.0084228-.4473243-.0252685-.592648-.0168457-.1453236-.0499754-.2679404-.0993893-.3678504-.0539061-.1089928-.1212887-.186196-.2021479-.2316096-.0808591-.0454136-.1763178-.0681205-.286376-.0681205-.1055661 0-.2027094.0204362-.2914298.0613085-.0887205.0408722-.1634028.0976393-.2240472.1703011-.0628904.0772032-.1094967.1600831-.1398189.2486397s-.0454833.196414-.0454833.3235721c0 .149865.0213379.2747525.0640135.3746626.0426757.09991.10332.149865.1819331.149865.0741208 0 .1370113-.0454137.1886713-.136241.05166-.0908272.07749-.2134441.07749-.3678504 0-.1226168-.0174072-.2293389-.0522216-.3201662-.0348143-.0908272-.0836667-.1589477-.1465571-.2043613.0561521-.1089928.1381343-.1634891.2459465-.1634891.0920895 0 .1600337.053361.2038324.160083.0437987.1067221.065698.2554517.065698.446189v.5313396c0 .1226168-.0286376.2191208-.0859128.2895119-.0572752.0703912-.1476802.1487297-.271215.2350156-.1167965.0817446-.2128167.1589477-.2880607.2316096-.0752439.0726618-.1392573.1759778-.1920404.309948-.052783.1339703-.0791745.3031361-.0791745.5074974 0 .2452337.0353758.442783.1061276.592648.0707517.149865.1780023.2247975.3217519.2247975.2178704 0 .3829578-.1839252.4952622-.5517757.0022461.1680305.0280761.3020007.07749.4019107s.1358882.149865.259423.149865zm-.5727522-.4359709c-.0628904 0-.1134273-.0442783-.1516108-.1328349s-.0572752-.2259328-.0572752-.4121287c0-.2134441.0224608-.3769332.0673826-.4904673.0449217-.1135341.1111813-.2270682.1987787-.3406023.0875973-.1089928.1448726-.2089028.1718256-.29973v1.3964693c-.0651365.1861959-.1415035.2792939-.2291009.2792939zm1.9540956.4836552c.15498 0 .295922-.049955.4228259-.149865s.2274163-.2486396.3015372-.4461889c.0741208-.1975494.1111813-.4416477.1111813-.732295 0-.2316095-.0241455-.4348355-.0724363-.609678-.0482909-.1748426-.1106198-.3281136-.1869868-.4598131-.0763669-.1316996-.18081-.286106-.3133291-.4632191l-.1078122-.149865c-.1257808-.1680305-.2189934-.3008654-.2796378-.3985047-.0606443-.0976393-.1078121-.2054967-.1415035-.3235722-.0336913-.1180754-.0505369-.256587-.0505369-.4155348 0-.2134441.0342528-.3826099.1027585-.5074974.0685056-.1248875.1577876-.1873312.2678458-.1873312.1123044 0 .2105707.0692558.2947989.2077674.0842283.1385116.1493648.3190308.1954096.5415576s.0735593.4564071.0825437.7016407h.07749c0-.7311596.0056152-1.248875.0168456-1.5531464h-.07749c-.0067382.1044513-.0157226.1805192-.026953.2282035s-.026953.0715265-.0471678.0715265c-.0134765 0-.0297607-.0090827-.0488524-.0272482-.0190918-.0181654-.0409911-.0408723-.0656981-.0681205-.0718747-.0862859-.1426265-.1521356-.2122552-.1975493-.0696287-.0454136-.1628413-.0681204-.2796378-.0681204-.1370113 0-.2627922.0454136-.3773426.1362409s-.2060785.2304742-.2745841.4189408c-.0685057.1884666-.1027585.4189408-.1027585.6914226 0 .2361509.02583.4439183.07749.6233022s.1179196.3349256.1987787.4666251c.0808591.1316996.1886713.286106.3234365.4632191.1751948.2270682.3032217.4314296.3840809.6130842.0808591.1816545.1212887.39964.1212887.6539563 0 .2452337-.0393066.4337003-.1179196.5653998-.078613.1316996-.1785639.1975494-.2998526.1975494-.1999017 0-.3481435-.1578124-.4447252-.4734372s-.1527339-.7277536-.1684565-1.2363863h-.07749l-.0008423.6437383c-.0016846.5824299-.005896.9809346-.0126342 1.195514h.07749c.0067382-.1044513.0157226-.1805192.026953-.2282035s.026953-.0715265.0471678-.0715265c.0269531 0 .0651365.0317896.1145505.0953687.0696287.0772031.1459956.1385116.2291008.1839252s.1875483.0681204.3133291.0681204zm1.8799748 0c.1774408 0 .3223134-.1055867.4346178-.3167601.1123043-.2111734.1909174-.4643544.2358391-.7595431l-.0572752-.0408722c-.0628904.2043613-.1330807.3474143-.2105706.4291588-.07749.0817446-.1544185.1226169-.2307855.1226169-.1280269 0-.2347161-.1067221-.3200674-.3201662s-.1280269-.5631291-.1280269-1.049055c0-.4813846.0376219-.8708065.1128659-1.1682659.0752439-.2974593.1802484-.446189.3150136-.446189.0426757 0 .0825437.0147595.1196042.0442783.0370604.0295189.064575.0692558.0825437.1192108-.0628905.036331-.1156735.1044514-.1583492.2043614-.0426756.09991-.0640134.2179855-.0640134.3542264 0 .1544064.0235839.2770232.0707517.3678505.0471678.0908272.1100583.1362409.1886713.1362409s.1426265-.0510904.1920404-.1532711c.0494139-.1021806.0741209-.2327449.0741209-.3916926 0-.1316995-.0162841-.253181-.0488524-.3644444s-.0780515-.2032261-.1364498-.2758879c-.0494139-.0635791-.1111813-.1135341-.1853021-.149865-.0741209-.0363309-.152734-.0544964-.2358392-.0544964-.1617182 0-.3054678.0715265-.4312487.2145795-.1257808.1430529-.2246086.3553617-.2964834.6369263-.0718748.2815645-.1078122.6221668-.1078122 1.0218068 0 .6085428.0729978 1.0672205.2189935 1.3760332.1459956.3088128.3346669.4632191.5660139.4632191zm.8827121-.0970716.0303222-.005109c.2156243-.0136241.3537587-.0204362.414403-.0204362.076367 0 .2291009.0068121.4582018.0204362.0202147.0045413.0460447.006812.07749.006812v-.1430529c-.1100583 0-.1903559-.0408723-.2408929-.1226169-.0505369-.0817445-.0758054-.2270682-.0758054-.4359709v-1.8051921c0-.1907373.0297607-.3769332.089282-.5585878.0595213-.1816545.1319576-.2861059.2173089-.3133541.0134765-.0090827.0314452-.013624.053906-.013624.0179687 0 .0314453.0022706.0404296.006812-.0988278.1362409-.1482417.3133541-.1482417.5313396 0 .1316995.0224608.2372862.0673826.3167601.0449217.0794739.1055661.1192108.181933.1192108.0786131 0 .142065-.053361.1903559-.1600831.0482909-.106722.0724363-.2440983.0724363-.4121287 0-.1725719-.02583-.3201662-.07749-.442783s-.128027-.1839253-.2291009-.1839253-.1920404.0601731-.2728995.1805193c-.0808592.1203461-.1426265.2781585-.1853022.4734371v-.6335202c-.1280269.0635791-.2919913.0953686-.491893.0953686-.0673826 0-.1370113-.006812-.2088861-.0204361v.1430529c.0808591 0 .1370113.0476844.1684565.143053s.0471678.2475043.0471678.4564071v2.1457944c0 .1861959-.0157226.3144894-.0471678.3848805-.0314452.0703912-.0875974.1055868-.1684565.1055868v.1430529c.026953 0 .0494139-.0022707.0673826-.006812zm1.9743104-4.2285774c.0943357 0 .169018-.0465489.2240472-.1396469.0550291-.093098.0825437-.2213915.0825437-.3848806s-.0275146-.2917826-.0825437-.3848806c-.0550292-.0930979-.1297115-.1396469-.2240472-.1396469-.0943356 0-.169018.046549-.2240472.1396469-.0550291.093098-.0825437.2213915-.0825437.3848806s.0275146.2917826.0825437.3848806c.0550292.093098.1297116.1396469.2240472.1396469zm.4784165 4.2302804v-.1430529c-.078613 0-.1342037-.0351956-.1667719-.1055868-.0325683-.0703911-.0488524-.1986846-.0488524-.3848805v-2.9632399c-.128027.0635791-.2919913.0953686-.4918931.0953686-.0673826 0-.1370113-.006812-.208886-.0204361v.1430529c.0808591 0 .1370113.0476844.1684565.143053s.0471678.2475043.0471678.4564071v2.1457944c0 .1861959-.0157226.3144894-.0471678.3848805-.0314452.0703912-.0875974.1055868-.1684565.1055868v.1430529c.2425773-.0181654.3986804-.0272482.4683091-.0272482.0741208 0 .2234856.0090828.4480943.0272482zm1.1353969 1.2329803v-.143053c-.10332 0-.1796869-.0386016-.2291008-.1158048-.0494139-.0772031-.0741209-.2157147-.0741209-.4155347v-.6812046c.0426757.0726618.0937741.1271582.1532954.1634891s.1229733.0544963.1903559.0544963c.2403313 0 .4306872-.1737071.5710676-.5211214.1403804-.3474144.2105706-.8458291.2105706-1.4952441 0-.3678504-.02583-.6789339-.07749-.9332502-.05166-.2543164-.1229732-.4450537-.2139397-.5722119s-.1948481-.1907373-.3116446-.1907373c-.1212887 0-.2268548.0556318-.3166982.1668952-.0898435.1112634-.1583492.2713465-.205517.4802492v-.6267082c-.1325191.0635791-.2964835.0953686-.491893.0953686-.0673826 0-.1370113-.006812-.2088861-.0204361v.1430529c.078613 0 .1342037.0476844.166772.143053.0325682.0953686.0488523.2475043.0488523.4564071v3.4060228c0 .1771132-.015161.2985947-.0454832.3644445-.0303222.0658497-.0825437.0987746-.1566646.0987746v.143053c.2156244-.0181655.3571278-.0272482.4245104-.0272482.0673827 0 .2257318.006812.4750474.0204361zm-.0909665-1.3215369c-.0875974 0-.1583491-.0613084-.2122552-.1839252v-2.4591485c.0202148-.1861959.0600828-.3315196.1196041-.4359709.0595213-.1044514.1274655-.1566771.2038324-.1566771.0943357 0 .166772.1180755.2173089.3542264.050537.2361509.0758055.6312496.0758055 1.1852959 0 .5540464-.0314453.9752579-.0943357 1.2636345s-.1662104.4325649-.30996.4325649zm1.7789008.1839252c.2223626 0 .3762196-.2338802.4615709-.7016407l-.0572752-.0613084c-.0561522.2724819-.1325191.4087228-.2291009.4087228-.05166 0-.0892819-.0283835-.1128658-.0851506-.023584-.056767-.0353759-.153271-.0353759-.2895119v-2.7520665h.3975574v-.1362409h-.3975574v-1.1171755c-.1370113.1453236-.2987296.2179855-.4851548.2179855v.89919h-.2830069v.1362409h.2830069v2.3024714c0 .2497751.0084228.446189.0252685.589242.0168456.143053.0488524.2622638.0960202.3576324.076367.1544064.1886713.2316095.336913.2316095z"/></g></g></svg>