<?xml version="1.0" standalone="no"?><!DOCTYPE svg PUBLIC "-//W3C//DTD SVG 1.1//EN" "http://www.w3.org/Graphics/SVG/1.1/DTD/svg11.dtd"><svg height="1000" viewBox="0 0 1000 1000" width="1000" xmlns="http://www.w3.org/2000/svg"><g fill="none" fill-rule="evenodd"><path d="m327.786797 84.7867966 257.79246 257.7924604c8.982058 8.982058 8.982058 23.544853 0 32.526911l-104.023341 104.023341c-11.715729 11.715729-11.715729 30.710678 0 42.426407l104.023341 104.023341c8.982058 8.982058 8.982058 23.544853 0 32.526911l-257.749843 257.749843c-5.651288 5.651288-13.323936 8.814011-21.316017 8.786621l-157.61621-.540171c-16.528309-.056644-29.897187-13.471418-29.897187-29.999823v-788.102638c0-16.5685425 13.431458-30 30-30h157.573593c7.956495 0 15.587112 3.1607052 21.213204 8.7867966z" fill="#e01258" opacity=".896456"/><path d="m872.166041 666.73981-124.197865 124.197864c-.01637.01637-.032758.032721-.049166.049053l-125.117367 124.539403c-11.726691 11.672521-30.689855 11.647041-42.385137-.056951l-218.515045-218.677808c-11.711366-11.72009-11.704294-30.715038.015795-42.426404 5.634981-5.630787 13.278101-8.789203 21.244196-8.778876l146.764105.190261c16.568529.021479 30.017387-13.392555 30.038866-29.961084.010349-7.982534-3.161102-15.640041-8.81243-21.277722l-219.339536-218.809874c-11.703793-11.67553-11.756497-30.618968-.117852-42.359441l124.161815-125.248117c.061528-.062066.123326-.123862.185393-.185388l124.326045-123.240722c11.730517-11.6281137 30.653778-11.5866345 42.333206.092793l218.606691 218.606691c11.715729 11.715729 11.715729 30.710678 0 42.426407-5.626091 5.626092-13.256709 8.786797-21.213203 8.786797h-145.920577c-16.568542 0-30 13.431457-30 30 0 7.973403 3.174116 15.618806 8.821326 21.247676l219.136211 218.424562c11.734767 11.696658 11.765661 30.691583.069002 42.42635-.011482.01152-.022973.023029-.034473.03453z" fill="#12e09f"/></g></svg>
