<svg height="1400" viewBox="0 0 1400 1400" width="1400" xmlns="http://www.w3.org/2000/svg"><g fill="none" fill-rule="evenodd"><g fill-rule="nonzero"><path d="m527.786797 284.786797 257.79246 257.79246c8.982058 8.982058 8.982058 23.544853 0 32.526911l-104.023341 104.023341c-11.715729 11.715729-11.715729 30.710678 0 42.426407l104.023341 104.023341c8.982058 8.982058 8.982058 23.544853 0 32.526911l-257.749843 257.749842c-5.651288 5.65129-13.323936 8.81401-21.316017 8.7868l-157.61621-.54035c-16.528309-.05664-29.897187-13.47142-29.897187-29.99982v-788.10264c0-16.568543 13.431458-30 30-30h157.573593c7.956495 0 15.587112 3.160705 21.213204 8.786797z" fill="#e01258" opacity=".896"/><path d="m1072.16604 866.73981-124.197864 124.197864c-.01637.01637-.032758.032721-.049166.049053l-125.117367 124.539403c-11.726691 11.67252-30.689855 11.64704-42.385137-.05695l-218.515045-218.677809c-11.711366-11.72009-11.704294-30.715038.015795-42.426404 5.634981-5.630787 13.278101-8.789203 21.244196-8.778876l146.764105.190261c16.568529.021479 30.017387-13.392555 30.038866-29.961084.010349-7.982534-3.161102-15.640041-8.81243-21.277722l-219.339536-218.809874c-11.703793-11.67553-11.756497-30.618968-.117852-42.359441l124.161815-125.248117c.061528-.062066.123326-.123862.185393-.185388l124.326045-123.240722c11.730517-11.628114 30.653778-11.586635 42.333206.092793l218.606696 218.606691c11.71572 11.715729 11.71572 30.710678 0 42.426407-5.6261 5.626092-13.25671 8.786797-21.21321 8.786797h-145.920575c-16.568542 0-30 13.431457-30 30 0 7.973403 3.174116 15.618806 8.821326 21.247676l219.136209 218.424562c11.73477 11.696658 11.76566 30.691583.069 42.42635-.01148.01152-.02297.023029-.03447.03453z" fill="#12e09f"/></g></g></svg>
