<svg height="1068" viewBox="0 0 1068 1068" width="1068" xmlns="http://www.w3.org/2000/svg" xmlns:xlink="http://www.w3.org/1999/xlink"><linearGradient id="a" x1="0%" x2="100%" y1="50%" y2="50%"><stop offset="0" stop-color="#e62e5c"/><stop offset="1" stop-color="#b32447"/></linearGradient><linearGradient id="b" x1="100%" x2="0%" y1="50%" y2="50%"><stop offset="0" stop-color="#0eb37f"/><stop offset="1" stop-color="#0b865f"/></linearGradient><g fill="none" fill-rule="nonzero"><path d="m339.978407 234-2.480525.020096c-81.698618 1.324618-147.519475 67.965619-147.519475 149.979904l-.000407 58.502-1.828594.657979c-57.290912 21.105215-98.149406 76.179518-98.149406 140.796834v100.448244l.0199678 2.059193c1.3264864 81.813824 68.0590292 147.53575 149.9800322 147.53575h100.48528l2.059193-.019968 2.449538-.059366c80.672153-2.60329 145.086212-68.818873 145.086212-149.920666l-.000223-58.503 1.852512-.665546c57.279311-21.111734 98.126118-76.180534 98.126118-140.788267v-100.043187c0-82.842712-67.157288-150-150-150zm100.080223 50c55.228475 0 100 44.771525 100 100v100.043187c0 55.221129-44.759616 99.988089-99.977963 99.999997l-.000444 99.956816c0 54.67619-43.880571 99.103524-98.346317 99.986603l-1.653683.013397h-100.080223c-54.67619 0-99.103524-43.880572-99.986603-98.346317l-.013397-1.653683v-100.043187c0-54.67619 43.880572-99.103524 98.346317-99.986603l1.631683-.01421.000407-99.956c0-55.228475 44.771525-100 100-100z" fill="#f36"/><path d="m440.05863 284c55.228475 0 100 44.771525 100 100v100.043187c0 55.221129-44.759616 99.988089-99.977963 99.999997l-.000444 99.956816c0 54.67619-43.880571 99.103524-98.346317 99.986603l-1.653683.013397h-100.080223c-54.67619 0-99.103524-43.880572-99.986603-98.346317l-.013397-1.653683v-100.043187c0-54.67619 43.880572-99.103524 98.346317-99.986603l1.631683-.01421.000407-99.956c0-55.228475 44.771525-100 100-100zm.826841 50.006699-.826841-.006699h-100.080223c-27.338096 0-49.551762 21.940286-49.993302 49.173356l-.006698.826847-.001407 98.380797.022206 1.017855c.198295 24.691753-15.968328 49.563035-48.054911 50.528886l-1.944295.029072c-27.338095 0-49.551762 21.940286-49.993301 49.173159l-.006699.826841v99.891187l.009 1.104.017604.706872c.858676 26.594672 22.499241 47.906738 49.155828 48.334571l.817568.006557h99.802l1.23-.01.707095-.016604c26.594672-.858676 47.906738-22.499243 48.334572-49.156043l.006556-.817575.000444-99.956816c.000122-27.33384 21.933933-49.545622 49.162506-49.992902l.826712-.006874c27.33324-.005895 49.540634-21.944468 49.982048-49.173281l.006697-.826718v-100.043187c0-27.338095-21.940286-49.551762-49.173159-49.993301z" fill="#b32447" stroke="#b32447"/><path d="m747.851986 234c-86.933255 0-157.493806 70.288542-157.851562 157.194895v249.708357l.025372 2.778575c1.711093 105.535271 87.797717 190.318173 193.476009 190.318173 106.868096 0 193.501805-86.633709 193.501805-193.501805l-.025924-3.199906c-1.121922-69.1969-38.566049-129.564233-94.097467-162.867088l-.362219-.214201.41553-.674994c14.493956-23.940822 22.770441-51.955285 22.770441-81.69002 0-86.307452-69.266354-156.436881-155.241614-157.830838zm0 50c59.565006 0 107.851985 48.286979 107.851985 107.851986 0 52.706421-37.807216 96.582494-87.781309 105.987879 5.115871-.559962 10.314398-.843475 15.579143-.843475 79.253859 0 143.501805 64.247946 143.501805 143.501805 0 79.253858-64.247946 143.501805-143.501805 143.501805-78.46132 0-142.215345-62.969412-143.48258-141.12874l-.019225-2.373065v-249.097473c.244351-59.357713 48.437645-107.400722 107.851986-107.400722z" fill="#12e09f"/><path d="m747.851986 284c59.565006 0 107.851985 48.286979 107.851985 107.851986 0 52.706421-37.807216 96.582494-87.781309 105.987879 5.115871-.559962 10.314398-.843475 15.579143-.843475 79.253859 0 143.501805 64.247946 143.501805 143.501805 0 79.253858-64.247946 143.501805-143.501805 143.501805-78.46132 0-142.215345-62.969412-143.48258-141.12874l-.019225-2.373065v-249.097473c.244351-59.357713 48.437645-107.400722 107.851986-107.400722zm0 50c-31.541193 0-57.203488 25.249171-57.840778 56.653052l-.011208.873948v248.816l.015 1.825.034647 1.418679c1.605964 49.748933 42.072207 89.601043 91.923207 90.40106l1.528951.012261c51.639621 0 93.501805-41.862184 93.501805-93.501805s-41.862184-93.501805-93.501805-93.501805c-3.438409 0-6.821091.183478-10.138844.546625-63.767089 6.979679-77.729353-86.975797-14.688199-98.840471 27.062294-5.093265 47.029209-28.919653 47.029209-56.850558 0-31.631262-25.385782-57.333357-56.895297-57.844235z" fill="#0b865f" stroke="#0b865f"/><path d="m336.55 177.4c5 0 9.566667-.733333 13.7-2.2s7.416667-3.683333 9.85-6.65 3.65-6.616667 3.65-10.95c0-3.4-.683333-6.4-2.05-9s-3.15-4.883333-5.35-6.85-5.133333-4.216667-8.8-6.75c-.333333-.266667-.683333-.533333-1.05-.8s-.75-.5-1.15-.7c-4.4-3.066667-7.566667-5.383333-9.5-6.95s-3.4-3.183333-4.4-4.85-1.5-3.633333-1.5-5.9c0-2.933333.933333-5.216667 2.8-6.85s4.333333-2.45 7.4-2.45c3.333333 0 6.266667 1.1 8.8 3.3s4.533333 5.033333 6 8.5 2.333333 7.1 2.6 10.9h2.3c0-11.466667.166667-19.6.5-24.4h-2.3c-.2 1.533333-.466667 2.65-.8 3.35s-.8 1.05-1.4 1.05c-.4 0-.883333-.133333-1.45-.4s-1.216667-.6-1.95-1c-2.266667-1.266667-4.583333-2.25-6.95-2.95s-5.45-1.05-9.25-1.05c-4.466667 0-8.583333.683333-12.35 2.05s-6.783333 3.466667-9.05 6.3-3.4 6.35-3.4 10.55c0 3.466667.766667 6.516667 2.3 9.15s3.5 4.95 5.9 6.95 5.6 4.333333 9.6 7c5 3.333333 8.683333 6.35 11.05 9.05s3.55 5.95 3.55 9.75c0 3.066667-1.083333 5.466667-3.25 7.2s-5.083333 2.6-8.75 2.6c-5.933333 0-10.333333-2.466667-13.2-7.4s-4.533333-11.366667-5-19.3h-2.3c0 14.8-.133333 24.466667-.4 29h2.3c.2-1.533333.466667-2.65.8-3.35s.8-1.05 1.4-1.05c.8 0 1.933333.466667 3.4 1.4 2.333333 1.133333 4.85 2.033333 7.55 2.7s6.083333 1 10.15 1zm51.9-62.4c3.466667 0 6.15-.733333 8.05-2.2s2.85-3.6 2.85-6.4-.95-4.933333-2.85-6.4c-1.9-1.4666667-4.583333-2.2-8.05-2.2-3.533333 0-6.233333.7333333-8.1 2.2-1.866667 1.466667-2.8 3.6-2.8 6.4s.933333 4.933333 2.8 6.4 4.566667 2.2 8.1 2.2zm15.2 61v-2.1c-2.066667 0-3.516667-.516667-4.35-1.55s-1.25-2.916667-1.25-5.65v-43.7c-4.666667.933333-10.466667 1.4-17.4 1.4-2 0-4.066667-.1-6.2-.3v2.1c2.066667 0 3.516667.7 4.35 2.1s1.25 3.633333 1.25 6.7v31.7c0 2.733333-.416667 4.616667-1.25 5.65s-2.283333 1.55-4.35 1.55v2.1c7.733333-.266667 12.733333-.4 15-.4s7 .133333 14.2.4zm37.7 0v-2.1c-2.066667 0-3.516667-.516667-4.35-1.55s-1.25-2.916667-1.25-5.65v-68.9c-4.666667.9333333-10.466667 1.4-17.4 1.4-2.066667 0-4.133333-.1-6.2-.3v2.1c2.066667 0 3.516667.7 4.35 2.1s1.25 3.633333 1.25 6.7v56.9c0 2.733333-.416667 4.616667-1.25 5.65s-2.283333 1.55-4.35 1.55v2.1c7.733333-.266667 12.733333-.4 15-.4s7 .133333 14.2.4zm38.3 0 13.5-40.1c1-3.066667 2.083333-5.333333 3.25-6.8s2.45-2.433333 3.85-2.9v-2.1c-1.333333.266667-3.9.4-7.7.4l-.585444-.000756c-4.250284-.01109-7.555136-.144172-9.914556-.399244v2.1c2.2.133333 3.966667 1.066667 5.3 2.8s2 4.166667 2 7.3c0 2.933333-.633333 6.333333-1.9 10.2l-4.6 13.8-10.9-30.3c-.133333-.666667-.2-1.1-.2-1.3 0-1.133333.45-1.833333 1.35-2.1s2.383333-.4 4.45-.4v-2.1c-5.333333.4-9.666667.6-13 .6-6.6 0-12.533333-.2-17.8-.6v2.1c2.4 0 4.333333 1.866667 5.8 5.6l17.4 44.2c1.066667-.133333 2.7-.2 4.9-.2 2.133333 0 3.733333.066667 4.8.2zm49.8 1.4c5.466667 0 9.95-1.666667 13.45-5s5.983333-7.333333 7.45-12l-1.7-.6c-3.2 4.466667-7.233333 6.7-12.1 6.7-3.2 0-5.916667-1.366667-8.15-4.1s-3.35-7.3-3.35-13.7c0-1.6.033333-2.8.1-3.6h25.8c0-14.933333-6.3-22.4-18.9-22.4-7.733333 0-13.95 2.283333-18.65 6.85s-7.05 11.416667-7.05 20.55c0 9.533333 2.1 16.466667 6.3 20.8s9.8 6.5 16.8 6.5zm6.9-34.2h-11.6c.666667-12.133333 2.866667-18.2 6.6-18.2 1.733333 0 3.016667 1.7 3.85 5.1s1.216667 7.766667 1.15 13.1zm46.2 34.2c3.666667 0 7.05-.65 10.15-1.95s5.55-3.133333 7.35-5.5 2.7-5.016667 2.7-7.95c0-3.466667-.866667-6.383333-2.6-8.75s-4.466667-5.083333-8.2-8.15c-1.8-1.466667-2.766667-2.233333-2.9-2.3-3.133333-2.466667-5.433333-4.55-6.9-6.25s-2.2-3.65-2.2-5.85c0-1.733333.566667-3.1 1.7-4.1s2.533333-1.5 4.2-1.5c3.733333 0 6.583333 1.516667 8.55 4.55s3.216667 6.75 3.75 11.15h2c0-8.533333.133333-14.533333.4-18h-2c-.266667 2.133333-1.1 3.2-2.5 3.2-.466667 0-1.066667-.2-1.8-.6-1.2-.666667-2.95-1.283333-5.25-1.85s-4.75-.85-7.35-.85c-3.333333 0-6.433333.583333-9.3 1.75s-5.166667 2.85-6.9 5.05-2.6 4.733333-2.6 7.6c0 2.466667.516667 4.716667 1.55 6.75s2.283333 3.816667 3.75 5.35 3.6 3.6 6.4 6.2c2.466667 2.2 4.25 3.883333 5.35 5.05s2.033333 2.483333 2.8 3.95 1.15 3.133333 1.15 5c0 1.8-.55 3.166667-1.65 4.1s-2.483333 1.4-4.15 1.4c-3.533333 0-6.466667-1.666667-8.8-5s-3.8-7.733333-4.4-13.2h-2c0 9.533333-.133333 16.2-.4 20h2c.6-2.333333 1.533333-3.5 2.8-3.5.733333 0 1.466667.133333 2.2.4s1.666667.7 2.8 1.3c2.666667 1.666667 6.1 2.5 10.3 2.5zm49.1 0c6.4 0 11.133333-2.633333 14.2-7.9l-1.5-1.2c-.8 1-1.7 1.733333-2.7 2.2s-1.9.7-2.7.7c-1.066667 0-1.833333-.266667-2.3-.8s-.7-1.466667-.7-2.8v-41.5h9.8v-2h-9.8v-16.2c-2.6 1.533333-5.35 2.65-8.25 3.35s-6.15 1.05-9.75 1.05v11.8h-7.6v2h7.6v34c0 3.733333.216667 6.633333.65 8.7s1.35 3.8 2.75 5.2c2.266667 2.266667 5.7 3.4 10.3 3.4zm59.2-.7c5.333333 0 9.433333-1.233333 12.3-3.7l-1-1.7c-.466667.4-.966667.75-1.5 1.05s-1.033333.45-1.5.45c-.6 0-1.016667-.3-1.25-.9s-.35-1.733333-.35-3.4v-26.8c0-3.733333-.216667-6.65-.65-8.75s-1.316667-3.85-2.65-5.25c-1.866667-1.933333-4.133333-3.25-6.8-3.95s-5.833333-1.05-9.5-1.05c-6.933333 0-12.266667 1.066667-16 3.2-2.133333 1.2-3.7 2.533333-4.7 4s-1.5 3.2-1.5 5.2c0 2.533333.75 4.616667 2.25 6.25s3.55 2.45 6.15 2.45 4.816667-.783333 6.65-2.35 2.75-3.65 2.75-6.25c0-1.933333-.55-3.683333-1.65-5.25s-2.783333-2.75-5.05-3.55c1.666667-1.133333 3.533333-1.7 5.6-1.7 2.6 0 4.433333.833333 5.5 2.5s1.6 3.566667 1.6 5.7v8.9c0 1.8-.833333 3.2-2.5 4.2s-4.3 2.1-7.9 3.3c-3.4 1.133333-6.166667 2.233333-8.3 3.3s-3.983333 2.583333-5.55 4.55-2.35 4.45-2.35 7.45c0 3.466667 1.083333 6.35 3.25 8.65s5.383333 3.45 9.65 3.45c6.2 0 10.866667-2.533333 14-7.6.133333 2.333333 1 4.183333 2.6 5.55s4.4 2.05 8.4 2.05zm-15-8c-3.4 0-5.1-2.4-5.1-7.2 0-2.8.466667-5.016667 1.4-6.65s2.3-3.316667 4.1-5.05c1.6-1.6 2.7-2.9 3.3-3.9v21.1c-1.066667 1.133333-2.3 1.7-3.7 1.7zm67.3 7.3v-2.1c-3.133333 0-5.35-.583333-6.65-1.75s-1.95-3.316667-1.95-6.45v-30c0-1.933333.566667-3.716667 1.7-5.35s2.533333-2.816667 4.2-3.55c.933333-.466667 2-.7 3.2-.7-3.4 2.266667-5.1 5.366667-5.1 9.3 0 2.2.766667 3.95 2.3 5.25s3.733333 1.95 6.6 1.95c2.733333 0 4.95-.883333 6.65-2.65s2.55-4.15 2.55-7.15c0-2.733333-.716667-5.1-2.15-7.1s-3.783333-3-7.05-3c-6.066667 0-10.366667 2.5-12.9 7.5v-7.2c-4.666667.933333-10.466667 1.4-17.4 1.4-2 0-4.066667-.1-6.2-.3v2.1c2.066667 0 3.516667.7 4.35 2.1s1.25 3.633333 1.25 6.7v31.7c0 2.733333-.416667 4.616667-1.25 5.65s-2.283333 1.55-4.35 1.55v2.1c.866667 0 1.566667-.033333 2.1-.1 7.2-.2 11.833333-.3 13.9-.3 2.333333 0 7 .1 14 .3.6.066667 1.333333.1 2.2.1z" fill="url(#a)"/><path d="m338.4 976c9.6 0 17-1.6 22.2-4.8s7.8-8.066667 7.8-14.6c0-2.866667-.966667-5.583333-2.9-8.15s-5.016667-4.716667-9.25-6.45-9.616667-2.766667-16.15-3.1v-.2c5-.6 9.233333-1.833333 12.7-3.7s6.066667-4.05 7.8-6.55 2.6-4.983333 2.6-7.45c0-4.8-2.316667-8.616667-6.95-11.45s-11.35-4.25-20.15-4.25c-1.733333 0-3.266667.033333-4.6.1l-11.5.1c-7.666667 0-13.4-.1-17.2-.3v2c2.133333.133333 3.666667.4 4.6.8s1.583333 1.166667 1.95 2.3.55 2.966667.55 5.5v49.6c0 2.533333-.166667 4.366667-.5 5.5s-.983333 1.9-1.95 2.3-2.516667.666667-4.65.8v2c3.8-.2 9.6-.3 17.4-.3 4.333333 0 8.766667.066667 13.3.2 1.333333.066667 2.966667.1 4.9.1zm-5.5-37.6h-2.7v-22.6c0-2.4.133333-4.2.4-5.4s.783333-2.033333 1.55-2.5 1.916667-.7 3.45-.7c2.466667 0 4.25 1.216667 5.35 3.65s1.65 6.183333 1.65 11.25c0 4.933333-.716667 8.883333-2.15 11.85s-3.95 4.45-7.55 4.45zm3.8 35.3c-1.866667 0-3.25-.216667-4.15-.65s-1.516667-1.216667-1.85-2.35-.5-2.9-.5-5.3v-25.3h1.4c5.466667 0 9.466667 1.366667 12 4.1s3.8 6.733333 3.8 12c0 11.666667-3.566667 17.5-10.7 17.5zm54.8-58.7c3.466667 0 6.15-.733333 8.05-2.2s2.85-3.6 2.85-6.4-.95-4.933333-2.85-6.4-4.583333-2.2-8.05-2.2c-3.533333 0-6.233333.733333-8.1 2.2s-2.8 3.6-2.8 6.4.933333 4.933333 2.8 6.4 4.566667 2.2 8.1 2.2zm15.2 61v-2.1c-2.066667 0-3.516667-.516667-4.35-1.55s-1.25-2.916667-1.25-5.65v-43.7c-4.666667.933333-10.466667 1.4-17.4 1.4-2 0-4.066667-.1-6.2-.3v2.1c2.066667 0 3.516667.7 4.35 2.1s1.25 3.633333 1.25 6.7v31.7c0 2.733333-.416667 4.616667-1.25 5.65s-2.283333 1.55-4.35 1.55v2.1c7.733333-.266667 12.733333-.4 15-.4s7 .133333 14.2.4zm30.7 1.4c3.666667 0 7.05-.65 10.15-1.95s5.55-3.133333 7.35-5.5 2.7-5.016667 2.7-7.95c0-3.466667-.866667-6.383333-2.6-8.75s-4.466667-5.083333-8.2-8.15c-1.8-1.466667-2.766667-2.233333-2.9-2.3-3.133333-2.466667-5.433333-4.55-6.9-6.25s-2.2-3.65-2.2-5.85c0-1.733333.566667-3.1 1.7-4.1s2.533333-1.5 4.2-1.5c3.733333 0 6.583333 1.516667 8.55 4.55s3.216667 6.75 3.75 11.15h2c0-8.533333.133333-14.533333.4-18h-2c-.266667 2.133333-1.1 3.2-2.5 3.2-.466667 0-1.066667-.2-1.8-.6-1.2-.666667-2.95-1.283333-5.25-1.85s-4.75-.85-7.35-.85c-3.333333 0-6.433333.583333-9.3 1.75s-5.166667 2.85-6.9 5.05-2.6 4.733333-2.6 7.6c0 2.466667.516667 4.716667 1.55 6.75s2.283333 3.816667 3.75 5.35 3.6 3.6 6.4 6.2c2.466667 2.2 4.25 3.883333 5.35 5.05s2.033333 2.483333 2.8 3.95 1.15 3.133333 1.15 5c0 1.8-.55 3.166667-1.65 4.1s-2.483333 1.4-4.15 1.4c-3.533333 0-6.466667-1.666667-8.8-5s-3.8-7.733333-4.4-13.2h-2c0 9.533333-.133333 16.2-.4 20h2c.6-2.333333 1.533333-3.5 2.8-3.5.733333 0 1.466667.133333 2.2.4s1.666667.7 2.8 1.3c2.666667 1.666667 6.1 2.5 10.3 2.5zm49.1 0c6.4 0 11.133333-2.633333 14.2-7.9l-1.5-1.2c-.8 1-1.7 1.733333-2.7 2.2s-1.9.7-2.7.7c-1.066667 0-1.833333-.266667-2.3-.8s-.7-1.466667-.7-2.8v-41.5h9.8v-2h-9.8v-16.2c-2.6 1.533333-5.35 2.65-8.25 3.35s-6.15 1.05-9.75 1.05v11.8h-7.6v2h7.6v34c0 3.733333.216667 6.633333.65 8.7s1.35 3.8 2.75 5.2c2.266667 2.266667 5.7 3.4 10.3 3.4zm53.4-1.4v-2.1c-3.133333 0-5.35-.583333-6.65-1.75s-1.95-3.316667-1.95-6.45v-30c0-1.933333.566667-3.716667 1.7-5.35s2.533333-2.816667 4.2-3.55c.933333-.466667 2-.7 3.2-.7-3.4 2.266667-5.1 5.366667-5.1 9.3 0 2.2.766667 3.95 2.3 5.25s3.733333 1.95 6.6 1.95c2.733333 0 4.95-.883333 6.65-2.65s2.55-4.15 2.55-7.15c0-2.733333-.716667-5.1-2.15-7.1s-3.783333-3-7.05-3c-6.066667 0-10.366667 2.5-12.9 7.5v-7.2c-4.666667.933333-10.466667 1.4-17.4 1.4-2 0-4.066667-.1-6.2-.3v2.1c2.066667 0 3.516667.7 4.35 2.1s1.25 3.633333 1.25 6.7v31.7c0 2.733333-.416667 4.616667-1.25 5.65s-2.283333 1.55-4.35 1.55v2.1c.866667 0 1.566667-.033333 2.1-.1 7.2-.2 11.833333-.3 13.9-.3 2.333333 0 7 .1 14 .3.6.066667 1.333333.1 2.2.1zm46.6 1.4c8.2 0 14.533333-2.133333 19-6.4s6.7-11.233333 6.7-20.9-2.233333-16.65-6.7-20.95-10.8-6.45-19-6.45-14.533333 2.15-19 6.45-6.7 11.283333-6.7 20.95 2.233333 16.633333 6.7 20.9 10.8 6.4 19 6.4zm0-2c-2.133333 0-3.833333-2.083333-5.1-6.25s-1.9-10.516667-1.9-19.05.633333-14.9 1.9-19.1 2.966667-6.3 5.1-6.3 3.833333 2.1 5.1 6.3 1.9 10.566667 1.9 19.1-.633333 14.883333-1.9 19.05-2.966667 6.25-5.1 6.25zm63.7.6 13.5-40.1c1-3.066667 2.083333-5.333333 3.25-6.8s2.45-2.433333 3.85-2.9v-2.1c-1.333333.266667-3.9.4-7.7.4l-.585444-.000756c-4.250284-.01109-7.555136-.144172-9.914556-.399244v2.1c2.2.133333 3.966667 1.066667 5.3 2.8s2 4.166667 2 7.3c0 2.933333-.633333 6.333333-1.9 10.2l-4.6 13.8-10.9-30.3c-.133333-.666667-.2-1.1-.2-1.3 0-1.133333.45-1.833333 1.35-2.1s2.383333-.4 4.45-.4v-2.1c-5.333333.4-9.666667.6-13 .6-6.6 0-12.533333-.2-17.8-.6v2.1c2.4 0 4.333333 1.866667 5.8 5.6l17.4 44.2c1.066667-.133333 2.7-.2 4.9-.2 2.133333 0 3.733333.066667 4.8.2zm41.6-61c3.466667 0 6.15-.733333 8.05-2.2s2.85-3.6 2.85-6.4-.95-4.933333-2.85-6.4-4.583333-2.2-8.05-2.2c-3.533333 0-6.233333.733333-8.1 2.2s-2.8 3.6-2.8 6.4.933333 4.933333 2.8 6.4 4.566667 2.2 8.1 2.2zm15.2 61v-2.1c-2.066667 0-3.516667-.516667-4.35-1.55s-1.25-2.916667-1.25-5.65v-43.7c-4.666667.933333-10.466667 1.4-17.4 1.4-2 0-4.066667-.1-6.2-.3v2.1c2.066667 0 3.516667.7 4.35 2.1s1.25 3.633333 1.25 6.7v31.7c0 2.733333-.416667 4.616667-1.25 5.65s-2.283333 1.55-4.35 1.55v2.1c7.733333-.266667 12.733333-.4 15-.4s7 .133333 14.2.4zm27.7-59.9c2.066667-1.733333 3.916667-3.166667 5.55-4.3s3.516667-2.366667 5.65-3.7c.4-.266667.966667-.633333 1.7-1.1s1.55-1.05 2.45-1.75 1.65-1.416667 2.25-2.15c1.133333-1.333333 1.7-2.866667 1.7-4.6 0-1.933333-.7-3.433333-2.1-4.5-1.266667-1.066667-2.733333-1.6-4.4-1.6-1.066667 0-2.083333.216667-3.05.65s-1.75 1.016667-2.35 1.75c-.8.933333-1.433333 1.933333-1.9 3s-1 2.6-1.6 4.6c-.866667 2.666667-1.616667 4.866667-2.25 6.6s-1.55 3.8-2.75 6.2zm6.1 61.3c5.466667 0 9.95-1.666667 13.45-5s5.983333-7.333333 7.45-12l-1.7-.6c-3.2 4.466667-7.233333 6.7-12.1 6.7-3.533333 0-6.5-1.366667-8.9-4.1s-3.6-7.3-3.6-13.7c0-6.266667.866667-11.683333 2.6-16.25s4.733333-6.85 9-6.85c1.666667 0 3 .4 4 1.2-2.333333.6-4.283333 1.816667-5.85 3.65s-2.35 3.95-2.35 6.35c0 2.733333.816667 4.916667 2.45 6.55s3.883333 2.45 6.75 2.45c2.8 0 5.1-.916667 6.9-2.75s2.7-4.15 2.7-6.95c0-2.266667-.533333-4.3-1.6-6.1s-2.533333-3.233333-4.4-4.3c-1.466667-.866667-3.35-1.583333-5.65-2.15s-4.816667-.85-7.55-.85c-7.733333 0-13.95 2.283333-18.65 6.85s-7.05 11.416667-7.05 20.55c0 9.533333 2.2 16.466667 6.6 20.8s10.233333 6.5 17.5 6.5z" fill="url(#b)"/></g></svg>