<svg height="32" viewBox="0 0 32 32" width="32" xmlns="http://www.w3.org/2000/svg"><g fill="none" fill-rule="evenodd" transform="matrix(.9998477 .01745241 -.01745241 .9998477 4.211257 3.792399)"><g fill="#12e09f" fill-rule="nonzero"><path d="m3.29032657 0h-2.29493885c-.54973746 0-.99538772.46435911-.99538772 1.03717511v4.78256544c0 .39285295.21301534.75198844.5502368.92767762.49170013.2561711 1.08960269.04850339 1.33545276-.46383881l2.29493885-4.78256545c.0691075-.1440174.10508588-.30282246.10508588-.4638388 0-.572816-.44565026-1.03717511-.99538772-1.03717511zm-2.27493439.42857143h2.25492993c.32409215 0 .58682075.27735296.58682075.61948518 0 .09617203-.02121069.19102331-.06195232.27704219l-2.25492993 4.76089394c-.14493842.30601236-.49742582.43004837-.78730265.2770422-.1988055-.10493585-.32438653-.31944072-.32438653-.55408439v-4.76089394c0-.34213222.2627286-.61948518.58682075-.61948518z"/><path d="m8.43318371 0h-2.29493885c-.54973746 0-.99538772.46435911-.99538772 1.03717511v4.78256544c0 .39285295.21301534.75198844.5502368.92767762.49170013.2561711 1.08960269.04850339 1.33545276-.46383881l2.29493885-4.78256545c.0691075-.1440174.10508588-.30282246.10508588-.4638388 0-.572816-.44565026-1.03717511-.99538772-1.03717511zm-2.27493439.42857143h2.25492993c.32409215 0 .58682075.27735296.58682075.61948518 0 .09617203-.02121069.19102331-.06195231.27704219l-2.25492994 4.76089394c-.14493841.30601236-.49742582.43004837-.78730265.2770422-.19880549-.10493585-.32438653-.31944072-.32438653-.55408439v-4.76089394c0-.34213222.2627286-.61948518.58682075-.61948518z"/></g><g fill="#12e09f" fill-rule="nonzero" transform="translate(14.571429 17.142857)"><path d="m3.29032657 0h-2.29493885c-.54973746 0-.99538772.46435911-.99538772 1.03717511v4.78256544c0 .39285295.21301534.75198844.5502368.92767762.49170013.2561711 1.08960269.04850339 1.33545276-.46383881l2.29493885-4.78256545c.0691075-.1440174.10508588-.30282246.10508588-.4638388 0-.572816-.44565026-1.03717511-.99538772-1.03717511zm-2.27493439.42857143h2.25492993c.32409215 0 .58682075.27735296.58682075.61948518 0 .09617203-.02121069.19102331-.06195232.27704219l-2.25492993 4.76089394c-.14493842.30601236-.49742582.43004837-.78730265.2770422-.1988055-.10493585-.32438653-.31944072-.32438653-.55408439v-4.76089394c0-.34213222.2627286-.61948518.58682075-.61948518z" transform="matrix(-1 0 0 -1 4.285714 6.857142)"/><path d="m8.43318371 0h-2.29493885c-.54973746 0-.99538772.46435911-.99538772 1.03717511v4.78256544c0 .39285295.21301534.75198844.5502368.92767762.49170013.2561711 1.08960269.04850339 1.33545276-.46383881l2.29493885-4.78256545c.0691075-.1440174.10508588-.30282246.10508588-.4638388 0-.572816-.44565026-1.03717511-.99538772-1.03717511zm-2.27493439.42857143h2.25492993c.32409215 0 .58682075.27735296.58682075.61948518 0 .09617203-.02121069.19102331-.06195231.27704219l-2.25492994 4.76089394c-.14493841.30601236-.49742582.43004837-.78730265.2770422-.19880549-.10493585-.32438653-.31944072-.32438653-.55408439v-4.76089394c0-.34213222.2627286-.61948518.58682075-.61948518z" transform="matrix(-1 0 0 -1 14.571428 6.857142)"/></g><g fill="#f36"><circle cx="4.588729" cy="12.26811" r="1"/><circle cx="9.731586" cy="12.26811" r="1"/><circle cx="14.874443" cy="12.26811" r="1"/><circle cx="20.0173" cy="12.26811" r="1"/></g></g></svg>