<svg height="32" viewBox="0 0 32 32" width="32" xmlns="http://www.w3.org/2000/svg"><g fill="none" transform="matrix(.9998477 .01745241 -.01745241 .9998477 4.176352 5.792094)"><path d="m20.7910864.89482865h-6.6935717c-1.6034009 0-2.9032142 1.35438074-2.9032142 3.02509406v13.94914919c0 1.1458211.6212948 2.1932996 1.6048574 2.7057264 1.4341253.7471657 3.1780078.1414682 3.8950705-1.3528632l6.6935717-13.9491492c.2015635-.42005075.3065004-.88323218.3065004-1.35286319 0-1.67071332-1.2998132-3.02509406-2.9032141-3.02509406z" fill="#12e09f"/><path d="m9.63169064-.00030461h-6.69357165c-1.60340092 0-2.90321418 1.35438074-2.90321418 3.02509406v13.94914925c0 1.1458211.62129473 2.1932996 1.60485733 2.7057263 1.43412537.7471658 3.17800786.1414683 3.89507054-1.3528631l6.69357162-13.94914926c.2015636-.42005075.3065005-.88323218.3065005-1.35286319 0-1.67071332-1.2998132-3.02509406-2.90321416-3.02509406z" fill="#f36"/></g></svg>