<svg height="32" viewBox="0 0 32 32" width="32" xmlns="http://www.w3.org/2000/svg"><g fill="none" fill-rule="evenodd" transform="matrix(.99254615 .12186934 -.12186934 .99254615 6.412342 1)"><g stroke-linejoin="round"><path d="m1.4 25.2.93333333 2.8.93333334-1.8666667.93333333 1.8666667.93333333-2.8" stroke="#f36" stroke-linecap="round"/><path d="m17.2666667 25.2.9333333 2.8.9333333-1.8666667.9333334 1.8666667.9333333-2.8" stroke="#f36" stroke-linecap="round"/><path d="m5.6 3.73333333 5.6-3.73333333 5.6 3.73333333 1.8666667 19.59999997h-14.93333337z" fill="#12e09f" stroke="#12e09f" stroke-linecap="square"/><path d="m4.35555556 14.9333333-3.48444445 4.0444445-.87111111 6.2222222h6.53333333v-1.8666667" fill="#0eaf7c" stroke="#12e09f" stroke-linecap="round"/><path d="m20.2222222 14.9333333-3.4844444 4.0444445-.8711111 6.2222222h6.5333333v-1.8666667" fill="#0eaf7c" stroke="#12e09f" stroke-linecap="round" transform="matrix(-1 0 0 1 38.266666 0)"/></g><ellipse cx="11.229859" cy="9.46344" fill="#0eaf7c" rx="3" ry="3.5" stroke="#f36"/></g></svg>