<svg xmlns="http://www.w3.org/2000/svg" width="1068" height="1068" viewBox="0 0 1068 1068"><linearGradient id="a" x1="0%" x2="100%" y1="50%" y2="50%"><stop offset="0" stop-color="#e62e5c"/><stop offset="1" stop-color="#b32447"/></linearGradient><linearGradient id="b" x1="100%" x2="0%" y1="50%" y2="50%"><stop offset="0" stop-color="#0eb37f"/><stop offset="1" stop-color="#0b865f"/></linearGradient><g fill="none"><path fill="#f36" d="M339.978 234l-2.48.02c-81.699 1.325-147.52 67.966-147.52 149.98v58.502l-1.829.658C130.86 464.265 90 519.34 90 583.957v100.448l.02 2.06C91.346 768.277 158.079 834 240 834h100.485l2.06-.02 2.449-.06C425.666 831.318 490.08 765.103 490.08 684v-58.503l1.853-.666c57.279-21.111 98.126-76.18 98.126-140.788V384c0-82.843-67.158-150-150-150zm100.08 50c55.23 0 100 44.772 100 100v100.043c0 55.221-44.759 99.988-99.977 100V684c0 54.676-43.881 99.104-98.347 99.987l-1.654.013H240c-54.676 0-99.104-43.88-99.987-98.346L140 684V583.957c0-54.676 43.88-99.104 98.346-99.987l1.632-.014V384c0-55.228 44.772-100 100-100z"/><path fill="#b32447" stroke="#b32447" d="M440.059 284c55.228 0 100 44.772 100 100v100.043c0 55.221-44.76 99.988-99.978 100V684c0 54.676-43.881 99.104-98.347 99.987l-1.654.013H240c-54.676 0-99.104-43.88-99.987-98.346L140 684V583.957c0-54.676 43.88-99.104 98.346-99.987l1.632-.014V384c0-55.228 44.772-100 100-100zm.826 50.007l-.826-.007h-100.08c-27.339 0-49.552 21.94-49.994 49.173l-.007.827-.001 98.381.022 1.018c.199 24.692-15.968 49.563-48.055 50.529l-1.944.029c-27.338 0-49.552 21.94-49.993 49.173l-.007.827v99.891l.009 1.104.018.707c.858 26.595 22.499 47.907 49.155 48.334L240 734h99.802l1.23-.01.707-.017c26.595-.858 47.907-22.499 48.335-49.156l.006-.817v-99.957c0-27.334 21.935-49.546 49.163-49.993l.827-.007c27.333-.006 49.54-21.944 49.982-49.173l.007-.827V384c0-27.338-21.94-49.552-49.174-49.993z"/><path fill="#12e09f" d="M747.852 234C660.919 234 590.358 304.289 590 391.195v249.708l.026 2.779C591.736 749.217 677.824 834 783.502 834c106.868 0 193.502-86.634 193.502-193.502l-.026-3.2c-1.122-69.197-38.566-129.564-94.098-162.867l-.362-.214.416-.675c14.493-23.94 22.77-51.955 22.77-81.69 0-86.307-69.266-156.437-155.242-157.83zm0 50c59.565 0 107.852 48.287 107.852 107.852 0 52.706-37.807 96.582-87.781 105.988 5.116-.56 10.314-.844 15.579-.844 79.254 0 143.502 64.248 143.502 143.502S862.756 784 783.502 784c-78.462 0-142.216-62.97-143.483-141.129l-.019-2.373V391.401C640.244 332.043 688.438 284 747.852 284z"/><path fill="#0b865f" stroke="#0b865f" d="M747.852 284c59.565 0 107.852 48.287 107.852 107.852 0 52.706-37.807 96.582-87.781 105.988 5.116-.56 10.314-.844 15.579-.844 79.254 0 143.502 64.248 143.502 143.502S862.756 784 783.502 784c-78.462 0-142.216-62.97-143.483-141.129l-.019-2.373V391.401C640.244 332.043 688.438 284 747.852 284zm0 50c-31.541 0-57.204 25.25-57.84 56.653l-.012.874v248.816l.015 1.825.035 1.419c1.606 49.749 42.072 89.6 91.923 90.4l1.529.013c51.64 0 93.502-41.862 93.502-93.502s-41.863-93.502-93.502-93.502a93.2 93.2 0 00-10.139.547c-63.767 6.98-77.73-86.976-14.688-98.84 27.062-5.094 47.029-28.92 47.029-56.851 0-31.631-25.386-57.333-56.895-57.844z"/><path fill="url(#a)" d="M336.55 177.4c5 0 9.567-.733 13.7-2.2s7.417-3.683 9.85-6.65 3.65-6.617 3.65-10.95c0-3.4-.683-6.4-2.05-9s-3.15-4.883-5.35-6.85-5.133-4.217-8.8-6.75c-.333-.267-.683-.533-1.05-.8s-.75-.5-1.15-.7c-4.4-3.067-7.567-5.383-9.5-6.95s-3.4-3.183-4.4-4.85-1.5-3.633-1.5-5.9c0-2.933.933-5.217 2.8-6.85s4.333-2.45 7.4-2.45c3.333 0 6.267 1.1 8.8 3.3s4.533 5.033 6 8.5 2.333 7.1 2.6 10.9h2.3c0-11.467.167-19.6.5-24.4h-2.3c-.2 1.533-.467 2.65-.8 3.35s-.8 1.05-1.4 1.05c-.4 0-.883-.133-1.45-.4s-1.217-.6-1.95-1c-2.267-1.267-4.583-2.25-6.95-2.95s-5.45-1.05-9.25-1.05c-4.467 0-8.583.683-12.35 2.05s-6.783 3.467-9.05 6.3-3.4 6.35-3.4 10.55c0 3.467.767 6.517 2.3 9.15s3.5 4.95 5.9 6.95 5.6 4.333 9.6 7c5 3.333 8.683 6.35 11.05 9.05s3.55 5.95 3.55 9.75c0 3.067-1.083 5.467-3.25 7.2s-5.083 2.6-8.75 2.6c-5.933 0-10.333-2.467-13.2-7.4s-4.533-11.367-5-19.3h-2.3c0 14.8-.133 24.467-.4 29h2.3c.2-1.533.467-2.65.8-3.35s.8-1.05 1.4-1.05c.8 0 1.933.467 3.4 1.4 2.333 1.133 4.85 2.033 7.55 2.7s6.083 1 10.15 1zm51.9-62.4c3.467 0 6.15-.733 8.05-2.2s2.85-3.6 2.85-6.4-.95-4.933-2.85-6.4c-1.9-1.467-4.583-2.2-8.05-2.2-3.533 0-6.233.733-8.1 2.2s-2.8 3.6-2.8 6.4.933 4.933 2.8 6.4 4.567 2.2 8.1 2.2zm15.2 61v-2.1c-2.067 0-3.517-.517-4.35-1.55s-1.25-2.917-1.25-5.65V123c-4.667.933-10.467 1.4-17.4 1.4-2 0-4.067-.1-6.2-.3v2.1c2.067 0 3.517.7 4.35 2.1s1.25 3.633 1.25 6.7v31.7c0 2.733-.417 4.617-1.25 5.65s-2.283 1.55-4.35 1.55v2.1c7.733-.267 12.733-.4 15-.4s7 .133 14.2.4zm37.7 0v-2.1c-2.067 0-3.517-.517-4.35-1.55s-1.25-2.917-1.25-5.65V97.8c-4.667.933-10.467 1.4-17.4 1.4-2.067 0-4.133-.1-6.2-.3v2.1c2.067 0 3.517.7 4.35 2.1s1.25 3.633 1.25 6.7v56.9c0 2.733-.417 4.617-1.25 5.65s-2.283 1.55-4.35 1.55v2.1c7.733-.267 12.733-.4 15-.4s7 .133 14.2.4zm38.3 0l13.5-40.1c1-3.067 2.083-5.333 3.25-6.8s2.45-2.433 3.85-2.9v-2.1c-1.333.267-3.9.4-7.7.4h-.585c-4.25-.012-7.556-.145-9.915-.4v2.1c2.2.133 3.967 1.067 5.3 2.8s2 4.167 2 7.3c0 2.933-.633 6.333-1.9 10.2l-4.6 13.8-10.9-30.3c-.133-.667-.2-1.1-.2-1.3 0-1.133.45-1.833 1.35-2.1s2.383-.4 4.45-.4v-2.1c-5.333.4-9.667.6-13 .6-6.6 0-12.533-.2-17.8-.6v2.1c2.4 0 4.333 1.867 5.8 5.6l17.4 44.2c1.067-.133 2.7-.2 4.9-.2 2.133 0 3.733.067 4.8.2zm49.8 1.4c5.467 0 9.95-1.667 13.45-5s5.983-7.333 7.45-12l-1.7-.6c-3.2 4.467-7.233 6.7-12.1 6.7-3.2 0-5.917-1.367-8.15-4.1s-3.35-7.3-3.35-13.7c0-1.6.033-2.8.1-3.6h25.8c0-14.933-6.3-22.4-18.9-22.4-7.733 0-13.95 2.283-18.65 6.85s-7.05 11.417-7.05 20.55c0 9.533 2.1 16.467 6.3 20.8s9.8 6.5 16.8 6.5zm6.9-34.2h-11.6c.667-12.133 2.867-18.2 6.6-18.2 1.733 0 3.017 1.7 3.85 5.1s1.217 7.767 1.15 13.1zm46.2 34.2c3.667 0 7.05-.65 10.15-1.95s5.55-3.133 7.35-5.5 2.7-5.017 2.7-7.95c0-3.467-.867-6.383-2.6-8.75s-4.467-5.083-8.2-8.15c-1.8-1.467-2.767-2.233-2.9-2.3-3.133-2.467-5.433-4.55-6.9-6.25s-2.2-3.65-2.2-5.85c0-1.733.567-3.1 1.7-4.1s2.533-1.5 4.2-1.5c3.733 0 6.583 1.517 8.55 4.55s3.217 6.75 3.75 11.15h2c0-8.533.133-14.533.4-18h-2c-.267 2.133-1.1 3.2-2.5 3.2-.467 0-1.067-.2-1.8-.6-1.2-.667-2.95-1.283-5.25-1.85s-4.75-.85-7.35-.85c-3.333 0-6.433.583-9.3 1.75s-5.167 2.85-6.9 5.05-2.6 4.733-2.6 7.6c0 2.467.517 4.717 1.55 6.75s2.283 3.817 3.75 5.35 3.6 3.6 6.4 6.2c2.467 2.2 4.25 3.883 5.35 5.05s2.033 2.483 2.8 3.95 1.15 3.133 1.15 5c0 1.8-.55 3.167-1.65 4.1s-2.483 1.4-4.15 1.4c-3.533 0-6.467-1.667-8.8-5s-3.8-7.733-4.4-13.2h-2c0 9.533-.133 16.2-.4 20h2c.6-2.333 1.533-3.5 2.8-3.5.733 0 1.467.133 2.2.4s1.667.7 2.8 1.3c2.667 1.667 6.1 2.5 10.3 2.5zm49.1 0c6.4 0 11.133-2.633 14.2-7.9l-1.5-1.2c-.8 1-1.7 1.733-2.7 2.2s-1.9.7-2.7.7c-1.067 0-1.833-.267-2.3-.8s-.7-1.467-.7-2.8v-41.5h9.8v-2h-9.8v-16.2c-2.6 1.533-5.35 2.65-8.25 3.35s-6.15 1.05-9.75 1.05v11.8h-7.6v2h7.6v34c0 3.733.217 6.633.65 8.7s1.35 3.8 2.75 5.2c2.267 2.267 5.7 3.4 10.3 3.4zm59.2-.7c5.333 0 9.433-1.233 12.3-3.7l-1-1.7c-.467.4-.967.75-1.5 1.05s-1.033.45-1.5.45c-.6 0-1.017-.3-1.25-.9s-.35-1.733-.35-3.4v-26.8c0-3.733-.217-6.65-.65-8.75s-1.317-3.85-2.65-5.25c-1.867-1.933-4.133-3.25-6.8-3.95s-5.833-1.05-9.5-1.05c-6.933 0-12.267 1.067-16 3.2-2.133 1.2-3.7 2.533-4.7 4s-1.5 3.2-1.5 5.2c0 2.533.75 4.617 2.25 6.25s3.55 2.45 6.15 2.45 4.817-.783 6.65-2.35 2.75-3.65 2.75-6.25c0-1.933-.55-3.683-1.65-5.25s-2.783-2.75-5.05-3.55c1.667-1.133 3.533-1.7 5.6-1.7 2.6 0 4.433.833 5.5 2.5s1.6 3.567 1.6 5.7v8.9c0 1.8-.833 3.2-2.5 4.2s-4.3 2.1-7.9 3.3c-3.4 1.133-6.167 2.233-8.3 3.3s-3.983 2.583-5.55 4.55-2.35 4.45-2.35 7.45c0 3.467 1.083 6.35 3.25 8.65s5.383 3.45 9.65 3.45c6.2 0 10.867-2.533 14-7.6.133 2.333 1 4.183 2.6 5.55s4.4 2.05 8.4 2.05zm-15-8c-3.4 0-5.1-2.4-5.1-7.2 0-2.8.467-5.017 1.4-6.65s2.3-3.317 4.1-5.05c1.6-1.6 2.7-2.9 3.3-3.9V167c-1.067 1.133-2.3 1.7-3.7 1.7zm67.3 7.3v-2.1c-3.133 0-5.35-.583-6.65-1.75s-1.95-3.317-1.95-6.45v-30c0-1.933.567-3.717 1.7-5.35s2.533-2.817 4.2-3.55c.933-.467 2-.7 3.2-.7-3.4 2.267-5.1 5.367-5.1 9.3 0 2.2.767 3.95 2.3 5.25s3.733 1.95 6.6 1.95c2.733 0 4.95-.883 6.65-2.65s2.55-4.15 2.55-7.15c0-2.733-.717-5.1-2.15-7.1s-3.783-3-7.05-3c-6.067 0-10.367 2.5-12.9 7.5V123c-4.667.933-10.467 1.4-17.4 1.4-2 0-4.067-.1-6.2-.3v2.1c2.067 0 3.517.7 4.35 2.1s1.25 3.633 1.25 6.7v31.7c0 2.733-.417 4.617-1.25 5.65s-2.283 1.55-4.35 1.55v2.1c.867 0 1.567-.033 2.1-.1 7.2-.2 11.833-.3 13.9-.3 2.333 0 7 .1 14 .3.6.067 1.333.1 2.2.1z"/><path fill="url(#b)" d="M338.4 976c9.6 0 17-1.6 22.2-4.8s7.8-8.067 7.8-14.6c0-2.867-.967-5.583-2.9-8.15s-5.017-4.717-9.25-6.45-9.617-2.767-16.15-3.1v-.2c5-.6 9.233-1.833 12.7-3.7s6.067-4.05 7.8-6.55 2.6-4.983 2.6-7.45c0-4.8-2.317-8.617-6.95-11.45s-11.35-4.25-20.15-4.25c-1.733 0-3.267.033-4.6.1l-11.5.1c-7.667 0-13.4-.1-17.2-.3v2c2.133.133 3.667.4 4.6.8s1.583 1.167 1.95 2.3.55 2.967.55 5.5v49.6c0 2.533-.167 4.367-.5 5.5s-.983 1.9-1.95 2.3-2.517.667-4.65.8v2c3.8-.2 9.6-.3 17.4-.3 4.333 0 8.767.067 13.3.2 1.333.067 2.967.1 4.9.1zm-5.5-37.6h-2.7v-22.6c0-2.4.133-4.2.4-5.4s.783-2.033 1.55-2.5 1.917-.7 3.45-.7c2.467 0 4.25 1.217 5.35 3.65s1.65 6.183 1.65 11.25c0 4.933-.717 8.883-2.15 11.85s-3.95 4.45-7.55 4.45zm3.8 35.3c-1.867 0-3.25-.217-4.15-.65s-1.517-1.217-1.85-2.35-.5-2.9-.5-5.3v-25.3h1.4c5.467 0 9.467 1.367 12 4.1s3.8 6.733 3.8 12c0 11.667-3.567 17.5-10.7 17.5zm54.8-58.7c3.467 0 6.15-.733 8.05-2.2s2.85-3.6 2.85-6.4-.95-4.933-2.85-6.4-4.583-2.2-8.05-2.2c-3.533 0-6.233.733-8.1 2.2s-2.8 3.6-2.8 6.4.933 4.933 2.8 6.4 4.567 2.2 8.1 2.2zm15.2 61v-2.1c-2.067 0-3.517-.517-4.35-1.55s-1.25-2.917-1.25-5.65V923c-4.667.933-10.467 1.4-17.4 1.4-2 0-4.067-.1-6.2-.3v2.1c2.067 0 3.517.7 4.35 2.1s1.25 3.633 1.25 6.7v31.7c0 2.733-.417 4.617-1.25 5.65s-2.283 1.55-4.35 1.55v2.1c7.733-.267 12.733-.4 15-.4s7 .133 14.2.4zm30.7 1.4c3.667 0 7.05-.65 10.15-1.95s5.55-3.133 7.35-5.5 2.7-5.017 2.7-7.95c0-3.467-.867-6.383-2.6-8.75s-4.467-5.083-8.2-8.15c-1.8-1.467-2.767-2.233-2.9-2.3-3.133-2.467-5.433-4.55-6.9-6.25s-2.2-3.65-2.2-5.85c0-1.733.567-3.1 1.7-4.1s2.533-1.5 4.2-1.5c3.733 0 6.583 1.517 8.55 4.55s3.217 6.75 3.75 11.15h2c0-8.533.133-14.533.4-18h-2c-.267 2.133-1.1 3.2-2.5 3.2-.467 0-1.067-.2-1.8-.6-1.2-.667-2.95-1.283-5.25-1.85s-4.75-.85-7.35-.85c-3.333 0-6.433.583-9.3 1.75s-5.167 2.85-6.9 5.05-2.6 4.733-2.6 7.6c0 2.467.517 4.717 1.55 6.75s2.283 3.817 3.75 5.35 3.6 3.6 6.4 6.2c2.467 2.2 4.25 3.883 5.35 5.05s2.033 2.483 2.8 3.95 1.15 3.133 1.15 5c0 1.8-.55 3.167-1.65 4.1s-2.483 1.4-4.15 1.4c-3.533 0-6.467-1.667-8.8-5s-3.8-7.733-4.4-13.2h-2c0 9.533-.133 16.2-.4 20h2c.6-2.333 1.533-3.5 2.8-3.5.733 0 1.467.133 2.2.4s1.667.7 2.8 1.3c2.667 1.667 6.1 2.5 10.3 2.5zm49.1 0c6.4 0 11.133-2.633 14.2-7.9l-1.5-1.2c-.8 1-1.7 1.733-2.7 2.2s-1.9.7-2.7.7c-1.067 0-1.833-.267-2.3-.8s-.7-1.467-.7-2.8v-41.5h9.8v-2h-9.8v-16.2c-2.6 1.533-5.35 2.65-8.25 3.35s-6.15 1.05-9.75 1.05v11.8h-7.6v2h7.6v34c0 3.733.217 6.633.65 8.7s1.35 3.8 2.75 5.2c2.267 2.267 5.7 3.4 10.3 3.4zm53.4-1.4v-2.1c-3.133 0-5.35-.583-6.65-1.75s-1.95-3.317-1.95-6.45v-30c0-1.933.567-3.717 1.7-5.35s2.533-2.817 4.2-3.55c.933-.467 2-.7 3.2-.7-3.4 2.267-5.1 5.367-5.1 9.3 0 2.2.767 3.95 2.3 5.25s3.733 1.95 6.6 1.95c2.733 0 4.95-.883 6.65-2.65s2.55-4.15 2.55-7.15c0-2.733-.717-5.1-2.15-7.1s-3.783-3-7.05-3c-6.067 0-10.367 2.5-12.9 7.5V923c-4.667.933-10.467 1.4-17.4 1.4-2 0-4.067-.1-6.2-.3v2.1c2.067 0 3.517.7 4.35 2.1s1.25 3.633 1.25 6.7v31.7c0 2.733-.417 4.617-1.25 5.65s-2.283 1.55-4.35 1.55v2.1c.867 0 1.567-.033 2.1-.1 7.2-.2 11.833-.3 13.9-.3 2.333 0 7 .1 14 .3.6.067 1.333.1 2.2.1zm46.6 1.4c8.2 0 14.533-2.133 19-6.4s6.7-11.233 6.7-20.9-2.233-16.65-6.7-20.95-10.8-6.45-19-6.45-14.533 2.15-19 6.45-6.7 11.283-6.7 20.95 2.233 16.633 6.7 20.9 10.8 6.4 19 6.4zm0-2c-2.133 0-3.833-2.083-5.1-6.25s-1.9-10.517-1.9-19.05.633-14.9 1.9-19.1 2.967-6.3 5.1-6.3 3.833 2.1 5.1 6.3 1.9 10.567 1.9 19.1-.633 14.883-1.9 19.05-2.967 6.25-5.1 6.25zm63.7.6l13.5-40.1c1-3.067 2.083-5.333 3.25-6.8s2.45-2.433 3.85-2.9v-2.1c-1.333.267-3.9.4-7.7.4h-.585c-4.25-.012-7.556-.145-9.915-.4v2.1c2.2.133 3.967 1.067 5.3 2.8s2 4.167 2 7.3c0 2.933-.633 6.333-1.9 10.2l-4.6 13.8-10.9-30.3c-.133-.667-.2-1.1-.2-1.3 0-1.133.45-1.833 1.35-2.1s2.383-.4 4.45-.4v-2.1c-5.333.4-9.667.6-13 .6-6.6 0-12.533-.2-17.8-.6v2.1c2.4 0 4.333 1.867 5.8 5.6l17.4 44.2c1.067-.133 2.7-.2 4.9-.2 2.133 0 3.733.067 4.8.2zm41.6-61c3.467 0 6.15-.733 8.05-2.2s2.85-3.6 2.85-6.4-.95-4.933-2.85-6.4-4.583-2.2-8.05-2.2c-3.533 0-6.233.733-8.1 2.2s-2.8 3.6-2.8 6.4.933 4.933 2.8 6.4 4.567 2.2 8.1 2.2zm15.2 61v-2.1c-2.067 0-3.517-.517-4.35-1.55s-1.25-2.917-1.25-5.65V923c-4.667.933-10.467 1.4-17.4 1.4-2 0-4.067-.1-6.2-.3v2.1c2.067 0 3.517.7 4.35 2.1s1.25 3.633 1.25 6.7v31.7c0 2.733-.417 4.617-1.25 5.65s-2.283 1.55-4.35 1.55v2.1c7.733-.267 12.733-.4 15-.4s7 .133 14.2.4zm27.7-59.9c2.067-1.733 3.917-3.167 5.55-4.3s3.517-2.367 5.65-3.7c.4-.267.967-.633 1.7-1.1s1.55-1.05 2.45-1.75 1.65-1.417 2.25-2.15c1.133-1.333 1.7-2.867 1.7-4.6 0-1.933-.7-3.433-2.1-4.5-1.267-1.067-2.733-1.6-4.4-1.6-1.067 0-2.083.217-3.05.65s-1.75 1.017-2.35 1.75c-.8.933-1.433 1.933-1.9 3s-1 2.6-1.6 4.6c-.867 2.667-1.617 4.867-2.25 6.6s-1.55 3.8-2.75 6.2zm6.1 61.3c5.467 0 9.95-1.667 13.45-5s5.983-7.333 7.45-12l-1.7-.6c-3.2 4.467-7.233 6.7-12.1 6.7-3.533 0-6.5-1.367-8.9-4.1s-3.6-7.3-3.6-13.7c0-6.267.867-11.683 2.6-16.25s4.733-6.85 9-6.85c1.667 0 3 .4 4 1.2-2.333.6-4.283 1.817-5.85 3.65s-2.35 3.95-2.35 6.35c0 2.733.817 4.917 2.45 6.55s3.883 2.45 6.75 2.45c2.8 0 5.1-.917 6.9-2.75s2.7-4.15 2.7-6.95c0-2.267-.533-4.3-1.6-6.1s-2.533-3.233-4.4-4.3c-1.467-.867-3.35-1.583-5.65-2.15s-4.817-.85-7.55-.85c-7.733 0-13.95 2.283-18.65 6.85s-7.05 11.417-7.05 20.55c0 9.533 2.2 16.467 6.6 20.8s10.233 6.5 17.5 6.5z"/></g></svg>