<svg xmlns="http://www.w3.org/2000/svg" width="32" height="32" viewBox="0 0 32 32"><g fill="none" transform="rotate(1 -329.766 242.177)"><path fill="#f36" d="M20.791.895h-6.693c-1.604 0-2.904 1.354-2.904 3.025v13.95c0 1.145.622 2.192 1.605 2.705 1.434.747 3.178.141 3.895-1.353l6.694-13.95a3.13 3.13 0 00.306-1.352c0-1.67-1.3-3.025-2.903-3.025z"/><path fill="#12e09f" d="M9.632 0H2.938C1.335 0 .035 1.354.035 3.025v13.949c0 1.146.621 2.193 1.605 2.706 1.434.747 3.178.141 3.895-1.353l6.693-13.95a3.13 3.13 0 00.307-1.352c0-1.67-1.3-3.025-2.903-3.025z"/></g></svg>