<svg version="1" xmlns="http://www.w3.org/2000/svg" width="933.333" height="933.333" viewBox="0 0 700.000000 700.000000"><path d="M95.5 54.9c-4.9 2.3-8.9 6.4-10.9 11.3-1.4 3.3-1.6 32.9-1.6 284 0 270.7.1 280.4 1.9 284.3 2.2 4.8 6.4 8.9 11.1 10.8 5.1 2.2 120.5 2.9 126.5.8 3.2-1.1 13.5-10.8 50-47.2l46-45.9 45 45.1c30 30.1 46.3 45.7 49 47 5.6 2.6 12.1 2.4 18.1-.6 3.8-1.9 25.3-22.8 94.6-92.2C619.8 457.5 617 460.6 617 452c0-8.6 2.2-6.1-83-91.5-79.7-79.9-80.8-81.1-82-86.2-2-8.7 1.2-17.1 8.3-22l4-2.8 57.1-.5 57.2-.5 4.9-2.6c6.7-3.4 10.7-9.1 11.3-16.3.9-10.7 4.9-6.2-81.7-93-54.5-54.7-80.9-80.4-83.6-81.7-5.1-2.4-11.9-2.4-17 0-2.7 1.2-19.4 17-49.6 46.9l-45.6 45-44.9-45c-29.9-30-46.2-45.6-48.9-46.9-3.8-1.7-7.4-1.9-64-1.9-56.3 0-60.2.2-64 1.9z"/></svg>