<svg version="1" xmlns="http://www.w3.org/2000/svg" width="933.333" height="933.333" viewBox="0 0 700.000000 700.000000"><path d="M167 139.8c-2.2 1.2-4.4 3.5-5.7 6.2l-2.3 4.4V350c0 192.3.1 199.6 1.9 203.6 1.1 2.4 3.3 5 5.4 6.3 3.5 2.1 4.6 2.2 44.9 2.8 30.8.4 42.4.3 45.8-.6 4-1.1 8.1-4.8 37.5-34.2l33-32.9 32 32.1c17.6 17.6 33.2 32.7 34.7 33.5 3.5 1.8 10.1 1.8 13.6 0 1.5-.8 31.8-30.6 67.4-66.3 60.7-60.8 64.7-65.1 65.3-69 1.3-8.2.8-8.8-59.9-69.2-62.9-62.6-60.7-60-56.9-69 1-2.4 3.1-5.3 4.6-6.5 2.8-2 4.1-2.1 44.6-2.6l41.8-.5 3.6-2.8c6.4-4.9 8.4-11.9 5.3-19-1.8-4.1-113.1-115.2-116.9-116.6-4.3-1.7-9.9-1.3-13.2.8-1.6 1-17.3 15.9-34.8 33.1l-31.8 31.3-32.2-32.1c-17.7-17.6-33.5-32.5-35-33.1-1.9-.7-17.8-1.1-46-1.1-39.9 0-43.5.1-46.7 1.8z"/></svg>