<svg height="400" viewBox="0 0 400 400" width="400" xmlns="http://www.w3.org/2000/svg"><g fill="#e01258" transform="translate(50 95)"><path d="m0 0v209.912817h50.532797.0000281c55.8169859 0 101.0655939-30.922122 101.0655939-69.066492 0-29.776704-27.573859-55.1522717-66.2239888-64.8525353 14.0217817-7.9173096 22.9101548-19.6865676 22.9101548-32.8272319 0-23.8402316-29.2555707-43.1665578-65.3441461-43.1665578-1.8867197 0-3.7547634.05282319-5.6009268.15635297v-.15635297z"/><path d="m188.849985 118.598891-49.078116 67.078285c16.177945 14.716581 41.933 24.235641 70.941422 24.235641 48.97304 0 88.673534-27.130636 88.673534-60.597971 0-27.34432-26.502565-50.4584972-62.911419-58.0009203l49.078116-67.0782844c-16.177945-14.71658132-41.933-24.2356413-70.941422-24.2356413-48.97304 0-88.673533 27.1306357-88.673533 60.5979709 0 27.3443205 26.502564 50.4584971 62.911418 58.0009201z"/></g></svg>