<svg xmlns="http://www.w3.org/2000/svg" viewBox="-0.5 -0.5 16 16" fill="none" stroke="#000000" stroke-linecap="round" stroke-linejoin="round" height="16" width="16"><path d="M5.625 11.875c-2.6875 0.875 -2.6875 -1.5625 -3.75 -1.875m7.5 3.125v-2.1875c0 -0.625 0.0625 -0.875 -0.3125 -1.25 1.75 -0.1875 3.4375 -0.875 3.4375 -3.75a2.875 2.875 0 0 0 -0.8125 -2 2.625 2.625 0 0 0 -0.0625 -2s-0.6875 -0.1875 -2.1875 0.8125a7.6875 7.6875 0 0 0 -3.875 0C4.0625 1.75 3.375 1.9375 3.375 1.9375a2.625 2.625 0 0 0 -0.0625 2A2.875 2.875 0 0 0 2.5 5.9375c0 2.875 1.6875 3.5625 3.4375 3.75 -0.375 0.375 -0.375 0.75 -0.3125 1.25V13.125" stroke-width="1"></path></svg>
