<svg xmlns="http://www.w3.org/2000/svg" viewBox="-0.5 -0.5 16 16" fill="none" stroke="#000000" stroke-linecap="round" stroke-linejoin="round" height="16" width="16"><path d="M11.655 9.53375C10.52 10.635625 7.5 10.549999999999999 7.5 10.549999999999999a11.41375 11.41375 0 0 1 -2.0549999999999997 -0.16c0.704375 1.240625 2.575 1.75625 5.61375 1.546875 -1.215625 1.258125 -8.498750000000001 3.2856249999999996 -8.5425 -4.7725L2.5 6.443124999999999c0 -1.8975 0.014374999999999999 -2.5718750000000004 0.8450000000000001 -3.520625C4.389374999999999 1.72875 7.5 1.8812499999999999 7.5 1.8812499999999999s3.110625 -0.15187499999999998 4.154999999999999 1.041875C12.485625 3.871875 12.5 4.54625 12.5 6.4437500000000005s-0.28500000000000003 2.5462499999999997 -0.8450000000000001 3.09z" stroke-width="1"></path><path d="M7.5 7.0025V5.17375C7.5 4.387499999999999 6.940625000000001 3.75 6.25 3.75S5 4.387499999999999 5 5.17375V8.125m2.5 -2.9512500000000004C7.5 4.387499999999999 8.059375 3.75 8.75 3.75s1.25 0.6375 1.25 1.42375V8.125" stroke-width="1"></path></svg>
