<svg xmlns="http://www.w3.org/2000/svg" width="424" height="103" class="autograph" viewBox="0 0 424 103"><g fill="none" fill-rule="evenodd" stroke="#000" stroke-linecap="round" stroke-linejoin="round" stroke-width="3" transform="translate(2 2)"><path d="M52.905 30.594c4.498-5.98 6.36-11.326 5.586-16.036C56.329 1.405 47.505 1 43 1 32.91 1 23 9 22.275 14.558 19.22 37.966 54.16 43.106 53 67c-.9 18.559-12.974 27.797-25 29C15.387 97.261-.337 89.142 1 78c.48-4.004 5.814-7.67 16-11m44.906 26.382c1.786-3.216-4.287-4.645-4.645-1.43-.357 2.144 2.859 4.645 4.645 1.43zM102 1c-1.634 27.186-3.3 44.853-5 53s-7.033 22.147-16 42" class="autograph__path"/><path d="M100.288 6.604C104.441 2.64 108.465.658 112.36.658 123.892.658 130 4 129 15c0 13-12.06 22.354-32 28 21.43-5.876 31.4 1.872 29.91 23.243C125.829 81.74 101.303 90.877 78 94c18.378-31.111 44.547-46.598 58-49 7.685-1.372.201 23.442-4 51 9.627-23.665 10.754-40.127 26.473-48.774 3.063-1.685 5.9-2.8 9.527-2.226 2.581.409 5.288.955 10 6-7-8-16.065-6.112-19.527-1.612C148 63 174 63 175 79c.667 10.667-5.667 16.333-19 17-16.665 2.164 8.262 6.474 29-21 9.194-12.18 18.194-36.847 27-74-21.276 33.988-24.61 65.654-10 95 21.886-29.475 26.736-49.244 35-51 9.61-2.042 6.727 21.45 0 51 4.444-39.28 18.42-58.808 38-51-8.829 2.162-15.316 15.456-16.712 28.117C257.161 83.34 262.913 96 270 96c12.252 0 19.28-10.001 19.28-20.54 0-23.064-9.235-30.46-12.478-30.46 12.432 3.964 30.297-6.847 31.198 0 2.644 20.094-19 51 5 51 22 0 19.937-49.198 23-51 2.342 8.649 18.48-2.123 18 0-3.57 15.792-11.376 44.541-10 51 4.505-13.153 17-47 45.9-51.171 6.67-.963 8.256 5.403 3.965 18.558 4.204-13.333 2.883-19.52-3.964-18.558-13.06 1.833-22.53 8.084-28.69 31.476C359.974 88.823 362.903 95.388 370 96c4.616.398 10.996-1.722 19.139-6.362M178 30c11-4 54 6 73.734 1.855M419 1l-21 27.333" class="autograph__path"/><path d="M140.73 31.314c1.786-3.216-4.287-4.645-4.645-1.43-.357 2.144 2.859 4.645 4.645 1.43zm220 0c1.786-3.216-4.287-4.645-4.645-1.43-.357 2.144 2.859 4.645 4.645 1.43z" class="autograph__path"/></g></svg>