<svg xmlns="http://www.w3.org/2000/svg" width="1000" height="1000" viewBox="0 0 1000 1000"><g fill="none" fill-rule="evenodd"><path fill="#e01258" d="M327.787 84.787l257.792 257.792c8.982 8.982 8.982 23.545 0 32.527L481.556 479.13c-11.716 11.715-11.716 30.71 0 42.426l104.023 104.023c8.982 8.982 8.982 23.545 0 32.527l-257.75 257.75a30 30 0 0 1-21.316 8.787l-157.616-.54c-16.528-.057-29.897-13.472-29.897-30V106c0-16.569 13.431-30 30-30h157.574a30 30 0 0 1 21.213 8.787z" opacity=".896"/><path fill="#12e09f" d="M872.166 666.74L747.968 790.938l-.049.049-125.117 124.54c-11.727 11.672-30.69 11.646-42.385-.058L361.9 696.791c-11.71-11.72-11.704-30.715.016-42.426a30 30 0 0 1 21.244-8.779l146.765.19c16.568.022 30.017-13.392 30.038-29.96a30 30 0 0 0-8.812-21.278l-219.34-218.81c-11.703-11.676-11.756-30.62-.117-42.36L455.856 208.12l.186-.185L580.368 84.694c11.73-11.628 30.654-11.587 42.333.093l218.607 218.606c11.715 11.716 11.715 30.711 0 42.427a30 30 0 0 1-21.213 8.787H674.174c-16.569 0-30 13.431-30 30a30 30 0 0 0 8.821 21.247L872.132 624.28c11.734 11.697 11.765 30.692.069 42.426l-.035.035z"/></g></svg>