<svg xmlns="http://www.w3.org/2000/svg" width="1069" height="1068" viewBox="0 0 1069 1068"><g fill="none" transform="translate(1)"><path fill="#f36" d="M339.978 234l-2.48.02c-81.699 1.325-147.52 67.966-147.52 149.98v58.502l-1.829.658C130.86 464.265 90 519.34 90 583.957v100.448l.02 2.06C91.346 768.277 158.079 834 240 834h100.485l2.06-.02 2.449-.06C425.666 831.318 490.08 765.103 490.08 684v-58.503l1.853-.666c57.279-21.111 98.126-76.18 98.126-140.788V384c0-82.843-67.158-150-150-150zm100.08 50c55.23 0 100 44.772 100 100v100.043c0 55.221-44.759 99.988-99.977 100V684c0 54.676-43.881 99.104-98.347 99.987l-1.654.013H240c-54.676 0-99.104-43.88-99.987-98.346L140 684V583.957c0-54.676 43.88-99.104 98.346-99.987l1.632-.014V384c0-55.228 44.772-100 100-100z"/><path fill="#b32447" stroke="#b32447" d="M440.059 284c55.228 0 100 44.772 100 100v100.043c0 55.221-44.76 99.988-99.978 100V684c0 54.676-43.881 99.104-98.347 99.987l-1.654.013H240c-54.676 0-99.104-43.88-99.987-98.346L140 684V583.957c0-54.676 43.88-99.104 98.346-99.987l1.632-.014V384c0-55.228 44.772-100 100-100zm.826 50.007l-.826-.007h-100.08c-27.339 0-49.552 21.94-49.994 49.173l-.007.827-.001 98.381.022 1.018c.199 24.692-15.968 49.563-48.055 50.529l-1.944.029c-27.338 0-49.552 21.94-49.993 49.173l-.007.827v99.891l.009 1.104.018.707c.858 26.595 22.499 47.907 49.155 48.334L240 734h99.802l1.23-.01.707-.017c26.595-.858 47.907-22.499 48.335-49.156l.006-.817v-99.957c0-27.334 21.935-49.546 49.163-49.993l.827-.007c27.333-.006 49.54-21.944 49.982-49.173l.007-.827V384c0-27.338-21.94-49.552-49.174-49.993z"/><path fill="#12e09f" d="M747.852 234C660.919 234 590.358 304.289 590 391.195v249.708l.026 2.779C591.736 749.217 677.824 834 783.502 834c106.868 0 193.502-86.634 193.502-193.502l-.026-3.2c-1.122-69.197-38.566-129.564-94.098-162.867l-.362-.214.416-.675c14.493-23.94 22.77-51.955 22.77-81.69 0-86.307-69.266-156.437-155.242-157.83zm0 50c59.565 0 107.852 48.287 107.852 107.852 0 52.706-37.807 96.582-87.781 105.988 5.116-.56 10.314-.844 15.579-.844 79.254 0 143.502 64.248 143.502 143.502S862.756 784 783.502 784c-78.462 0-142.216-62.97-143.483-141.129l-.019-2.373V391.401C640.244 332.043 688.438 284 747.852 284z"/><path fill="#0b865f" stroke="#0b865f" d="M747.852 284c59.565 0 107.852 48.287 107.852 107.852 0 52.706-37.807 96.582-87.781 105.988 5.116-.56 10.314-.844 15.579-.844 79.254 0 143.502 64.248 143.502 143.502S862.756 784 783.502 784c-78.462 0-142.216-62.97-143.483-141.129l-.019-2.373V391.401C640.244 332.043 688.438 284 747.852 284zm0 50c-31.541 0-57.204 25.25-57.84 56.653l-.012.874v248.816l.015 1.825.035 1.419c1.606 49.749 42.072 89.6 91.923 90.4l1.529.013c51.64 0 93.502-41.862 93.502-93.502s-41.863-93.502-93.502-93.502a93.2 93.2 0 00-10.139.547c-63.767 6.98-77.73-86.976-14.688-98.84 27.062-5.094 47.029-28.92 47.029-56.851 0-31.631-25.386-57.333-56.895-57.844z"/></g></svg>