<svg xmlns="http://www.w3.org/2000/svg" width="32" height="32" viewBox="0 0 32 32"><g fill="none" fill-rule="evenodd" transform="rotate(1 -217.987 240.001)"><path fill="#f36" fill-rule="nonzero" d="M3.29 0H.995C.445 0 0 .464 0 1.037V5.82c0 .393.213.752.55.927a.977.977 0 001.336-.463L4.18 1.5c.069-.144.105-.303.105-.464C4.286.464 3.84 0 3.29 0zM1.015.429H3.27c.324 0 .587.277.587.62a.648.648 0 01-.062.276L1.54 6.086a.573.573 0 01-.787.277.624.624 0 01-.324-.554v-4.76c0-.343.262-.62.586-.62zM8.433 0H6.138c-.55 0-.995.464-.995 1.037V5.82c0 .393.213.752.55.927a.977.977 0 001.336-.463L9.323 1.5c.07-.144.106-.303.106-.464C9.429.464 8.983 0 8.433 0zM6.158.429h2.255c.324 0 .587.277.587.62a.648.648 0 01-.062.276L6.683 6.086a.573.573 0 01-.787.277.624.624 0 01-.325-.554v-4.76c0-.343.263-.62.587-.62zM15.566 24h2.295c.55 0 .996-.464.996-1.037V18.18c0-.392-.213-.752-.55-.927a.977.977 0 00-1.336.464l-2.295 4.782a1.078 1.078 0 00-.105.464c0 .573.446 1.037.995 1.037zm2.275-.427h-2.255c-.324 0-.586-.278-.586-.62 0-.096.02-.19.062-.277l2.254-4.761a.573.573 0 01.788-.278c.199.105.324.32.324.554v4.762c0 .342-.263.62-.587.62zm2.868.427h2.295c.55 0 .996-.464.996-1.037V18.18c0-.392-.213-.752-.55-.927a.977.977 0 00-1.336.464l-2.295 4.782a1.06 1.06 0 00-.105.464c0 .573.446 1.037.995 1.037zm2.275-.428h-2.255c-.324 0-.587-.278-.587-.62 0-.096.022-.19.062-.277l2.255-4.76a.573.573 0 01.788-.278c.198.106.324.32.324.554v4.762c0 .342-.263.62-.587.62z"/><g fill="#12e09f"><circle cx="4.589" cy="12.268" r="1"/><circle cx="9.732" cy="12.268" r="1"/><circle cx="14.874" cy="12.268" r="1"/><circle cx="20.017" cy="12.268" r="1"/></g></g></svg>