<?xml version="1.0" standalone="no"?>
<!DOCTYPE svg PUBLIC "-//W3C//DTD SVG 20010904//EN"
 "http://www.w3.org/TR/2001/REC-SVG-20010904/DTD/svg10.dtd">
<svg version="1.0" xmlns="http://www.w3.org/2000/svg"
 width="700.000000pt" height="700.000000pt" viewBox="0 0 700.000000 700.000000"
 preserveAspectRatio="xMidYMid meet">
<metadata>
Created by potrace 1.14, written by Peter Selinger 2001-2017
</metadata>
<g transform="translate(0.000000,700.000000) scale(0.100000,-0.100000)"
fill="#000000" stroke="none">
<path d="M3280 6994 c-19 -2 -84 -9 -145 -14 -639 -62 -1264 -315 -1795 -726
-148 -114 -480 -446 -594 -594 -411 -530 -654 -1132 -728 -1795 -17 -155 -17
-575 0 -730 75 -673 332 -1300 748 -1820 114 -143 339 -372 484 -494 537 -451
1163 -717 1885 -803 142 -17 586 -17 730 0 486 57 928 196 1327 418 520 288
983 732 1291 1234 273 446 434 919 499 1465 16 139 16 595 0 730 -104 855
-446 1557 -1043 2141 -558 545 -1241 872 -2029 970 -117 15 -552 27 -630 18z
m695 -253 c1079 -167 1974 -819 2459 -1792 157 -315 256 -636 313 -1014 23
-153 26 -685 5 -835 -36 -255 -96 -499 -177 -725 -58 -162 -200 -453 -294
-604 -398 -636 -1003 -1120 -1709 -1365 -168 -58 -417 -119 -597 -147 -179
-27 -584 -37 -772 -20 -1434 134 -2611 1182 -2907 2587 -53 254 -61 337 -61
674 0 252 4 339 18 435 58 388 157 706 322 1030 110 219 178 329 311 505 552
730 1365 1189 2284 1289 47 5 216 8 375 6 236 -2 316 -7 430 -24z"/>
<path d="M2088 5470 c-461 -54 -692 -257 -785 -690 -23 -104 -26 -144 -30
-415 -4 -238 -2 -321 11 -401 60 -395 280 -662 641 -777 28 -9 147 -41 265
-72 302 -78 303 -79 350 -132 66 -76 75 -121 74 -378 -2 -217 -10 -305 -40
-397 -38 -117 -122 -178 -249 -178 -164 0 -227 57 -271 245 -16 69 -19 122
-19 383 l0 302 -71 0 -72 0 -7 -116 c-12 -185 -1 -516 20 -604 24 -103 56
-170 104 -223 95 -103 287 -141 471 -92 127 34 214 134 254 295 42 171 47 587
8 707 -37 115 -110 206 -198 244 -23 11 -160 50 -305 88 -145 39 -283 77 -307
85 -197 70 -363 231 -440 426 -55 140 -72 265 -72 537 0 331 30 513 111 682
81 167 231 280 439 331 137 33 329 46 478 32 374 -34 575 -170 671 -453 57
-169 66 -250 66 -617 l0 -332 72 0 71 0 7 65 c4 36 5 199 2 363 -6 321 -16
399 -72 567 -122 369 -429 538 -965 534 -80 -1 -175 -5 -212 -9z"/>
<path d="M3680 3454 l0 -1975 598 4 c563 4 603 5 696 25 212 46 326 101 436
212 123 123 190 261 234 482 52 254 56 618 10 793 -23 90 -96 233 -151 296
-63 73 -164 153 -230 181 -29 13 -53 28 -53 35 0 7 32 29 70 49 86 45 200 148
251 227 42 64 81 175 101 282 21 111 17 546 -5 660 -73 373 -250 569 -591 655
-176 44 -273 50 -841 50 l-525 0 0 -1976z m1230 1818 c192 -41 304 -97 400
-199 162 -172 226 -474 190 -893 -13 -153 -34 -238 -82 -337 -51 -105 -153
-206 -281 -277 -48 -26 -87 -54 -87 -62 0 -7 39 -33 88 -58 197 -103 308 -237
364 -443 30 -111 38 -487 14 -651 -44 -300 -145 -497 -309 -603 -73 -47 -170
-84 -289 -111 -86 -19 -133 -21 -590 -25 l-498 -5 0 1847 0 1847 493 -5 c447
-4 501 -6 587 -25z"/>
<path d="M3980 3455 l0 -1716 433 4 c403 3 437 5 507 25 346 98 470 327 470
869 0 243 -24 380 -93 521 -58 119 -204 249 -349 312 -32 14 -58 27 -58 31 0
3 21 15 48 28 87 42 210 131 262 189 62 69 115 175 137 274 25 113 25 603 0
711 -42 177 -142 314 -279 381 -154 76 -182 79 -655 84 l-423 3 0 -1716z m855
1561 c144 -41 248 -112 298 -204 50 -92 69 -189 74 -382 14 -467 -57 -674
-266 -784 -133 -70 -189 -79 -518 -84 l-293 -4 0 742 0 741 323 -3 c266 -4
332 -7 382 -22z m-55 -1616 c288 -59 420 -224 450 -565 13 -142 13 -273 0
-410 -26 -271 -96 -407 -247 -484 -120 -60 -147 -64 -515 -68 l-338 -5 0 776
0 776 278 0 c236 0 291 -3 372 -20z"/>
<path d="M4275 4909 c-3 -8 -4 -286 -3 -619 l3 -605 154 -3 c362 -6 534 78
601 294 34 112 51 422 30 569 -29 203 -108 301 -285 353 -72 21 -493 30 -500
11z m466 -148 c80 -30 123 -76 150 -159 20 -60 22 -87 21 -264 -2 -263 -25
-371 -94 -435 -57 -53 -202 -93 -339 -93 l-49 0 0 492 0 491 128 -6 c94 -4
142 -11 183 -26z"/>
<path d="M4275 3289 c-3 -8 -4 -302 -3 -654 l3 -640 185 -3 c102 -2 219 2 261
7 197 26 296 110 347 294 25 91 25 573 0 664 -49 176 -140 269 -314 318 -81
23 -471 34 -479 14z m365 -130 c129 -21 208 -76 254 -178 40 -89 49 -180 43
-416 -6 -239 -17 -293 -73 -355 -55 -60 -118 -79 -290 -87 l-144 -6 0 526 0
527 73 0 c39 0 101 -5 137 -11z"/>
<path d="M2094 5226 c-302 -57 -452 -220 -509 -551 -21 -124 -30 -432 -16
-586 18 -213 76 -355 192 -470 102 -101 178 -134 509 -219 315 -81 389 -111
473 -194 68 -67 131 -188 153 -296 21 -98 14 -565 -10 -675 -45 -210 -119
-320 -261 -387 -165 -77 -445 -77 -611 1 -147 69 -223 191 -260 421 -18 104
-23 489 -10 618 l8 72 -75 0 -75 0 -5 -32 c-3 -18 -9 -118 -13 -223 -26 -763
167 -1035 736 -1035 256 0 425 53 540 169 146 146 199 353 203 781 2 251 -10
341 -62 469 -41 100 -82 160 -163 237 -103 97 -180 130 -499 214 -146 38 -285
77 -309 85 -138 49 -242 168 -286 326 -23 83 -35 360 -24 536 20 321 89 472
255 560 86 45 163 63 300 70 336 16 516 -104 585 -390 27 -108 39 -331 31
-580 l-6 -197 76 0 76 0 7 238 c20 664 -97 928 -459 1028 -81 23 -391 29 -491
10z"/>
<path d="M2218 5000 c-184 -31 -276 -120 -330 -317 -28 -106 -38 -527 -15
-639 28 -129 87 -218 176 -264 23 -11 162 -54 310 -95 289 -80 346 -99 431
-147 236 -132 374 -357 411 -669 17 -146 6 -508 -20 -659 -66 -383 -229 -562
-575 -632 -80 -17 -139 -21 -286 -21 -209 -1 -335 19 -465 74 -87 36 -188 111
-237 176 -87 115 -146 293 -168 507 -13 122 -9 578 5 624 8 23 7 23 -71 20
l-79 -3 -7 -55 c-3 -30 -6 -167 -7 -305 -1 -339 23 -512 98 -692 138 -334 472
-490 1010 -470 576 22 842 234 932 747 30 168 38 599 15 760 -30 199 -88 345
-197 490 -96 127 -232 230 -389 294 -36 15 -184 58 -330 97 -311 82 -308 81
-348 122 -53 55 -64 101 -69 308 -9 315 21 474 105 558 54 54 101 71 192 71
158 0 235 -71 272 -250 9 -47 13 -150 12 -372 l-2 -308 73 0 73 0 7 115 c11
173 0 527 -19 609 -21 92 -65 182 -111 230 -83 84 -241 122 -397 96z"/>
</g>
</svg>
