<svg version="1" xmlns="http://www.w3.org/2000/svg" width="1425.333" height="1425.333" viewBox="0 0 1069.000000 1069.000000"><path d="M321.5 235.2c-19.7 2.5-41.7 10.3-58.8 20.9-37.5 23.3-62.7 60.7-69.7 103.6-1.7 10.7-1.8 12-1.9 48.8l-.1 34-9.4 3.9c-16.4 6.8-31.2 16.7-44.8 29.9-24.3 23.7-39.1 52.6-44.3 86.6-2 13-2 129 .1 142.1 6.8 44.6 28.4 78.1 68.1 105.7 4.3 3 22.8 12.3 24.5 12.3.8 0 1.8.4 2.4.9.9.9 12.4 4.7 16.8 5.5 1.1.2 4.2.9 6.7 1.5s6.4 1.4 8.5 1.8c6.1 1 131 1.4 139 .3 9.9-1.3 11-1.5 21.5-4.4 19.2-5.2 31.5-11.2 51.7-25.1 4.5-3.1 15.2-13.2 22.7-21.5 14.1-15.6 27.5-41.4 32-61.5 4.2-18.9 4.3-19.9 4.4-60.5l.1-34.6 3.8-1.3c3.9-1.4 15.9-7.3 22.7-11.1 14.5-8.1 34.2-26 44.7-40.6 14.5-20.3 23.6-42.4 27.2-66.4 1.3-8.7 1.4-3.2 1.6 67.5.1 74.2.2 80.6 1.5 90.5 1.6 13 5.8 30.9 9.6 41 1.1 3 2.3 6.4 2.6 7.5 3.2 9.8 19.9 38.3 29.5 50 4.7 5.8 22.5 23.5 28.3 28.2 28.4 22.8 63.1 37.5 99.5 42.1 7.5.9 35.8.9 45-.1 29.2-3.1 62.7-15.8 87.5-33.2 12.2-8.6 14.5-10.5 26-22 12-11.9 16.5-17.3 25.2-30.3C966.6 716 977.3 681 977.4 643c.1-26.2-2-41.3-9-62.8-1.7-5.2-1.6-5.1-7-17.7-14-32.9-39.3-62.8-70.4-83.5-3.6-2.4-6.6-4.4-6.8-4.5-.2-.2 2.2-5.1 5.2-11.1 22.3-44.5 23-94.7 1.9-139.3-4.2-9-11.6-21.1-17.8-29.1-4.2-5.5-18.8-20.6-23.1-24-12.7-10-18.7-13.9-30.2-19.9-7.7-3.9-30.2-12.6-30.2-11.6 0 .2-1.8-.2-4-1s-4-1.2-4-1c0 .2-1.4 0-3.1-.5-6-1.7-14.5-2.4-29.4-2.5-18.4 0-27.1 1.1-43.5 5.4-29.5 7.8-60.5 28.4-80.8 53.7-14.6 18.2-26.7 44.5-31.1 67.4-1.8 9.1-1.9 10.3-2 14.4-.1 5.7-.8 4.1-1.6-3.4-1.3-13.8-3.2-22.9-7.1-34.8-11-33.8-33.3-62-63.9-80.9-17.3-10.7-36-17.4-59.5-21.3-4.5-.7-132.6-.6-138.5.2zm134.1 101.7c12.3 4.2 21.4 11.4 27.8 22 7.1 11.6 7 11 7 75.1 0 52.4-.2 58-1.8 63.5-6.3 21.2-23.6 34.4-47.1 36-15.9 1-26.4 5.4-35.9 15-6.4 6.3-10 12.3-12.8 21.2-2 6.6-2.1 8.8-2.3 64.8-.2 56-.3 58.2-2.3 64.5-1.2 3.6-3.8 9-5.9 12-3.5 5.3-10.9 13-12.4 13-.4 0-1.4.6-2.2 1.4-1.7 1.8-9 5.1-14.7 6.7-3.4.9-18.6 1.2-62 1.3-57.1 0-57.6 0-64.5-2.3-12.1-3.9-21.4-11.3-28-22.2-6.8-11.1-6.9-11.9-6.9-74.9-.1-63.7 0-64.6 7.4-75.8 10.4-15.6 22.3-22.4 42-23.7 16.8-1.1 27-5.2 36.1-14.5 6.1-6.1 10.8-14.9 13-24 1-4.1 1.3-19.5 1.4-62.5.1-42.7.5-58.1 1.4-61.5 4.4-15.2 15.3-28 28.8-33.7 8.5-3.5 15.4-3.8 72.1-3.7 53.8.1 55.9.2 61.8 2.3zm302.4-1.5c20.8 3.3 38.2 18.1 45.2 38.4 1.8 5.3 2.3 8.9 2.3 17.2 0 11.4-.5 14.3-3.6 22.1-4.7 12.1-16.1 24.4-27.4 29.9-3.3 1.6-10.5 4.1-16 5.5-12.4 3.2-20.8 7.8-27.2 14.9-8.9 9.6-12.6 19.9-12.6 34.2.1 20.4 10.5 37.7 27.8 45.9 8.4 4 13.3 4.9 24.5 4.6 15.2-.5 18.4-.5 24 .1 28.6 3.1 55.1 20.3 69.7 45.3 4.1 7 8.9 19 10.2 25.5.6 3 1.4 6.6 1.6 8 .8 3.9.9 19.9.1 26.1-2.8 22.5-15.8 45.4-34.1 59.8-36.6 28.9-86.4 27.1-121.2-4.3-15.9-14.5-26.7-35.7-29.1-57.6-.3-3-.6-64.2-.6-136 0-120.3.2-131 1.8-137 6.3-23.8 24.9-40 49.6-43.2 2.8-.4 11.2-.1 15 .6z"/></svg>