<svg xmlns="http://www.w3.org/2000/svg" viewBox="-0.5 -0.5 16 16" fill="none" stroke="#000000" stroke-linecap="round" stroke-linejoin="round" height="16" width="16"><path d="M7.5 5c1.655 0 3.1424999999999996 0.51625 4.171875 1.3375000000000001a1.5625 1.5625 0 0 1 1.45375 2.725c0 2.24375 -2.5187500000000003 4.0625 -5.625 4.0625 -3.046875 0 -5.528125 -1.75 -5.625 -3.93375l-0.625 -0.12875a1.5625 1.5625 0 0 1 1.45375 -2.725C3.733125 5.516875 5.220625 5 6.875624999999999 5z" stroke-width="1"></path><path d="m7.5 5 0.625 -3.125 3.75 0.625" stroke-width="1"></path><path d="M11.25 2.5a0.625 0.625 0 1 0 1.25 0 0.625 0.625 0 1 0 -1.25 0" stroke-width="1"></path><path fill="#000000" d="M5.3125 8.125a0.3125 0.3125 0 1 0 0.625 0 0.3125 0.3125 0 1 0 -0.625 0" stroke-width="1"></path><path fill="#000000" d="M9.0625 8.125a0.3125 0.3125 0 1 0 0.625 0 0.3125 0.3125 0 1 0 -0.625 0" stroke-width="1"></path><path d="M6.25 10.625c0.416875 0.208125 0.833125 0.3125 1.25 0.3125s0.833125 -0.10437500000000001 1.25 -0.3125" stroke-width="1"></path></svg>
