<svg xmlns="http://www.w3.org/2000/svg" width="32" height="32" viewBox="0 0 32 32"><g fill="none" fill-rule="evenodd" transform="rotate(7 -21.787 30.6)"><path stroke="#12e09f" stroke-linecap="round" stroke-linejoin="round" stroke-width="2" d="M4 0C0 0 4 10.781 0 11.5 4 12.219 0 23 4 23M24 0c4 0 0 10.781 4 11.5-4 .719 0 11.5-4 11.5"/><path fill="#f36" fill-rule="nonzero" d="M9.15 15.369c.346 0 .64-.05.884-.147s.5-.243.768-.433a.391.391 0 01.187-.072c.06 0 .106.04.138.12s.058.216.076.407h.206a46.998 46.998 0 01-.036-2.25h-.205c-.048.483-.115.849-.201 1.099s-.24.458-.46.624c-.137.143-.305.252-.504.326s-.4.112-.603.112c-.6 0-1.053-.292-1.356-.875s-.455-1.309-.455-2.178c0-.874.145-1.605.437-2.19s.738-.88 1.339-.88c.214 0 .42.037.616.112s.368.183.517.325c.214.173.366.375.455.607s.161.569.215 1.009h.205c0-1.036.012-1.755.036-2.16h-.206c-.035.357-.113.535-.232.535-.047 0-.104-.026-.17-.08-.236-.184-.481-.327-.731-.428S9.516 8.8 9.16 8.8c-.614 0-1.16.14-1.639.42s-.853.672-1.12 1.178S6 11.483 6 12.138c0 .672.13 1.25.393 1.736s.629.855 1.102 1.111 1.025.384 1.656.384zm5.391 0c.41 0 .784-.066 1.12-.197s.603-.325.8-.584.294-.579.294-.96c0-.303-.064-.57-.192-.798s-.293-.43-.496-.603-.479-.375-.83-.607l-.285-.196c-.333-.22-.58-.394-.741-.522s-.286-.27-.375-.424-.134-.336-.134-.545c0-.28.091-.5.272-.664s.418-.246.71-.246c.298 0 .558.09.781.272s.396.418.518.71.194.598.218.92h.206c0-.959.014-1.637.044-2.036h-.205c-.018.137-.042.237-.071.3s-.072.093-.125.093c-.036 0-.08-.012-.13-.036s-.108-.053-.174-.089c-.19-.113-.378-.2-.562-.259s-.432-.09-.741-.09c-.363 0-.696.06-1 .18s-.545.301-.727.548-.272.55-.272.906c0 .31.068.582.205.817s.312.439.527.611.5.375.856.607c.465.298.804.565 1.018.803s.321.524.321.857c0 .321-.104.568-.312.74s-.473.26-.794.26c-.53 0-.923-.207-1.179-.62s-.404-.954-.446-1.62h-.205c0 1.231-.012 2.034-.036 2.41h.206c.017-.138.041-.237.07-.3s.072-.093.126-.093c.071 0 .172.041.303.125.185.1.387.181.607.24s.497.09.83.09zm5.212 0c.411 0 .784-.066 1.12-.197s.603-.325.8-.584.294-.579.294-.96c0-.303-.064-.57-.192-.798s-.293-.43-.495-.603-.48-.375-.83-.607l-.286-.196c-.333-.22-.58-.394-.74-.522s-.286-.27-.376-.424-.134-.336-.134-.545c0-.28.091-.5.273-.664s.418-.246.71-.246c.297 0 .557.09.78.272s.396.418.518.71.195.598.218.92h.206c0-.959.015-1.637.044-2.036h-.205c-.018.137-.042.237-.071.3s-.072.093-.125.093c-.036 0-.08-.012-.13-.036s-.108-.053-.174-.089c-.19-.113-.378-.2-.562-.259s-.431-.09-.74-.09c-.364 0-.697.06-1 .18s-.546.301-.728.548-.272.55-.272.906c0 .31.068.582.205.817s.313.439.527.611.5.375.857.607c.464.298.803.565 1.017.803s.321.524.321.857c0 .321-.104.568-.312.74s-.473.26-.794.26c-.53 0-.923-.207-1.178-.62s-.405-.954-.447-1.62h-.205c0 1.231-.012 2.034-.036 2.41h.206c.018-.138.041-.237.071-.3s.071-.093.125-.093c.071 0 .173.041.303.125.185.1.387.181.607.24s.497.09.83.09zM10 6.56v-.185c-.124-.013-.213-.037-.267-.074s-.092-.109-.112-.214a3.04 3.04 0 01-.03-.51V.983c0-.235.01-.404.03-.51.02-.104.057-.176.112-.213S9.876.198 10 .185V0a8.866 8.866 0 01-.83.028L8.96.027A8.496 8.496 0 018.314 0v.185c.12.013.208.037.264.074s.095.109.115.214c.02.105.03.274.03.51v2.186H7.277V.982c0-.235.01-.404.03-.51.02-.104.057-.176.112-.213s.144-.061.267-.074V0a9.336 9.336 0 01-.824.028L6.641.027A7.76 7.76 0 016 0v.185c.12.013.208.037.265.075s.094.109.114.214c.02.105.03.274.03.51v4.595c0 .235-.01.404-.03.51-.02.104-.058.176-.114.213s-.145.06-.265.073v.185c.186-.019.473-.028.862-.028.353 0 .628.01.824.028v-.185c-.123-.013-.213-.037-.267-.074s-.092-.109-.112-.214a3.04 3.04 0 01-.03-.51V3.355h1.446v2.224c0 .235-.01.404-.03.51-.02.104-.058.176-.115.213s-.144.061-.264.074v.185c.204-.019.49-.028.857-.028.374 0 .65.01.829.028zm3.21 0v-.185c-.204-.006-.352-.03-.445-.07a.351.351 0 01-.194-.236c-.037-.117-.056-.306-.056-.565V.214h.15c.31 0 .556.154.735.462.18.31.321.844.425 1.603h.15a9.512 9.512 0 01-.02-.704c0-.463.015-.988.045-1.575-.292.014-.74.023-1.342.026h-1.31A35.889 35.889 0 0110 0c.03.587.045 1.112.045 1.575 0 .29-.006.525-.02.704h.15c.074-.519.162-.928.266-1.227.104-.3.228-.515.373-.644a.764.764 0 01.528-.195h.143v5.29c0 .26-.019.449-.056.566a.351.351 0 01-.194.236c-.093.04-.24.064-.444.07v.185a35.91 35.91 0 011.186-.028c.277 0 .688.01 1.232.028zm3.174 0L17.88.73v4.84c0 .234-.012.404-.037.509-.025.105-.071.176-.14.213a.872.872 0 01-.325.074v.185c.21-.019.538-.028.98-.028.423 0 .748.01.975.028v-.185c-.136-.013-.237-.037-.3-.074s-.108-.108-.131-.213-.034-.275-.034-.509V.98c0-.234.011-.403.034-.508.023-.105.065-.176.127-.213s.164-.062.304-.074V0a12.9 12.9 0 01-.974.028h-.441l-1.143 4.478L15.521 0c-.273.019-.6.028-.98.028-.229 0-.41-.01-.541-.028v.185c.137.012.237.037.301.074s.108.108.13.213c.023.105.035.274.035.509v4.163c0 .315-.012.552-.034.713-.023.16-.067.277-.13.351a.544.544 0 01-.302.158v.185c.132-.019.313-.028.54-.028.286 0 .51.01.67.028v-.185c-.186-.031-.32-.085-.403-.162-.083-.077-.136-.2-.161-.37a6.123 6.123 0 01-.038-.8V.6l1.677 5.959zm5.616 0a25.943 25.943 0 01-.034-1.464c0-.334.005-.605.015-.815h-.11c-.049.624-.152 1.124-.31 1.5-.16.377-.347.566-.565.566h-.236c-.09 0-.154-.016-.194-.046-.04-.031-.068-.092-.084-.181a2.727 2.727 0 01-.024-.431V.982c0-.235.01-.404.028-.51.02-.104.056-.176.109-.213a.553.553 0 01.252-.074V0a7.724 7.724 0 01-.755.028l-.194-.001A6.022 6.022 0 0119.333 0v.185a.49.49 0 01.233.074c.05.037.084.109.101.214.018.105.027.274.027.51v4.595c0 .235-.01.404-.027.51-.017.104-.051.176-.1.213a.49.49 0 01-.234.074v.185c.346-.019.868-.028 1.567-.028.515 0 .882.01 1.1.028zM6 23.31a.719.719 0 00.601-.307c.154-.204.255-.472.302-.803.038-.268.057-.722.057-1.363v-2.909c0-.172.006-.297.019-.374.012-.077.035-.13.069-.157a.328.328 0 01.165-.054v-.137c-.124.014-.301.02-.532.02h-.13a3.776 3.776 0 01-.38-.02v.137c.075.009.13.027.164.054.035.027.059.08.071.157.012.077.019.202.019.374v3.733c0 .373-.017.667-.05.883-.032.215-.08.37-.14.463a.36.36 0 01-.235.167zm2.662-1.233c.146 0 .27-.084.37-.252L9 21.709c-.048.077-.088.116-.122.116-.029 0-.049-.023-.059-.068a1.212 1.212 0 01-.015-.232v-1.853c0-.25-.008-.447-.025-.592a1.12 1.12 0 00-.1-.368c-.053-.11-.12-.186-.202-.232s-.176-.068-.286-.068a.688.688 0 00-.291.061.632.632 0 00-.225.17c-.062.078-.109.16-.14.25s-.045.196-.045.323c0 .15.021.275.064.375.043.1.103.15.182.15.074 0 .137-.046.189-.137A.744.744 0 008 19.236a.893.893 0 00-.052-.32.435.435 0 00-.147-.204c.057-.11.139-.164.246-.164.093 0 .16.054.204.16.044.107.066.256.066.447v.531c0 .123-.029.22-.086.29-.057.07-.148.148-.271.235a2.391 2.391 0 00-.288.231.866.866 0 00-.192.31c-.053.134-.08.303-.08.508 0 .245.036.442.107.592s.178.225.321.225c.218 0 .383-.184.496-.552a.944.944 0 00.077.402c.05.1.136.15.26.15zm-.573-.436c-.063 0-.114-.044-.152-.133-.038-.088-.057-.226-.057-.412 0-.213.022-.377.067-.49s.112-.227.2-.341a.912.912 0 00.171-.3v1.397c-.065.186-.142.279-.23.279zm1.944.402l.492-2.813c.033-.187.069-.324.106-.413.037-.088.079-.146.126-.173v-.136c-.058.013-.145.02-.26.02-.112 0-.22-.007-.323-.02v.136c.164.027.246.206.246.538a3.4 3.4 0 01-.054.552l-.242 1.348-.384-2.064a1.32 1.32 0 01-.017-.17c0-.09.016-.146.049-.167a.323.323 0 01.163-.03v-.143a3.021 3.021 0 01-.916 0v.143c.033 0 .067.025.1.074.032.05.064.153.095.307l.6 3.011a.64.64 0 01.108-.007c.05 0 .086.002.11.007zm2.085.034c.146 0 .27-.084.37-.252l-.033-.116c-.047.077-.087.116-.121.116-.03 0-.049-.023-.059-.068a1.212 1.212 0 01-.015-.232v-1.853c0-.25-.009-.447-.025-.592a1.12 1.12 0 00-.1-.368.516.516 0 00-.202-.232.688.688 0 00-.578-.007.632.632 0 00-.224.17c-.063.078-.11.16-.14.25s-.045.196-.045.323c0 .15.021.275.064.375.043.1.103.15.182.15.074 0 .137-.046.189-.137a.744.744 0 00.077-.368.893.893 0 00-.052-.32.435.435 0 00-.147-.204c.056-.11.138-.164.246-.164.092 0 .16.054.204.16.044.107.066.256.066.447v.531c0 .123-.029.22-.086.29-.057.07-.148.148-.271.235a2.391 2.391 0 00-.288.231.866.866 0 00-.193.31 1.415 1.415 0 00-.079.508c0 .245.036.442.106.592.071.15.178.225.322.225.218 0 .383-.184.495-.552.003.168.029.302.078.402s.136.15.26.15zm-.572-.436c-.063 0-.114-.044-.152-.133s-.057-.226-.057-.412c0-.213.022-.377.067-.49.045-.114.111-.227.199-.341a.912.912 0 00.172-.3v1.397c-.065.186-.142.279-.23.279zm1.954.484c.155 0 .296-.05.423-.15s.227-.249.301-.446c.074-.198.111-.442.111-.733a2.3 2.3 0 00-.072-.61 1.948 1.948 0 00-.187-.46 4.91 4.91 0 00-.314-.462l-.107-.15a6.002 6.002 0 01-.28-.399 1.27 1.27 0 01-.141-.323 1.523 1.523 0 01-.051-.416c0-.213.034-.382.103-.507.068-.125.158-.188.268-.188.112 0 .21.07.294.208.085.139.15.32.196.542s.073.456.082.701h.078c0-.73.005-1.249.017-1.553h-.078c-.007.105-.016.18-.027.228s-.027.072-.047.072c-.013 0-.03-.01-.049-.027a1.31 1.31 0 01-.065-.068.987.987 0 00-.213-.198.506.506 0 00-.28-.068c-.136 0-.262.045-.377.136s-.206.23-.274.419a2.036 2.036 0 00-.103.691c0 .237.026.444.077.624s.118.335.2.466c.08.132.188.286.323.464.175.227.303.431.384.613.08.181.121.4.121.654 0 .245-.04.433-.118.565-.079.132-.178.198-.3.198-.2 0-.348-.158-.444-.474s-.153-.728-.169-1.236h-.077l-.001.644c-.002.582-.006.98-.013 1.195h.078c.006-.104.015-.18.027-.228s.026-.072.047-.072c.027 0 .065.032.114.096.07.077.146.138.23.184s.187.068.313.068zm1.88 0c.177 0 .322-.106.434-.317.113-.211.191-.464.236-.76l-.057-.04c-.063.204-.133.347-.21.429-.078.081-.155.122-.232.122-.128 0-.234-.106-.32-.32s-.128-.563-.128-1.049c0-.481.038-.87.113-1.168.076-.298.18-.446.315-.446.043 0 .083.014.12.044.037.03.064.07.082.12a.411.411 0 00-.158.203.897.897 0 00-.064.355c0 .154.024.277.07.368.048.09.11.136.19.136s.142-.051.192-.153a.9.9 0 00.074-.392c0-.132-.017-.253-.05-.365s-.077-.203-.136-.275a.529.529 0 00-.421-.204.563.563 0 00-.431.214c-.126.143-.225.355-.297.637a4.185 4.185 0 00-.107 1.021c0 .609.073 1.068.219 1.376.146.31.334.464.566.464zm.882-.097l.03-.005c.216-.014.354-.02.415-.02a8.933 8.933 0 01.536.026v-.143c-.11 0-.19-.04-.241-.122-.05-.082-.076-.227-.076-.436v-1.805c0-.191.03-.377.09-.56.059-.18.131-.285.217-.312a.095.095 0 01.054-.014c.018 0 .031.002.04.007-.099.136-.148.313-.148.531 0 .132.022.237.067.317.045.08.106.12.182.12.079 0 .142-.054.19-.161a.994.994 0 00.073-.412c0-.173-.026-.32-.078-.443s-.128-.184-.229-.184-.192.06-.273.18c-.08.121-.142.279-.185.474v-.633a1.106 1.106 0 01-.492.095 1.18 1.18 0 01-.209-.02v.143c.081 0 .137.047.169.143s.047.247.047.456v2.146c0 .186-.016.314-.047.385-.032.07-.088.105-.169.105v.143a.28.28 0 00.068-.006zm1.975-4.229c.094 0 .169-.046.224-.14.055-.093.082-.221.082-.384s-.027-.292-.082-.385c-.055-.093-.13-.14-.224-.14-.095 0-.17.047-.224.14-.055.093-.083.221-.083.385s.028.291.083.384c.055.094.13.14.224.14zm.478 4.23v-.143a.17.17 0 01-.167-.105c-.032-.07-.049-.199-.049-.385v-2.963a1.106 1.106 0 01-.491.095c-.068 0-.137-.007-.21-.02v.143c.082 0 .138.047.17.143s.046.247.046.456v2.146c0 .186-.015.314-.047.385-.031.07-.087.105-.168.105v.143a8.37 8.37 0 01.468-.027c.074 0 .223.01.448.027zm1.135 1.233v-.143c-.103 0-.18-.038-.229-.116-.049-.077-.074-.215-.074-.415v-.681c.043.072.094.127.154.163s.123.055.19.055c.24 0 .43-.174.571-.521.14-.348.21-.846.21-1.496 0-.368-.025-.679-.077-.933s-.123-.445-.214-.572-.195-.19-.312-.19a.398.398 0 00-.316.166c-.09.111-.159.271-.206.48v-.626a1.133 1.133 0 01-.492.095 1.18 1.18 0 01-.209-.02v.143c.08 0 .135.047.167.143.033.095.05.247.05.456v3.406c0 .177-.016.299-.046.364a.16.16 0 01-.157.1v.142a6.59 6.59 0 01.424-.027c.068 0 .226.007.476.02zm-.09-1.321c-.088 0-.159-.062-.213-.184v-2.46c.02-.185.06-.33.12-.435.06-.105.127-.157.204-.157.094 0 .166.118.217.354.05.236.076.632.076 1.186 0 .554-.032.975-.095 1.263s-.166.433-.31.433zm1.778.184c.223 0 .377-.234.462-.702l-.057-.061c-.056.272-.133.408-.23.408-.051 0-.089-.028-.112-.085a.832.832 0 01-.036-.29v-2.751h.398v-.136h-.398V17.39a.646.646 0 01-.485.218v.9h-.283v.136h.283v2.302c0 .25.009.446.025.59a1.1 1.1 0 00.097.357c.076.155.188.232.336.232z"/></g></svg>