<svg xmlns="http://www.w3.org/2000/svg" width="1068" height="1068" viewBox="0 0 1068 1068"><linearGradient id="a" x1="0%" x2="100%" y1="50%" y2="50%"><stop offset="0" stop-color="#12e09f"/><stop offset="1" stop-color="#f36"/></linearGradient><g fill="none" fill-rule="evenodd"><circle cx="533.972" cy="540.162" r="362.5" stroke="url(#a)" stroke-width="32"/><g fill-rule="nonzero"><path fill="#f36" d="M534.078 119.662c5.587 0 10.69-.817 15.309-2.45s8.287-4.104 11.006-7.41c2.72-3.305 4.079-7.372 4.079-12.2 0-3.788-.764-7.13-2.29-10.027-1.528-2.896-3.52-5.44-5.98-7.631s-5.735-4.698-9.832-7.52a32.116 32.116 0 00-1.174-.892 9.11 9.11 0 00-1.285-.78c-4.916-3.417-8.455-5.998-10.615-7.743-2.16-1.746-3.8-3.547-4.917-5.404-1.117-1.857-1.676-4.048-1.676-6.573 0-3.268 1.043-5.812 3.129-7.632 2.086-1.82 4.842-2.73 8.269-2.73 3.724 0 7.002 1.226 9.833 3.677 2.83 2.451 5.066 5.608 6.705 9.47a37.637 37.637 0 012.905 12.144h2.57c0-12.775.186-21.837.559-27.185h-2.57c-.224 1.709-.522 2.953-.894 3.733-.373.78-.894 1.17-1.565 1.17-.447 0-.987-.149-1.62-.446a41.842 41.842 0 01-2.179-1.114c-2.533-1.411-5.122-2.507-7.766-3.287s-6.09-1.17-10.336-1.17c-4.991 0-9.592.762-13.8 2.284-4.21 1.523-7.58 3.863-10.113 7.02s-3.8 7.074-3.8 11.753c0 3.863.857 7.26 2.57 10.195s3.912 5.515 6.593 7.743c2.682 2.228 6.258 4.828 10.728 7.799 5.587 3.714 9.703 7.075 12.347 10.083 2.645 3.008 3.967 6.629 3.967 10.862 0 3.417-1.21 6.091-3.631 8.022-2.422 1.931-5.68 2.897-9.778 2.897-6.63 0-11.547-2.748-14.75-8.245s-5.066-12.664-5.587-21.502h-2.57c0 16.489-.15 27.259-.447 32.31h2.57c.223-1.709.521-2.953.894-3.733.372-.78.894-1.17 1.564-1.17.894 0 2.16.52 3.8 1.56 2.607 1.263 5.419 2.265 8.436 3.008 3.017.743 6.798 1.114 11.342 1.114zm158.738 32.117l.764-2.097c-2.158-.944-3.643-1.801-4.456-2.572-.814-.771-1.194-1.82-1.14-3.146.052-1.327.562-3.318 1.529-5.975l18.929-52.006c.967-2.657 1.839-4.516 2.616-5.579s1.743-1.622 2.896-1.677 2.86.249 5.119.913l.763-2.097c-4.148-1.272-9.947-3.264-17.4-5.977l-1.235-.45c-7.718-2.82-13.41-5.01-17.073-6.57l-.764 2.097c2.157.944 3.643 1.8 4.456 2.572s1.194 1.82 1.14 3.146-.562 3.318-1.53 5.974l-18.928 52.007c-.967 2.656-1.84 4.516-2.617 5.579-.777 1.062-1.742 1.621-2.896 1.677-1.153.055-2.859-.25-5.118-.913l-.763 2.097c4.01 1.222 10.189 3.352 18.538 6.39 7.521 2.738 13.244 4.94 17.17 6.607zm131.662 86.533c2.946-4.326 7-9.566 12.165-15.72 2.678-3.191 4.963-5.74 6.857-7.648l-1.978-1.66c-3.596 3.004-7.714 5.35-12.355 7.04-4.642 1.69-8.974 2.545-12.999 2.567s-7.04-.81-9.046-2.493l-2.838-2.381c-1.318-1.107-2.157-2.029-2.515-2.766-.358-.738-.34-1.573.051-2.506.393-.933 1.258-2.198 2.597-3.793l37.01-44.106c1.816-2.166 3.303-3.589 4.46-4.269 1.157-.68 2.352-.794 3.585-.342s2.929 1.487 5.088 3.105l1.435-1.71c-3.698-2.812-8.844-6.984-15.437-12.516l-1.026-.862c-6.41-5.392-11.098-9.472-14.066-12.239l-1.435 1.71c1.74 1.653 2.866 2.987 3.382 4.003.516 1.015.525 2.14.028 3.373-.498 1.233-1.655 2.933-3.472 5.098l-35.575 42.396c-1.817 2.166-3.275 3.613-4.375 4.34-1.1.729-2.208.915-3.327.56-1.118-.356-2.642-1.247-4.572-2.672l-1.435 1.71c6.794 5.409 16.9 13.742 30.315 25 9.23 7.745 15.723 13.338 19.478 16.78zm71.398 92.223l63.238-11.214c4.54-.805 8.386-.972 11.541-.502 3.155.47 5.633 1.31 7.434 2.519l1.908-1.102c-1.314-1.835-2.852-4.277-4.612-7.326-2.097-3.632-4.454-7.936-7.072-12.91l-1.908 1.101c2.88 5.429 1.553 9.74-3.98 12.936-3.563 2.056-8.888 3.704-15.975 4.942l-31.4 5.545 30.926-40.297c1.46-1.88 2.73-3.133 3.81-3.757 1.336-.771 2.526-.766 3.57.014 1.045.781 2.343 2.367 3.893 4.758l1.908-1.101c-2.213-3.393-5.454-8.786-9.723-16.18l-.813-1.411c-3.744-6.513-6.786-12-9.124-16.462l-1.908 1.102c.498 1.01.544 2.302.139 3.876-.406 1.575-1.383 3.371-2.931 5.39l-44.819 59.863c1.326 2.002 2.363 3.652 3.112 4.95.786 1.361 1.715 3.117 2.786 5.266zm55.332 161.905c4.683-1.357 10.713-2.686 18.09-3.987 4.051-.714 7.398-1.19 10.04-1.428l-.448-2.543c-9.254-.04-16.263-1.616-21.026-4.728-4.762-3.112-7.52-6.806-8.274-11.08l-.643-3.65c-.351-1.99-.445-3.473-.282-4.452.163-.979.667-1.714 1.513-2.205.846-.49 2.317-.921 4.415-1.291l28.209-4.974.195 1.105c.714 4.054-.04 7.702-2.266 10.944-2.225 3.242-5.34 5.559-9.346 6.949l.448 2.543c6.504-1.603 11.6-2.73 15.29-3.38l5.208-.918c3.76-.664 7.18-1.152 10.257-1.467l-.449-2.543c-3.746-.1-7.343-1.25-10.79-3.455-3.445-2.204-5.507-5.223-6.182-9.055l-.195-1.106 27.775-4.897c2.097-.37 3.627-.469 4.59-.297.962.172 1.688.69 2.176 1.554.488.864.907 2.291 1.258 4.281l.253 1.438c.884 5.012-.182 9.645-3.198 13.9-3.016 4.256-8.602 7.787-16.758 10.593l.448 2.543c1.842-.552 4.426-1.122 7.753-1.709 5.353-.944 11.474-1.757 18.364-2.44-.937-4.154-2.248-10.956-3.931-20.406l-1.065-6.035c-2.73-15.558-4.697-27.345-5.901-35.36l-2.17.382c.271 2.384.28 4.13.029 5.24-.252 1.107-.957 1.973-2.116 2.595-1.158.622-3.111 1.176-5.86 1.66l-53.814 9.489c-2.748.485-4.77.651-6.064.5-1.295-.152-2.253-.724-2.876-1.716-.622-.993-1.214-2.655-1.774-4.988l-2.17.382c1.724 8.512 4.107 21.391 7.148 38.638 2.093 11.866 3.472 20.325 4.139 25.375zm-64.755 272.795l1.957 1.13c1.826-3.162 3.37-5.347 4.633-6.555s2.672-1.727 4.228-1.56c1.556.167 3.704 1.041 6.444 2.623l55.974 32.317-.056.096c-2.236 3.873-6.215 6.395-11.936 7.567-5.722 1.171-13.47.355-23.246-2.449l-1.286 2.227c1.808.785 4.213 2.045 7.214 3.777 5.675 3.277 12.003 7.232 18.984 11.864 3.135-5.854 8.584-15.516 16.345-28.986l3.176-5.5c7.817-13.513 13.477-23.091 16.979-28.734-7.502-3.729-14.091-7.232-19.767-10.508-3-1.733-5.293-3.186-6.878-4.359l-1.285 2.227c7.381 7.102 11.988 13.397 13.82 18.887s1.612 10.203-.661 14.14l-.056.097-55.974-32.316c-2.74-1.582-4.571-3.005-5.494-4.27-.923-1.264-1.177-2.744-.763-4.441s1.535-4.127 3.36-7.29l-1.956-1.13c-4.835 8.827-8.576 15.531-11.221 20.114-2.907 5.034-7.085 12.045-12.535 21.032zm60.805-160.159c-.97 5.502-1.042 10.67-.215 15.507.826 4.835 2.651 8.882 5.474 12.141 2.822 3.259 6.64 5.313 11.452 6.161 3.776.666 7.24.501 10.393-.493a27.321 27.321 0 008.646-4.546c2.611-2.036 5.679-4.824 9.204-8.362.36-.315.725-.648 1.092-1a9.09 9.09 0 001-1.128c4.26-4.241 7.448-7.272 9.563-9.093 2.115-1.82 4.195-3.118 6.24-3.892s4.326-.94 6.843-.496c3.258.575 5.613 2.05 7.064 4.423 1.452 2.374 1.88 5.249 1.286 8.623-.647 3.668-2.438 6.681-5.373 9.038s-6.47 4.003-10.604 4.938a38.48 38.48 0 01-12.61.727l-.446 2.53c12.734 2.246 21.735 4.022 27 5.33l.447-2.532c-1.664-.52-2.852-1.032-3.565-1.536-.713-.504-1.01-1.086-.894-1.746.077-.44.319-.946.725-1.518a41.71 41.71 0 011.49-1.95c1.846-2.246 3.387-4.603 4.624-7.07s2.223-5.792 2.96-9.974c.868-4.915.907-9.58.12-13.992-.786-4.412-2.533-8.143-5.24-11.193-2.707-3.049-6.393-4.985-11.057-5.807-3.85-.679-7.386-.432-10.608.74-3.222 1.17-6.177 2.881-8.864 5.13s-5.899 5.315-9.636 9.194c-4.673 4.85-8.738 8.312-12.195 10.388-3.458 2.076-7.297 2.742-11.517 1.997-3.406-.6-5.861-2.262-7.366-4.986s-1.901-6.103-1.19-10.138c1.152-6.53 4.745-10.888 10.78-13.077 6.035-2.188 13.503-2.763 22.404-1.723l.447-2.53c-16.437-2.899-27.147-4.939-32.13-6.12l-.446 2.531c1.664.52 2.853 1.033 3.565 1.537.713.503 1.011 1.086.895 1.746-.155.88-.894 2.036-2.215 3.467-1.711 2.346-3.199 4.94-4.463 7.78-1.265 2.84-2.291 6.498-3.08 10.974zM774.173 884.514l1.416 1.688c.888-.649 2.132-.902 3.732-.758 1.6.143 3.52.81 5.76 1.998l64.529 35.595c1.698-1.617 3.108-2.896 4.229-3.836 1.176-.988 2.709-2.177 4.596-3.57l-21.776-63.846c-1.497-4.401-2.266-7.878-2.308-10.432-.042-2.553.543-4.53 1.755-5.93l-1.416-1.689c-1.54 1.58-3.626 3.474-6.26 5.684-3.137 2.633-6.879 5.628-11.223 8.986l1.417 1.688c2.615-2.003 4.922-3.124 6.919-3.361 1.997-.238 3.963.797 5.899 3.104 2.124 2.531 4.268 6.964 6.432 13.298l1.758 4.997-16.979 14.247-16.572-9.68c-2.09-1.123-3.558-2.192-4.408-3.204-.897-1.07-1.074-2.191-.532-3.365.542-1.175 1.831-2.711 3.866-4.61l-1.416-1.688c-2.884 2.707-7.52 6.741-13.909 12.101-6.163 5.173-11.333 9.367-15.51 12.583zm50.168-1.81l15.32-12.856 10.133 28.048zM658.04 939.307c-3.31 1.205-6.05 2.68-8.225 4.427-2.175 1.746-3.912 4.05-5.213 6.911l1.843.881c.564-1.24 1.466-2.085 2.707-2.537 1.24-.451 2.384-.31 3.432.422s2.285 2.312 3.714 4.737l6.162 10.174c2.388 3.986 5.776 6.434 10.167 7.343 4.39.91 10.19.33 17.4-1.736-8.792 4.155-14.44 8.797-16.944 13.927-2.505 5.13-2.797 10.33-.879 15.601 2.251 6.185 6.494 9.854 12.73 11.007 6.234 1.153 14.59-.177 25.068-3.99a100.659 100.659 0 004.717-1.837l11.852-4.433c7.927-2.885 13.893-4.937 17.899-6.156l-.768-2.109c-2.257.663-3.944.958-5.063.888-1.118-.07-2.084-.634-2.898-1.69-.814-1.058-1.707-2.921-2.68-5.592l-19.031-52.29c-.972-2.67-1.504-4.666-1.594-5.986-.09-1.32.288-2.373 1.134-3.159.846-.785 2.346-1.65 4.5-2.593l-.767-2.108c-3.852 1.64-9.948 3.979-18.288 7.014-7.514 2.735-13.308 4.724-17.382 5.969l.767 2.108c2.257-.662 3.945-.958 5.063-.888 1.119.07 2.085.634 2.899 1.691.814 1.057 1.707 2.92 2.679 5.591l8.825 24.248-4.652 1.693c-2.413.878-4.683.272-6.81-1.82s-4.43-5.47-6.91-10.14l-5.388-9.977c-2.13-3.921-4.818-6.266-8.064-7.034s-7.247-.288-12.003 1.443zm42.074 27.978l2.875-1.046 9.63 26.458c.94 2.582 1.502 4.57 1.688 5.963s-.038 2.49-.672 3.29c-.634.8-1.767 1.496-3.4 2.09-3.621 1.318-6.778.762-9.472-1.668-2.694-2.43-5.11-6.585-7.25-12.465-2.062-5.664-2.738-10.392-2.027-14.183.71-3.791 3.587-6.604 8.628-8.439z"/><path fill="#12e09f" d="M531.384 959c-10.683 0-18.918 1.785-24.704 5.356-5.787 3.57-8.68 9-8.68 16.29 0 3.2 1.076 6.23 3.227 9.095 2.152 2.864 5.583 5.263 10.294 7.197 4.71 1.934 10.701 3.087 17.971 3.459v.223c-5.564.67-10.275 2.046-14.132 4.129-3.858 2.082-6.751 4.519-8.68 7.308-1.929 2.79-2.893 5.56-2.893 8.313 0 5.356 2.578 9.615 7.734 12.776 5.156 3.162 12.63 4.742 22.423 4.742 1.928 0 3.635-.037 5.118-.111l12.798-.112c8.531 0 14.911.112 19.14.335v-2.232c-2.374-.148-4.08-.446-5.119-.892s-1.762-1.302-2.17-2.567c-.408-1.264-.612-3.31-.612-6.137v-55.344c0-2.827.186-4.873.556-6.137.371-1.265 1.095-2.12 2.17-2.567 1.076-.446 2.801-.744 5.175-.892V959c-4.229.223-10.683.335-19.363.335-4.822 0-9.755-.075-14.8-.223a111.698 111.698 0 00-5.453-.112zm5.568 41H540v25.353c0 2.692-.15 4.711-.452 6.057-.3 1.346-.884 2.281-1.75 2.805-.865.523-2.164.785-3.895.785-2.785 0-4.798-1.365-6.04-4.095-1.242-2.73-1.863-6.936-1.863-12.62 0-5.534.81-9.965 2.427-13.293 1.619-3.328 4.46-4.992 8.525-4.992zm-4.132-40c2.062 0 3.59.245 4.584.735s1.675 1.376 2.044 2.658c.368 1.282.552 3.28.552 5.994V998h-1.547c-6.038 0-10.457-1.546-13.255-4.637-2.799-3.091-4.198-7.615-4.198-13.571 0-13.195 3.94-19.792 11.82-19.792zm-162.692-34.454l-.764 2.097c2.157.944 3.643 1.8 4.456 2.572.813.77 1.194 1.82 1.14 3.146-.052 1.327-.562 3.318-1.53 5.974l-18.928 52.007c-.967 2.656-1.84 4.516-2.617 5.579-.777 1.062-1.742 1.621-2.896 1.677-1.153.055-2.859-.25-5.118-.913l-.763 2.097c4.147 1.272 9.947 3.264 17.4 5.976l1.235.451c7.718 2.82 13.41 5.01 17.073 6.57l.764-2.097c-2.158-.944-3.643-1.801-4.456-2.572-.814-.771-1.194-1.82-1.14-3.146.052-1.327.562-3.318 1.529-5.975l18.929-52.006c.967-2.657 1.839-4.516 2.616-5.579.778-1.063 1.743-1.622 2.896-1.677 1.154-.055 2.86.249 5.119.913l.763-2.097c-4.01-1.222-10.189-3.352-18.538-6.391-7.521-2.738-13.245-4.94-17.17-6.606zM261.011 857.83c-4.28-3.592-8.714-6.246-13.303-7.963s-8.986-2.184-13.194-1.4c-4.207.784-7.863 3.026-10.966 6.724-2.435 2.902-3.998 5.953-4.69 9.154a27.01 27.01 0 00-.326 9.689c.474 3.258 1.374 7.286 2.698 12.081.095.467.203.946.326 1.437.123.491.284.966.483 1.424 1.57 5.778 2.622 10.03 3.155 12.755.533 2.726.63 5.159.293 7.3s-1.318 4.178-2.941 6.113c-2.101 2.503-4.535 3.782-7.303 3.835-2.767.053-5.464-1.022-8.089-3.224-2.853-2.395-4.576-5.44-5.17-9.138-.592-3.697-.275-7.552.952-11.564s3.088-7.735 5.58-11.17l-1.968-1.652c-8.212 9.786-14.18 16.608-17.902 20.466l1.969 1.652c1.269-1.165 2.297-1.927 3.083-2.285.787-.358 1.437-.322 1.95.11.343.287.661.748.956 1.382.294.635.611 1.386.953 2.254a38.04 38.04 0 003.836 7.51c1.525 2.297 3.913 4.81 7.166 7.54 3.824 3.208 7.837 5.582 12.04 7.121 4.203 1.54 8.289 1.914 12.258 1.124s7.458-2.978 10.466-6.562c2.483-2.96 4.01-6.113 4.584-9.462s.549-6.738-.073-10.17-1.69-7.72-3.205-12.869c-1.892-6.436-2.885-11.656-2.977-15.66-.092-4.005 1.222-7.629 3.943-10.872 2.197-2.617 4.843-3.887 7.939-3.81 3.096.076 6.213 1.432 9.352 4.065 5.079 4.262 7.078 9.528 6 15.797s-4.26 12.957-9.542 20.064l1.968 1.652c10.6-12.632 17.636-20.786 21.111-24.464l-1.969-1.652c-1.269 1.165-2.297 1.927-3.084 2.285-.786.358-1.436.321-1.95-.11-.685-.574-1.32-1.787-1.908-3.637-1.185-2.643-2.695-5.219-4.529-7.727s-4.491-5.223-7.972-8.144zM156.965 725.121l-1.933 1.116c1.801 3.12 2.906 5.516 3.314 7.19.408 1.674.156 3.135-.755 4.383-.912 1.248-2.72 2.652-5.426 4.215L96.89 773.937l-.055-.095c-2.206-3.82-2.396-8.463-.57-13.931 1.825-5.467 6.35-11.688 13.577-18.661l-1.268-2.196c-1.564 1.158-3.829 2.592-6.792 4.303-5.605 3.236-12.111 6.695-19.52 10.378 3.455 5.565 9.022 14.984 16.7 28.256l3.131 5.425c7.688 13.341 13.078 22.899 16.17 28.673 6.893-4.574 13.143-8.479 18.747-11.715 2.964-1.71 5.338-2.954 7.123-3.73l-1.268-2.197c-9.716 2.81-17.373 3.644-22.97 2.504s-9.517-3.651-11.759-7.534l-.055-.096 55.274-31.912c2.706-1.562 4.827-2.426 6.363-2.592 1.537-.165 2.928.347 4.173 1.538 1.246 1.19 2.77 3.345 4.57 6.464l1.933-1.115c-5.155-8.483-9.037-14.984-11.647-19.504-2.866-4.965-6.794-11.991-11.783-21.079zM116.392 580.82c-.612-3.467-1.589-6.423-2.931-8.867-1.343-2.445-3.31-4.556-5.902-6.334l-1.187 1.662c1.123.77 1.799 1.806 2.028 3.106.23 1.3-.108 2.403-1.012 3.307-.903.904-2.673 1.85-5.31 2.835l-11.089 4.302c-4.34 1.659-7.339 4.571-8.997 8.737-1.657 4.165-2.095 9.977-1.31 17.437-2.566-9.38-6.157-15.748-10.774-19.105-4.617-3.357-9.688-4.549-15.212-3.574-6.482 1.142-10.832 4.684-13.05 10.624s-2.36 14.4-.423 25.38c.33 1.879.66 3.534.989 4.965l2.308 12.442c1.464 8.307 2.45 14.54 2.954 18.696l2.21-.39c-.26-2.338-.259-4.051.005-5.14.264-1.09.987-1.943 2.169-2.561 1.182-.618 3.172-1.174 5.971-1.668l54.8-9.662c2.8-.494 4.857-.67 6.172-.53s2.287.695 2.914 1.665c.627.97 1.217 2.597 1.772 4.883l2.21-.39c-.947-4.079-2.191-10.488-3.732-19.23-1.389-7.873-2.342-13.924-2.86-18.153l-2.21.39c.261 2.337.26 4.05-.004 5.14-.264 1.09-.987 1.943-2.169 2.56s-3.172 1.175-5.971 1.668l-25.412 4.481-.86-4.876c-.445-2.528.546-4.658 2.975-6.39 2.429-1.732 6.157-3.413 11.186-5.045l10.762-3.573c4.23-1.417 7.006-3.657 8.327-6.72s1.541-7.087.663-12.071zm-36.236 36.238l.531 3.014-27.729 4.889c-2.705.477-4.76.686-6.165.627-1.405-.06-2.446-.47-3.123-1.233-.677-.763-1.166-2-1.468-3.712-.67-3.795.427-6.807 3.288-9.038s7.372-3.89 13.534-4.976c5.937-1.047 10.71-.89 14.32.467 3.61 1.359 5.88 4.68 6.812 9.962zm43.704-163.297c1.417-8.035.939-15.5-1.433-22.396-2.372-6.895-6.396-12.65-12.071-17.267-5.675-4.615-12.585-7.641-20.73-9.077-8.366-1.476-15.869-1.029-22.508 1.34-6.64 2.37-12.099 6.378-16.377 12.025-4.278 5.648-7.145 12.599-8.6 20.853-1.418 8.035-.94 15.5 1.432 22.396 2.372 6.895 6.396 12.65 12.071 17.267 5.675 4.615 12.585 7.641 20.73 9.077 8.366 1.476 15.868 1.029 22.508-1.34 6.64-2.37 12.099-6.378 16.377-12.025 4.278-5.648 7.145-12.599 8.6-20.853zm-2.393-.783c-.6 3.409-2.744 6.246-6.428 8.512s-8.601 3.717-14.749 4.353c-6.148.635-13.074.274-20.78-1.085-7.632-1.346-14.284-3.266-19.956-5.762-5.672-2.495-9.916-5.393-12.734-8.694-2.818-3.3-3.914-6.727-3.287-10.28.6-3.409 2.744-6.246 6.428-8.512s8.601-3.717 14.749-4.353c6.148-.635 13.074-.274 20.78 1.085 7.632 1.346 14.284 3.266 19.956 5.762 5.672 2.495 9.916 5.393 12.734 8.694s3.914 6.727 3.287 10.28zm58.301-139.281l-42.271-49.077c-3.034-3.523-5.162-6.755-6.385-9.696s-1.778-5.476-1.665-7.604l-1.933-1.116c-.903 2.01-2.212 4.501-3.929 7.474-2.045 3.543-4.534 7.63-7.466 12.264l1.932 1.115c3.188-5.075 7.585-5.995 13.19-2.76 3.607 2.083 7.772 5.88 12.493 11.389l20.97 24.38-50.643-7.351c-2.371-.357-4.104-.852-5.2-1.484-1.352-.781-1.962-1.808-1.828-3.08.133-1.273.83-3.148 2.088-5.627l-1.932-1.115c-1.78 3.527-4.75 8.897-8.914 16.109l-.796 1.375c-3.675 6.338-6.83 11.58-9.465 15.727l1.933 1.116c.612-.912 1.7-1.57 3.265-1.973 1.565-.404 3.615-.423 6.151-.055l74.653 9.952c1.04-2.098 1.925-3.78 2.655-5.045.767-1.329 1.8-2.968 3.097-4.918zM284.3 199.887l-1.435-1.71c-1.943 1.436-3.462 2.323-4.557 2.659-1.095.336-2.208.153-3.338-.55-1.13-.701-2.604-2.135-4.421-4.3l-35.575-42.397c-1.817-2.166-2.988-3.854-3.512-5.065-.524-1.21-.511-2.338.04-3.383.55-1.044 1.7-2.398 3.452-4.062l-1.434-1.71c-3.263 3.03-8.012 7.16-14.247 12.391l-1.034.867c-6.468 5.413-11.333 9.35-14.595 11.81l1.434 1.71c1.943-1.436 3.462-2.322 4.558-2.658 1.095-.337 2.207-.153 3.338.549 1.13.702 2.604 2.136 4.42 4.301l35.576 42.397c1.817 2.165 2.987 3.853 3.512 5.064.524 1.211.51 2.339-.04 3.383-.55 1.045-1.7 2.399-3.452 4.063l1.434 1.71c3.147-2.933 8.214-7.33 15.2-13.191 6.292-5.28 11.184-9.24 14.676-11.878zm77.734-136.8c3.938-2.983 8.263-5.78 12.974-8.392 1.911-1.103 3.413-2.017 4.505-2.74s2.097-1.579 3.014-2.565c1.032-1.11 1.69-2.368 1.975-3.777.285-1.408.191-2.76-.28-4.057a6.712 6.712 0 00-1.657-2.577 7.418 7.418 0 00-3.9-2.006c-1.494-.271-2.91-.164-4.248.323-1.056.385-2.056 1.034-2.999 1.948-.987 1.012-1.746 2.104-2.277 3.275s-1.22 2.891-2.07 5.157c-1.657 5.088-3.74 9.883-6.248 14.384zm40.633 79.054c4.037-1.47 7.27-3.306 9.7-5.51 2.43-2.205 4.8-5.008 7.11-8.408.698-.895 1.326-1.444 1.883-1.646.696-.254 1.41.027 2.14.841.73.815 1.61 2.314 2.642 4.499l2.401-.874c-2.007-4.707-5.163-12.949-9.47-24.725l-.976-2.675-2.401.874c1.827 6.535 2.709 11.775 2.646 15.718-.062 3.943-1.356 7.534-3.882 10.773-2.5 3.31-5.351 5.548-8.553 6.714-7.24 2.635-13.606.952-19.101-5.049s-10.03-13.91-13.604-23.73-5.185-18.795-4.833-26.924c.352-8.129 4.148-13.51 11.387-16.145 3.202-1.166 6.824-1.284 10.867-.355 4.069.999 7.356 2.883 9.861 5.651 2.506 2.769 5.03 6.89 7.575 12.364l2.401-.874-.963-2.652c-4.07-11.243-6.825-19.24-8.262-23.992l-2.401.874c1.125 4.39.992 6.84-.4 7.346-.627.228-1.404.15-2.331-.232-3.582-1.176-7.053-1.833-10.413-1.97s-7.13.555-11.306 2.075c-7.657 2.786-13.874 6.93-18.652 12.429-4.777 5.499-7.744 11.859-8.9 19.08-1.155 7.221-.318 14.717 2.51 22.489 2.906 7.983 7.042 14.258 12.41 18.825 5.367 4.567 11.561 7.292 18.584 8.177 7.022.884 14.466-.105 22.331-2.968z"/><g transform="translate(259.472 352.662)"><path fill="#f36" d="M156.496.338L154.95.35c-50.974.826-92.042 42.365-92.042 93.488v36.466l-1.14.41C26.02 143.87.527 178.2.527 218.477v62.613l.013 1.284c.827 50.997 42.463 91.964 93.576 91.964h62.696l1.284-.013 1.529-.037c50.333-1.622 90.523-42.897 90.523-93.45V244.37l1.156-.415c35.738-13.16 61.223-47.486 61.223-87.758v-62.36c0-51.639-41.901-93.5-93.589-93.5zm63.945 33.66c34.25 0 62.015 27.796 62.015 62.084v62.11c0 34.284-27.758 62.077-62.002 62.084v62.058c0 33.945-27.212 61.527-60.99 62.075l-1.025.009H96.374c-33.907 0-61.459-27.243-62.006-61.058l-.009-1.026v-62.111c0-33.945 27.213-61.528 60.99-62.076l1.012-.009V96.082c0-34.288 27.765-62.084 62.015-62.084z"/><path fill="#b32447" stroke="#b32447" d="M219.037 31.338c34.513 0 62.491 28.206 62.491 63v63.027c0 34.79-27.97 62.992-62.477 63v62.973c0 34.446-27.422 62.435-61.458 62.991l-1.033.009H94.019c-34.168 0-61.93-27.645-62.483-61.958l-.008-1.042V220.31c0-34.446 27.421-62.435 61.458-62.991l1.02-.009V94.338c0-34.794 27.978-63 62.49-63zm2.066 33.754l-.514-.004h-62.227c-16.998 0-30.81 13.78-31.084 30.887l-.004.52-.001 61.794.014.64c.123 15.51-9.929 31.132-29.88 31.738l-1.208.019c-16.998 0-30.81 13.78-31.085 30.886l-.004.52v62.744l.006.693.01.444c.535 16.705 13.99 30.092 30.564 30.36l.509.005h62.053l.765-.007.44-.01c16.536-.54 29.787-14.132 30.053-30.876l.004-.514v-62.785c0-17.17 13.638-31.12 30.568-31.402l.514-.004c16.995-.004 30.803-13.784 31.077-30.887l.004-.52v-62.84c0-17.17-13.641-31.124-30.574-31.401z"/><path fill="#12e09f" d="M411.643.338c-54.585 0-98.89 43.813-99.115 97.985v155.651l.016 1.732c1.074 65.784 55.128 118.632 121.484 118.632 67.103 0 121.5-54.002 121.5-120.616l-.016-1.995c-.705-43.133-24.216-80.762-59.084-101.52l-.228-.134.261-.42a97.556 97.556 0 0014.298-50.92c0-53.8-43.493-97.513-97.477-98.382zm1.965 33.66c37.242 0 67.433 29.978 67.433 66.959 0 32.722-23.639 59.962-54.884 65.801a90.136 90.136 0 019.74-.524c49.553 0 89.723 39.888 89.723 89.092s-40.17 89.092-89.723 89.092c-49.057 0-88.918-39.094-89.71-87.619l-.013-1.473v-154.65c.153-36.851 30.285-66.678 67.434-66.678z"/><path fill="#0b865f" stroke="#0b865f" d="M414.545 31.338c37.565 0 68.018 30.42 68.018 67.946 0 33.205-23.844 60.847-55.36 66.773a90.376 90.376 0 019.825-.532c49.982 0 90.5 40.477 90.5 90.407s-40.518 90.406-90.5 90.406c-49.482 0-89.689-39.671-90.488-88.911l-.012-1.495V99c.154-37.395 30.548-67.662 68.017-67.662zm2.084 33.75c-19.717 0-35.758 15.86-36.156 35.585l-.007.549v156.287l.009 1.147.022.89c1.004 31.25 26.299 56.281 57.46 56.784l.957.008c32.28 0 58.447-26.295 58.447-58.731s-26.168-58.731-58.447-58.731c-2.15 0-4.264.115-6.338.343-39.861 4.385-48.589-54.631-9.182-62.084 16.917-3.199 29.398-18.165 29.398-35.709 0-19.868-15.869-36.013-35.565-36.333z"/></g></g></g></svg>