<svg xmlns="http://www.w3.org/2000/svg" width="363" height="363" viewBox="0 0 363 363"><title>Artboard</title><g id="Artboard" fill="none" fill-rule="evenodd" stroke="none" stroke-width="1"><circle id="Oval" cx="181" cy="183" r="135" stroke-width="4"/><path id="S" fill="#F36" fill-rule="nonzero" d="M181.44 32.56c2 0 3.827-.293 5.48-.88 1.653-.587 2.967-1.473 3.94-2.66.973-1.187 1.46-2.647 1.46-4.38 0-1.36-.273-2.56-.82-3.6a9.703 9.703 0 00-2.14-2.74c-.88-.787-2.053-1.687-3.52-2.7a11.5 11.5 0 00-.42-.32 3.26 3.26 0 00-.46-.28c-1.76-1.227-3.027-2.153-3.8-2.78-.773-.627-1.36-1.273-1.76-1.94-.4-.667-.6-1.453-.6-2.36 0-1.173.373-2.087 1.12-2.74.747-.653 1.733-.98 2.96-.98 1.333 0 2.507.44 3.52 1.32 1.013.88 1.813 2.013 2.4 3.4s.933 2.84 1.04 4.36h.92c0-4.587.067-7.84.2-9.76h-.92c-.08.613-.187 1.06-.32 1.34s-.32.42-.56.42c-.16 0-.353-.053-.58-.16a14.96 14.96 0 01-.78-.4c-.907-.507-1.833-.9-2.78-1.18-.947-.28-2.18-.42-3.7-.42-1.787 0-3.433.273-4.94.82-1.507.547-2.713 1.387-3.62 2.52S171.4 9 171.4 10.68c0 1.387.307 2.607.92 3.66s1.4 1.98 2.36 2.78c.96.8 2.24 1.733 3.84 2.8 2 1.333 3.473 2.54 4.42 3.62.947 1.08 1.42 2.38 1.42 3.9 0 1.227-.433 2.187-1.3 2.88-.867.693-2.033 1.04-3.5 1.04-2.373 0-4.133-.987-5.28-2.96-1.147-1.973-1.813-4.547-2-7.72h-.92c0 5.92-.053 9.787-.16 11.6h.92c.08-.613.187-1.06.32-1.34s.32-.42.56-.42c.32 0 .773.187 1.36.56.933.453 1.94.813 3.02 1.08 1.08.267 2.433.4 4.06.4z"/><path id="I" fill="#F36" fill-rule="nonzero" d="M243.66 42.514v-.8c-.854-.053-1.467-.16-1.84-.32-.374-.16-.634-.466-.78-.92-.147-.453-.22-1.186-.22-2.2v-19.84c0-1.013.066-1.746.2-2.2.133-.453.393-.76.78-.92.386-.16 1.006-.266 1.86-.32v-.8c-1.574.08-3.8.12-6.68.12h-.478c-2.984-.004-5.198-.044-6.642-.12v.8c.853.054 1.466.16 1.84.32.373.16.633.467.78.92.146.454.22 1.187.22 2.2v19.84c0 1.014-.067 1.747-.2 2.2-.134.454-.394.76-.78.92-.387.16-1.007.267-1.86.32v.8c1.52-.08 3.893-.12 7.12-.12 2.906 0 5.133.04 6.68.12z" transform="rotate(20 236.76 28.354)"/><path id="L" fill="#F36" fill-rule="nonzero" d="M297.52 70.92c-.186-1.866-.28-4.24-.28-7.12 0-1.493.04-2.72.12-3.68h-.92c-.293 1.654-.88 3.247-1.76 4.78-.88 1.534-1.866 2.767-2.96 3.7-1.093.934-2.106 1.4-3.04 1.4h-1.32c-.613 0-1.053-.06-1.32-.18-.266-.12-.453-.353-.56-.7-.106-.346-.16-.893-.16-1.64V46.84c0-1.013.08-1.746.24-2.2.16-.453.46-.76.9-.92.44-.16 1.14-.266 2.1-.32v-.8c-1.653.08-4.013.12-7.08.12h-.477c-2.984-.004-5.198-.044-6.642-.12v.8c.853.054 1.466.16 1.84.32.373.16.633.467.78.92.146.454.22 1.187.22 2.2v19.84c0 1.014-.067 1.747-.2 2.2-.134.454-.394.76-.78.92-.387.16-1.007.267-1.86.32v.8c3.093-.08 7.76-.12 14-.12 4.293 0 7.346.04 9.16.12z" transform="rotate(40 285.94 56.76)"/><path id="V" fill="#F36" fill-rule="nonzero" d="M324.633 113.178l7.8-21.92c.56-1.573 1.194-2.813 1.9-3.72.707-.906 1.407-1.533 2.1-1.88v-.8c-.8.08-1.826.12-3.08.12-1.493 0-3.24-.04-5.24-.12v.8c2.187.08 3.28 1.28 3.28 3.6 0 1.494-.44 3.467-1.32 5.92l-3.88 10.88-6.92-17.04c-.32-.8-.48-1.426-.48-1.88 0-.56.214-.933.64-1.12.427-.186 1.147-.306 2.16-.36v-.8c-1.44.08-3.68.12-6.72.12h-.58a173.556 173.556 0 01-6.7-.12v.8c.4.027.807.247 1.22.66.414.414.794 1.047 1.14 1.9l10.48 24.96a35.08 35.08 0 012.08-.08c.56 0 1.267.027 2.12.08z" transform="rotate(60 322.013 99.018)"/><path id="E" fill="#F36" fill-rule="nonzero" d="M354.01 166.555c-.187-1.76-.28-4-.28-6.72 0-1.493.04-2.72.12-3.68h-.92c-.587 3.307-1.574 5.713-2.96 7.22-1.387 1.507-2.854 2.26-4.4 2.26h-1.32c-.72 0-1.247-.06-1.58-.18a1.078 1.078 0 01-.68-.68c-.12-.333-.18-.887-.18-1.66v-10.4h.4c1.466 0 2.7.5 3.7 1.5s1.62 2.26 1.86 3.78h.92c-.16-2.427-.24-4.32-.24-5.68v-1.92c0-1.387.04-2.64.12-3.76h-.92c-.267 1.333-.894 2.547-1.88 3.64-.987 1.093-2.174 1.64-3.56 1.64h-.4v-10.24c0-.773.06-1.327.18-1.66.12-.333.346-.56.68-.68.333-.12.86-.18 1.58-.18h.52c1.813 0 3.373.673 4.68 2.02 1.306 1.347 2.2 3.567 2.68 6.66h.92c-.08-.693-.12-1.653-.12-2.88 0-1.973.093-4.213.28-6.72-1.516.073-3.984.113-7.404.12h-2.183c-5.629-.005-9.886-.045-12.773-.12v.8c.853.053 1.466.16 1.84.32.373.16.633.467.78.92.146.453.22 1.187.22 2.2v19.84c0 1.013-.067 1.747-.2 2.2-.134.453-.394.76-.78.92-.387.16-1.007.267-1.86.32v.8c3.093-.08 7.76-.12 14-.12 4.293 0 7.346.04 9.16.12z" transform="rotate(80 342.43 152.395)"/><path id="T" fill="#F36" fill-rule="nonzero" d="M332.843 278.111v-.8c-1.306 0-2.26-.086-2.86-.26-.6-.173-1.013-.513-1.24-1.02-.226-.506-.34-1.32-.34-2.44v-22.88h.04c1.6 0 3.094.774 4.48 2.32 1.387 1.547 2.52 4.067 3.4 7.56h.92c-.08-.693-.12-1.653-.12-2.88 0-2.32.094-4.96.28-7.92-2.375.075-6.343.115-11.906.12h-2.272c-5.586-.005-9.567-.045-11.942-.12.187 2.96.28 5.6.28 7.92 0 1.227-.04 2.187-.12 2.88h.92c.88-3.52 2.007-6.046 3.38-7.58 1.374-1.533 2.874-2.3 4.5-2.3h.04v22.88c0 1.12-.113 1.934-.34 2.44-.226.507-.64.847-1.24 1.02-.6.174-1.553.26-2.86.26v.8c3.6-.08 6.347-.12 8.24-.12 2.08 0 5 .04 8.76.12z" transform="rotate(120 324.343 263.951)"/><path id="S" fill="#F36" fill-rule="nonzero" d="M343.978 224.27c2 0 3.827-.294 5.48-.88 1.653-.587 2.967-1.474 3.94-2.66.973-1.187 1.46-2.647 1.46-4.38 0-1.36-.273-2.56-.82-3.6a9.703 9.703 0 00-2.14-2.74c-.88-.787-2.053-1.687-3.52-2.7a11.5 11.5 0 00-.42-.32 3.26 3.26 0 00-.46-.28c-1.76-1.227-3.027-2.154-3.8-2.78-.773-.627-1.36-1.274-1.76-1.94-.4-.667-.6-1.454-.6-2.36 0-1.174.373-2.087 1.12-2.74.747-.654 1.733-.98 2.96-.98 1.333 0 2.507.44 3.52 1.32 1.013.88 1.813 2.013 2.4 3.4.587 1.386.933 2.84 1.04 4.36h.92c0-4.587.067-7.84.2-9.76h-.92c-.08.613-.187 1.06-.32 1.34s-.32.42-.56.42c-.16 0-.353-.054-.58-.16-.227-.107-.487-.24-.78-.4-.907-.507-1.833-.9-2.78-1.18-.947-.28-2.18-.42-3.7-.42-1.787 0-3.433.273-4.94.82-1.507.546-2.713 1.386-3.62 2.52-.907 1.133-1.36 2.54-1.36 4.22 0 1.386.307 2.606.92 3.66a10.43 10.43 0 002.36 2.78c.96.8 2.24 1.733 3.84 2.8 2 1.333 3.473 2.54 4.42 3.62.947 1.08 1.42 2.38 1.42 3.9 0 1.226-.433 2.186-1.3 2.88-.867.693-2.033 1.04-3.5 1.04-2.373 0-4.133-.987-5.28-2.96-1.147-1.974-1.813-4.547-2-7.72h-.92c0 5.92-.053 9.786-.16 11.6h.92c.08-.614.187-1.06.32-1.34s.32-.42.56-.42c.32 0 .773.186 1.36.56.933.453 1.94.813 3.02 1.08 1.08.266 2.433.4 4.06.4z" transform="rotate(100 344.298 209.55)"/><path id="A" fill="#F36" fill-rule="nonzero" d="M301.74 322.686v-.8c-.4-.027-.806-.247-1.22-.66-.412-.414-.792-1.047-1.14-1.9l-9.68-24.96c-.852.053-1.546.08-2.08.08-.56 0-1.266-.027-2.12-.08l-8.88 22.84c-.612 1.573-1.212 2.72-1.8 3.44-.586.72-1.212 1.133-1.88 1.24v.8c.8-.08 1.828-.12 3.08-.12 1.494 0 3.24.04 5.24.12v-.8c-1.2-.054-2.106-.28-2.72-.68-.612-.4-.92-1.147-.92-2.24 0-1.2.44-2.934 1.32-5.2l.68-1.8h8.08l2.36 6.56c.32.8.48 1.44.48 1.92 0 .506-.212.86-.64 1.06-.426.2-1.146.326-2.16.38v.8c1.44-.08 3.68-.12 6.72-.12 2.934 0 5.36.04 7.28.12zm-14.32-11.52h-7.48l3.84-10 3.64 10z" transform="rotate(140 287.34 308.526)"/><path id="R" fill="#F36" fill-rule="nonzero" d="M247.029 351.848c1.28 0 2.4-.16 3.36-.48.96-.32 1.84-.88 2.64-1.68l-.52-.52c-.347.346-.76.52-1.24.52s-.854-.187-1.12-.56c-.267-.374-.494-1.054-.68-2.04l-.84-4.16c-.32-1.627-1.174-2.86-2.56-3.7-1.387-.84-3.44-1.354-6.16-1.54 3.52-.32 6.026-1.187 7.52-2.6 1.493-1.414 2.24-3.12 2.24-5.12 0-2.347-.994-4.094-2.98-5.24-1.987-1.147-5.007-1.72-9.06-1.72-.694 0-1.307.013-1.84.04l-4.6.04c-3.067 0-5.36-.04-6.88-.12v.8c.853.053 1.466.16 1.84.32.373.16.633.466.78.92.146.453.22 1.186.22 2.2v19.84c0 1.013-.067 1.746-.2 2.2-.134.453-.394.76-.78.92-.387.16-1.007.266-1.86.32v.8c1.52-.08 3.893-.12 7.12-.12 2.906 0 5.133.04 6.68.12v-.8c-.854-.054-1.467-.16-1.84-.32-.374-.16-.634-.467-.78-.92-.147-.454-.22-1.187-.22-2.2v-9.2h1.8c.933 0 1.633.48 2.1 1.44.466.96.833 2.373 1.1 4.24l.6 4c.24 1.573.866 2.686 1.88 3.34 1.013.653 2.44.98 4.28.98zm-10.68-14.8h-1.08v-9.84c0-.96.053-1.68.16-2.16.106-.48.313-.814.62-1 .306-.187.766-.28 1.38-.28 1.36 0 2.34.56 2.94 1.68.6 1.12.9 2.773.9 4.96 0 2.106-.347 3.74-1.04 4.9-.694 1.16-1.987 1.74-3.88 1.74z" transform="rotate(160 238.669 337.408)"/><path id="B" fill="#12E09F" fill-rule="nonzero" d="M182.78 362c3.84 0 6.8-.64 8.88-1.92 2.08-1.28 3.12-3.227 3.12-5.84 0-1.147-.387-2.233-1.16-3.26-.773-1.027-2.007-1.887-3.7-2.58-1.693-.693-3.847-1.107-6.46-1.24v-.08c2-.24 3.693-.733 5.08-1.48s2.427-1.62 3.12-2.62c.693-1 1.04-1.993 1.04-2.98 0-1.92-.927-3.447-2.78-4.58-1.853-1.133-4.54-1.7-8.06-1.7-.693 0-1.307.013-1.84.04l-4.6.04c-3.067 0-5.36-.04-6.88-.12v.8c.853.053 1.467.16 1.84.32s.633.467.78.92c.147.453.22 1.187.22 2.2v19.84c0 1.013-.067 1.747-.2 2.2-.133.453-.393.76-.78.92-.387.16-1.007.267-1.86.32v.8c1.52-.08 3.84-.12 6.96-.12 1.733 0 3.507.027 5.32.08.533.027 1.187.04 1.96.04zm-2.2-15.04h-1.08v-9.04c0-.96.053-1.68.16-2.16.107-.48.313-.813.62-1 .307-.187.767-.28 1.38-.28.987 0 1.7.487 2.14 1.46.44.973.66 2.473.66 4.5 0 1.973-.287 3.553-.86 4.74-.573 1.187-1.58 1.78-3.02 1.78zm1.52 14.12c-.747 0-1.3-.087-1.66-.26-.36-.173-.607-.487-.74-.94-.133-.453-.2-1.16-.2-2.12v-10.12h.56c2.187 0 3.787.547 4.8 1.64s1.52 2.693 1.52 4.8c0 4.667-1.427 7-4.28 7z" transform="rotate(180 181.66 347.84)"/><path id="I" fill="#12E09F" fill-rule="nonzero" d="M131.14 351.486v-.8c-.853-.054-1.466-.16-1.84-.32-.373-.16-.633-.467-.78-.92-.146-.454-.22-1.187-.22-2.2v-19.84c0-1.014.067-1.747.2-2.2.134-.454.394-.76.78-.92.387-.16 1.007-.267 1.86-.32v-.8c-1.573.08-3.8.12-6.68.12h-.477c-2.984-.004-5.199-.044-6.643-.12v.8c.854.053 1.467.16 1.84.32.374.16.634.466.78.92.147.453.22 1.186.22 2.2v19.84c0 1.013-.066 1.746-.2 2.2-.133.453-.393.76-.78.92-.386.16-1.006.266-1.86.32v.8c1.52-.08 3.894-.12 7.12-.12 2.907 0 5.134.04 6.68.12z" transform="rotate(-160 124.24 337.326)"/><path id="S" fill="#12E09F" fill-rule="nonzero" d="M73.445 323.283c2 0 3.827-.294 5.48-.88 1.654-.587 2.967-1.474 3.94-2.66.974-1.187 1.46-2.647 1.46-4.38 0-1.36-.273-2.56-.82-3.6a9.703 9.703 0 00-2.14-2.74c-.88-.787-2.053-1.687-3.52-2.7a11.499 11.499 0 00-.42-.32c-.146-.107-.3-.2-.46-.28-1.76-1.227-3.026-2.154-3.8-2.78-.773-.627-1.36-1.274-1.76-1.94-.4-.667-.6-1.454-.6-2.36 0-1.174.374-2.087 1.12-2.74.747-.654 1.734-.98 2.96-.98 1.334 0 2.507.44 3.52 1.32 1.014.88 1.814 2.013 2.4 3.4.587 1.386.934 2.84 1.04 4.36h.92c0-4.587.067-7.84.2-9.76h-.92c-.08.613-.186 1.06-.32 1.34-.133.28-.32.42-.56.42-.16 0-.353-.054-.58-.16-.226-.107-.486-.24-.78-.4-.906-.507-1.833-.9-2.78-1.18-.946-.28-2.18-.42-3.7-.42-1.786 0-3.433.273-4.94.82-1.506.546-2.713 1.386-3.62 2.52-.906 1.133-1.36 2.54-1.36 4.22 0 1.386.307 2.606.92 3.66.614 1.053 1.4 1.98 2.36 2.78.96.8 2.24 1.733 3.84 2.8 2 1.333 3.474 2.54 4.42 3.62.947 1.08 1.42 2.38 1.42 3.9 0 1.226-.433 2.186-1.3 2.88-.866.693-2.033 1.04-3.5 1.04-2.373 0-4.133-.987-5.28-2.96-1.146-1.974-1.813-4.547-2-7.72h-.92c0 5.92-.053 9.786-.16 11.6h.92c.08-.614.187-1.06.32-1.34.134-.28.32-.42.56-.42.32 0 .774.186 1.36.56.934.453 1.94.813 3.02 1.08 1.08.266 2.434.4 4.06.4z" transform="rotate(-140 73.765 308.563)"/><path id="T" fill="#12E09F" fill-rule="nonzero" d="M46.657 278.389v-.8c-1.307 0-2.26-.087-2.86-.26-.6-.174-1.014-.514-1.24-1.02-.227-.507-.34-1.32-.34-2.44v-22.88h.04c1.6 0 3.093.773 4.48 2.32 1.386 1.546 2.52 4.066 3.4 7.56h.92c-.08-.694-.12-1.654-.12-2.88 0-2.32.093-4.96.28-7.92-2.375.075-6.344.115-11.907.12h-2.272c-5.586-.005-9.566-.045-11.941-.12.186 2.96.28 5.6.28 7.92 0 1.226-.04 2.186-.12 2.88h.92c.88-3.52 2.006-6.047 3.38-7.58 1.373-1.534 2.873-2.3 4.5-2.3h.04v22.88c0 1.12-.114 1.933-.34 2.44-.227.506-.64.846-1.24 1.02-.6.173-1.554.26-2.86.26v.8c3.6-.08 6.346-.12 8.24-.12 2.08 0 5 .04 8.76.12z" transform="rotate(-120 38.157 264.229)"/><path id="R" fill="#12E09F" fill-rule="nonzero" d="M27.017 223.02c1.28 0 2.4-.16 3.36-.48.96-.32 1.84-.88 2.64-1.68l-.52-.52c-.347.347-.76.52-1.24.52s-.854-.187-1.12-.56c-.267-.373-.494-1.053-.68-2.04l-.84-4.16c-.32-1.627-1.174-2.86-2.56-3.7-1.387-.84-3.44-1.353-6.16-1.54 3.52-.32 6.026-1.187 7.52-2.6 1.493-1.413 2.24-3.12 2.24-5.12 0-2.347-.994-4.093-2.98-5.24-1.987-1.147-5.007-1.72-9.06-1.72-.694 0-1.307.013-1.84.04l-4.6.04c-3.067 0-5.36-.04-6.88-.12v.8c.853.053 1.466.16 1.84.32.373.16.633.467.78.92.146.453.22 1.187.22 2.2v19.84c0 1.013-.067 1.747-.2 2.2-.134.453-.394.76-.78.92-.387.16-1.007.267-1.86.32v.8c1.52-.08 3.893-.12 7.12-.12 2.906 0 5.133.04 6.68.12v-.8c-.854-.053-1.467-.16-1.84-.32-.374-.16-.634-.467-.78-.92-.147-.453-.22-1.187-.22-2.2v-9.2h1.8c.933 0 1.633.48 2.1 1.44.466.96.833 2.373 1.1 4.24l.6 4c.24 1.573.866 2.687 1.88 3.34 1.013.653 2.44.98 4.28.98zm-10.68-14.8h-1.08v-9.84c0-.96.053-1.68.16-2.16.106-.48.313-.813.62-1 .306-.187.766-.28 1.38-.28 1.36 0 2.34.56 2.94 1.68.6 1.12.9 2.773.9 4.96 0 2.107-.347 3.74-1.04 4.9-.694 1.16-1.987 1.74-3.88 1.74z" transform="rotate(-100 18.657 208.58)"/><path id="O" fill="#12E09F" fill-rule="nonzero" d="M19.376 164.389c2.933 0 5.547-.627 7.84-1.88a13.436 13.436 0 005.36-5.28c1.28-2.267 1.92-4.867 1.92-7.8 0-3.014-.627-5.607-1.88-7.78-1.253-2.174-3.013-3.834-5.28-4.98-2.267-1.147-4.907-1.72-7.92-1.72-2.933 0-5.547.626-7.84 1.88a13.436 13.436 0 00-5.36 5.28c-1.28 2.266-1.92 4.866-1.92 7.8 0 3.013.627 5.606 1.88 7.78 1.253 2.173 3.013 3.833 5.28 4.98 2.267 1.146 4.907 1.72 7.92 1.72zm.16-.72c-1.253 0-2.4-.574-3.44-1.72-1.04-1.147-1.867-2.774-2.48-4.88-.613-2.107-.92-4.547-.92-7.32 0-2.747.267-5.187.8-7.32.533-2.134 1.3-3.794 2.3-4.98 1-1.187 2.153-1.78 3.46-1.78 1.253 0 2.4.573 3.44 1.72 1.04 1.146 1.867 2.773 2.48 4.88.613 2.106.92 4.546.92 7.32 0 2.746-.267 5.186-.8 7.32-.533 2.133-1.3 3.793-2.3 4.98-1 1.186-2.153 1.78-3.46 1.78z" transform="rotate(-80 19.396 149.669)"/><path id="V" fill="#12E09F" fill-rule="nonzero" d="M43.447 111.322l7.8-21.92c.56-1.574 1.193-2.814 1.9-3.72.706-.907 1.406-1.534 2.1-1.88v-.8c-.8.08-1.827.12-3.08.12-1.494 0-3.24-.04-5.24-.12v.8c2.186.08 3.28 1.28 3.28 3.6 0 1.493-.44 3.466-1.32 5.92l-3.88 10.88-6.92-17.04c-.32-.8-.48-1.427-.48-1.88 0-.56.213-.934.64-1.12.426-.187 1.146-.307 2.16-.36v-.8c-1.44.08-3.68.12-6.72.12h-.58a173.556 173.556 0 01-6.7-.12v.8c.4.026.806.246 1.22.66.413.413.793 1.046 1.14 1.9l10.48 24.96a34.18 34.18 0 012.08-.08c.56 0 1.266.026 2.12.08z" transform="rotate(-60 40.827 97.162)"/><path id="I" fill="#12E09F" fill-rule="nonzero" d="M84.364 68.921v-.8c-.853-.053-1.467-.16-1.84-.32s-.633-.466-.78-.92c-.147-.453-.22-1.186-.22-2.2v-19.84c0-1.013.067-1.746.2-2.2.133-.453.393-.76.78-.92.387-.16 1.007-.266 1.86-.32v-.8c-1.573.08-3.8.12-6.68.12h-.478c-2.984-.004-5.198-.044-6.642-.12v.8c.853.054 1.467.16 1.84.32s.633.467.78.92c.147.454.22 1.187.22 2.2v19.84c0 1.014-.067 1.747-.2 2.2-.133.454-.393.76-.78.92-.387.16-1.007.267-1.86.32v.8c1.52-.08 3.893-.12 7.12-.12 2.907 0 5.133.04 6.68.12z" transform="rotate(-40 77.464 54.761)"/><path id="Ć" fill="#12E09F" fill-rule="nonzero" d="M123.656 10.846a39.499 39.499 0 015.36-1.2 32.684 32.684 0 001.84-.36 6.034 6.034 0 001.32-.48c.48-.24.854-.573 1.12-1 .267-.427.4-.88.4-1.36 0-.373-.08-.72-.24-1.04a2.605 2.605 0 00-1.06-1.12 2.902 2.902 0 00-1.46-.4c-.4 0-.813.093-1.24.28-.453.213-.84.48-1.16.8-.32.32-.76.8-1.32 1.44a28.447 28.447 0 01-3.84 3.96l.28.48zm3.92 31.44c1.547 0 2.867-.22 3.96-.66 1.094-.44 2.24-1.087 3.44-1.94.347-.213.627-.32.84-.32.267 0 .474.18.62.54.147.36.26.967.34 1.82h.92c-.1-1.812-.152-4.942-.16-9.39v-1.01h-.92c-.186 2.4-.533 4.253-1.04 5.56-.506 1.307-1.386 2.347-2.64 3.12-1.253.8-2.493 1.2-3.72 1.2-2.773 0-4.72-1.333-5.84-4s-1.68-5.853-1.68-9.56c0-3.707.56-6.893 1.68-9.56 1.12-2.667 3.067-4 5.84-4 1.227 0 2.467.4 3.72 1.2 1.254.827 2.134 1.853 2.64 3.08.507 1.227.854 2.907 1.04 5.04h.92l.001-1c.007-4.242.06-7.242.16-9h-.92c-.16 1.6-.507 2.4-1.04 2.4-.24 0-.494-.12-.76-.36-1.067-.827-2.16-1.467-3.28-1.92-1.12-.453-2.48-.68-4.08-.68-2.934 0-5.547.627-7.84 1.88a13.436 13.436 0 00-5.36 5.28c-1.28 2.267-1.92 4.867-1.92 7.8 0 3.013.626 5.607 1.88 7.78 1.253 2.173 3.013 3.833 5.28 4.98 2.266 1.147 4.906 1.72 7.92 1.72z" transform="rotate(-20 125.096 23.086)"/><g id="Logo" fill-rule="nonzero" transform="translate(82.004 116)"><path id="Combined-Shape" fill="#F36" d="M56.925 0l-.556.004c-18.304.297-33.051 15.209-33.051 33.56v13.092l-.41.147C10.072 51.525.918 63.849.918 78.308v22.477l.004.46c.297 18.308 15.249 33.014 33.603 33.014h22.513l.462-.004.549-.013c18.074-.583 32.506-15.4 32.506-33.548v-13.09l.415-.15c12.833-4.724 21.985-17.046 21.985-31.503V33.565C112.955 15.027 97.908 0 79.348 0H56.925zm22.962 12.083c12.299 0 22.269 9.979 22.269 22.287v22.297c0 12.307-9.968 22.284-22.264 22.287v22.277c0 12.186-9.772 22.088-21.901 22.285l-.369.003H35.335c-12.175 0-22.07-9.78-22.266-21.919l-.003-.369V78.935c0-12.186 9.772-22.087 21.901-22.284l.364-.003V34.37c0-12.308 9.97-22.287 22.269-22.287h22.287z"/><path id="Combined-Shape" fill="#B32447" stroke="#B32447" d="M79.393 11.111c12.4 0 22.45 10.115 22.45 22.593v22.602c0 12.476-10.048 22.59-22.445 22.593v22.582c0 12.353-9.851 22.39-22.079 22.59l-.371.003H34.479c-12.275 0-22.249-9.914-22.447-22.219l-.003-.374V78.88c0-12.353 9.851-22.39 22.079-22.59l.366-.003V33.704c0-12.478 10.052-22.593 22.45-22.593h22.47zm.742 12.105l-.184-.002H57.595c-6.107 0-11.069 4.942-11.167 11.077l-.002.186v22.16l.005.23c.044 5.562-3.567 11.164-10.734 11.382l-.435.006c-6.106 0-11.068 4.942-11.167 11.077l-.001.186v22.5l.002.25.003.159c.192 5.99 5.026 10.79 10.98 10.887l.183.002h22.294l.274-.003.158-.003c5.941-.194 10.702-5.068 10.797-11.073l.002-.184V79.537c0-6.157 4.9-11.16 10.982-11.26l.184-.002c6.106-.002 11.066-4.943 11.165-11.077l.002-.186V34.477c0-6.158-4.901-11.162-10.985-11.261z"/><path id="Combined-Shape" fill="#12E09F" d="M148.456 0c-19.552 0-35.42 15.728-35.501 35.175V91.05l.005.622c.385 23.615 19.746 42.586 43.513 42.586 24.035 0 43.519-19.385 43.519-43.299l-.006-.716c-.252-15.484-8.674-28.992-21.163-36.444l-.081-.048.093-.15a35.08 35.08 0 005.122-18.28c0-19.313-15.578-35.005-34.914-35.317L148.456 0zm.703 12.083c13.34 0 24.153 10.762 24.153 24.037 0 11.747-8.467 21.526-19.658 23.622a32.213 32.213 0 013.489-.188c17.748 0 32.137 14.319 32.137 31.982 0 17.664-14.389 31.983-32.137 31.983-17.571 0-31.849-14.034-32.133-31.454l-.004-.529V36.02c.055-13.23 10.848-23.937 24.153-23.937z"/><path id="Combined-Shape" fill="#0B865F" stroke="#0B865F" d="M149.348 11.111c13.452 0 24.357 10.91 24.357 24.367 0 11.907-8.538 21.82-19.824 23.945a32.45 32.45 0 013.518-.19c17.898 0 32.408 14.515 32.408 32.42 0 17.906-14.51 32.421-32.408 32.421-17.719 0-32.117-14.226-32.403-31.885l-.004-.536V35.376c.055-13.41 10.939-24.265 24.356-24.265zm.746 12.103c-7.06 0-12.804 5.688-12.947 12.762l-.002.196V92.22l.003.411.008.32c.36 11.206 9.417 20.183 20.576 20.363l.342.003c11.56 0 20.93-9.43 20.93-21.062 0-11.632-9.37-21.062-20.93-21.062-.77 0-1.527.042-2.27.124-14.273 1.572-17.398-19.592-3.287-22.265 6.058-1.147 10.527-6.514 10.527-12.805 0-7.125-5.682-12.915-12.735-13.03l-.215-.002z"/></g></g></svg>