<svg xmlns="http://www.w3.org/2000/svg" width="1419" height="1419" viewBox="0 0 1419 1419"><mask id="a" fill="#fff"><path fill-rule="evenodd" d="M0 0h1418v1418H0z"/></mask><g fill="none" fill-rule="evenodd" opacity=".051" transform="translate(.47 .48)"><g mask="url(#a)"><g transform="rotate(45 -.774 3.001)"><path d="M0 0h1000v1000H0z"/><g fill="#12de9d" fill-rule="nonzero"><path d="M306.506 199.987l-2.48.02c-81.699 1.325-147.52 67.966-147.52 149.98v58.502l-1.829.658c-57.29 21.105-98.15 76.18-98.15 140.797v100.448l.02 2.06c1.327 81.813 68.06 147.535 149.98 147.535h100.486l2.06-.02 2.449-.06c80.672-2.603 145.086-68.818 145.086-149.92v-58.503l1.852-.666c57.28-21.111 98.126-76.18 98.126-140.788V349.987c0-82.843-67.157-150-150-150zm100.08 50c55.229 0 100 44.771 100 100V450.03c0 55.221-44.76 99.988-99.978 100v99.957c0 54.676-43.88 99.103-98.346 99.986l-1.654.014h-100.08c-54.676 0-99.104-43.88-99.987-98.346l-.013-1.654V549.944c0-54.677 43.88-99.104 98.346-99.987l1.632-.014v-99.956c0-55.229 44.772-100 100-100z"/><path d="M406.586 249.987c55.229 0 100 44.771 100 100V450.03c0 55.221-44.76 99.988-99.978 100v99.957c0 54.676-43.88 99.103-98.346 99.986l-1.654.014h-100.08c-54.676 0-99.104-43.88-99.987-98.346l-.013-1.654V549.944c0-54.677 43.88-99.104 98.346-99.987l1.632-.014v-99.956c0-55.229 44.772-100 100-100zm.827 50.007l-.827-.007h-100.08c-27.338 0-49.552 21.94-49.993 49.173l-.007.827-.001 98.38.022 1.019c.198 24.691-15.968 49.563-48.055 50.529l-1.944.029c-27.338 0-49.552 21.94-49.994 49.173l-.006.827v99.89l.009 1.105.017.707c.859 26.594 22.5 47.906 49.156 48.334l.818.007h99.802l1.23-.01.707-.017c26.595-.858 47.907-22.499 48.334-49.156l.007-.817V550.03c0-27.334 21.934-49.546 49.163-49.993l.827-.007c27.333-.006 49.54-21.944 49.982-49.173l.006-.827V349.987c0-27.338-21.94-49.552-49.173-49.993zM714.38 199.987c-86.934 0-157.494 70.288-157.852 157.195V606.89l.026 2.779c1.71 105.535 87.797 190.318 193.476 190.318 106.868 0 193.501-86.634 193.501-193.502l-.026-3.2c-1.122-69.197-38.566-129.564-94.097-162.867l-.362-.214.415-.675c14.494-23.941 22.77-51.955 22.77-81.69 0-86.308-69.266-156.437-155.24-157.831zm0 50c59.565 0 107.852 48.287 107.852 107.852 0 52.706-37.808 96.582-87.782 105.988 5.116-.56 10.315-.844 15.58-.844 79.253 0 143.501 64.248 143.501 143.502S829.283 749.987 750.03 749.987c-78.462 0-142.216-62.97-143.483-141.129l-.02-2.373V357.388c.245-59.358 48.438-107.401 107.853-107.401z"/><path d="M714.38 249.987c59.565 0 107.852 48.287 107.852 107.852 0 52.706-37.808 96.582-87.782 105.988 5.116-.56 10.315-.844 15.58-.844 79.253 0 143.501 64.248 143.501 143.502S829.283 749.987 750.03 749.987c-78.462 0-142.216-62.97-143.483-141.129l-.02-2.373V357.388c.245-59.358 48.438-107.401 107.853-107.401zm0 50c-31.541 0-57.204 25.249-57.841 56.653l-.011.874V606.33l.015 1.825.034 1.419c1.606 49.748 42.073 89.6 91.924 90.4l1.529.013c51.64 0 93.501-41.862 93.501-93.502s-41.862-93.502-93.501-93.502c-3.439 0-6.822.184-10.14.547-63.766 6.98-77.729-86.976-14.688-98.84 27.063-5.094 47.03-28.92 47.03-56.851 0-31.631-25.386-57.334-56.896-57.844z"/></g></g></g><g mask="url(#a)"><g transform="rotate(45 -500.774 1210.108)"><path d="M0 0h1000v1000H0z"/><g fill="#12de9d" fill-rule="nonzero"><path d="M306.506 199.987l-2.48.02c-81.699 1.325-147.52 67.966-147.52 149.98v58.502l-1.829.658c-57.29 21.105-98.15 76.18-98.15 140.797v100.448l.02 2.06c1.327 81.813 68.06 147.535 149.98 147.535h100.486l2.06-.02 2.449-.06c80.672-2.603 145.086-68.818 145.086-149.92v-58.503l1.852-.666c57.28-21.111 98.126-76.18 98.126-140.788V349.987c0-82.843-67.157-150-150-150zm100.08 50c55.229 0 100 44.771 100 100V450.03c0 55.221-44.76 99.988-99.978 100v99.957c0 54.676-43.88 99.103-98.346 99.986l-1.654.014h-100.08c-54.676 0-99.104-43.88-99.987-98.346l-.013-1.654V549.944c0-54.677 43.88-99.104 98.346-99.987l1.632-.014v-99.956c0-55.229 44.772-100 100-100z"/><path d="M406.586 249.987c55.229 0 100 44.771 100 100V450.03c0 55.221-44.76 99.988-99.978 100v99.957c0 54.676-43.88 99.103-98.346 99.986l-1.654.014h-100.08c-54.676 0-99.104-43.88-99.987-98.346l-.013-1.654V549.944c0-54.677 43.88-99.104 98.346-99.987l1.632-.014v-99.956c0-55.229 44.772-100 100-100zm.827 50.007l-.827-.007h-100.08c-27.338 0-49.552 21.94-49.993 49.173l-.007.827-.001 98.38.022 1.019c.198 24.691-15.968 49.563-48.055 50.529l-1.944.029c-27.338 0-49.552 21.94-49.994 49.173l-.006.827v99.89l.009 1.105.017.707c.859 26.594 22.5 47.906 49.156 48.334l.818.007h99.802l1.23-.01.707-.017c26.595-.858 47.907-22.499 48.334-49.156l.007-.817V550.03c0-27.334 21.934-49.546 49.163-49.993l.827-.007c27.333-.006 49.54-21.944 49.982-49.173l.006-.827V349.987c0-27.338-21.94-49.552-49.173-49.993zM714.38 199.987c-86.934 0-157.494 70.288-157.852 157.195V606.89l.026 2.779c1.71 105.535 87.797 190.318 193.476 190.318 106.868 0 193.501-86.634 193.501-193.502l-.026-3.2c-1.122-69.197-38.566-129.564-94.097-162.867l-.362-.214.415-.675c14.494-23.941 22.77-51.955 22.77-81.69 0-86.308-69.266-156.437-155.24-157.831zm0 50c59.565 0 107.852 48.287 107.852 107.852 0 52.706-37.808 96.582-87.782 105.988 5.116-.56 10.315-.844 15.58-.844 79.253 0 143.501 64.248 143.501 143.502S829.283 749.987 750.03 749.987c-78.462 0-142.216-62.97-143.483-141.129l-.02-2.373V357.388c.245-59.358 48.438-107.401 107.853-107.401z"/><path d="M714.38 249.987c59.565 0 107.852 48.287 107.852 107.852 0 52.706-37.808 96.582-87.782 105.988 5.116-.56 10.315-.844 15.58-.844 79.253 0 143.501 64.248 143.501 143.502S829.283 749.987 750.03 749.987c-78.462 0-142.216-62.97-143.483-141.129l-.02-2.373V357.388c.245-59.358 48.438-107.401 107.853-107.401zm0 50c-31.541 0-57.204 25.249-57.841 56.653l-.011.874V606.33l.015 1.825.034 1.419c1.606 49.748 42.073 89.6 91.924 90.4l1.529.013c51.64 0 93.501-41.862 93.501-93.502s-41.862-93.502-93.501-93.502c-3.439 0-6.822.184-10.14.547-63.766 6.98-77.729-86.976-14.688-98.84 27.063-5.094 47.03-28.92 47.03-56.851 0-31.631-25.386-57.334-56.896-57.844z"/></g></g></g><g mask="url(#a)"><g transform="rotate(45 1206.333 503.001)"><path d="M0 0h1000v1000H0z"/><g fill="#12de9d" fill-rule="nonzero"><path d="M306.506 199.987l-2.48.02c-81.699 1.325-147.52 67.966-147.52 149.98v58.502l-1.829.658c-57.29 21.105-98.15 76.18-98.15 140.797v100.448l.02 2.06c1.327 81.813 68.06 147.535 149.98 147.535h100.486l2.06-.02 2.449-.06c80.672-2.603 145.086-68.818 145.086-149.92v-58.503l1.852-.666c57.28-21.111 98.126-76.18 98.126-140.788V349.987c0-82.843-67.157-150-150-150zm100.08 50c55.229 0 100 44.771 100 100V450.03c0 55.221-44.76 99.988-99.978 100v99.957c0 54.676-43.88 99.103-98.346 99.986l-1.654.014h-100.08c-54.676 0-99.104-43.88-99.987-98.346l-.013-1.654V549.944c0-54.677 43.88-99.104 98.346-99.987l1.632-.014v-99.956c0-55.229 44.772-100 100-100z"/><path d="M406.586 249.987c55.229 0 100 44.771 100 100V450.03c0 55.221-44.76 99.988-99.978 100v99.957c0 54.676-43.88 99.103-98.346 99.986l-1.654.014h-100.08c-54.676 0-99.104-43.88-99.987-98.346l-.013-1.654V549.944c0-54.677 43.88-99.104 98.346-99.987l1.632-.014v-99.956c0-55.229 44.772-100 100-100zm.827 50.007l-.827-.007h-100.08c-27.338 0-49.552 21.94-49.993 49.173l-.007.827-.001 98.38.022 1.019c.198 24.691-15.968 49.563-48.055 50.529l-1.944.029c-27.338 0-49.552 21.94-49.994 49.173l-.006.827v99.89l.009 1.105.017.707c.859 26.594 22.5 47.906 49.156 48.334l.818.007h99.802l1.23-.01.707-.017c26.595-.858 47.907-22.499 48.334-49.156l.007-.817V550.03c0-27.334 21.934-49.546 49.163-49.993l.827-.007c27.333-.006 49.54-21.944 49.982-49.173l.006-.827V349.987c0-27.338-21.94-49.552-49.173-49.993zM714.38 199.987c-86.934 0-157.494 70.288-157.852 157.195V606.89l.026 2.779c1.71 105.535 87.797 190.318 193.476 190.318 106.868 0 193.501-86.634 193.501-193.502l-.026-3.2c-1.122-69.197-38.566-129.564-94.097-162.867l-.362-.214.415-.675c14.494-23.941 22.77-51.955 22.77-81.69 0-86.308-69.266-156.437-155.24-157.831zm0 50c59.565 0 107.852 48.287 107.852 107.852 0 52.706-37.808 96.582-87.782 105.988 5.116-.56 10.315-.844 15.58-.844 79.253 0 143.501 64.248 143.501 143.502S829.283 749.987 750.03 749.987c-78.462 0-142.216-62.97-143.483-141.129l-.02-2.373V357.388c.245-59.358 48.438-107.401 107.853-107.401z"/><path d="M714.38 249.987c59.565 0 107.852 48.287 107.852 107.852 0 52.706-37.808 96.582-87.782 105.988 5.116-.56 10.315-.844 15.58-.844 79.253 0 143.501 64.248 143.501 143.502S829.283 749.987 750.03 749.987c-78.462 0-142.216-62.97-143.483-141.129l-.02-2.373V357.388c.245-59.358 48.438-107.401 107.853-107.401zm0 50c-31.541 0-57.204 25.249-57.841 56.653l-.011.874V606.33l.015 1.825.034 1.419c1.606 49.748 42.073 89.6 91.924 90.4l1.529.013c51.64 0 93.501-41.862 93.501-93.502s-41.862-93.502-93.501-93.502c-3.439 0-6.822.184-10.14.547-63.766 6.98-77.729-86.976-14.688-98.84 27.063-5.094 47.03-28.92 47.03-56.851 0-31.631-25.386-57.334-56.896-57.844z"/></g></g></g><g mask="url(#a)"><g transform="rotate(45 706.333 1710.108)"><path d="M0 0h1000v1000H0z"/><g fill="#12de9d" fill-rule="nonzero"><path d="M306.506 199.987l-2.48.02c-81.699 1.325-147.52 67.966-147.52 149.98v58.502l-1.829.658c-57.29 21.105-98.15 76.18-98.15 140.797v100.448l.02 2.06c1.327 81.813 68.06 147.535 149.98 147.535h100.486l2.06-.02 2.449-.06c80.672-2.603 145.086-68.818 145.086-149.92v-58.503l1.852-.666c57.28-21.111 98.126-76.18 98.126-140.788V349.987c0-82.843-67.157-150-150-150zm100.08 50c55.229 0 100 44.771 100 100V450.03c0 55.221-44.76 99.988-99.978 100v99.957c0 54.676-43.88 99.103-98.346 99.986l-1.654.014h-100.08c-54.676 0-99.104-43.88-99.987-98.346l-.013-1.654V549.944c0-54.677 43.88-99.104 98.346-99.987l1.632-.014v-99.956c0-55.229 44.772-100 100-100z"/><path d="M406.586 249.987c55.229 0 100 44.771 100 100V450.03c0 55.221-44.76 99.988-99.978 100v99.957c0 54.676-43.88 99.103-98.346 99.986l-1.654.014h-100.08c-54.676 0-99.104-43.88-99.987-98.346l-.013-1.654V549.944c0-54.677 43.88-99.104 98.346-99.987l1.632-.014v-99.956c0-55.229 44.772-100 100-100zm.827 50.007l-.827-.007h-100.08c-27.338 0-49.552 21.94-49.993 49.173l-.007.827-.001 98.38.022 1.019c.198 24.691-15.968 49.563-48.055 50.529l-1.944.029c-27.338 0-49.552 21.94-49.994 49.173l-.006.827v99.89l.009 1.105.017.707c.859 26.594 22.5 47.906 49.156 48.334l.818.007h99.802l1.23-.01.707-.017c26.595-.858 47.907-22.499 48.334-49.156l.007-.817V550.03c0-27.334 21.934-49.546 49.163-49.993l.827-.007c27.333-.006 49.54-21.944 49.982-49.173l.006-.827V349.987c0-27.338-21.94-49.552-49.173-49.993zM714.38 199.987c-86.934 0-157.494 70.288-157.852 157.195V606.89l.026 2.779c1.71 105.535 87.797 190.318 193.476 190.318 106.868 0 193.501-86.634 193.501-193.502l-.026-3.2c-1.122-69.197-38.566-129.564-94.097-162.867l-.362-.214.415-.675c14.494-23.941 22.77-51.955 22.77-81.69 0-86.308-69.266-156.437-155.24-157.831zm0 50c59.565 0 107.852 48.287 107.852 107.852 0 52.706-37.808 96.582-87.782 105.988 5.116-.56 10.315-.844 15.58-.844 79.253 0 143.501 64.248 143.501 143.502S829.283 749.987 750.03 749.987c-78.462 0-142.216-62.97-143.483-141.129l-.02-2.373V357.388c.245-59.358 48.438-107.401 107.853-107.401z"/><path d="M714.38 249.987c59.565 0 107.852 48.287 107.852 107.852 0 52.706-37.808 96.582-87.782 105.988 5.116-.56 10.315-.844 15.58-.844 79.253 0 143.501 64.248 143.501 143.502S829.283 749.987 750.03 749.987c-78.462 0-142.216-62.97-143.483-141.129l-.02-2.373V357.388c.245-59.358 48.438-107.401 107.853-107.401zm0 50c-31.541 0-57.204 25.249-57.841 56.653l-.011.874V606.33l.015 1.825.034 1.419c1.606 49.748 42.073 89.6 91.924 90.4l1.529.013c51.64 0 93.501-41.862 93.501-93.502s-41.862-93.502-93.501-93.502c-3.439 0-6.822.184-10.14.547-63.766 6.98-77.729-86.976-14.688-98.84 27.063-5.094 47.03-28.92 47.03-56.851 0-31.631-25.386-57.334-56.896-57.844z"/></g></g></g></g></svg>