<svg xmlns="http://www.w3.org/2000/svg" width="312" height="312" fill="none" viewBox="0 0 312 312"><path fill="#000" d="M302 156c0 80.634-65.366 146-146 146S10 236.634 10 156 75.366 10 156 10s146 65.366 146 146z"/><path fill="#12E09F" fill-rule="evenodd" d="M312 156c0 86.156-69.844 156-156 156S0 242.156 0 156 69.844 0 156 0s156 69.844 156 156zM156 302c80.634 0 146-65.366 146-146S236.634 10 156 10 10 75.366 10 156s65.366 146 146 146z" clip-rule="evenodd"/><path fill="#12E09F" d="M103.305 248.2c-15.18 0-26.455-3.319-33.825-9.955-7.333-6.637-11.312-18.059-11.935-34.265-.073-1.87-.11-4.437-.11-7.7 0-3.264.073-6.454.22-9.57.147-3.117.403-5.354.77-6.71h6.545c-.257 1.283-.477 3.208-.66 5.775-.183 2.566-.293 5.445-.33 8.635 0 3.153.055 6.27.165 9.35.55 14.08 3.887 24.126 10.01 30.14 6.123 6.013 15.84 9.02 29.15 9.02 13.603 0 23.467-3.025 29.59-9.075 6.123-6.087 9.46-16.134 10.01-30.14.073-1.834.128-3.594.165-5.28.073-1.687.11-3.355.11-5.005a83.615 83.615 0 00-.055-5.225c-.403-10.12-3.062-18.37-7.975-24.75-4.877-6.38-11.605-10.744-20.185-13.09l-20.405-5.61c-2.347-.66-4.363-1.742-6.05-3.245-1.687-1.54-2.988-3.484-3.905-5.83-.917-2.347-1.43-5.079-1.54-8.195-.11-3.044-.165-5.574-.165-7.59 0-2.054.055-4.529.165-7.425.33-8.214 2.053-14.19 5.17-17.93 3.153-3.74 8.177-5.61 15.07-5.61 6.38 0 11.073 1.815 14.08 5.445 3.007 3.63 4.693 9.716 5.06 18.26.11 2.786.11 6.435 0 10.945-.073 4.51-.202 8.653-.385 12.43h-6.6c.183-3.63.312-7.792.385-12.485.11-4.73.128-8.177.055-10.34-.293-7.444-1.522-12.467-3.685-15.07-2.127-2.604-5.097-3.905-8.91-3.905-4.693 0-8.085 1.522-10.175 4.565-2.053 3.006-3.227 7.81-3.52 14.41-.11 2.566-.147 5.078-.11 7.535.073 2.42.128 4.601.165 6.545.073 2.126.367 3.978.88 5.555.55 1.54 1.302 2.805 2.255 3.795a7.631 7.631 0 003.41 1.98l20.295 5.335c10.193 2.676 18.15 7.755 23.87 15.235 5.757 7.443 8.873 17.031 9.35 28.765a83.31 83.31 0 01.055 5.28c0 1.833-.037 3.666-.11 5.5a229.345 229.345 0 01-.165 5.28c-.66 15.766-4.565 27.078-11.715 33.935-7.113 6.856-18.608 10.285-34.485 10.285zm0-10.56c-10.927 0-18.957-2.585-24.09-7.755-5.133-5.207-7.957-14.007-8.47-26.4a280.76 280.76 0 01-.11-8.36c.037-3.154.11-6.124.22-8.91.147-2.824.348-4.895.605-6.215h6.545c-.22 1.576-.403 3.611-.55 6.105a178.392 178.392 0 00-.275 8.25c0 3.006.055 6.068.165 9.185.403 10.266 2.622 17.636 6.655 22.11 4.07 4.473 10.505 6.71 19.305 6.71 8.947 0 15.473-2.237 19.58-6.71 4.143-4.51 6.417-11.88 6.82-22.11.11-2.274.183-4.254.22-5.94.037-1.687.055-3.245.055-4.675.037-1.43.018-2.824-.055-4.18-.183-4.657-1.008-8.709-2.475-12.155-1.467-3.484-3.52-6.344-6.16-8.58-2.603-2.274-5.738-3.887-9.405-4.84l-20.68-5.39c-3.997-1.064-7.572-2.824-10.725-5.28-3.153-2.494-5.665-5.775-7.535-9.845-1.87-4.107-2.897-9.039-3.08-14.795a629.38 629.38 0 01-.165-5.83v-4.675c.037-1.54.092-3.264.165-5.17.513-12.247 3.392-20.937 8.635-26.07 5.28-5.17 13.548-7.755 24.805-7.755 11.073 0 19.103 2.64 24.09 7.92 5.023 5.28 7.773 13.951 8.25 26.015.11 2.786.11 6.545 0 11.275-.073 4.693-.22 8.836-.44 12.43h-6.545c.183-3.264.33-7.205.44-11.825.11-4.657.092-8.635-.055-11.935-.403-10.194-2.622-17.508-6.655-21.945-3.997-4.437-10.358-6.655-19.085-6.655-8.47 0-14.96 2.053-19.47 6.16-4.473 4.106-6.93 11.586-7.37 22.44-.147 3.336-.202 6.013-.165 8.03.037 2.016.092 4.491.165 7.425.147 4.326.88 8.103 2.2 11.33 1.357 3.19 3.227 5.83 5.61 7.92 2.42 2.053 5.28 3.52 8.58 4.4l20.57 5.39c7.077 1.833 12.613 5.463 16.61 10.89 3.997 5.39 6.16 12.338 6.49 20.845.073 1.503.11 2.951.11 4.345 0 1.356-.037 2.86-.11 4.51-.037 1.65-.11 3.685-.22 6.105-.477 11.953-3.227 20.643-8.25 26.07-4.987 5.426-13.237 8.14-24.75 8.14zm0-10.56c-6.417 0-11.165-1.834-14.245-5.5-3.08-3.667-4.785-9.864-5.115-18.59a285.76 285.76 0 01-.11-8.14c0-2.86.055-5.592.165-8.195.147-2.604.312-4.822.495-6.655h6.545a354.52 354.52 0 00-.495 7.04c-.11 2.42-.165 4.95-.165 7.59 0 2.603.055 5.335.165 8.195.257 6.05 1.247 10.725 2.97 14.025 1.76 3.3 5.023 4.95 9.79 4.95 4.437 0 7.682-1.485 9.735-4.455 2.09-3.007 3.263-7.939 3.52-14.795.11-2.31.165-4.29.165-5.94.037-1.65.055-3.062.055-4.235 0-1.21-.018-2.274-.055-3.19-.073-2.457-.44-4.584-1.1-6.38-.66-1.834-1.577-3.319-2.75-4.455a8.491 8.491 0 00-4.125-2.365l-20.845-5.445c-6.453-1.687-11.972-4.437-16.555-8.25-4.583-3.85-8.122-8.635-10.615-14.355-2.493-5.72-3.85-12.265-4.07-19.635-.11-3.557-.165-6.527-.165-8.91 0-2.384.055-4.914.165-7.59.66-15.694 4.602-26.95 11.825-33.77 7.223-6.82 18.828-10.23 34.815-10.23 15.253 0 26.492 3.337 33.715 10.01 7.223 6.636 11.165 17.966 11.825 33.99.11 2.786.11 6.673 0 11.66-.073 4.986-.22 9.166-.44 12.54h-6.6c.257-3.924.422-8.195.495-12.815.073-4.657.055-8.379-.055-11.165-.55-13.97-3.868-23.944-9.955-29.92-6.05-6.013-15.712-9.02-28.985-9.02-13.603 0-23.54 2.988-29.81 8.965-6.233 5.94-9.643 15.913-10.23 29.92-.147 3.41-.202 6.251-.165 8.525.037 2.273.092 4.803.165 7.59.22 6.306 1.375 11.916 3.465 16.83 2.09 4.876 5.06 8.946 8.91 12.21 3.85 3.263 8.488 5.61 13.915 7.04l20.79 5.445c2.603.66 4.84 1.833 6.71 3.52 1.87 1.65 3.337 3.795 4.4 6.435 1.1 2.64 1.723 5.775 1.87 9.405a51.11 51.11 0 01.055 4.07c0 1.283-.018 2.695-.055 4.235-.037 1.503-.11 3.373-.22 5.61-.367 8.616-2.072 14.813-5.115 18.59-3.007 3.74-7.902 5.61-14.685 5.61zM164.214 246V70h40.7c10.157 0 18.737 1.338 25.74 4.015 7.04 2.64 12.393 7.278 16.06 13.915 3.667 6.6 5.5 15.84 5.5 27.72 0 1.356-.018 2.658-.055 3.905 0 1.21-.037 2.438-.11 3.685-.073 1.21-.165 2.511-.275 3.905-.587 7.186-2.457 12.98-5.61 17.38-3.117 4.363-7.627 7.883-13.53 10.56v1.155c6.27 2.456 11.238 6.526 14.905 12.21 3.703 5.646 5.628 12.65 5.775 21.01.037 2.053.055 3.758.055 5.115 0 1.356-.018 2.548-.055 3.575 0 1.026-.037 2.053-.11 3.08a109.037 109.037 0 01-.33 3.63c-.99 10.486-3.337 18.718-7.04 24.695-3.667 5.976-8.8 10.211-15.4 12.705-6.6 2.493-14.813 3.74-24.64 3.74h-41.58zm6.6-5.72h34.98c12.503 0 21.982-2.53 28.435-7.59 6.49-5.06 10.505-14.337 12.045-27.83.22-1.797.348-3.41.385-4.84.073-1.467.11-2.989.11-4.565 0-1.614-.018-3.52-.055-5.72-.147-8.984-1.998-16.042-5.555-21.175-3.52-5.134-8.8-9.149-15.84-12.045v-1.485c6.527-2.97 11.33-6.6 14.41-10.89 3.08-4.327 4.895-10.029 5.445-17.105.11-1.467.202-2.805.275-4.015.073-1.21.11-2.402.11-3.575.037-1.21.055-2.475.055-3.795 0-10.414-1.577-18.499-4.73-24.255-3.153-5.793-7.755-9.845-13.805-12.155-6.05-2.347-13.438-3.52-22.165-3.52h-34.1v164.56zm6.6-5.72V81.44h27.5c7.04 0 13.108.953 18.205 2.86 5.097 1.87 9.02 5.28 11.77 10.23 2.75 4.913 4.125 11.953 4.125 21.12 0 1.21-.037 2.401-.11 3.575a150.375 150.375 0 01-.165 3.63 248.34 248.34 0 01-.165 4.29c-.183 6.746-1.833 12.356-4.95 16.83-3.117 4.473-8.323 8.323-15.62 11.55v.77c7.663 3.08 13.218 7.26 16.665 12.54 3.483 5.28 5.298 12.338 5.445 21.175.037 2.126.055 3.941.055 5.445 0 1.503-.037 2.97-.11 4.4-.037 1.43-.147 3.135-.33 5.115-.917 11.036-4.143 18.736-9.68 23.1-5.537 4.326-13.622 6.49-24.255 6.49h-28.38zm6.6-80.96h16.775c9.423 0 16.812-1.834 22.165-5.5 5.39-3.704 8.415-10.689 9.075-20.955.11-1.467.183-2.842.22-4.125.073-1.284.11-2.53.11-3.74.037-1.21.055-2.42.055-3.63 0-11.147-2.383-18.682-7.15-22.605-4.73-3.924-11.513-5.885-20.35-5.885h-20.9v66.44zm6.6-5.72v-55h14.3c6.71 0 11.862 1.577 15.455 4.73 3.63 3.153 5.445 9.166 5.445 18.04 0 1.32-.018 2.603-.055 3.85 0 1.21-.037 2.438-.11 3.685a81.014 81.014 0 01-.22 3.96c-.55 8.176-2.988 13.676-7.315 16.5-4.29 2.823-10.065 4.235-17.325 4.235h-10.175zm6.6-5.72h3.575c5.463 0 9.735-1.027 12.815-3.08 3.117-2.09 4.858-6.069 5.225-11.935.147-2.274.238-4.272.275-5.995.073-1.76.11-3.594.11-5.5 0-6.857-1.283-11.404-3.85-13.64-2.567-2.273-6.05-3.41-10.45-3.41h-7.7v43.56zm-13.2 86.68h21.78c8.763 0 15.345-1.797 19.745-5.39 4.4-3.63 6.948-9.864 7.645-18.7a64.46 64.46 0 00.275-4.455c.073-1.43.11-2.952.11-4.565 0-1.614-.018-3.429-.055-5.445-.183-11.587-2.823-19.635-7.92-24.145-5.06-4.547-12.595-6.82-22.605-6.82h-18.975v69.52zm6.6-5.72v-58.08h12.375c7.297 0 13.072 1.76 17.325 5.28 4.253 3.52 6.472 10.34 6.655 20.46.037 1.686.037 3.281 0 4.785 0 1.466-.037 2.951-.11 4.455-.073 1.466-.183 3.08-.33 4.84-.55 6.71-2.512 11.44-5.885 14.19-3.337 2.713-8.287 4.07-14.85 4.07h-15.18zm6.6-5.72h8.58c4.473 0 7.883-.954 10.23-2.86 2.347-1.944 3.667-5.189 3.96-9.735.11-1.724.183-3.3.22-4.73.073-1.43.128-2.879.165-4.345.037-1.467.037-3.08 0-4.84-.11-7.224-1.577-12.375-4.4-15.455-2.787-3.117-7.113-4.675-12.98-4.675h-5.775v46.64z"/></svg>