<svg xmlns="http://www.w3.org/2000/svg" width="1011" height="1011" fill="none" viewBox="0 0 1011 1011"><path fill="#000" d="M1001 505.5c0 273.657-221.843 495.5-495.5 495.5C231.843 1001 10 779.157 10 505.5 10 231.843 231.843 10 505.5 10 779.157 10 1001 231.843 1001 505.5z"/><path fill="#F36" fill-rule="evenodd" d="M1011 505.5c0 279.18-226.32 505.5-505.5 505.5S0 784.68 0 505.5 226.32 0 505.5 0 1011 226.32 1011 505.5zM505.5 1001c273.657 0 495.5-221.843 495.5-495.5C1001 231.843 779.157 10 505.5 10 231.843 10 10 231.843 10 505.5 10 779.157 231.843 1001 505.5 1001z" clip-rule="evenodd"/><path fill="#F36" d="M128.438 483.5c-17.25 0-30.063-3.771-38.438-11.312-8.333-7.542-12.854-20.521-13.563-38.938-.083-2.125-.124-5.042-.124-8.75s.083-7.333.25-10.875c.166-3.542.458-6.083.874-7.625h7.438c-.292 1.458-.542 3.646-.75 6.563-.208 2.916-.333 6.187-.375 9.812 0 3.583.063 7.125.188 10.625.624 16 4.416 27.417 11.374 34.25 6.959 6.833 18.001 10.25 33.126 10.25 15.458 0 26.666-3.437 33.625-10.312 6.958-6.917 10.75-18.334 11.375-34.25.083-2.084.145-4.084.187-6a131.5 131.5 0 00.125-5.688 94.993 94.993 0 00-.062-5.937c-.459-11.5-3.48-20.875-9.063-28.125-5.542-7.25-13.187-12.209-22.937-14.875l-23.188-6.375c-2.667-.75-4.958-1.98-6.875-3.688-1.917-1.75-3.396-3.958-4.437-6.625-1.042-2.667-1.625-5.771-1.75-9.313-.125-3.458-.188-6.333-.188-8.624 0-2.334.063-5.146.188-8.438.375-9.333 2.333-16.125 5.875-20.375 3.583-4.25 9.291-6.375 17.125-6.375 7.25 0 12.583 2.063 16 6.188 3.416 4.125 5.333 11.041 5.75 20.75.125 3.166.125 7.312 0 12.437-.084 5.125-.23 9.833-.438 14.125h-7.5c.208-4.125.354-8.854.438-14.187.125-5.375.145-9.292.062-11.75-.333-8.459-1.729-14.167-4.188-17.125-2.416-2.959-5.791-4.438-10.124-4.438-5.334 0-9.188 1.729-11.563 5.188-2.333 3.416-3.667 8.875-4 16.375-.125 2.916-.167 5.77-.125 8.562.083 2.75.146 5.229.188 7.438.083 2.416.416 4.52 1 6.312.625 1.75 1.479 3.188 2.562 4.313a8.67 8.67 0 003.875 2.25L143.438 365c11.583 3.042 20.625 8.813 27.125 17.313 6.541 8.458 10.083 19.354 10.625 32.687a94.7 94.7 0 01.062 6c0 2.083-.042 4.167-.125 6.25a260.166 260.166 0 01-.187 6c-.75 17.917-5.188 30.771-13.313 38.563-8.083 7.791-21.146 11.687-39.187 11.687zm0-12c-12.417 0-21.542-2.937-27.376-8.812-5.833-5.917-9.041-15.917-9.624-30-.084-2.75-.126-5.917-.126-9.5.042-3.584.126-6.959.25-10.125.167-3.209.396-5.563.688-7.063h7.438c-.25 1.792-.459 4.104-.626 6.938-.166 2.833-.27 5.958-.312 9.375 0 3.416.063 6.895.188 10.437.458 11.667 2.979 20.042 7.562 25.125 4.625 5.083 11.938 7.625 21.938 7.625 10.166 0 17.583-2.542 22.25-7.625 4.708-5.125 7.291-13.5 7.75-25.125.125-2.583.208-4.833.25-6.75.041-1.917.062-3.687.062-5.312a59.672 59.672 0 00-.062-4.75c-.209-5.292-1.146-9.896-2.813-13.813-1.667-3.958-4-7.208-7-9.75-2.958-2.583-6.521-4.417-10.687-5.5l-23.5-6.125c-4.542-1.208-8.605-3.208-12.188-6-3.583-2.833-6.438-6.562-8.563-11.187-2.124-4.667-3.291-10.271-3.5-16.813a713.773 713.773 0 01-.187-6.625v-5.313c.042-1.749.104-3.708.188-5.874.583-13.917 3.854-23.792 9.812-29.625 6-5.875 15.396-8.813 28.188-8.813 12.583 0 21.708 3 27.374 9 5.709 6 8.834 15.854 9.376 29.562.125 3.167.125 7.438 0 12.813-.084 5.333-.25 10.042-.5 14.125h-7.438c.208-3.708.375-8.187.5-13.437.125-5.292.104-9.813-.062-13.563-.459-11.583-2.98-19.896-7.563-24.937-4.542-5.042-11.771-7.563-21.687-7.563-9.625 0-17 2.333-22.126 7-5.083 4.667-7.874 13.167-8.374 25.5-.167 3.792-.23 6.833-.188 9.125.042 2.292.104 5.104.188 8.438.166 4.916 1 9.208 2.5 12.875 1.541 3.625 3.666 6.625 6.374 9 2.75 2.333 6.001 4 9.751 5l23.375 6.125c8.041 2.083 14.333 6.208 18.874 12.375 4.542 6.125 7.001 14.02 7.376 23.687.083 1.708.124 3.354.124 4.938 0 1.541-.041 3.25-.124 5.125a309.484 309.484 0 01-.25 6.937c-.542 13.583-3.667 23.458-9.376 29.625-5.666 6.167-15.041 9.25-28.124 9.25zm0-12c-7.292 0-12.688-2.083-16.188-6.25-3.5-4.167-5.437-11.208-5.812-21.125-.084-2.917-.126-6-.126-9.25s.063-6.354.188-9.312c.167-2.959.354-5.48.562-7.563h7.438c-.208 2.583-.396 5.25-.562 8a190.16 190.16 0 00-.188 8.625c0 2.958.063 6.063.188 9.313.291 6.875 1.416 12.187 3.375 15.937 2 3.75 5.708 5.625 11.125 5.625 5.041 0 8.729-1.687 11.062-5.062 2.375-3.417 3.708-9.021 4-16.813.125-2.625.188-4.875.188-6.75.041-1.875.062-3.479.062-4.812 0-1.375-.021-2.584-.062-3.625-.084-2.792-.5-5.209-1.25-7.25-.75-2.084-1.792-3.771-3.126-5.063-1.291-1.333-2.854-2.229-4.687-2.687l-23.687-6.188c-7.334-1.917-13.605-5.042-18.813-9.375-5.208-4.375-9.23-9.812-12.063-16.312-2.833-6.5-4.374-13.938-4.624-22.313-.126-4.042-.188-7.417-.188-10.125s.063-5.583.188-8.625c.75-17.833 5.229-30.625 13.437-38.375 8.208-7.75 21.396-11.625 39.563-11.625 17.333 0 30.104 3.792 38.312 11.375 8.208 7.542 12.687 20.417 13.438 38.625.125 3.167.125 7.583 0 13.25-.084 5.667-.25 10.417-.5 14.25h-7.5c.291-4.458.479-9.312.562-14.562.083-5.292.063-9.521-.062-12.688-.625-15.875-4.396-27.208-11.313-34-6.875-6.833-17.854-10.25-32.937-10.25-15.459 0-26.75 3.396-33.875 10.188-7.084 6.75-10.959 18.083-11.626 34-.166 3.875-.229 7.104-.187 9.687.042 2.583.104 5.458.188 8.625.25 7.167 1.562 13.542 3.937 19.125C89.25 371.667 92.625 376.292 97 380s9.646 6.375 15.813 8l23.625 6.188c2.958.75 5.5 2.083 7.625 4 2.125 1.875 3.791 4.312 4.999 7.312 1.251 3 1.959 6.563 2.126 10.688.083 1.625.104 3.166.062 4.625 0 1.458-.021 3.062-.062 4.812a267.373 267.373 0 01-.25 6.375c-.417 9.792-2.355 16.833-5.813 21.125-3.417 4.25-8.979 6.375-16.687 6.375zm69.464-172V281h37.5v6.5h-37.5zm0 26V307h37.5v6.5h-37.5zm0-13V294h37.5v6.5h-37.5zm30 180.5V331h7.5v150h-7.5zm-30 0V331h7.5v150h-7.5zm15 0V331h7.5v150h-7.5zm73.106 0V281h7.5v200h-7.5zm-30 0V281h7.5v200h-7.5zm15 0V281h7.5v200h-7.5zm59.98 0l-22.125-150h7.625l20.813 143.5h49.125L407.488 331h7.625l-22.375 150h-61.75zm11.438-13l-7.875-56.062-10.5-80.938h7.625l10.125 78.813 6.937 51.687h26.25l7-51.625L392.301 331h7.625l-10.688 81.063L381.301 468h-38.875zm11.437-13l-4.812-47.312-9.75-76.688h7.562l9.438 74.438 3.875 43.062h3.375l4.062-43.312L377.051 331h7.625l-9.875 76.375L369.926 455h-16.063zm122.713 28.5c-17.416 0-29.958-3.479-37.625-10.437-7.666-7-11.958-18.313-12.875-33.938-.166-3.25-.312-7.896-.437-13.937-.084-6.042-.125-12.48-.125-19.313 0-6.875.041-13.25.125-19.125.125-5.875.271-10.271.437-13.187 1.084-16.5 5.625-28.125 13.625-34.875 8-6.792 20.125-10.188 36.375-10.188 16.75 0 28.917 3.375 36.5 10.125 7.584 6.708 11.75 17.833 12.5 33.375.167 3.458.271 7.063.313 10.813.083 3.708.104 7.479.062 11.312 0 3.833-.062 7.646-.187 11.438a299.74 299.74 0 01-.438 10.937h-61.812c.041 2.542.083 5.188.125 7.938.041 2.708.083 5.125.125 7.25.083 2.125.146 3.583.187 4.375.417 6 1.604 10.416 3.563 13.25 2 2.791 5.187 4.187 9.562 4.187 3.625 0 6.292-1.25 8-3.75 1.75-2.542 2.771-6.708 3.063-12.5.083-1.25.104-3.083.062-5.5a306.884 306.884 0 00-.312-9h7.5c.166 3.333.271 6.313.312 8.938.042 2.583.021 4.541-.062 5.875-.375 7.833-2.021 13.458-4.938 16.875-2.875 3.375-7.416 5.062-13.625 5.062-6.958 0-12.041-1.75-15.25-5.25-3.208-3.5-5.021-9.271-5.437-17.312a489.814 489.814 0 01-.25-6.938c-.042-2.75-.084-5.792-.125-9.125V410.5h62.125c.125-2.75.208-5.687.25-8.812.083-3.125.125-6.334.125-9.625 0-3.334-.042-6.646-.125-9.938a243.497 243.497 0 00-.313-9.75c-.666-13.542-4.208-23.229-10.625-29.062-6.375-5.875-16.666-8.813-30.875-8.813-13.875 0-24.187 2.979-30.937 8.938-6.75 5.958-10.604 16.145-11.563 30.562-.208 3.125-.354 7.708-.437 13.75-.084 6.042-.125 12.479-.125 19.313 0 6.833.041 13.125.125 18.875.125 5.708.25 9.833.375 12.375.833 13.666 4.458 23.625 10.875 29.875 6.416 6.208 17.146 9.312 32.187 9.312 14 0 24.167-3 30.5-9 6.334-6.042 9.834-15.958 10.5-29.75.084-1.833.104-3.667.063-5.5 0-1.875-.042-3.708-.125-5.5a162.256 162.256 0 00-.188-5h7.5c.125 2.208.229 4.792.313 7.75.083 2.958.062 5.792-.063 8.5-.75 15.917-4.896 27.313-12.437 34.188-7.5 6.875-19.521 10.312-36.063 10.312zm0-12c-11.916 0-20.646-2.562-26.187-7.687-5.542-5.125-8.667-13.709-9.375-25.75-.167-2.584-.292-6.709-.375-12.375-.084-5.667-.125-11.855-.125-18.563 0-6.75.041-13.104.125-19.062.083-5.959.229-10.5.437-13.625.834-12.042 3.938-20.709 9.313-26 5.375-5.292 13.937-7.938 25.687-7.938 11.375 0 19.75 2.438 25.125 7.313s8.334 13.125 8.875 24.75c.167 3.25.271 6.666.313 10.25.083 3.541.125 7.145.125 10.812 0 3.625-.063 7.25-.188 10.875h-62.25c-.041 6.917-.062 12.979-.062 18.188 0 5.166.021 10.104.062 14.812.167 10 2.438 17.167 6.813 21.5 4.416 4.333 11.646 6.5 21.687 6.5 8.084 0 14.313-1.937 18.688-5.812 4.375-3.875 6.812-10.98 7.312-21.313.084-2.333.104-4.792.063-7.375a202.241 202.241 0 00-.313-8.25h7.5c.125 2.542.229 5.125.313 7.75.083 2.625.062 5.313-.063 8.063-.541 11.708-3.416 20.125-8.625 25.25-5.208 5.125-13.5 7.687-24.875 7.687zm-28.437-73h54.812c.042-3.25.042-6.312 0-9.187 0-2.875-.041-5.667-.125-8.375-.041-2.75-.125-5.5-.25-8.25-.458-10.209-3-17.125-7.625-20.75-4.583-3.625-10.875-5.438-18.875-5.438-9.041 0-15.729 2.188-20.062 6.563-4.292 4.375-6.792 11.687-7.5 21.937-.042 1.042-.104 3.771-.188 8.188-.083 4.416-.146 9.52-.187 15.312zm7.437-6c.042-2.208.084-4.437.125-6.687.042-2.292.084-4.355.125-6.188l.188-4.187c.583-8.209 2.437-14.084 5.562-17.625 3.125-3.542 7.959-5.313 14.5-5.313 6.584 0 11.313 1.667 14.188 5 2.916 3.333 4.541 8.667 4.875 16 .083 1.667.146 3.604.187 5.813.084 2.166.125 4.416.125 6.75.042 2.291.063 4.437.063 6.437h-39.938zm7.563-6h24.812c0-1.375-.021-2.833-.062-4.375l-.125-4.5c-.042-1.5-.084-2.792-.125-3.875-.25-5.333-1.271-9.208-3.063-11.625-1.791-2.417-4.625-3.625-8.5-3.625-4.041 0-7.041 1.333-9 4-1.958 2.667-3.146 7.104-3.562 13.313-.042.708-.084 1.562-.125 2.562-.042 1-.084 2.167-.125 3.5a579.08 579.08 0 00-.125 4.625zm122.99 97c-15.75 0-27.208-3.437-34.375-10.312-7.167-6.875-11.125-18.271-11.875-34.188a180.8 180.8 0 01-.188-8.562c.042-3.084.188-5.646.438-7.688h6.812c-.208 1.917-.333 4.333-.375 7.25-.041 2.917 0 5.792.125 8.625.667 13.875 4.042 23.833 10.125 29.875 6.125 6 15.896 9 29.313 9 15 0 25.75-2.896 32.25-8.687 6.5-5.792 9.75-15.396 9.75-28.813v-7c0-9.583-2.813-16.687-8.438-21.312-5.625-4.667-13.229-8.646-22.812-11.938l-12.438-4.25c-4.5-1.583-7.916-3.208-10.25-4.875-2.291-1.667-3.875-3.312-4.75-4.937-.833-1.667-1.354-3.23-1.562-4.688-.167-.958-.229-2.104-.188-3.437.042-1.375.105-2.646.188-3.813.583-7.583 2.271-13.021 5.062-16.312 2.792-3.292 7.771-4.938 14.938-4.938 5.583 0 10.021 1.438 13.312 4.313 3.292 2.875 5.125 8.416 5.5 16.625.084 1.708.084 3.958 0 6.75-.083 2.75-.166 5.604-.25 8.562h-6.812c.083-2.792.167-5.521.25-8.187.083-2.709.083-4.98 0-6.813-.25-5.417-1.313-9.312-3.188-11.687-1.875-2.375-4.812-3.563-8.812-3.563-4.583 0-7.771 1.188-9.563 3.563-1.791 2.333-2.854 6.229-3.187 11.687a65.482 65.482 0 00-.125 3.938c0 1.25.042 2.354.125 3.312.167 1.583.75 2.875 1.75 3.875 1.042.958 2.396 1.792 4.062 2.5 1.709.667 3.584 1.375 5.625 2.125l12.063 4.25c6.958 2.417 13.208 5.146 18.75 8.188 5.542 3 9.917 6.937 13.125 11.812 3.25 4.833 4.875 11.25 4.875 19.25v7c0 15.542-3.813 26.688-11.438 33.438-7.625 6.708-20.229 10.062-37.812 10.062zm0-12c-11.083 0-19.146-2.562-24.188-7.687-5.041-5.167-7.854-13.667-8.437-25.5-.083-2.125-.125-4.73-.125-7.813.042-3.083.167-5.667.375-7.75h6.812c-.166 2.042-.27 4.521-.312 7.438-.042 2.916-.021 5.5.062 7.75.459 9.833 2.688 16.895 6.688 21.187 4.042 4.25 10.417 6.375 19.125 6.375 9.833 0 16.875-1.979 21.125-5.937 4.25-3.959 6.375-10.48 6.375-19.563v-7c0-5.333-1.604-9.625-4.813-12.875-3.166-3.292-8.291-6.083-15.375-8.375l-13.125-4.25c-6.291-2.042-11.375-4.292-15.25-6.75-3.833-2.5-6.687-5.354-8.562-8.562-1.833-3.209-2.875-6.938-3.125-11.188a101.26 101.26 0 01-.063-3.75c.042-1.375.063-2.542.063-3.5 0-11.875 2.667-20.375 8-25.5 5.375-5.167 14.208-7.75 26.5-7.75 10.958 0 18.958 2.479 24 7.438 5.042 4.958 7.833 13.166 8.375 24.625.083 2.208.104 4.625.062 7.25a270.004 270.004 0 01-.312 8.937h-6.813c.125-3.125.23-5.896.313-8.312a97.191 97.191 0 00-.063-7.75c-.458-10.042-2.875-16.917-7.25-20.626-4.333-3.708-10.437-5.562-18.312-5.562-9.708 0-16.688 2.125-20.938 6.375-4.208 4.208-6.312 11.167-6.312 20.875 0 1.042-.021 2.271-.063 3.688 0 1.375.021 2.562.063 3.562.25 3.083 1.125 5.875 2.625 8.375 1.542 2.458 3.854 4.688 6.937 6.688 3.125 1.958 7.188 3.77 12.188 5.437l12.812 4.25c8.875 2.917 15.375 6.396 19.5 10.438 4.125 4.041 6.188 9.645 6.188 16.812v7c0 11.25-2.688 19.313-8.063 24.188s-14.27 7.312-26.687 7.312zm0-12c-6.375 0-11.042-1.687-14-5.062-2.958-3.417-4.625-9.021-5-16.813-.083-1.917-.125-4.25-.125-7 .042-2.75.146-5.375.312-7.875h6.813a143.037 143.037 0 00-.313 7.563c0 2.583.042 4.854.125 6.812.292 5.875 1.375 10.083 3.25 12.625 1.917 2.5 4.896 3.75 8.938 3.75 4.667 0 8-1.042 10-3.125 2-2.125 3-5.583 3-10.375v-7c0-2.625-.833-4.604-2.5-5.937-1.625-1.375-3.833-2.48-6.625-3.313l-13.875-4.25c-6.75-2.083-12.958-4.625-18.625-7.625-5.625-3-10.146-6.958-13.563-11.875-3.375-4.917-5.062-11.25-5.062-19v-7.25c0-16.167 3.792-27.75 11.375-34.75s20.125-10.5 37.625-10.5c15.708 0 27.104 3.375 34.187 10.125 7.125 6.708 11.063 17.833 11.813 33.375.125 2.667.146 5.479.062 8.438a435.79 435.79 0 01-.312 8.312h-6.813c.084-2.292.167-4.958.25-8 .125-3.042.125-5.833 0-8.375-.666-13.542-4.041-23.229-10.125-29.062-6.041-5.875-15.729-8.813-29.062-8.813-14.917 0-25.604 3.042-32.063 9.125-6.458 6.042-9.687 16.083-9.687 30.125 0 1.042-.021 2.25-.063 3.625 0 1.375.021 2.583.063 3.625.25 5.667 1.562 10.521 3.937 14.563 2.417 4.041 5.959 7.5 10.625 10.375 4.667 2.833 10.5 5.354 17.5 7.562l13.563 4.25c5.542 1.75 9.354 3.854 11.437 6.313 2.125 2.458 3.188 5.437 3.188 8.937v7c0 6.958-1.583 11.958-4.75 15-3.125 3-8.292 4.5-15.5 4.5zm128.625 11c-13.833 0-23.75-2.437-29.75-7.312s-9-12.938-9-24.188v-88.5h-29.25V344h29.25v-55.5h7.5V344h40.75v6.5h-40.75V439c0 8.917 2.417 15.313 7.25 19.188 4.833 3.875 12.833 5.812 24 5.812 2 0 3.958-.021 5.875-.062 1.917-.042 3.958-.125 6.125-.25v6.25a66.878 66.878 0 01-5.375.437c-1.875.083-4.083.125-6.625.125zm0 13c-19.167 0-32.917-3.437-41.25-10.312-8.333-6.875-12.5-18.271-12.5-34.188v-75.5h-14.25V357h21.75v82c0 13.542 3.562 23.271 10.687 29.188 7.167 5.875 19.021 8.812 35.563 8.812 2.625 0 4.896-.062 6.812-.187 1.959-.125 3.688-.334 5.188-.625v6.25c-2.958.708-6.958 1.062-12 1.062zm0-25.937c-8.458 0-14.542-1.438-18.25-4.313-3.667-2.875-5.5-7.625-5.5-14.25v-82h33.25v6.5h-25.75V439c0 4.292 1.25 7.375 3.75 9.25 2.542 1.875 6.708 2.813 12.5 2.813h8.562c1.917 0 3.063-.021 3.438-.063v6.25a181.04 181.04 0 01-4.5.25c-1.792.042-4.292.063-7.5.063zm-68-120.063V331h14.25v-42.5h7.5v49h-21.75zm44.25 0v-49h7.5V331h25.75v6.5h-33.25zM834.467 481V380c0-16.25-3.104-27.896-9.313-34.938-6.208-7.041-16.521-10.562-30.937-10.562-14.834 0-25.563 2.938-32.188 8.813-6.625 5.833-10.229 15.5-10.812 29a445.52 445.52 0 00-.188 8c0 2.791.125 5.583.375 8.375h-7.437c-.25-2.959-.396-5.625-.438-8 0-2.417.063-5.313.188-8.688.625-15.667 4.896-26.833 12.812-33.5 7.917-6.667 20.479-10 37.688-10 11.416 0 20.625 1.75 27.625 5.25 7 3.458 12.104 8.958 15.312 16.5 3.209 7.542 4.813 17.458 4.813 29.75v101h-7.5zm-50.375-15c6.458 0 12.333-1.875 17.625-5.625 5.291-3.792 9.521-8.646 12.687-14.562 3.167-5.917 4.75-12.084 4.75-18.5V404.75c-4.583.292-9.729 1.042-15.437 2.25a152.977 152.977 0 00-16.875 4.5c-7.792 2.583-13.917 5.917-18.375 10-4.459 4.083-6.917 9.792-7.375 17.125a31.748 31.748 0 00.062 3.438c.125 1.125.209 2.041.25 2.75.584 6.791 2.834 12.02 6.75 15.687 3.917 3.667 9.229 5.5 15.938 5.5zm1.937-6.5c-5.166 0-9.125-1.583-11.875-4.75-2.708-3.208-4.479-6.75-5.312-10.625-.084-.5-.167-1.292-.25-2.375-.084-1.083-.104-1.875-.063-2.375.459-5.75 2.354-10.292 5.688-13.625 3.375-3.375 8.333-6.208 14.875-8.5 3.291-1.167 6.937-2.229 10.937-3.187 4-1 7.896-1.771 11.688-2.313V428c0 5.917-1.021 11.271-3.063 16.063-2 4.75-4.916 8.52-8.75 11.312-3.833 2.75-8.458 4.125-13.875 4.125zm1.125-5.875c3.625 0 6.709-1.083 9.25-3.25 2.542-2.167 4.479-5.125 5.813-8.875 1.333-3.75 2-8.021 2-12.812v-9.313c-3.042.708-5.646 1.375-7.813 2-2.125.625-3.771 1.167-4.937 1.625-5.542 2.292-9.479 4.625-11.813 7-2.291 2.375-3.479 5.479-3.562 9.313v2.187c0 .625.083 1.292.25 2 .5 2.042 1.562 4.25 3.187 6.625 1.667 2.333 4.209 3.5 7.625 3.5zm-10.625 30c-10.791 0-19.5-3.104-26.125-9.312-6.583-6.209-10.396-15.396-11.437-27.563a135.186 135.186 0 01-.313-5.562c-.083-2.209-.062-3.959.063-5.25.875-10.25 4.479-18.605 10.812-25.063 6.375-6.5 16.417-12.021 30.125-16.562 3.209-1.084 5.938-1.959 8.188-2.625a106.273 106.273 0 017.187-1.813c2.5-.542 5.646-1.125 9.438-1.75v-8.187c0-7.667-.792-13.146-2.375-16.438-1.542-3.333-4.167-5-7.875-5-4.542 0-7.813 1.208-9.813 3.625-1.958 2.375-3.041 6.208-3.25 11.5-.041.875-.083 2.833-.125 5.875-.041 3.042 0 6.104.125 9.188h-7.437c-.167-3.709-.229-6.834-.188-9.375.084-2.584.146-4.75.188-6.5.333-7.709 2.229-13.021 5.687-15.938 3.459-2.917 8.396-4.375 14.813-4.375 6.416 0 10.979 2.125 13.687 6.375 2.709 4.25 4.063 11.271 4.063 21.063v13.375c-6.167.916-11.479 1.895-15.938 2.937-4.458 1-9.104 2.25-13.937 3.75-12.292 3.875-21.146 8.708-26.563 14.5-5.416 5.792-8.521 13.146-9.312 22.063-.084 1.208-.104 2.75-.063 4.625.084 1.875.188 3.52.313 4.937.875 10.375 4.146 18.25 9.812 23.625 5.667 5.375 13.229 8.063 22.688 8.063 8.708 0 15.75-1.917 21.125-5.75 5.375-3.875 9.896-8.521 13.562-13.938h1.688l-2.563 17.25V481h-7.437l-.125-1 3.812-11h-1.375c-4.416 4.917-8.812 8.583-13.187 11s-10.354 3.625-17.938 3.625zm42.938-2.562V463l1.125-19.875h-1.688c-4 8.875-8.937 15.896-14.812 21.063-5.875 5.166-13.479 7.729-22.813 7.687-7.625-.042-13.916-2.229-18.875-6.562-4.916-4.334-7.75-10.959-8.5-19.875-.041-.834-.125-2.105-.25-3.813-.083-1.75-.083-3.167 0-4.25.709-7.875 3.396-14.354 8.063-19.437 4.708-5.084 12.291-9.146 22.75-12.188a207.633 207.633 0 0112.562-3.25c4.084-.958 8-1.75 11.75-2.375 3.792-.625 7.354-1.083 10.688-1.375V380c0-11.958-1.938-20.521-5.813-25.688-3.875-5.208-10.354-7.812-19.437-7.812-9.542 0-16.5 2.042-20.875 6.125-4.375 4.042-6.75 10.708-7.125 20a402.515 402.515 0 00-.188 7.625 98.85 98.85 0 00.25 8.438h-7.437c-.209-3.209-.313-6.125-.313-8.75.042-2.667.104-5.146.188-7.438.458-11.417 3.437-19.604 8.937-24.562 5.5-4.959 14.354-7.438 26.563-7.438 11.708 0 20.083 3.063 25.125 9.188 5.083 6.083 7.625 16.187 7.625 30.312v101.063h-7.5zm57.498-.063V331h7.437l.063 18-1.375 19.875h1.687c4.125-9.083 9.459-15.625 16-19.625 6.584-4.042 14.396-6.062 23.438-6.062 2.417 0 4.896.062 7.437.187 2.542.125 4.313.25 5.313.375v6.5c-1.25-.125-3.292-.229-6.125-.312a180.463 180.463 0 00-8.063-.188c-8.291 0-15.291 1.667-21 5-5.708 3.292-10.02 7.604-12.937 12.938-2.917 5.291-4.375 10.958-4.375 17V481h-7.5zm-15 0V331h7.5v150h-7.5zm30 0v-97c0-9.083 2.625-15.854 7.875-20.312 5.292-4.459 11.771-6.688 19.437-6.688h17.688v6.563a307.57 307.57 0 00-8.813 0h-8.875c-6.666 0-11.583 1.604-14.75 4.812-3.125 3.167-4.687 8.104-4.687 14.813V481h-7.875zm-3.625-127.125l3.562-17.25V331h7.438l.125 1-4.813 11h1.375c3.459-3.958 8.105-7.083 13.938-9.375 5.875-2.333 11.812-3.5 17.812-3.5 1.375 0 2.896.063 4.563.188 1.667.083 3.208.229 4.625.437v6.5a33.387 33.387 0 00-3.938-.437 53.605 53.605 0 00-4.687-.188c-8.333 0-15.646 1.313-21.938 3.937-6.291 2.584-11.75 7.021-16.375 13.313h-1.687zM79 711V511h46.25c11.542 0 21.292 1.521 29.25 4.563 8 3 14.083 8.27 18.25 15.812 4.167 7.5 6.25 18 6.25 31.5 0 1.542-.021 3.021-.062 4.437 0 1.375-.042 2.771-.125 4.188a251.565 251.565 0 01-.313 4.438c-.667 8.166-2.792 14.749-6.375 19.75-3.542 4.958-8.667 8.958-15.375 12V609c7.125 2.792 12.771 7.417 16.938 13.875 4.208 6.417 6.395 14.375 6.562 23.875.042 2.333.063 4.271.063 5.812 0 1.542-.021 2.896-.063 4.063 0 1.167-.042 2.333-.125 3.5a123.625 123.625 0 01-.375 4.125c-1.125 11.917-3.792 21.271-8 28.062-4.167 6.792-10 11.605-17.5 14.438s-16.833 4.25-28 4.25H79zm7.5-6.5h39.75c14.208 0 24.979-2.875 32.313-8.625 7.375-5.75 11.937-16.292 13.687-31.625.25-2.042.396-3.875.438-5.5.083-1.667.125-3.396.125-5.188 0-1.833-.021-4-.063-6.5-.167-10.208-2.271-18.229-6.312-24.062-4-5.833-10-10.396-18-13.688v-1.687c7.416-3.375 12.875-7.5 16.375-12.375 3.5-4.917 5.562-11.396 6.187-19.438.125-1.666.229-3.187.313-4.562.083-1.375.125-2.729.125-4.062.041-1.375.062-2.813.062-4.313 0-11.833-1.792-21.021-5.375-27.563-3.583-6.583-8.812-11.187-15.687-13.812-6.875-2.667-15.271-4-25.188-4H86.5v187zM94 698V524h31.25c8 0 14.896 1.083 20.688 3.25 5.791 2.125 10.25 6 13.374 11.625 3.126 5.583 4.688 13.583 4.688 24a65.41 65.41 0 01-.125 4.063 169.964 169.964 0 01-.187 4.124 281.312 281.312 0 01-.188 4.876c-.208 7.666-2.083 14.041-5.625 19.124-3.542 5.084-9.458 9.459-17.75 13.126v.874c8.708 3.5 15.021 8.251 18.938 14.25 3.958 6.001 6.02 14.021 6.187 24.063.042 2.417.063 4.479.063 6.187 0 1.709-.042 3.376-.125 5-.042 1.626-.167 3.563-.375 5.813-1.042 12.542-4.709 21.292-11 26.25-6.292 4.917-15.48 7.375-27.563 7.375H94zm7.5-92h19.063c10.708 0 19.104-2.083 25.187-6.25 6.125-4.208 9.563-12.146 10.312-23.812.126-1.667.209-3.23.251-4.688.083-1.458.125-2.875.125-4.25.041-1.375.062-2.75.062-4.125 0-12.667-2.708-21.229-8.125-25.687-5.375-4.459-13.083-6.688-23.125-6.688H101.5V606zm7.5-6.5V537h16.25c7.625 0 13.479 1.792 17.563 5.375 4.125 3.583 6.187 10.417 6.187 20.5 0 1.5-.021 2.958-.062 4.375 0 1.375-.042 2.771-.125 4.188a90.809 90.809 0 01-.251 4.5c-.624 9.291-3.395 15.541-8.312 18.75-4.875 3.208-11.437 4.812-19.687 4.812H109zm7.5-6.5h4.063c6.208 0 11.062-1.167 14.562-3.5 3.542-2.375 5.521-6.896 5.937-13.562.167-2.584.271-4.855.313-6.813.083-2 .125-4.083.125-6.25 0-7.792-1.458-12.958-4.375-15.5-2.917-2.583-6.875-3.875-11.875-3.875h-8.75V593zm-15 98.5h24.75c9.958 0 17.438-2.042 22.438-6.125 5-4.125 7.895-11.208 8.687-21.25.167-1.75.271-3.438.313-5.063.083-1.625.125-3.354.125-5.187 0-1.833-.021-3.896-.063-6.187-.208-13.167-3.208-22.313-9-27.438-5.75-5.167-14.312-7.75-25.687-7.75H101.5v79zm7.5-6.5v-66h14.063c8.291 0 14.854 2 19.687 6 4.833 4 7.354 11.75 7.563 23.25.041 1.917.041 3.729 0 5.438 0 1.666-.042 3.354-.125 5.062-.084 1.667-.209 3.5-.375 5.5-.625 7.625-2.855 13-6.688 16.125-3.792 3.083-9.417 4.625-16.875 4.625H109zm7.5-6.5h9.75c5.083 0 8.958-1.083 11.625-3.25 2.667-2.208 4.167-5.896 4.5-11.062.125-1.959.208-3.751.25-5.376.083-1.624.146-3.27.188-4.937.041-1.667.041-3.5 0-5.5-.125-8.208-1.792-14.062-5-17.563-3.167-3.541-8.084-5.312-14.75-5.312H116.5v53zm80.914-161V511h37.5v6.5h-37.5zm0 26V537h37.5v6.5h-37.5zm0-13V524h37.5v6.5h-37.5zm30 180.5V561h7.5v150h-7.5zm-30 0V561h7.5v150h-7.5zm15 0V561h7.5v150h-7.5zm86.606 2.5c-15.75 0-27.209-3.438-34.375-10.312-7.167-6.876-11.125-18.271-11.875-34.188a180.8 180.8 0 01-.188-8.562c.042-3.084.188-5.646.438-7.688h6.812c-.208 1.917-.333 4.333-.375 7.25-.042 2.917 0 5.792.125 8.625.667 13.875 4.042 23.833 10.125 29.875 6.125 6 15.896 9 29.313 9 15 0 25.75-2.896 32.25-8.688 6.5-5.791 9.75-15.395 9.75-28.812v-7c0-9.583-2.813-16.687-8.438-21.312-5.625-4.667-13.229-8.646-22.812-11.938l-12.438-4.25c-4.5-1.583-7.917-3.208-10.25-4.875-2.292-1.667-3.875-3.312-4.75-4.937-.833-1.667-1.354-3.23-1.562-4.688-.167-.958-.23-2.104-.188-3.438.042-1.374.104-2.645.188-3.812.583-7.583 2.27-13.021 5.062-16.312 2.792-3.292 7.771-4.938 14.938-4.938 5.583 0 10.02 1.438 13.312 4.312 3.292 2.876 5.125 8.417 5.5 16.626.083 1.708.083 3.958 0 6.75-.083 2.749-.167 5.604-.25 8.562h-6.812c.083-2.792.166-5.521.25-8.188.083-2.708.083-4.979 0-6.812-.25-5.417-1.313-9.312-3.188-11.688-1.875-2.374-4.812-3.562-8.812-3.562-4.584 0-7.771 1.188-9.563 3.562-1.792 2.334-2.854 6.23-3.187 11.688a64.664 64.664 0 00-.125 3.938c0 1.25.041 2.354.125 3.312.166 1.583.75 2.875 1.75 3.875 1.041.958 2.395 1.792 4.062 2.5 1.708.667 3.583 1.375 5.625 2.125l12.063 4.25c6.958 2.417 13.208 5.146 18.75 8.188 5.541 3 9.916 6.937 13.125 11.812 3.25 4.833 4.875 11.25 4.875 19.25v7c0 15.542-3.813 26.687-11.438 33.438-7.625 6.708-20.229 10.062-37.812 10.062zm0-12c-11.084 0-19.146-2.562-24.188-7.688-5.042-5.166-7.854-13.666-8.437-25.5-.084-2.124-.125-4.729-.125-7.812.041-3.083.166-5.667.375-7.75h6.812c-.167 2.042-.271 4.521-.312 7.438-.042 2.916-.021 5.499.062 7.75.458 9.833 2.688 16.895 6.688 21.187 4.041 4.25 10.416 6.375 19.125 6.375 9.833 0 16.875-1.979 21.125-5.938 4.25-3.958 6.375-10.479 6.375-19.562v-7c0-5.333-1.605-9.625-4.813-12.875-3.167-3.292-8.292-6.083-15.375-8.375l-13.125-4.25c-6.292-2.042-11.375-4.292-15.25-6.75-3.833-2.5-6.687-5.354-8.562-8.562-1.834-3.209-2.875-6.938-3.125-11.188a101.26 101.26 0 01-.063-3.75c.042-1.375.063-2.542.063-3.5 0-11.875 2.666-20.375 8-25.5 5.375-5.167 14.208-7.75 26.5-7.75 10.958 0 18.958 2.479 24 7.438 5.041 4.958 7.833 13.166 8.375 24.624.083 2.209.104 4.626.062 7.25a275.564 275.564 0 01-.312 8.938h-6.813c.125-3.125.229-5.896.313-8.312a97.191 97.191 0 00-.063-7.75c-.458-10.042-2.875-16.917-7.25-20.626-4.333-3.708-10.437-5.562-18.312-5.562-9.709 0-16.688 2.125-20.938 6.375-4.208 4.208-6.312 11.167-6.312 20.875 0 1.042-.021 2.271-.063 3.688 0 1.374.021 2.562.063 3.562.25 3.083 1.125 5.875 2.625 8.375 1.541 2.458 3.854 4.688 6.937 6.687 3.125 1.959 7.188 3.771 12.188 5.438l12.812 4.25c8.875 2.917 15.375 6.396 19.5 10.438 4.125 4.041 6.188 9.645 6.188 16.812v7c0 11.25-2.688 19.313-8.063 24.188s-14.271 7.312-26.687 7.312zm0-12c-6.375 0-11.042-1.688-14-5.062-2.959-3.417-4.625-9.021-5-16.813-.084-1.917-.125-4.25-.125-7 .041-2.75.145-5.375.312-7.875h6.813a143.043 143.043 0 00-.313 7.562c0 2.584.042 4.855.125 6.813.292 5.875 1.375 10.083 3.25 12.625 1.917 2.5 4.896 3.75 8.938 3.75 4.666 0 8-1.042 10-3.125 2-2.125 3-5.583 3-10.375v-7c0-2.625-.834-4.604-2.5-5.938-1.625-1.374-3.834-2.479-6.625-3.312l-13.875-4.25c-6.75-2.083-12.959-4.625-18.625-7.625-5.625-3-10.146-6.958-13.563-11.875-3.375-4.917-5.062-11.25-5.062-19v-7.25c0-16.167 3.791-27.75 11.375-34.75 7.583-7 20.125-10.5 37.625-10.5 15.708 0 27.104 3.375 34.187 10.125 7.125 6.708 11.063 17.833 11.813 33.375.125 2.667.145 5.479.062 8.438a435.79 435.79 0 01-.312 8.312h-6.813c.083-2.292.167-4.958.25-8 .125-3.042.125-5.833 0-8.375-.667-13.542-4.042-23.229-10.125-29.063-6.042-5.875-15.729-8.812-29.062-8.812-14.917 0-25.605 3.042-32.063 9.125-6.458 6.042-9.687 16.083-9.687 30.125 0 1.042-.021 2.25-.063 3.625 0 1.375.021 2.583.063 3.625.25 5.667 1.562 10.521 3.937 14.562 2.417 4.042 5.958 7.5 10.625 10.376 4.667 2.833 10.5 5.354 17.5 7.562l13.563 4.25c5.541 1.75 9.354 3.854 11.437 6.312 2.125 2.459 3.188 5.438 3.188 8.938v7c0 6.958-1.584 11.958-4.75 15-3.125 3-8.292 4.5-15.5 4.5zm128.625 11c-13.834 0-23.75-2.437-29.75-7.312s-9-12.938-9-24.188v-88.5h-29.25V574h29.25v-55.5h7.5V574h40.75v6.5h-40.75V669c0 8.917 2.416 15.312 7.25 19.188 4.833 3.874 12.833 5.812 24 5.812 2 0 3.958-.021 5.875-.062 1.916-.042 3.958-.126 6.125-.25v6.25a66.916 66.916 0 01-5.375.437c-1.875.083-4.084.125-6.625.125zm0 13c-19.167 0-32.917-3.438-41.25-10.312-8.334-6.876-12.5-18.271-12.5-34.188v-75.5h-14.25V587h21.75v82c0 13.542 3.562 23.271 10.687 29.188 7.167 5.875 19.021 8.812 35.563 8.812 2.625 0 4.895-.063 6.812-.188 1.958-.124 3.688-.333 5.188-.624v6.25c-2.959.708-6.959 1.062-12 1.062zm0-25.938c-8.459 0-14.542-1.437-18.25-4.312-3.667-2.875-5.5-7.625-5.5-14.25v-82h33.25v6.5h-25.75V669c0 4.292 1.25 7.375 3.75 9.25 2.541 1.875 6.708 2.812 12.5 2.812h8.562c1.917 0 3.063-.02 3.438-.062v6.25a181.04 181.04 0 01-4.5.25c-1.792.042-4.292.062-7.5.062zm-68-120.062V561h14.25v-42.5h7.5v49h-21.75zm44.25 0v-49h7.5V561h25.75v6.5h-33.25zM469.982 711V561h7.438l.062 18-1.375 19.875h1.688c4.125-9.083 9.458-15.625 16-19.625 6.583-4.042 14.396-6.062 23.437-6.062 2.417 0 4.896.062 7.438.187s4.312.25 5.312.375v6.5c-1.25-.125-3.291-.229-6.125-.312a178.93 178.93 0 00-8.062-.188c-8.292 0-15.292 1.667-21 5-5.708 3.292-10.021 7.604-12.938 12.938-2.916 5.291-4.375 10.958-4.375 17V711h-7.5zm-15 0V561h7.5v150h-7.5zm30 0v-97c0-9.083 2.625-15.854 7.875-20.312 5.292-4.459 11.771-6.688 19.438-6.688h17.687v6.562a315 315 0 00-8.812 0h-8.875c-6.667 0-11.583 1.605-14.75 4.813-3.125 3.167-4.688 8.104-4.688 14.813V711h-7.875zm-3.625-127.125l3.563-17.25V561h7.437l.125 1-4.812 11h1.375c3.458-3.958 8.104-7.083 13.937-9.375 5.875-2.333 11.813-3.5 17.813-3.5 1.375 0 2.896.062 4.562.187 1.667.084 3.209.23 4.625.438v6.5a33.569 33.569 0 00-3.937-.438 53.652 53.652 0 00-4.688-.187c-8.333 0-15.645 1.313-21.937 3.937-6.292 2.584-11.75 7.021-16.375 13.313h-1.688zM593.242 713.5c-17.291 0-29.958-3.875-38-11.625-8.041-7.75-12.521-20.604-13.437-38.563-.375-7.375-.625-14.104-.75-20.187a411.106 411.106 0 010-17.563c.125-5.624.354-11.312.687-17.062 1-17.333 5.334-30 13-38 7.709-8 20.542-12 38.5-12 17.417 0 30.063 3.917 37.938 11.75 7.916 7.792 12.333 20.542 13.25 38.25.583 11.333.854 21.229.812 29.688a497.213 497.213 0 01-.75 25.062c-1 17.75-5.416 30.562-13.25 38.438-7.833 7.875-20.5 11.812-38 11.812zm0-6c15.292 0 26.188-3.583 32.688-10.75 6.5-7.208 10.187-18.521 11.062-33.938.459-8.208.709-16.333.75-24.374.042-8.084-.229-17.959-.812-29.626-.792-15.624-4.563-26.916-11.313-33.874-6.708-6.959-17.5-10.438-32.375-10.438-15.166 0-26.083 3.521-32.75 10.562-6.625 7.042-10.375 18.334-11.25 33.876a603.137 603.137 0 00-.687 15.562 471.616 471.616 0 00-.063 17.312c.125 6.25.396 13.376.813 21.376.833 16.291 4.812 27.749 11.937 34.374 7.125 6.626 17.792 9.938 32 9.938zm0-6c-11.666 0-20.5-2.875-26.5-8.625-5.958-5.75-9.291-15.896-10-30.437a650.721 650.721 0 01-.687-19.25 620.359 620.359 0 010-17.688c.125-5.625.333-10.896.625-15.812.791-13.626 3.916-23.563 9.375-29.813 5.458-6.25 14.521-9.375 27.187-9.375 11.875 0 20.688 2.917 26.438 8.75 5.791 5.833 9.041 15.729 9.75 29.688.375 7.416.604 14.187.687 20.312a393.48 393.48 0 010 17.188 375.707 375.707 0 01-.562 15.624c-.792 14.126-3.979 24.23-9.563 30.313-5.583 6.083-14.5 9.125-26.75 9.125zm0-6c9.625 0 16.667-2.604 21.125-7.812 4.459-5.209 7.021-13.834 7.688-25.876.416-6.874.646-14.583.687-23.124.042-8.584-.208-18.23-.75-28.938-.583-12.042-3.166-20.583-7.75-25.625-4.541-5.083-11.541-7.625-21-7.625-9.708 0-16.812 2.583-21.312 7.75-4.459 5.167-7.042 13.729-7.75 25.688-.25 4.416-.438 9.27-.563 14.562a469.52 469.52 0 00-.062 17.312c.083 6.25.312 13.021.687 20.313.625 12.167 3.25 20.771 7.875 25.813 4.625 5.041 11.667 7.562 21.125 7.562zm0-6c-7.041 0-12.271-2.125-15.687-6.375-3.375-4.25-5.313-11.375-5.813-21.375a637.128 637.128 0 01-.687-18.375 548.302 548.302 0 010-16.625c.125-5.417.333-10.917.625-16.5.583-9.917 2.521-17.021 5.812-21.312 3.334-4.292 8.584-6.438 15.75-6.438 6.792 0 11.896 2.063 15.313 6.188 3.458 4.083 5.437 11.187 5.937 21.312.5 10.042.75 19.25.75 27.625 0 8.333-.229 16.292-.687 23.875-.542 10-2.479 17.167-5.813 21.5-3.291 4.333-8.458 6.5-15.5 6.5zm0-6c4.709 0 8.084-1.813 10.125-5.438 2.042-3.666 3.271-9.312 3.688-16.937.416-7.083.646-14.604.687-22.563.042-7.958-.208-17.354-.75-28.187-.333-7.333-1.521-12.812-3.562-16.437-2.042-3.625-5.438-5.438-10.188-5.438-4.791 0-8.229 1.792-10.312 5.375-2.042 3.583-3.292 9.167-3.75 16.75-.292 5.333-.5 10.562-.625 15.687a515.62 515.62 0 000 16.126c.125 5.666.354 12.02.687 19.062.375 7.792 1.646 13.417 3.813 16.875 2.208 3.417 5.604 5.125 10.187 5.125zm82.473 27.5L653.59 561h7.625l20.812 143.5h49.125L752.215 561h7.625l-22.375 150h-61.75zm11.437-13l-7.875-56.062-10.5-80.938h7.625l10.125 78.812 6.938 51.688h26.25l7-51.625L737.027 561h7.625l-10.687 81.062L726.027 698h-38.875zm11.438-13l-4.813-47.312-9.75-76.688h7.563l9.437 74.438 3.875 43.062h3.375l4.063-43.312L721.777 561h7.625l-9.875 76.375L714.652 685H698.59zm76.461-167.5V511h37.5v6.5h-37.5zm0 26V537h37.5v6.5h-37.5zm0-13V524h37.5v6.5h-37.5zm30 180.5V561h7.5v150h-7.5zm-30 0V561h7.5v150h-7.5zm15 0V561h7.5v150h-7.5zm92.043 2.5c-17.417 0-29.959-3.479-37.625-10.438-7.667-7-11.959-18.312-12.875-33.937-.167-3.25-.313-7.896-.438-13.937-.083-6.042-.125-12.48-.125-19.313 0-6.875.042-13.25.125-19.125.125-5.875.271-10.271.438-13.188 1.083-16.499 5.625-28.124 13.625-34.874 8-6.792 20.125-10.188 36.375-10.188 16.75 0 28.916 3.375 36.5 10.125 7.583 6.708 11.75 17.833 12.5 33.375.125 2.583.146 5.438.062 8.562a310.119 310.119 0 01-.312 8.126h-7.5c.125-2.5.229-5.167.312-8a111.26 111.26 0 00-.062-8.376c-.667-13.5-4.209-23.166-10.625-29-6.375-5.875-16.667-8.812-30.875-8.812-13.875 0-24.188 2.979-30.938 8.938-6.75 5.958-10.604 16.145-11.562 30.562-.209 3.125-.354 7.708-.438 13.75-.083 6.042-.125 12.5-.125 19.375 0 6.833.042 13.125.125 18.875.125 5.708.25 9.812.375 12.312.75 13.084 4.354 22.896 10.813 29.438 6.458 6.5 17.208 9.75 32.25 9.75 14 0 24.166-3 30.5-9 6.333-6.042 9.833-15.958 10.5-29.75.125-2.583.166-4.979.125-7.188 0-2.208-.125-5.145-.375-8.812h7.5c.25 3.5.375 6.396.375 8.688.041 2.291 0 4.812-.125 7.562-.75 15.917-4.896 27.312-12.438 34.188-7.5 6.874-19.521 10.312-36.062 10.312zm0-12c-12.042 0-20.834-2.854-26.375-8.562-5.5-5.709-8.563-14-9.188-24.876-.166-2.583-.291-6.708-.375-12.374-.083-5.667-.125-11.875-.125-18.626 0-6.749.042-13.104.125-19.062.084-5.958.229-10.479.438-13.562.833-12.042 3.937-20.709 9.312-26 5.375-5.292 13.938-7.938 25.688-7.938 11.208 0 19.541 2.417 25 7.25 5.458 4.792 8.458 13.042 9 24.75a99.03 99.03 0 01.062 7.938 504.098 504.098 0 01-.312 8.25h-7.5c.125-2.876.229-5.646.312-8.313a93.166 93.166 0 00-.062-7.687c-.459-9.959-2.938-16.813-7.438-20.563-4.458-3.75-10.812-5.625-19.062-5.625-8.417 0-14.938 2.042-19.563 6.125-4.625 4.042-7.291 11.5-8 22.375-.083 1.292-.208 4.458-.375 9.5-.125 5.042-.25 10.875-.375 17.5-.083 6.625-.125 13.063-.125 19.312 0 6.25.125 11.23.375 14.938.709 10.917 3.375 18.521 8 22.812 4.667 4.292 11.521 6.438 20.563 6.438 8.125 0 14.354-1.937 18.687-5.812 4.375-3.917 6.813-11.021 7.313-21.313.083-2.125.125-4.208.125-6.25 0-2.083-.125-5.208-.375-9.375h7.5c.291 4.333.416 7.479.375 9.438 0 1.958-.042 4.083-.125 6.374-.542 11.709-3.417 20.125-8.625 25.25-5.209 5.126-13.5 7.688-24.875 7.688zm0-12c-6.792 0-11.834-1.771-15.125-5.312-3.292-3.542-5.146-9.584-5.563-18.126-.125-2.875-.229-7.125-.312-12.75-.042-5.666-.063-11.708-.063-18.124 0-6.459.042-12.396.125-17.813.084-5.458.209-9.437.375-11.937.584-9.042 2.625-15.126 6.125-18.25 3.5-3.125 8.146-4.688 13.938-4.688 6.333 0 11 1.625 14 4.875 3.041 3.208 4.729 8.562 5.062 16.063.084 1.166.104 3.02.063 5.562-.042 2.5-.167 5.729-.375 9.688h-7.438c.125-3.334.209-6.292.25-8.876.084-2.624.084-4.645 0-6.062-.25-5.333-1.271-9.208-3.062-11.625-1.792-2.417-4.625-3.625-8.5-3.625s-6.834 1.292-8.875 3.875c-2.042 2.542-3.271 7.042-3.688 13.5-.166 2.792-.291 7.042-.375 12.75-.083 5.667-.125 11.75-.125 18.25 0 6.458.042 12.375.125 17.75.084 5.375.188 9.167.313 11.375.416 6.25 1.646 10.729 3.687 13.438 2.084 2.708 5.229 4.062 9.438 4.062 3.833 0 6.583-1.25 8.25-3.75 1.666-2.542 2.583-6.604 2.75-12.188.083-2.041.125-3.854.125-5.437 0-1.583-.125-4.708-.375-9.375h7.5c.208 3.542.333 6.542.375 9 .041 2.417.021 4.354-.063 5.812-.375 7.834-2.021 13.459-4.937 16.876-2.875 3.374-7.417 5.062-13.625 5.062zm-13.625-139.75L892.344 511h8.25l-24.938 38.75h-7.187zm27.812 0L924.344 511h8.25l-29.125 38.75h-7.188zm-13.875 0L908.344 511h8.25l-27.063 38.75h-7.125z"/></svg>