<svg width="680" height="426" viewBox="0 0 680 426" fill="none" xmlns="http://www.w3.org/2000/svg">
<path d="M355.8 311.8C354.5 351.5 339.7 392 303 410.6C268.3 429.4 229.8 421 192.7 416.4C173.9 414.2 154.9 413.9 136 415.6C119 417 102.1 419.5 86.1 417.9C-8.50002 408.2 -3.90003 272.2 5.59997 201.7C18.8 106.9 78.4 -21.5 194.1 4.10003C288.4 25.4 325.9 92.2 342.2 181.8C349.7 224.5 357.1 268.2 355.8 311.6V311.8Z" fill="currentColor"/>
<path d="M627.7 413.5C609.8 421.9 589.5 425 569.8 425.1C537.6 425.2 506.6 412.9 476.3 402.4C421.9 383.2 400.6 350.8 390.2 295.4C382.2 251.2 382.6 205.7 379.6 160.9C378.5 122.9 371.9 79.2 397.4 47.4C436.1 0.600025 520.7 -7.99997 576.3 8.20003C614.7 19 652.2 40.1 658.5 81.5C660.6 93.2 660.2 105.4 658.4 117.3C654.9 138.9 648 160.6 652 182.3C654.9 200.4 664 218.2 669.6 236.4C673.3 247.8 675.8 259.6 677.4 271.5C684.4 322.2 679.8 388.5 627.9 413.4L627.7 413.5Z" fill="currentColor"/>
</svg>
