<svg width="200" height="200" viewBox="0 0 200 200" fill="none" xmlns="http://www.w3.org/2000/svg">
<path d="M200 100C200 155.228 155.228 200 100 200C44.7715 200 0 155.228 0 100C0 44.7715 44.7715 0 100 0C155.228 0 200 44.7715 200 100Z" fill="#043A73"/>
<path d="M105.274 161.699V41.6986H133.024C139.949 41.6986 145.799 42.6111 150.574 44.4361C155.374 46.2361 159.024 49.3986 161.524 53.9236C164.024 58.4236 165.274 64.7236 165.274 72.8236C165.274 73.7486 165.261 74.6361 165.236 75.4861C165.236 76.3111 165.211 77.1486 165.161 77.9986C165.111 78.8236 165.049 79.7111 164.974 80.6611C164.574 85.5611 163.299 89.5111 161.149 92.5111C159.024 95.4861 155.949 97.8861 151.924 99.7111V100.499C156.199 102.174 159.586 104.949 162.086 108.824C164.611 112.674 165.924 117.449 166.024 123.149C166.049 124.549 166.061 125.711 166.061 126.636C166.061 127.561 166.049 128.374 166.024 129.074C166.024 129.774 165.999 130.474 165.949 131.174C165.899 131.874 165.824 132.699 165.724 133.649C165.049 140.799 163.449 146.411 160.924 150.486C158.424 154.561 154.924 157.449 150.424 159.149C145.924 160.849 140.324 161.699 133.624 161.699H105.274ZM109.774 157.799H133.624C142.149 157.799 148.611 156.074 153.011 152.624C157.436 149.174 160.174 142.849 161.224 133.649C161.374 132.424 161.461 131.324 161.486 130.349C161.536 129.349 161.561 128.311 161.561 127.236C161.561 126.136 161.549 124.836 161.524 123.336C161.424 117.211 160.161 112.399 157.736 108.899C155.336 105.399 151.736 102.661 146.936 100.686V99.6736C151.386 97.6486 154.661 95.1736 156.761 92.2486C158.861 89.2986 160.099 85.4111 160.474 80.5861C160.549 79.5861 160.611 78.6736 160.661 77.8486C160.711 77.0236 160.736 76.2111 160.736 75.4111C160.761 74.5861 160.774 73.7236 160.774 72.8236C160.774 65.7236 159.699 60.2111 157.549 56.2861C155.399 52.3361 152.261 49.5736 148.136 47.9986C144.011 46.3986 138.974 45.5986 133.024 45.5986H109.774V157.799ZM114.274 153.899V49.4986H133.024C137.824 49.4986 141.961 50.1486 145.436 51.4486C148.911 52.7236 151.586 55.0486 153.461 58.4236C155.336 61.7736 156.274 66.5736 156.274 72.8236C156.274 73.6486 156.249 74.4611 156.199 75.2611C156.174 76.0361 156.136 76.8611 156.086 77.7361C156.061 78.6111 156.024 79.5861 155.974 80.6611C155.849 85.2611 154.724 89.0861 152.599 92.1361C150.474 95.1861 146.924 97.8111 141.949 100.011V100.536C147.174 102.636 150.961 105.486 153.311 109.086C155.686 112.686 156.924 117.499 157.024 123.524C157.049 124.974 157.061 126.211 157.061 127.236C157.061 128.261 157.036 129.261 156.986 130.236C156.961 131.211 156.886 132.374 156.761 133.724C156.136 141.249 153.936 146.499 150.161 149.474C146.386 152.424 140.874 153.899 133.624 153.899H114.274ZM118.774 98.6986H130.211C136.636 98.6986 141.674 97.4486 145.324 94.9486C148.999 92.4236 151.061 87.6611 151.511 80.6611C151.586 79.6611 151.636 78.7236 151.661 77.8486C151.711 76.9736 151.736 76.1236 151.736 75.2986C151.761 74.4736 151.774 73.6486 151.774 72.8236C151.774 65.2236 150.149 60.0861 146.899 57.4111C143.674 54.7361 139.049 53.3986 133.024 53.3986H118.774V98.6986ZM123.274 94.7986V57.2986H133.024C137.599 57.2986 141.111 58.3736 143.561 60.5236C146.036 62.6736 147.274 66.7736 147.274 72.8236C147.274 73.7236 147.261 74.5986 147.236 75.4486C147.236 76.2736 147.211 77.1111 147.161 77.9611C147.136 78.8111 147.086 79.7111 147.011 80.6611C146.636 86.2361 144.974 89.9861 142.024 91.9111C139.099 93.8361 135.161 94.7986 130.211 94.7986H123.274ZM127.774 90.8986H130.211C133.936 90.8986 136.849 90.1986 138.949 88.7986C141.074 87.3736 142.261 84.6611 142.511 80.6611C142.611 79.1111 142.674 77.7486 142.699 76.5736C142.749 75.3736 142.774 74.1236 142.774 72.8236C142.774 68.1486 141.899 65.0486 140.149 63.5236C138.399 61.9736 136.024 61.1986 133.024 61.1986H127.774V90.8986ZM118.774 149.999H133.624C139.599 149.999 144.086 148.774 147.086 146.324C150.086 143.849 151.824 139.599 152.299 133.574C152.399 132.524 152.461 131.511 152.486 130.536C152.536 129.561 152.561 128.524 152.561 127.424C152.561 126.324 152.549 125.086 152.524 123.711C152.399 115.811 150.599 110.324 147.124 107.249C143.674 104.149 138.536 102.599 131.711 102.599H118.774V149.999ZM123.274 146.099V106.499H131.711C136.686 106.499 140.624 107.699 143.524 110.099C146.424 112.499 147.936 117.149 148.061 124.049C148.086 125.199 148.086 126.286 148.061 127.311C148.061 128.311 148.036 129.324 147.986 130.349C147.936 131.349 147.861 132.449 147.761 133.649C147.386 138.224 146.049 141.449 143.749 143.324C141.474 145.174 138.099 146.099 133.624 146.099H123.274ZM127.774 142.199H133.624C136.674 142.199 138.999 141.549 140.599 140.249C142.199 138.924 143.099 136.711 143.299 133.611C143.374 132.436 143.424 131.361 143.449 130.386C143.499 129.411 143.536 128.424 143.561 127.424C143.586 126.424 143.586 125.324 143.561 124.124C143.486 119.199 142.486 115.686 140.561 113.586C138.661 111.461 135.711 110.399 131.711 110.399H127.774V142.199Z" fill="#DDEDFE"/>
<path d="M63.7447 163.199C53.3947 163.199 45.7072 160.936 40.6822 156.411C35.6822 151.886 32.9697 144.099 32.5447 133.049C32.4947 131.774 32.4697 130.024 32.4697 127.799C32.4697 125.574 32.5197 123.399 32.6197 121.274C32.7197 119.149 32.8947 117.624 33.1447 116.699H37.6072C37.4322 117.574 37.2822 118.886 37.1572 120.636C37.0322 122.386 36.9572 124.349 36.9322 126.524C36.9322 128.674 36.9697 130.799 37.0447 132.899C37.4197 142.499 39.6947 149.349 43.8697 153.449C48.0447 157.549 54.6697 159.599 63.7447 159.599C73.0197 159.599 79.7447 157.536 83.9197 153.411C88.0947 149.261 90.3697 142.411 90.7447 132.861C90.7947 131.611 90.8322 130.411 90.8572 129.261C90.9072 128.111 90.9322 126.974 90.9322 125.849C90.9572 124.699 90.9447 123.511 90.8947 122.286C90.6197 115.386 88.8072 109.761 85.4572 105.411C82.1322 101.061 77.5447 98.0861 71.6947 96.4861L57.7822 92.6611C56.1822 92.2111 54.8072 91.4736 53.6572 90.4486C52.5072 89.3986 51.6197 88.0736 50.9947 86.4736C50.3697 84.8736 50.0197 83.0111 49.9447 80.8861C49.8697 78.8111 49.8322 77.0861 49.8322 75.7111C49.8322 74.3111 49.8697 72.6236 49.9447 70.6486C50.1697 65.0486 51.3447 60.9736 53.4697 58.4236C55.6197 55.8736 59.0447 54.5986 63.7447 54.5986C68.0947 54.5986 71.2947 55.8361 73.3447 58.3111C75.3947 60.7861 76.5447 64.9361 76.7947 70.7611C76.8697 72.6611 76.8697 75.1486 76.7947 78.2236C76.7447 81.2986 76.6572 84.1236 76.5322 86.6986H72.0322C72.1572 84.2236 72.2447 81.3861 72.2947 78.1861C72.3697 74.9611 72.3822 72.6111 72.3322 71.1361C72.1322 66.0611 71.2947 62.6361 69.8197 60.8611C68.3697 59.0861 66.3447 58.1986 63.7447 58.1986C60.5447 58.1986 58.2322 59.2361 56.8072 61.3111C55.4072 63.3611 54.6072 66.6361 54.4072 71.1361C54.3322 72.8861 54.3072 74.5986 54.3322 76.2736C54.3822 77.9236 54.4197 79.4111 54.4447 80.7361C54.4947 82.1861 54.6947 83.4486 55.0447 84.5236C55.4197 85.5736 55.9322 86.4361 56.5822 87.1111C57.2322 87.7611 58.0072 88.2111 58.9072 88.4611L72.7447 92.0986C79.6947 93.9236 85.1197 97.3861 89.0197 102.486C92.9447 107.561 95.0697 114.099 95.3947 122.099C95.4447 123.249 95.4572 124.449 95.4322 125.699C95.4322 126.949 95.4072 128.199 95.3572 129.449C95.3322 130.699 95.2947 131.899 95.2447 133.049C94.7947 143.799 92.1322 151.511 87.2572 156.186C82.4072 160.861 74.5697 163.199 63.7447 163.199ZM63.7447 155.999C56.2947 155.999 50.8197 154.236 47.3197 150.711C43.8197 147.161 41.8947 141.161 41.5447 132.711C41.4947 131.061 41.4697 129.161 41.4697 127.011C41.4947 124.861 41.5447 122.836 41.6197 120.936C41.7197 119.011 41.8572 117.599 42.0322 116.699H46.4947C46.3447 117.774 46.2197 119.161 46.1197 120.861C46.0197 122.561 45.9572 124.436 45.9322 126.486C45.9322 128.536 45.9697 130.624 46.0447 132.749C46.3197 139.749 47.8322 144.774 50.5822 147.824C53.3572 150.874 57.7447 152.399 63.7447 152.399C69.8447 152.399 74.2947 150.874 77.0947 147.824C79.9197 144.749 81.4697 139.724 81.7447 132.749C81.8197 131.199 81.8697 129.849 81.8947 128.699C81.9197 127.549 81.9322 126.486 81.9322 125.511C81.9572 124.536 81.9447 123.586 81.8947 122.661C81.7697 119.486 81.2072 116.724 80.2072 114.374C79.2072 111.999 77.8072 110.049 76.0072 108.524C74.2322 106.974 72.0947 105.874 69.5947 105.224L55.4947 101.549C52.7697 100.824 50.3322 99.6236 48.1822 97.9486C46.0322 96.2486 44.3197 94.0111 43.0447 91.2361C41.7697 88.4361 41.0697 85.0736 40.9447 81.1486C40.8947 79.5986 40.8572 78.2736 40.8322 77.1736C40.8322 76.0736 40.8322 75.0111 40.8322 73.9861C40.8572 72.9361 40.8947 71.7611 40.9447 70.4611C41.2947 62.1111 43.2572 56.1861 46.8322 52.6861C50.4322 49.1611 56.0697 47.3986 63.7447 47.3986C71.2947 47.3986 76.7697 49.1986 80.1697 52.7986C83.5947 56.3986 85.4697 62.3111 85.7947 70.5361C85.8697 72.4361 85.8697 74.9986 85.7947 78.2236C85.7447 81.4236 85.6447 84.2486 85.4947 86.6986H81.0322C81.1572 84.4736 81.2572 81.7861 81.3322 78.6361C81.4072 75.4611 81.3947 72.7486 81.2947 70.4986C81.0197 63.5486 79.5072 58.5611 76.7572 55.5361C74.0322 52.5111 69.6947 50.9986 63.7447 50.9986C57.9697 50.9986 53.5447 52.3986 50.4697 55.1986C47.4197 57.9986 45.7447 63.0986 45.4447 70.4986C45.3447 72.7736 45.3072 74.5986 45.3322 75.9736C45.3572 77.3486 45.3947 79.0361 45.4447 81.0361C45.5447 83.9861 46.0447 86.5611 46.9447 88.7611C47.8697 90.9361 49.1447 92.7361 50.7697 94.1611C52.4197 95.5611 54.3697 96.5611 56.6197 97.1611L70.6447 100.836C75.4697 102.086 79.2447 104.561 81.9697 108.261C84.6947 111.936 86.1697 116.674 86.3947 122.474C86.4447 123.499 86.4697 124.486 86.4697 125.436C86.4697 126.361 86.4447 127.386 86.3947 128.511C86.3697 129.636 86.3197 131.024 86.2447 132.674C85.9197 140.824 84.0447 146.749 80.6197 150.449C77.2197 154.149 71.5947 155.999 63.7447 155.999ZM63.7447 148.799C59.3697 148.799 56.1322 147.549 54.0322 145.049C51.9322 142.549 50.7697 138.324 50.5447 132.374C50.4947 130.624 50.4697 128.774 50.4697 126.824C50.4697 124.874 50.5072 123.011 50.5822 121.236C50.6822 119.461 50.7947 117.949 50.9197 116.699H55.3822C55.2572 118.249 55.1447 119.849 55.0447 121.499C54.9697 123.149 54.9322 124.874 54.9322 126.674C54.9322 128.449 54.9697 130.311 55.0447 132.261C55.2197 136.386 55.8947 139.574 57.0697 141.824C58.2697 144.074 60.4947 145.199 63.7447 145.199C66.7697 145.199 68.9822 144.186 70.3822 142.161C71.8072 140.111 72.6072 136.749 72.7822 132.074C72.8572 130.499 72.8947 129.149 72.8947 128.024C72.9197 126.899 72.9322 125.936 72.9322 125.136C72.9322 124.311 72.9197 123.586 72.8947 122.961C72.8447 121.286 72.5947 119.836 72.1447 118.611C71.6947 117.361 71.0697 116.349 70.2697 115.574C69.4947 114.774 68.5572 114.236 67.4572 113.961L53.2447 110.249C48.8447 109.099 45.0822 107.224 41.9572 104.624C38.8322 101.999 36.4197 98.7361 34.7197 94.8361C33.0197 90.9361 32.0947 86.4736 31.9447 81.4486C31.8697 79.0236 31.8322 76.9986 31.8322 75.3736C31.8322 73.7486 31.8697 72.0236 31.9447 70.1986C32.3947 59.4986 35.0822 51.8236 40.0072 47.1736C44.9322 42.5236 52.8447 40.1986 63.7447 40.1986C74.1447 40.1986 81.8072 42.4736 86.7322 47.0236C91.6572 51.5486 94.3447 59.2736 94.7947 70.1986C94.8697 72.0986 94.8697 74.7486 94.7947 78.1486C94.7447 81.5486 94.6447 84.3986 94.4947 86.6986H89.9947C90.1697 84.0236 90.2822 81.1111 90.3322 77.9611C90.3822 74.7861 90.3697 72.2486 90.2947 70.3486C89.9197 60.8236 87.6572 54.0236 83.5072 49.9486C79.3822 45.8486 72.7947 43.7986 63.7447 43.7986C54.4697 43.7986 47.6947 45.8361 43.4197 49.9111C39.1697 53.9611 36.8447 60.7611 36.4447 70.3111C36.3447 72.6361 36.3072 74.5736 36.3322 76.1236C36.3572 77.6736 36.3947 79.3986 36.4447 81.2986C36.5947 85.5986 37.3822 89.4236 38.8072 92.7736C40.2322 96.0986 42.2572 98.8736 44.8822 101.099C47.5072 103.324 50.6697 104.924 54.3697 105.899L68.5447 109.611C70.3197 110.061 71.8447 110.861 73.1197 112.011C74.3947 113.136 75.3947 114.599 76.1197 116.399C76.8697 118.199 77.2947 120.336 77.3947 122.811C77.4447 123.786 77.4572 124.711 77.4322 125.586C77.4322 126.461 77.4197 127.424 77.3947 128.474C77.3697 129.499 77.3197 130.774 77.2447 132.299C76.9947 138.174 75.8322 142.399 73.7572 144.974C71.7072 147.524 68.3697 148.799 63.7447 148.799Z" fill="#DDEDFE"/>
</svg>
