<svg xmlns="http://www.w3.org/2000/svg" width="200" height="200" fill="none"><path fill="#043A73" d="M200 100c0 55.228-44.772 100-100 100S0 155.228 0 100 44.772 0 100 0s100 44.772 100 100Z"/><path fill="#DDEDFE" d="M105.274 161.699v-120h27.75c6.925 0 12.775.912 17.55 2.737 4.8 1.8 8.45 4.963 10.95 9.488 2.5 4.5 3.75 10.8 3.75 18.9 0 .925-.013 1.812-.038 2.662 0 .825-.025 1.663-.075 2.513-.05.825-.112 1.712-.187 2.662-.4 4.9-1.675 8.85-3.825 11.85-2.125 2.975-5.2 5.375-9.225 7.2v.788c4.275 1.675 7.662 4.45 10.162 8.325 2.525 3.85 3.838 8.625 3.938 14.325.025 1.4.037 2.562.037 3.487 0 .925-.012 1.738-.037 2.438 0 .7-.025 1.4-.075 2.1-.05.7-.125 1.525-.225 2.475-.675 7.15-2.275 12.762-4.8 16.837-2.5 4.075-6 6.963-10.5 8.663-4.5 1.7-10.1 2.55-16.8 2.55h-28.35Zm4.5-3.9h23.85c8.525 0 14.987-1.725 19.387-5.175 4.425-3.45 7.163-9.775 8.213-18.975.15-1.225.237-2.325.262-3.3.05-1 .075-2.038.075-3.113 0-1.1-.012-2.4-.037-3.9-.1-6.125-1.363-10.937-3.788-14.437-2.4-3.5-6-6.238-10.8-8.213v-1.012c4.45-2.025 7.725-4.5 9.825-7.425 2.1-2.95 3.338-6.838 3.713-11.663.075-1 .137-1.912.187-2.737.05-.825.075-1.638.075-2.438.025-.825.038-1.687.038-2.587 0-7.1-1.075-12.613-3.225-16.538-2.15-3.95-5.288-6.712-9.413-8.287-4.125-1.6-9.162-2.4-15.112-2.4h-23.25v112.2Zm4.5-3.9v-104.4h18.75c4.8 0 8.937.65 12.412 1.95 3.475 1.275 6.15 3.6 8.025 6.975 1.875 3.35 2.813 8.15 2.813 14.4 0 .825-.025 1.637-.075 2.437-.025.775-.063 1.6-.113 2.475-.025.875-.062 1.85-.112 2.925-.125 4.6-1.25 8.425-3.375 11.475-2.125 3.05-5.675 5.675-10.65 7.875v.525c5.225 2.1 9.012 4.95 11.362 8.55 2.375 3.6 3.613 8.413 3.713 14.438.025 1.45.037 2.687.037 3.712 0 1.025-.025 2.025-.075 3-.025.975-.1 2.138-.225 3.488-.625 7.525-2.825 12.775-6.6 15.75-3.775 2.95-9.287 4.425-16.537 4.425h-19.35Zm4.5-55.2h11.437c6.425 0 11.463-1.25 15.113-3.75 3.675-2.525 5.737-7.288 6.187-14.288.075-1 .125-1.937.15-2.812.05-.875.075-1.725.075-2.55.025-.825.038-1.65.038-2.475 0-7.6-1.625-12.738-4.875-15.413-3.225-2.675-7.85-4.012-13.875-4.012h-14.25v45.3Zm4.5-3.9v-37.5h9.75c4.575 0 8.087 1.075 10.537 3.225 2.475 2.15 3.713 6.25 3.713 12.3 0 .9-.013 1.775-.038 2.625 0 .825-.025 1.662-.075 2.512-.025.85-.075 1.75-.15 2.7-.375 5.575-2.037 9.325-4.987 11.25-2.925 1.925-6.863 2.888-11.813 2.888h-6.937Zm4.5-3.9h2.437c3.725 0 6.638-.7 8.738-2.1 2.125-1.425 3.312-4.138 3.562-8.138.1-1.55.163-2.912.188-4.087.05-1.2.075-2.45.075-3.75 0-4.675-.875-7.775-2.625-9.3-1.75-1.55-4.125-2.325-7.125-2.325h-5.25v29.7Zm-9 59.1h14.85c5.975 0 10.462-1.225 13.462-3.675 3-2.475 4.738-6.725 5.213-12.75.1-1.05.162-2.063.187-3.038.05-.975.075-2.012.075-3.112s-.012-2.338-.037-3.713c-.125-7.9-1.925-13.387-5.4-16.462-3.45-3.1-8.588-4.65-15.413-4.65h-12.937v47.4Zm4.5-3.9v-39.6h8.437c4.975 0 8.913 1.2 11.813 3.6 2.9 2.4 4.412 7.05 4.537 13.95.025 1.15.025 2.237 0 3.262 0 1-.025 2.013-.075 3.038-.05 1-.125 2.1-.225 3.3-.375 4.575-1.712 7.8-4.012 9.675-2.275 1.85-5.65 2.775-10.125 2.775h-10.35Zm4.5-3.9h5.85c3.05 0 5.375-.65 6.975-1.95 1.6-1.325 2.5-3.538 2.7-6.638.075-1.175.125-2.25.15-3.225.05-.975.087-1.962.112-2.962.025-1 .025-2.1 0-3.3-.075-4.925-1.075-8.438-3-10.538-1.9-2.125-4.85-3.187-8.85-3.187h-3.937v31.8ZM63.745 163.199c-10.35 0-18.038-2.263-23.063-6.788-5-4.525-7.712-12.312-8.137-23.362-.05-1.275-.075-3.025-.075-5.25s.05-4.4.15-6.525c.1-2.125.275-3.65.525-4.575h4.462c-.175.875-.325 2.187-.45 3.937a99.37 99.37 0 0 0-.225 5.888c0 2.15.038 4.275.113 6.375.375 9.6 2.65 16.45 6.825 20.55 4.175 4.1 10.8 6.15 19.875 6.15 9.275 0 16-2.063 20.175-6.188 4.175-4.15 6.45-11 6.825-20.55.05-1.25.087-2.45.112-3.6.05-1.15.075-2.287.075-3.412.025-1.15.013-2.338-.037-3.563-.275-6.9-2.088-12.525-5.438-16.875-3.325-4.35-7.912-7.325-13.762-8.925l-13.913-3.825c-1.6-.45-2.975-1.187-4.125-2.212-1.15-1.05-2.037-2.375-2.662-3.975s-.975-3.463-1.05-5.588c-.075-2.075-.113-3.8-.113-5.175 0-1.4.038-3.087.113-5.062.225-5.6 1.4-9.675 3.525-12.225 2.15-2.55 5.575-3.825 10.275-3.825 4.35 0 7.55 1.237 9.6 3.712s3.2 6.625 3.45 12.45c.075 1.9.075 4.388 0 7.463-.05 3.075-.138 5.9-.263 8.475h-4.5c.125-2.475.213-5.313.263-8.513.075-3.225.087-5.575.037-7.05-.2-5.075-1.037-8.5-2.512-10.275-1.45-1.775-3.475-2.662-6.075-2.662-3.2 0-5.513 1.037-6.938 3.112-1.4 2.05-2.2 5.325-2.4 9.825a88.99 88.99 0 0 0-.075 5.138c.05 1.65.088 3.137.113 4.462.05 1.45.25 2.713.6 3.788.375 1.05.887 1.912 1.537 2.587.65.65 1.425 1.1 2.325 1.35L72.745 92.1c6.95 1.825 12.375 5.287 16.275 10.387 3.925 5.075 6.05 11.613 6.375 19.613.05 1.15.062 2.35.037 3.6 0 1.25-.025 2.5-.075 3.75-.025 1.25-.062 2.45-.112 3.6-.45 10.75-3.113 18.462-7.988 23.137-4.85 4.675-12.687 7.013-23.512 7.013Zm0-7.2c-7.45 0-12.925-1.763-16.425-5.288-3.5-3.55-5.425-9.55-5.775-18-.05-1.65-.075-3.55-.075-5.7.025-2.15.075-4.175.15-6.075.1-1.925.237-3.337.412-4.237h4.463c-.15 1.075-.275 2.462-.375 4.162-.1 1.7-.163 3.575-.188 5.625 0 2.05.038 4.138.113 6.263.275 7 1.787 12.025 4.537 15.075 2.775 3.05 7.163 4.575 13.163 4.575 6.1 0 10.55-1.525 13.35-4.575 2.825-3.075 4.375-8.1 4.65-15.075.075-1.55.125-2.9.15-4.05.025-1.15.037-2.213.037-3.188.025-.975.013-1.925-.037-2.85-.125-3.175-.688-5.937-1.688-8.287-1-2.375-2.4-4.325-4.2-5.85-1.775-1.55-3.912-2.65-6.412-3.3l-14.1-3.675c-2.725-.725-5.163-1.925-7.313-3.6-2.15-1.7-3.862-3.938-5.137-6.713-1.275-2.8-1.975-6.162-2.1-10.087-.05-1.55-.088-2.875-.113-3.975v-3.188c.025-1.05.063-2.225.113-3.525.35-8.35 2.312-14.275 5.887-17.775 3.6-3.525 9.238-5.287 16.913-5.287 7.55 0 13.025 1.8 16.425 5.4 3.425 3.6 5.3 9.512 5.625 17.737.075 1.9.075 4.463 0 7.688-.05 3.2-.15 6.025-.3 8.475h-4.463c.125-2.225.225-4.913.3-8.063.075-3.175.063-5.887-.037-8.137-.275-6.95-1.788-11.938-4.538-14.963C74.032 52.511 69.695 51 63.745 51c-5.775 0-10.2 1.4-13.275 4.2-3.05 2.8-4.725 7.9-5.025 15.3-.1 2.275-.138 4.1-.113 5.475.025 1.375.063 3.062.113 5.062.1 2.95.6 5.525 1.5 7.725.925 2.175 2.2 3.975 3.825 5.4 1.65 1.4 3.6 2.4 5.85 3l14.025 3.675c4.825 1.25 8.6 3.725 11.325 7.425 2.725 3.675 4.2 8.413 4.425 14.213.05 1.025.075 2.012.075 2.962 0 .925-.025 1.95-.075 3.075a184.546 184.546 0 0 1-.15 4.163c-.325 8.15-2.2 14.075-5.625 17.775-3.4 3.7-9.025 5.55-16.875 5.55Zm0-7.2c-4.375 0-7.613-1.25-9.713-3.75-2.1-2.5-3.262-6.725-3.487-12.675-.05-1.75-.075-3.6-.075-5.55 0-1.95.037-3.813.112-5.588.1-1.775.213-3.287.338-4.537h4.462c-.125 1.55-.237 3.15-.337 4.8-.075 1.65-.113 3.375-.113 5.175 0 1.775.038 3.637.113 5.587.175 4.125.85 7.313 2.025 9.563 1.2 2.25 3.425 3.375 6.675 3.375 3.025 0 5.237-1.013 6.637-3.038 1.425-2.05 2.225-5.412 2.4-10.087a86.98 86.98 0 0 0 .113-4.05c.025-1.125.037-2.088.037-2.888 0-.825-.012-1.55-.037-2.175-.05-1.675-.3-3.125-.75-4.35-.45-1.25-1.075-2.262-1.875-3.037a5.794 5.794 0 0 0-2.813-1.613l-14.212-3.712c-4.4-1.15-8.163-3.025-11.288-5.625-3.125-2.625-5.537-5.888-7.237-9.788-1.7-3.9-2.625-8.362-2.775-13.387-.075-2.425-.113-4.45-.113-6.075s.038-3.35.113-5.175c.45-10.7 3.137-18.375 8.062-23.025 4.925-4.65 12.838-6.975 23.738-6.975 10.4 0 18.062 2.275 22.987 6.825 4.925 4.525 7.613 12.25 8.063 23.175.075 1.9.075 4.55 0 7.95-.05 3.4-.15 6.25-.3 8.55h-4.5c.175-2.675.287-5.588.337-8.738.05-3.175.038-5.712-.037-7.612-.375-9.525-2.638-16.325-6.788-20.4-4.125-4.1-10.712-6.15-19.762-6.15-9.275 0-16.05 2.037-20.325 6.112-4.25 4.05-6.575 10.85-6.975 20.4-.1 2.325-.138 4.263-.113 5.813.025 1.55.063 3.275.113 5.175.15 4.3.937 8.125 2.362 11.475 1.425 3.325 3.45 6.1 6.075 8.325 2.625 2.225 5.788 3.825 9.488 4.8l14.175 3.712c1.775.45 3.3 1.25 4.575 2.4 1.275 1.125 2.275 2.588 3 4.388.75 1.8 1.175 3.937 1.275 6.412.05.975.062 1.9.037 2.775 0 .875-.012 1.838-.037 2.888-.025 1.025-.075 2.3-.15 3.825-.25 5.875-1.413 10.1-3.488 12.675-2.05 2.55-5.387 3.825-10.012 3.825Z"/></svg>