<svg xmlns="http://www.w3.org/2000/svg" width="680" height="426" fill="none"><path fill="currentColor" d="M355.8 311.8c-1.3 39.7-16.1 80.2-52.8 98.8-34.7 18.8-73.2 10.4-110.3 5.8-18.8-2.2-37.8-2.5-56.7-.8-17 1.4-33.9 3.9-49.9 2.3-94.6-9.7-90-145.7-80.5-216.2C18.8 106.9 78.4-21.5 194.1 4.1c94.3 21.3 131.8 88.1 148.1 177.7 7.5 42.7 14.9 86.4 13.6 129.8v.2ZM627.7 413.5c-17.9 8.4-38.2 11.5-57.9 11.6-32.2.1-63.2-12.2-93.5-22.7-54.4-19.2-75.7-51.6-86.1-107-8-44.2-7.6-89.7-10.6-134.5-1.1-38-7.7-81.7 17.8-113.5C436.1.6 520.7-8 576.3 8.2c38.4 10.8 75.9 31.9 82.2 73.3 2.1 11.7 1.7 23.9-.1 35.8-3.5 21.6-10.4 43.3-6.4 65 2.9 18.1 12 35.9 17.6 54.1 3.7 11.4 6.2 23.2 7.8 35.1 7 50.7 2.4 117-49.5 141.9l-.2.1Z"/></svg>