<svg xmlns="http://www.w3.org/2000/svg" viewBox="0 0 1500 522.35"><defs><style>.cls-1{fill:#0a1128}</style></defs><path class="cls-1" d="M144.83 279.14q2-49.71 2-91.64 0-14.88-7.28-23.67a22.91 22.91 0 00-18.43-8.8q-11.84 0-20.12 11.5T92.75 198s.11 63.36 1 81.16H12.94q2.7-48.69 2.7-131.89t-2.7-131.9h80.48l.34 104.15a50.44 50.44 0 0115.3-16.93C119.77 95 137.57 91 151.1 91s28.1 3.08 38 9a58.07 58.07 0 0122.49 24.18q7.6 15.21 7.61 34.15v48.7q0 45 1.69 72zM695.38 94.5l-7.78 19.61q-32.13 85.56-67.3 165-18.25 40.59-52.76 65.1T481 367.75q-6.42-28.08-10.65-43.8c-2.82-10.48-3.95-16.43-8.16-26.94 36.79 6.3 63.56-4 73.93-11.44q-12.17-36.18-28.74-77.78t-48-113.29h80.15q4 16.91 11.16 39.23t14.2 43q2 6.42 6.59 19.44t7.27 21.81l8.8-26.71q25.37-73.38 30.09-96.72zM788.66 83a10.59 10.59 0 004.63 8.72c3.05 2.14 7.27 3.21 12.69 3.21h44.63v59.86q-28.07-2.37-44.63-2.71.33 62.9 2.7 126.82h-80.15q.33-39.9.34-125.8-7.1.33-24.35 1.69V94.92h24v-6.43q0-26.37 10.82-45a69.83 69.83 0 0129.93-28.07Q788.39 6 813.08 6a147.2 147.2 0 0140.24 5.75c-4.51 16.46-9 37.09-13.06 58.92l-2 10a42 42 0 00-16-8.85c-6-2-10.55-2-15.51-2a28.08 28.08 0 00-10.93 2.33 14.54 14.54 0 00-6.48 6.59 10.22 10.22 0 00-.68 4.26zm164.08 122.84q0 50.4.68 73h-79.81l.34-38.22q.67-62.89.68-97 0-32.48-.68-92l-.34-36.52h79.81q-.67 48-.68 78.46 0 33.81.34 50.05-.33 20.29-.34 62.23zM996.55 256q-27.22-26.55-27.22-69.84 0-42.25 27.22-68.65t85-26.37q38.89 0 65.1 12.68t38.77 34.18q12.51 21.47 12.52 48.18 0 43.63-28.92 70t-87.42 26.38q-57.82-.03-85.05-26.56zm119.21-41.43q10.82-10.47 10.82-28.07 0-16.56-10.82-27.22T1083 148.61q-22 0-32.13 10.48t-10.15 27.39q0 17.6 10.15 28.07T1083 225q21.94 0 32.76-10.45zM1400.87 213l26-118.49h67.3l-37.54 184.64h-90.29L1345 192.91l-24 86.23h-86.91L1196.55 94.5h67.3L1290.9 213l21.31-118.5h66.62z"/><path d="M522.7 513.42c-111.29 0-213.68-65.17-260.85-166l61.28-28.64a221.14 221.14 0 00199.57 127c85.68 0 164.74-49.93 201.41-127.22l61.11 29C737.41 448.32 634.36 513.42 522.7 513.42z" fill="#4050ff"/><path class="cls-1" d="M312.79 199.76c.69 5 2.34 11.86 11.1 19.11 7.28 6 18.59 9.79 31.7 9.79a65 65 0 0026.78-5.59 49.13 49.13 0 0020-15.76q22.69 11.19 60.33 24.06-10.51 23.73-38.13 37.8t-72 14.06q-57.63 0-85.25-26.6t-27.62-70q0-42.37 27.45-68.81t85.42-26.44q34.57 0 60 11.53t39 32a80.52 80.52 0 019.55 20 88.7 88.7 0 014 27v1s-152.34 16.74-152.33 16.85zm16.7-50.76c-7.24 4.29-12.38 8.83-15.26 17.63a16.66 16.66 0 00-.62 4.76s78.94-8.61 78.94-8.63c-.84-3.7-5.16-10.48-11.32-14.18-5-3-14.23-6-24-6q-16.9-.02-27.74 6.42z"/></svg>